M48
; DRILL file KiCad 10.0.3 date 2026-06-02T10:50:22
; FORMAT={-:-/ absolute / metric / decimal}
; #@! TF.CreationDate,2026-06-02T10:50:22-06:00
; #@! TF.GenerationSoftware,Kicad,Pcbnew,10.0.3
; #@! TF.FileFunction,Plated,1,2,PTH
FMAT,2
METRIC
; #@! TA.AperFunction,Plated,PTH,ViaDrill
T1C0.300
; #@! TA.AperFunction,Plated,PTH,ComponentDrill
T2C1.000
%
G90
G05
T1
X111.0Y-107.8
X111.4Y-117.8
X111.4Y-133.42
X113.4Y-108.7
X118.15Y-119.375
X121.1Y-105.2
X123.3Y-115.5
X124.0Y-111.1
X125.0Y-127.4
X125.55Y-118.225
X126.5Y-127.9
X126.8Y-116.9
X127.3Y-95.975
X127.3Y-104.4
X127.5Y-116.3
X128.125Y-114.5
X128.925Y-104.2
X130.15Y-114.175
X131.224Y-108.524
X131.649Y-107.846
X132.9Y-108.7
X134.5Y-118.185
T2
X102.0Y-85.16
X102.0Y-87.7
X102.0Y-90.24
X102.0Y-92.78
X102.0Y-95.32
X102.0Y-97.86
X102.0Y-100.4
X102.0Y-102.94
X102.0Y-105.48
X102.0Y-108.02
X102.0Y-110.56
X102.0Y-113.1
X102.0Y-115.64
X102.0Y-118.18
X102.0Y-120.72
X102.0Y-123.26
X102.0Y-125.8
X102.0Y-128.34
X102.0Y-130.88
X102.0Y-133.42
X102.0Y-138.5
X104.54Y-138.5
X107.08Y-138.5
X109.62Y-138.5
X112.16Y-138.5
X114.7Y-138.5
X117.24Y-138.5
X119.78Y-138.5
X122.32Y-138.5
X124.86Y-138.5
X127.4Y-138.5
X129.94Y-138.5
X132.48Y-138.5
X135.02Y-138.5
X137.56Y-138.5
X140.1Y-138.5
X142.64Y-138.5
X145.18Y-138.5
X147.72Y-138.5
X150.26Y-85.165
X150.26Y-87.705
X150.26Y-90.245
X150.26Y-92.785
X150.26Y-95.325
X150.26Y-97.865
X150.26Y-100.405
X150.26Y-102.945
X150.26Y-105.485
X150.26Y-108.025
X150.26Y-110.565
X150.26Y-113.105
X150.26Y-115.645
X150.26Y-118.185
X150.26Y-120.725
X150.26Y-123.265
X150.26Y-125.805
X150.26Y-128.345
X150.26Y-130.885
X150.26Y-133.425
X150.26Y-138.5
M30
