%TF.GenerationSoftware,KiCad,Pcbnew,10.0.3*%
%TF.CreationDate,2026-06-02T10:50:19-06:00*%
%TF.ProjectId,rp2040-target,72703230-3430-42d7-9461-726765742e6b,rev?*%
%TF.SameCoordinates,Original*%
%TF.FileFunction,Copper,L2,Bot*%
%TF.FilePolarity,Positive*%
%FSLAX46Y46*%
G04 Gerber Fmt 4.6, Leading zero omitted, Abs format (unit mm)*
G04 Created by KiCad (PCBNEW 10.0.3) date 2026-06-02 10:50:19*
%MOMM*%
%LPD*%
G01*
G04 APERTURE LIST*
%TA.AperFunction,ComponentPad*%
%ADD10R,1.700000X1.700000*%
%TD*%
%TA.AperFunction,ComponentPad*%
%ADD11C,1.700000*%
%TD*%
%TA.AperFunction,ViaPad*%
%ADD12C,0.600000*%
%TD*%
%TA.AperFunction,Conductor*%
%ADD13C,1.000000*%
%TD*%
%TA.AperFunction,Conductor*%
%ADD14C,0.200000*%
%TD*%
G04 APERTURE END LIST*
D10*
%TO.P,Y1,1,SPARE_1*%
%TO.N,unconnected-(Y1-SPARE-Pad1)*%
X102000000Y-85160000D03*
D11*
%TO.P,Y1,2,GND_2*%
%TO.N,unconnected-(Y1-GND-Pad2)*%
X102000000Y-87700000D03*
%TO.P,Y1,3,CLKIN_3*%
%TO.N,/XIN*%
X102000000Y-90240000D03*
%TO.P,Y1,4,GND_4*%
%TO.N,GND*%
X102000000Y-92780000D03*
%TO.P,Y1,5,CLKFB_5*%
%TO.N,unconnected-(Y1-CLKFB-Pad5)*%
X102000000Y-95320000D03*
%TO.P,Y1,6,GND_6*%
%TO.N,GND*%
X102000000Y-97860000D03*
%TO.P,Y1,7,GPIO1/TX_7*%
%TO.N,/RP2040/GPIO1{slash}TX*%
X102000000Y-100400000D03*
%TO.P,Y1,8,GPIO2/RX_8*%
%TO.N,/RP2040/GPIO2{slash}RX*%
X102000000Y-102940000D03*
%TO.P,Y1,9,GPIO3_9*%
%TO.N,/RP2040/GPIO3*%
X102000000Y-105480000D03*
%TO.P,Y1,10,GPIO4/TRIG_10*%
%TO.N,/RP2040/GPIO4{slash}TRIGGER*%
X102000000Y-108020000D03*
%TO.P,Y1,11,nRST_11*%
%TO.N,/RP2040/~{RST}*%
X102000000Y-110560000D03*
%TO.P,Y1,12,SCK_12*%
%TO.N,unconnected-(Y1-SCK-Pad12)*%
X102000000Y-113100000D03*
%TO.P,Y1,13,MISO_13*%
%TO.N,unconnected-(Y1-MISO-Pad13)*%
X102000000Y-115640000D03*
%TO.P,Y1,14,MOSI_14*%
%TO.N,unconnected-(Y1-MOSI-Pad14)*%
X102000000Y-118180000D03*
%TO.P,Y1,15,GND_15*%
%TO.N,GND*%
X102000000Y-120720000D03*
%TO.P,Y1,16,GND_16*%
X102000000Y-123260000D03*
%TO.P,Y1,17,PDIC_17*%
%TO.N,/RP2040/SWCLK*%
X102000000Y-125800000D03*
%TO.P,Y1,18,PDID/CS_18*%
%TO.N,/RP2040/SWDIO*%
X102000000Y-128340000D03*
%TO.P,Y1,19,SPARE_19*%
%TO.N,unconnected-(Y1-SPARE-Pad19)*%
X102000000Y-130880000D03*
%TO.P,Y1,20,VREF_20*%
%TO.N,+3V3*%
X102000000Y-133420000D03*
D10*
%TO.P,Y1,21,GND_21*%
%TO.N,GND*%
X102000000Y-138500000D03*
D11*
%TO.P,Y1,22,J_TRST_22*%
%TO.N,unconnected-(Y1-J_TRST-Pad22)*%
X104540000Y-138500000D03*
%TO.P,Y1,23,J_TDI_23*%
%TO.N,unconnected-(Y1-J_TDI-Pad23)*%
X107080000Y-138500000D03*
%TO.P,Y1,24,J_TDO_24*%
%TO.N,unconnected-(Y1-J_TDO-Pad24)*%
X109620000Y-138500000D03*
%TO.P,Y1,25,J_TMS_25*%
%TO.N,unconnected-(Y1-J_TMS-Pad25)*%
X112160000Y-138500000D03*
%TO.P,Y1,26,J_TCK_26*%
%TO.N,unconnected-(Y1-J_TCK-Pad26)*%
X114700000Y-138500000D03*
%TO.P,Y1,27,J_VREF_27*%
%TO.N,unconnected-(Y1-J_VREF-Pad27)*%
X117240000Y-138500000D03*
%TO.P,Y1,28,nRST_28*%
%TO.N,unconnected-(Y1-nRST-Pad28)*%
X119780000Y-138500000D03*
%TO.P,Y1,29,GND_29*%
%TO.N,GND*%
X122320000Y-138500000D03*
%TO.P,Y1,30,GND_30*%
X124860000Y-138500000D03*
%TO.P,Y1,31,H1_31*%
%TO.N,unconnected-(Y1-H1-Pad31)*%
X127400000Y-138500000D03*
%TO.P,Y1,32,H2_32*%
%TO.N,unconnected-(Y1-H2-Pad32)*%
X129940000Y-138500000D03*
%TO.P,Y1,33,H3_33*%
%TO.N,unconnected-(Y1-H3-Pad33)*%
X132480000Y-138500000D03*
%TO.P,Y1,34,H4_34*%
%TO.N,unconnected-(Y1-H4-Pad34)*%
X135020000Y-138500000D03*
%TO.P,Y1,35,H5_35*%
%TO.N,unconnected-(Y1-H5-Pad35)*%
X137560000Y-138500000D03*
%TO.P,Y1,36,H6_36*%
%TO.N,unconnected-(Y1-H6-Pad36)*%
X140100000Y-138500000D03*
%TO.P,Y1,37,H7_37*%
%TO.N,unconnected-(Y1-H7-Pad37)*%
X142640000Y-138500000D03*
%TO.P,Y1,38,H8_38*%
%TO.N,unconnected-(Y1-H8-Pad38)*%
X145180000Y-138500000D03*
%TO.P,Y1,39,H9_39*%
%TO.N,unconnected-(Y1-H9-Pad39)*%
X147720000Y-138500000D03*
%TO.P,Y1,40,H10_40*%
%TO.N,unconnected-(Y1-H10-Pad40)*%
X150260000Y-138500000D03*
D10*
%TO.P,Y1,41,GND_41*%
%TO.N,GND*%
X150260000Y-85165000D03*
D11*
%TO.P,Y1,42,SHUNTL_42*%
%TO.N,/RP2040/SHUNTL*%
X150260000Y-87705000D03*
%TO.P,Y1,43,SHUNTH_43*%
%TO.N,unconnected-(Y1-SHUNTH-Pad43)*%
X150260000Y-90245000D03*
%TO.P,Y1,44,GND_44*%
%TO.N,GND*%
X150260000Y-92785000D03*
%TO.P,Y1,45,FILT_LP_45*%
%TO.N,unconnected-(Y1-FILT_LP-Pad45)*%
X150260000Y-95325000D03*
%TO.P,Y1,46,FILT_HP_46*%
%TO.N,unconnected-(Y1-FILT_HP-Pad46)*%
X150260000Y-97865000D03*
%TO.P,Y1,47,GND_47*%
%TO.N,GND*%
X150260000Y-100405000D03*
%TO.P,Y1,48,FILT_48*%
%TO.N,unconnected-(Y1-FILT-Pad48)*%
X150260000Y-102945000D03*
%TO.P,Y1,49,GND_49*%
%TO.N,GND*%
X150260000Y-105485000D03*
%TO.P,Y1,50,GND_50*%
X150260000Y-108025000D03*
%TO.P,Y1,51,VCC1.2_51*%
%TO.N,unconnected-(Y1-VCC1.2-Pad51)*%
X150260000Y-110565000D03*
%TO.P,Y1,52,VCC1.8_52*%
%TO.N,unconnected-(Y1-VCC1.8-Pad52)*%
X150260000Y-113105000D03*
%TO.P,Y1,53,VCC2.5_53*%
%TO.N,unconnected-(Y1-VCC2.5-Pad53)*%
X150260000Y-115645000D03*
%TO.P,Y1,54,VCC3.3_54*%
%TO.N,+3V3*%
X150260000Y-118185000D03*
%TO.P,Y1,55,VCC5.0_55*%
%TO.N,unconnected-(Y1-VCC5.0-Pad55)*%
X150260000Y-120725000D03*
%TO.P,Y1,56,GND_56*%
%TO.N,unconnected-(Y1-GND-Pad56)*%
X150260000Y-123265000D03*
%TO.P,Y1,57,GND_57*%
%TO.N,unconnected-(Y1-GND-Pad57)*%
X150260000Y-125805000D03*
%TO.P,Y1,58,LED1_58*%
%TO.N,/RP2040/LED1*%
X150260000Y-128345000D03*
%TO.P,Y1,59,LED2_59*%
%TO.N,/RP2040/LED2*%
X150260000Y-130885000D03*
%TO.P,Y1,60,LED3_60*%
%TO.N,/RP2040/LED3*%
X150260000Y-133425000D03*
%TD*%
D12*
%TO.N,GND*%
X130150000Y-114175000D03*
X124000000Y-111100000D03*
X132900000Y-108700000D03*
%TO.N,+3V3*%
X125550000Y-118225000D03*
X127300000Y-104400000D03*
X134500000Y-118185000D03*
X127300000Y-95975000D03*
X111400000Y-133420000D03*
X121100000Y-105200000D03*
X118150000Y-119375000D03*
X128925000Y-104200000D03*
%TO.N,Net-(U3-RUN)*%
X128125000Y-114500000D03*
X111400000Y-117800000D03*
%TO.N,/RP2040/LED2*%
X126500000Y-127900000D03*
%TO.N,/RP2040/LED3*%
X125000000Y-127400000D03*
%TO.N,/XIN*%
X123300000Y-115500000D03*
%TO.N,/RP2040/SWCLK*%
X126800000Y-116900000D03*
%TO.N,/RP2040/SWDIO*%
X127500000Y-116300000D03*
%TO.N,/RP2040/GPIO3*%
X111000000Y-107800000D03*
X131224265Y-108524265D03*
%TO.N,/RP2040/GPIO4{slash}TRIGGER*%
X131649237Y-107846472D03*
X113400000Y-108700000D03*
%TD*%
%TO.N,+3V3*%
D13*
X111400000Y-133420000D02*
X102000000Y-133420000D01*
X131415000Y-118185000D02*
X133600000Y-118185000D01*
D14*
X127000000Y-104700000D02*
X127300000Y-104400000D01*
X118875000Y-120100000D02*
X118150000Y-119375000D01*
X121100000Y-105200000D02*
X121600000Y-104700000D01*
D13*
X116180000Y-133420000D02*
X126050000Y-123550000D01*
D14*
X127300000Y-95975000D02*
X127300000Y-104400000D01*
D13*
X134500000Y-118185000D02*
X150260000Y-118185000D01*
D14*
X127300000Y-104400000D02*
X128725000Y-104400000D01*
D13*
X116180000Y-133420000D02*
X111400000Y-133420000D01*
D14*
X121600000Y-104700000D02*
X127000000Y-104700000D01*
X128725000Y-104400000D02*
X128925000Y-104200000D01*
X125550000Y-118225000D02*
X123675000Y-120100000D01*
D13*
X133600000Y-118185000D02*
X134500000Y-118185000D01*
X126050000Y-123550000D02*
X131415000Y-118185000D01*
D14*
X123675000Y-120100000D02*
X118875000Y-120100000D01*
%TO.N,Net-(U3-RUN)*%
X123800000Y-117800000D02*
X127100000Y-114500000D01*
X127100000Y-114500000D02*
X128125000Y-114500000D01*
X111400000Y-117800000D02*
X123800000Y-117800000D01*
%TO.N,/RP2040/LED2*%
X126500000Y-127900000D02*
X126600000Y-128000000D01*
X129385000Y-130885000D02*
X150260000Y-130885000D01*
X126600000Y-128000000D02*
X126600000Y-128100000D01*
X126600000Y-128100000D02*
X129385000Y-130885000D01*
%TO.N,/RP2040/LED3*%
X125000000Y-127400000D02*
X125000000Y-127500000D01*
X130925000Y-133425000D02*
X150260000Y-133425000D01*
X125000000Y-127500000D02*
X130925000Y-133425000D01*
%TO.N,/XIN*%
X110000000Y-98240000D02*
X102000000Y-90240000D01*
X110000000Y-109500000D02*
X110000000Y-98240000D01*
X123300000Y-115500000D02*
X116000000Y-115500000D01*
X116000000Y-115500000D02*
X110000000Y-109500000D01*
%TO.N,/RP2040/SWCLK*%
X119500000Y-125800000D02*
X102000000Y-125800000D01*
X126800000Y-118500000D02*
X119500000Y-125800000D01*
X126800000Y-116900000D02*
X126800000Y-118500000D01*
%TO.N,/RP2040/SWDIO*%
X127500000Y-118500000D02*
X127500000Y-116300000D01*
X117660000Y-128340000D02*
X102000000Y-128340000D01*
X117660000Y-128340000D02*
X127500000Y-118500000D01*
%TO.N,/RP2040/GPIO3*%
X131224265Y-108524265D02*
X131224265Y-108675735D01*
X131224265Y-108675735D02*
X130600000Y-109300000D01*
X112500000Y-109300000D02*
X111000000Y-107800000D01*
X130600000Y-109300000D02*
X112500000Y-109300000D01*
%TO.N,/RP2040/GPIO4{slash}TRIGGER*%
X130200000Y-108700000D02*
X113400000Y-108700000D01*
X131053528Y-107846472D02*
X131649237Y-107846472D01*
X130200000Y-108700000D02*
X131053528Y-107846472D01*
%TD*%
%TA.AperFunction,Conductor*%
%TO.N,GND*%
G36*
X151742539Y-76520185D02*
G01*
X151788294Y-76572989D01*
X151799500Y-76624500D01*
X151799500Y-84045569D01*
X151779815Y-84112608D01*
X151727011Y-84158363D01*
X151657853Y-84168307D01*
X151594297Y-84139282D01*
X151559319Y-84088903D01*
X151553356Y-84072917D01*
X151553350Y-84072906D01*
X151467190Y-83957812D01*
X151467187Y-83957809D01*
X151352093Y-83871649D01*
X151352086Y-83871645D01*
X151217379Y-83821403D01*
X151217372Y-83821401D01*
X151157844Y-83815000D01*
X150510000Y-83815000D01*
X150510000Y-84731988D01*
X150452993Y-84699075D01*
X150325826Y-84665000D01*
X150194174Y-84665000D01*
X150067007Y-84699075D01*
X150010000Y-84731988D01*
X150010000Y-83815000D01*
X149362155Y-83815000D01*
X149302627Y-83821401D01*
X149302620Y-83821403D01*
X149167913Y-83871645D01*
X149167906Y-83871649D01*
X149052812Y-83957809D01*
X149052809Y-83957812D01*
X148966649Y-84072906D01*
X148966645Y-84072913D01*
X148916403Y-84207620D01*
X148916401Y-84207627D01*
X148910000Y-84267155D01*
X148910000Y-84915000D01*
X149826988Y-84915000D01*
X149794075Y-84972007D01*
X149760000Y-85099174D01*
X149760000Y-85230826D01*
X149794075Y-85357993D01*
X149826988Y-85415000D01*
X148910000Y-85415000D01*
X148910000Y-86062844D01*
X148916401Y-86122372D01*
X148916403Y-86122379D01*
X148966645Y-86257086D01*
X148966649Y-86257093D01*
X149052809Y-86372187D01*
X149052812Y-86372190D01*
X149167906Y-86458350D01*
X149167913Y-86458354D01*
X149302620Y-86508596D01*
X149302627Y-86508598D01*
X149362155Y-86514999D01*
X149362172Y-86515000D01*
X149764435Y-86515000D01*
X149831474Y-86534685D01*
X149877229Y-86587489D01*
X149887173Y-86656647D01*
X149858148Y-86720203D01*
X149811888Y-86753561D01*
X149762403Y-86774058D01*
X149590342Y-86889024D01*
X149444024Y-87035342D01*
X149329058Y-87207403D01*
X149249870Y-87398579D01*
X149249868Y-87398587D01*
X149209500Y-87601530D01*
X149209500Y-87808469D01*
X149249868Y-88011412D01*
X149249870Y-88011420D01*
X149329058Y-88202596D01*
X149444024Y-88374657D01*
X149590342Y-88520975D01*
X149590345Y-88520977D01*
X149762402Y-88635941D01*
X149953580Y-88715130D01*
X150131393Y-88750499D01*
X150156530Y-88755499D01*
X150156534Y-88755500D01*
X150156535Y-88755500D01*
X150363466Y-88755500D01*
X150363467Y-88755499D01*
X150566420Y-88715130D01*
X150757598Y-88635941D01*
X150929655Y-88520977D01*
X151075977Y-88374655D01*
X151190941Y-88202598D01*
X151270130Y-88011420D01*
X151310500Y-87808465D01*
X151310500Y-87601535D01*
X151270130Y-87398580D01*
X151190941Y-87207402D01*
X151075977Y-87035345D01*
X151075975Y-87035342D01*
X150929657Y-86889024D01*
X150843626Y-86831541D01*
X150757598Y-86774059D01*
X150708112Y-86753561D01*
X150653709Y-86709720D01*
X150631644Y-86643426D01*
X150648923Y-86575726D01*
X150700061Y-86528116D01*
X150755565Y-86515000D01*
X151157828Y-86515000D01*
X151157844Y-86514999D01*
X151217372Y-86508598D01*
X151217379Y-86508596D01*
X151352086Y-86458354D01*
X151352093Y-86458350D01*
X151467187Y-86372190D01*
X151467190Y-86372187D01*
X151553350Y-86257093D01*
X151553354Y-86257086D01*
X151559318Y-86241097D01*
X151601189Y-86185163D01*
X151666653Y-86160746D01*
X151734926Y-86175597D01*
X151784332Y-86225002D01*
X151799500Y-86284430D01*
X151799500Y-92371496D01*
X151779815Y-92438535D01*
X151727011Y-92484290D01*
X151657853Y-92494234D01*
X151594297Y-92465209D01*
X151557569Y-92409814D01*
X151511095Y-92266782D01*
X151414624Y-92077449D01*
X151375270Y-92023282D01*
X151375269Y-92023282D01*
X150742962Y-92655590D01*
X150725925Y-92592007D01*
X150660099Y-92477993D01*
X150567007Y-92384901D01*
X150452993Y-92319075D01*
X150389409Y-92302037D01*
X151021716Y-91669728D01*
X150967550Y-91630375D01*
X150778216Y-91533904D01*
X150602026Y-91476656D01*
X150544350Y-91437218D01*
X150517152Y-91372860D01*
X150529067Y-91304013D01*
X150576311Y-91252538D01*
X150592882Y-91244168D01*
X150757598Y-91175941D01*
X150929655Y-91060977D01*
X151075977Y-90914655D01*
X151190941Y-90742598D01*
X151270130Y-90551420D01*
X151310500Y-90348465D01*
X151310500Y-90141535D01*
X151270130Y-89938580D01*
X151190941Y-89747402D01*
X151075977Y-89575345D01*
X151075975Y-89575342D01*
X150929657Y-89429024D01*
X150843626Y-89371541D01*
X150757598Y-89314059D01*
X150566420Y-89234870D01*
X150566412Y-89234868D01*
X150363469Y-89194500D01*
X150363465Y-89194500D01*
X150156535Y-89194500D01*
X150156530Y-89194500D01*
X149953587Y-89234868D01*
X149953579Y-89234870D01*
X149762403Y-89314058D01*
X149590342Y-89429024D01*
X149444024Y-89575342D01*
X149329058Y-89747403D01*
X149249870Y-89938579D01*
X149249868Y-89938587D01*
X149209500Y-90141530D01*
X149209500Y-90348469D01*
X149249868Y-90551412D01*
X149249870Y-90551420D01*
X149329058Y-90742596D01*
X149444024Y-90914657D01*
X149590342Y-91060975D01*
X149762405Y-91175943D01*
X149865043Y-91218456D01*
X149927108Y-91244164D01*
X149981511Y-91288005D01*
X150003576Y-91354299D01*
X149986297Y-91421998D01*
X149935160Y-91469609D01*
X149917974Y-91476656D01*
X149741781Y-91533905D01*
X149552439Y-91630380D01*
X149498282Y-91669727D01*
X149498282Y-91669728D01*
X150130591Y-92302037D01*
X150067007Y-92319075D01*
X149952993Y-92384901D01*
X149859901Y-92477993D01*
X149794075Y-92592007D01*
X149777037Y-92655591D01*
X149144728Y-92023282D01*
X149144727Y-92023282D01*
X149105380Y-92077439D01*
X149008904Y-92266782D01*
X148943242Y-92468869D01*
X148943242Y-92468872D01*
X148910000Y-92678753D01*
X148910000Y-92891246D01*
X148943242Y-93101127D01*
X148943242Y-93101130D01*
X149008904Y-93303217D01*
X149105375Y-93492550D01*
X149144728Y-93546716D01*
X149777036Y-92914407D01*
X149794075Y-92977993D01*
X149859901Y-93092007D01*
X149952993Y-93185099D01*
X150067007Y-93250925D01*
X150130590Y-93267962D01*
X149498282Y-93900269D01*
X149498282Y-93900270D01*
X149552449Y-93939624D01*
X149741782Y-94036095D01*
X149917973Y-94093343D01*
X149975648Y-94132780D01*
X150002847Y-94197139D01*
X149990932Y-94265985D01*
X149943688Y-94317461D01*
X149927108Y-94325835D01*
X149762403Y-94394057D01*
X149590342Y-94509024D01*
X149444024Y-94655342D01*
X149329058Y-94827403D01*
X149249870Y-95018579D01*
X149249868Y-95018587D01*
X149209500Y-95221530D01*
X149209500Y-95428469D01*
X149249868Y-95631412D01*
X149249870Y-95631420D01*
X149329058Y-95822596D01*
X149444024Y-95994657D01*
X149590342Y-96140975D01*
X149590345Y-96140977D01*
X149762402Y-96255941D01*
X149953580Y-96335130D01*
X150131398Y-96370500D01*
X150156530Y-96375499D01*
X150156534Y-96375500D01*
X150156535Y-96375500D01*
X150363466Y-96375500D01*
X150363467Y-96375499D01*
X150566420Y-96335130D01*
X150757598Y-96255941D01*
X150929655Y-96140977D01*
X151075977Y-95994655D01*
X151190941Y-95822598D01*
X151270130Y-95631420D01*
X151310500Y-95428465D01*
X151310500Y-95221535D01*
X151270130Y-95018580D01*
X151190941Y-94827402D01*
X151075977Y-94655345D01*
X151075975Y-94655342D01*
X150929657Y-94509024D01*
X150843626Y-94451541D01*
X150757598Y-94394059D01*
X150757593Y-94394057D01*
X150695891Y-94368499D01*
X150592890Y-94325834D01*
X150538488Y-94281994D01*
X150516423Y-94215700D01*
X150533702Y-94148001D01*
X150584839Y-94100390D01*
X150602026Y-94093343D01*
X150778217Y-94036095D01*
X150967554Y-93939622D01*
X151021716Y-93900270D01*
X151021717Y-93900270D01*
X150389408Y-93267962D01*
X150452993Y-93250925D01*
X150567007Y-93185099D01*
X150660099Y-93092007D01*
X150725925Y-92977993D01*
X150742962Y-92914408D01*
X151375270Y-93546717D01*
X151375270Y-93546716D01*
X151414622Y-93492554D01*
X151511095Y-93303217D01*
X151557569Y-93160185D01*
X151597006Y-93102510D01*
X151661365Y-93075311D01*
X151730211Y-93087225D01*
X151781687Y-93134469D01*
X151799500Y-93198503D01*
X151799500Y-99991496D01*
X151779815Y-100058535D01*
X151727011Y-100104290D01*
X151657853Y-100114234D01*
X151594297Y-100085209D01*
X151557569Y-100029814D01*
X151511095Y-99886782D01*
X151414624Y-99697449D01*
X151375270Y-99643282D01*
X151375269Y-99643282D01*
X150742962Y-100275590D01*
X150725925Y-100212007D01*
X150660099Y-100097993D01*
X150567007Y-100004901D01*
X150452993Y-99939075D01*
X150389409Y-99922037D01*
X151021716Y-99289728D01*
X150967550Y-99250375D01*
X150778216Y-99153904D01*
X150602026Y-99096656D01*
X150544350Y-99057218D01*
X150517152Y-98992860D01*
X150529067Y-98924013D01*
X150576311Y-98872538D01*
X150592882Y-98864168D01*
X150757598Y-98795941D01*
X150929655Y-98680977D01*
X151075977Y-98534655D01*
X151190941Y-98362598D01*
X151270130Y-98171420D01*
X151310500Y-97968465D01*
X151310500Y-97761535D01*
X151270130Y-97558580D01*
X151190941Y-97367402D01*
X151075977Y-97195345D01*
X151075975Y-97195342D01*
X150929657Y-97049024D01*
X150843626Y-96991541D01*
X150757598Y-96934059D01*
X150566420Y-96854870D01*
X150566412Y-96854868D01*
X150363469Y-96814500D01*
X150363465Y-96814500D01*
X150156535Y-96814500D01*
X150156530Y-96814500D01*
X149953587Y-96854868D01*
X149953579Y-96854870D01*
X149762403Y-96934058D01*
X149590342Y-97049024D01*
X149444024Y-97195342D01*
X149329058Y-97367403D01*
X149249870Y-97558579D01*
X149249868Y-97558587D01*
X149209500Y-97761530D01*
X149209500Y-97968469D01*
X149248992Y-98167007D01*
X149249870Y-98171420D01*
X149329059Y-98362598D01*
X149339495Y-98378217D01*
X149444024Y-98534657D01*
X149590342Y-98680975D01*
X149762405Y-98795943D01*
X149865043Y-98838456D01*
X149927108Y-98864164D01*
X149981511Y-98908005D01*
X150003576Y-98974299D01*
X149986297Y-99041998D01*
X149935160Y-99089609D01*
X149917974Y-99096656D01*
X149741781Y-99153905D01*
X149552439Y-99250380D01*
X149498282Y-99289727D01*
X149498282Y-99289728D01*
X150130591Y-99922037D01*
X150067007Y-99939075D01*
X149952993Y-100004901D01*
X149859901Y-100097993D01*
X149794075Y-100212007D01*
X149777037Y-100275591D01*
X149144728Y-99643282D01*
X149144727Y-99643282D01*
X149105380Y-99697439D01*
X149008904Y-99886782D01*
X148943242Y-100088869D01*
X148943242Y-100088872D01*
X148910000Y-100298753D01*
X148910000Y-100511246D01*
X148943242Y-100721127D01*
X148943242Y-100721130D01*
X149008904Y-100923217D01*
X149105375Y-101112550D01*
X149144728Y-101166716D01*
X149777036Y-100534407D01*
X149794075Y-100597993D01*
X149859901Y-100712007D01*
X149952993Y-100805099D01*
X150067007Y-100870925D01*
X150130590Y-100887962D01*
X149498282Y-101520269D01*
X149498282Y-101520270D01*
X149552449Y-101559624D01*
X149741782Y-101656095D01*
X149917973Y-101713343D01*
X149975648Y-101752780D01*
X150002847Y-101817139D01*
X149990932Y-101885985D01*
X149943688Y-101937461D01*
X149927108Y-101945835D01*
X149762403Y-102014057D01*
X149590342Y-102129024D01*
X149444024Y-102275342D01*
X149329058Y-102447403D01*
X149249870Y-102638579D01*
X149249868Y-102638587D01*
X149209500Y-102841530D01*
X149209500Y-103048469D01*
X149249868Y-103251412D01*
X149249870Y-103251420D01*
X149329058Y-103442596D01*
X149444024Y-103614657D01*
X149590342Y-103760975D01*
X149762405Y-103875943D01*
X149865043Y-103918456D01*
X149927108Y-103944164D01*
X149981511Y-103988005D01*
X150003576Y-104054299D01*
X149986297Y-104121998D01*
X149935160Y-104169609D01*
X149917974Y-104176656D01*
X149741781Y-104233905D01*
X149552439Y-104330380D01*
X149498282Y-104369727D01*
X149498282Y-104369728D01*
X150130591Y-105002037D01*
X150067007Y-105019075D01*
X149952993Y-105084901D01*
X149859901Y-105177993D01*
X149794075Y-105292007D01*
X149777037Y-105355591D01*
X149144728Y-104723282D01*
X149144727Y-104723282D01*
X149105380Y-104777439D01*
X149008904Y-104966782D01*
X148943242Y-105168869D01*
X148943242Y-105168872D01*
X148910000Y-105378753D01*
X148910000Y-105591246D01*
X148943242Y-105801127D01*
X148943242Y-105801130D01*
X149008904Y-106003217D01*
X149105375Y-106192550D01*
X149144728Y-106246716D01*
X149777036Y-105614407D01*
X149794075Y-105677993D01*
X149859901Y-105792007D01*
X149952993Y-105885099D01*
X150067007Y-105950925D01*
X150130591Y-105967962D01*
X149529971Y-106568581D01*
X149608711Y-106685895D01*
X149609920Y-106689729D01*
X149612844Y-106692491D01*
X149620343Y-106722778D01*
X149629727Y-106752529D01*
X149628671Y-106756408D01*
X149629638Y-106760312D01*
X149619573Y-106789844D01*
X149611383Y-106819947D01*
X149608397Y-106822640D01*
X149607100Y-106826447D01*
X149562051Y-106865483D01*
X149552440Y-106870380D01*
X149498282Y-106909727D01*
X149498282Y-106909728D01*
X150130591Y-107542037D01*
X150067007Y-107559075D01*
X149952993Y-107624901D01*
X149859901Y-107717993D01*
X149794075Y-107832007D01*
X149777037Y-107895591D01*
X149144728Y-107263282D01*
X149144727Y-107263282D01*
X149105380Y-107317439D01*
X149008904Y-107506782D01*
X148943242Y-107708869D01*
X148943242Y-107708872D01*
X148910000Y-107918753D01*
X148910000Y-108131246D01*
X148943242Y-108341127D01*
X148943242Y-108341130D01*
X149008904Y-108543217D01*
X149105375Y-108732550D01*
X149144728Y-108786716D01*
X149777036Y-108154407D01*
X149794075Y-108217993D01*
X149859901Y-108332007D01*
X149952993Y-108425099D01*
X150067007Y-108490925D01*
X150130590Y-108507962D01*
X149498282Y-109140269D01*
X149498282Y-109140270D01*
X149552449Y-109179624D01*
X149741782Y-109276095D01*
X149917973Y-109333343D01*
X149975648Y-109372780D01*
X150002847Y-109437139D01*
X149990932Y-109505985D01*
X149943688Y-109557461D01*
X149927108Y-109565835D01*
X149762403Y-109634057D01*
X149590342Y-109749024D01*
X149444024Y-109895342D01*
X149329058Y-110067403D01*
X149249870Y-110258579D01*
X149249868Y-110258587D01*
X149209500Y-110461530D01*
X149209500Y-110668469D01*
X149249868Y-110871412D01*
X149249870Y-110871420D01*
X149329058Y-111062596D01*
X149444024Y-111234657D01*
X149590342Y-111380975D01*
X149590345Y-111380977D01*
X149762402Y-111495941D01*
X149953580Y-111575130D01*
X150131393Y-111610499D01*
X150156530Y-111615499D01*
X150156534Y-111615500D01*
X150156535Y-111615500D01*
X150363466Y-111615500D01*
X150363467Y-111615499D01*
X150566420Y-111575130D01*
X150757598Y-111495941D01*
X150929655Y-111380977D01*
X151075977Y-111234655D01*
X151190941Y-111062598D01*
X151270130Y-110871420D01*
X151310500Y-110668465D01*
X151310500Y-110461535D01*
X151270130Y-110258580D01*
X151190941Y-110067402D01*
X151075977Y-109895345D01*
X151075975Y-109895342D01*
X150929657Y-109749024D01*
X150833102Y-109684509D01*
X150757598Y-109634059D01*
X150757593Y-109634057D01*
X150676580Y-109600500D01*
X150592890Y-109565834D01*
X150538488Y-109521994D01*
X150516423Y-109455700D01*
X150533702Y-109388001D01*
X150584839Y-109340390D01*
X150602026Y-109333343D01*
X150778217Y-109276095D01*
X150967554Y-109179622D01*
X151021716Y-109140270D01*
X151021717Y-109140270D01*
X150389408Y-108507962D01*
X150452993Y-108490925D01*
X150567007Y-108425099D01*
X150660099Y-108332007D01*
X150725925Y-108217993D01*
X150742962Y-108154408D01*
X151375270Y-108786717D01*
X151375270Y-108786716D01*
X151414622Y-108732554D01*
X151511095Y-108543217D01*
X151557569Y-108400185D01*
X151597006Y-108342510D01*
X151661365Y-108315311D01*
X151730211Y-108327225D01*
X151781687Y-108374469D01*
X151799500Y-108438503D01*
X151799500Y-139875500D01*
X151779815Y-139942539D01*
X151727011Y-139988294D01*
X151675500Y-139999500D01*
X125396612Y-139999500D01*
X125329573Y-139979815D01*
X125283818Y-139927011D01*
X125273874Y-139857853D01*
X125302899Y-139794297D01*
X125358294Y-139757569D01*
X125378217Y-139751095D01*
X125567554Y-139654622D01*
X125621716Y-139615270D01*
X125621717Y-139615270D01*
X124989408Y-138982962D01*
X125052993Y-138965925D01*
X125167007Y-138900099D01*
X125260099Y-138807007D01*
X125325925Y-138692993D01*
X125342962Y-138629408D01*
X125975270Y-139261717D01*
X125975270Y-139261716D01*
X126014622Y-139207554D01*
X126111095Y-139018217D01*
X126168343Y-138842026D01*
X126207780Y-138784351D01*
X126272139Y-138757152D01*
X126340985Y-138769066D01*
X126392461Y-138816310D01*
X126400833Y-138832887D01*
X126428673Y-138900099D01*
X126455939Y-138965925D01*
X126469059Y-138997598D01*
X126482836Y-139018217D01*
X126584024Y-139169657D01*
X126730342Y-139315975D01*
X126730345Y-139315977D01*
X126902402Y-139430941D01*
X127093580Y-139510130D01*
X127296530Y-139550499D01*
X127296534Y-139550500D01*
X127296535Y-139550500D01*
X127503466Y-139550500D01*
X127503467Y-139550499D01*
X127706420Y-139510130D01*
X127897598Y-139430941D01*
X128069655Y-139315977D01*
X128215977Y-139169655D01*
X128330941Y-138997598D01*
X128410130Y-138806420D01*
X128450500Y-138603465D01*
X128450500Y-138396535D01*
X128450499Y-138396530D01*
X128889500Y-138396530D01*
X128889500Y-138603469D01*
X128929868Y-138806412D01*
X128929870Y-138806420D01*
X128995939Y-138965925D01*
X129009059Y-138997598D01*
X129022836Y-139018217D01*
X129124024Y-139169657D01*
X129270342Y-139315975D01*
X129270345Y-139315977D01*
X129442402Y-139430941D01*
X129633580Y-139510130D01*
X129836530Y-139550499D01*
X129836534Y-139550500D01*
X129836535Y-139550500D01*
X130043466Y-139550500D01*
X130043467Y-139550499D01*
X130246420Y-139510130D01*
X130437598Y-139430941D01*
X130609655Y-139315977D01*
X130755977Y-139169655D01*
X130870941Y-138997598D01*
X130950130Y-138806420D01*
X130990500Y-138603465D01*
X130990500Y-138396535D01*
X130990499Y-138396530D01*
X131429500Y-138396530D01*
X131429500Y-138603469D01*
X131469868Y-138806412D01*
X131469870Y-138806420D01*
X131535939Y-138965925D01*
X131549059Y-138997598D01*
X131562836Y-139018217D01*
X131664024Y-139169657D01*
X131810342Y-139315975D01*
X131810345Y-139315977D01*
X131982402Y-139430941D01*
X132173580Y-139510130D01*
X132376530Y-139550499D01*
X132376534Y-139550500D01*
X132376535Y-139550500D01*
X132583466Y-139550500D01*
X132583467Y-139550499D01*
X132786420Y-139510130D01*
X132977598Y-139430941D01*
X133149655Y-139315977D01*
X133295977Y-139169655D01*
X133410941Y-138997598D01*
X133490130Y-138806420D01*
X133530500Y-138603465D01*
X133530500Y-138396535D01*
X133530499Y-138396530D01*
X133969500Y-138396530D01*
X133969500Y-138603469D01*
X134009868Y-138806412D01*
X134009870Y-138806420D01*
X134075939Y-138965925D01*
X134089059Y-138997598D01*
X134102836Y-139018217D01*
X134204024Y-139169657D01*
X134350342Y-139315975D01*
X134350345Y-139315977D01*
X134522402Y-139430941D01*
X134713580Y-139510130D01*
X134916530Y-139550499D01*
X134916534Y-139550500D01*
X134916535Y-139550500D01*
X135123466Y-139550500D01*
X135123467Y-139550499D01*
X135326420Y-139510130D01*
X135517598Y-139430941D01*
X135689655Y-139315977D01*
X135835977Y-139169655D01*
X135950941Y-138997598D01*
X136030130Y-138806420D01*
X136070500Y-138603465D01*
X136070500Y-138396535D01*
X136070499Y-138396530D01*
X136509500Y-138396530D01*
X136509500Y-138603469D01*
X136549868Y-138806412D01*
X136549870Y-138806420D01*
X136615939Y-138965925D01*
X136629059Y-138997598D01*
X136642836Y-139018217D01*
X136744024Y-139169657D01*
X136890342Y-139315975D01*
X136890345Y-139315977D01*
X137062402Y-139430941D01*
X137253580Y-139510130D01*
X137456530Y-139550499D01*
X137456534Y-139550500D01*
X137456535Y-139550500D01*
X137663466Y-139550500D01*
X137663467Y-139550499D01*
X137866420Y-139510130D01*
X138057598Y-139430941D01*
X138229655Y-139315977D01*
X138375977Y-139169655D01*
X138490941Y-138997598D01*
X138570130Y-138806420D01*
X138610500Y-138603465D01*
X138610500Y-138396535D01*
X138610499Y-138396530D01*
X139049500Y-138396530D01*
X139049500Y-138603469D01*
X139089868Y-138806412D01*
X139089870Y-138806420D01*
X139155939Y-138965925D01*
X139169059Y-138997598D01*
X139182836Y-139018217D01*
X139284024Y-139169657D01*
X139430342Y-139315975D01*
X139430345Y-139315977D01*
X139602402Y-139430941D01*
X139793580Y-139510130D01*
X139996530Y-139550499D01*
X139996534Y-139550500D01*
X139996535Y-139550500D01*
X140203466Y-139550500D01*
X140203467Y-139550499D01*
X140406420Y-139510130D01*
X140597598Y-139430941D01*
X140769655Y-139315977D01*
X140915977Y-139169655D01*
X141030941Y-138997598D01*
X141110130Y-138806420D01*
X141150500Y-138603465D01*
X141150500Y-138396535D01*
X141150499Y-138396530D01*
X141589500Y-138396530D01*
X141589500Y-138603469D01*
X141629868Y-138806412D01*
X141629870Y-138806420D01*
X141695939Y-138965925D01*
X141709059Y-138997598D01*
X141722836Y-139018217D01*
X141824024Y-139169657D01*
X141970342Y-139315975D01*
X141970345Y-139315977D01*
X142142402Y-139430941D01*
X142333580Y-139510130D01*
X142536530Y-139550499D01*
X142536534Y-139550500D01*
X142536535Y-139550500D01*
X142743466Y-139550500D01*
X142743467Y-139550499D01*
X142946420Y-139510130D01*
X143137598Y-139430941D01*
X143309655Y-139315977D01*
X143455977Y-139169655D01*
X143570941Y-138997598D01*
X143650130Y-138806420D01*
X143690500Y-138603465D01*
X143690500Y-138396535D01*
X143690499Y-138396530D01*
X144129500Y-138396530D01*
X144129500Y-138603469D01*
X144169868Y-138806412D01*
X144169870Y-138806420D01*
X144235939Y-138965925D01*
X144249059Y-138997598D01*
X144262836Y-139018217D01*
X144364024Y-139169657D01*
X144510342Y-139315975D01*
X144510345Y-139315977D01*
X144682402Y-139430941D01*
X144873580Y-139510130D01*
X145076530Y-139550499D01*
X145076534Y-139550500D01*
X145076535Y-139550500D01*
X145283466Y-139550500D01*
X145283467Y-139550499D01*
X145486420Y-139510130D01*
X145677598Y-139430941D01*
X145849655Y-139315977D01*
X145995977Y-139169655D01*
X146110941Y-138997598D01*
X146190130Y-138806420D01*
X146230500Y-138603465D01*
X146230500Y-138396535D01*
X146230499Y-138396530D01*
X146669500Y-138396530D01*
X146669500Y-138603469D01*
X146709868Y-138806412D01*
X146709870Y-138806420D01*
X146775939Y-138965925D01*
X146789059Y-138997598D01*
X146802836Y-139018217D01*
X146904024Y-139169657D01*
X147050342Y-139315975D01*
X147050345Y-139315977D01*
X147222402Y-139430941D01*
X147413580Y-139510130D01*
X147616530Y-139550499D01*
X147616534Y-139550500D01*
X147616535Y-139550500D01*
X147823466Y-139550500D01*
X147823467Y-139550499D01*
X148026420Y-139510130D01*
X148217598Y-139430941D01*
X148389655Y-139315977D01*
X148535977Y-139169655D01*
X148650941Y-138997598D01*
X148730130Y-138806420D01*
X148770500Y-138603465D01*
X148770500Y-138396535D01*
X148770499Y-138396530D01*
X149209500Y-138396530D01*
X149209500Y-138603469D01*
X149249868Y-138806412D01*
X149249870Y-138806420D01*
X149315939Y-138965925D01*
X149329059Y-138997598D01*
X149342836Y-139018217D01*
X149444024Y-139169657D01*
X149590342Y-139315975D01*
X149590345Y-139315977D01*
X149762402Y-139430941D01*
X149953580Y-139510130D01*
X150156530Y-139550499D01*
X150156534Y-139550500D01*
X150156535Y-139550500D01*
X150363466Y-139550500D01*
X150363467Y-139550499D01*
X150566420Y-139510130D01*
X150757598Y-139430941D01*
X150929655Y-139315977D01*
X151075977Y-139169655D01*
X151190941Y-138997598D01*
X151270130Y-138806420D01*
X151310500Y-138603465D01*
X151310500Y-138396535D01*
X151270130Y-138193580D01*
X151190941Y-138002402D01*
X151075977Y-137830345D01*
X151075975Y-137830342D01*
X150929657Y-137684024D01*
X150807130Y-137602155D01*
X150757598Y-137569059D01*
X150566420Y-137489870D01*
X150566412Y-137489868D01*
X150363469Y-137449500D01*
X150363465Y-137449500D01*
X150156535Y-137449500D01*
X150156530Y-137449500D01*
X149953587Y-137489868D01*
X149953579Y-137489870D01*
X149762403Y-137569058D01*
X149590342Y-137684024D01*
X149444024Y-137830342D01*
X149329058Y-138002403D01*
X149249870Y-138193579D01*
X149249868Y-138193587D01*
X149209500Y-138396530D01*
X148770499Y-138396530D01*
X148730130Y-138193580D01*
X148650941Y-138002402D01*
X148535977Y-137830345D01*
X148535975Y-137830342D01*
X148389657Y-137684024D01*
X148267130Y-137602155D01*
X148217598Y-137569059D01*
X148026420Y-137489870D01*
X148026412Y-137489868D01*
X147823469Y-137449500D01*
X147823465Y-137449500D01*
X147616535Y-137449500D01*
X147616530Y-137449500D01*
X147413587Y-137489868D01*
X147413579Y-137489870D01*
X147222403Y-137569058D01*
X147050342Y-137684024D01*
X146904024Y-137830342D01*
X146789058Y-138002403D01*
X146709870Y-138193579D01*
X146709868Y-138193587D01*
X146669500Y-138396530D01*
X146230499Y-138396530D01*
X146190130Y-138193580D01*
X146110941Y-138002402D01*
X145995977Y-137830345D01*
X145995975Y-137830342D01*
X145849657Y-137684024D01*
X145727130Y-137602155D01*
X145677598Y-137569059D01*
X145486420Y-137489870D01*
X145486412Y-137489868D01*
X145283469Y-137449500D01*
X145283465Y-137449500D01*
X145076535Y-137449500D01*
X145076530Y-137449500D01*
X144873587Y-137489868D01*
X144873579Y-137489870D01*
X144682403Y-137569058D01*
X144510342Y-137684024D01*
X144364024Y-137830342D01*
X144249058Y-138002403D01*
X144169870Y-138193579D01*
X144169868Y-138193587D01*
X144129500Y-138396530D01*
X143690499Y-138396530D01*
X143650130Y-138193580D01*
X143570941Y-138002402D01*
X143455977Y-137830345D01*
X143455975Y-137830342D01*
X143309657Y-137684024D01*
X143187130Y-137602155D01*
X143137598Y-137569059D01*
X142946420Y-137489870D01*
X142946412Y-137489868D01*
X142743469Y-137449500D01*
X142743465Y-137449500D01*
X142536535Y-137449500D01*
X142536530Y-137449500D01*
X142333587Y-137489868D01*
X142333579Y-137489870D01*
X142142403Y-137569058D01*
X141970342Y-137684024D01*
X141824024Y-137830342D01*
X141709058Y-138002403D01*
X141629870Y-138193579D01*
X141629868Y-138193587D01*
X141589500Y-138396530D01*
X141150499Y-138396530D01*
X141110130Y-138193580D01*
X141030941Y-138002402D01*
X140915977Y-137830345D01*
X140915975Y-137830342D01*
X140769657Y-137684024D01*
X140647130Y-137602155D01*
X140597598Y-137569059D01*
X140406420Y-137489870D01*
X140406412Y-137489868D01*
X140203469Y-137449500D01*
X140203465Y-137449500D01*
X139996535Y-137449500D01*
X139996530Y-137449500D01*
X139793587Y-137489868D01*
X139793579Y-137489870D01*
X139602403Y-137569058D01*
X139430342Y-137684024D01*
X139284024Y-137830342D01*
X139169058Y-138002403D01*
X139089870Y-138193579D01*
X139089868Y-138193587D01*
X139049500Y-138396530D01*
X138610499Y-138396530D01*
X138570130Y-138193580D01*
X138490941Y-138002402D01*
X138375977Y-137830345D01*
X138375975Y-137830342D01*
X138229657Y-137684024D01*
X138107130Y-137602155D01*
X138057598Y-137569059D01*
X137866420Y-137489870D01*
X137866412Y-137489868D01*
X137663469Y-137449500D01*
X137663465Y-137449500D01*
X137456535Y-137449500D01*
X137456530Y-137449500D01*
X137253587Y-137489868D01*
X137253579Y-137489870D01*
X137062403Y-137569058D01*
X136890342Y-137684024D01*
X136744024Y-137830342D01*
X136629058Y-138002403D01*
X136549870Y-138193579D01*
X136549868Y-138193587D01*
X136509500Y-138396530D01*
X136070499Y-138396530D01*
X136030130Y-138193580D01*
X135950941Y-138002402D01*
X135835977Y-137830345D01*
X135835975Y-137830342D01*
X135689657Y-137684024D01*
X135567130Y-137602155D01*
X135517598Y-137569059D01*
X135326420Y-137489870D01*
X135326412Y-137489868D01*
X135123469Y-137449500D01*
X135123465Y-137449500D01*
X134916535Y-137449500D01*
X134916530Y-137449500D01*
X134713587Y-137489868D01*
X134713579Y-137489870D01*
X134522403Y-137569058D01*
X134350342Y-137684024D01*
X134204024Y-137830342D01*
X134089058Y-138002403D01*
X134009870Y-138193579D01*
X134009868Y-138193587D01*
X133969500Y-138396530D01*
X133530499Y-138396530D01*
X133490130Y-138193580D01*
X133410941Y-138002402D01*
X133295977Y-137830345D01*
X133295975Y-137830342D01*
X133149657Y-137684024D01*
X133027130Y-137602155D01*
X132977598Y-137569059D01*
X132786420Y-137489870D01*
X132786412Y-137489868D01*
X132583469Y-137449500D01*
X132583465Y-137449500D01*
X132376535Y-137449500D01*
X132376530Y-137449500D01*
X132173587Y-137489868D01*
X132173579Y-137489870D01*
X131982403Y-137569058D01*
X131810342Y-137684024D01*
X131664024Y-137830342D01*
X131549058Y-138002403D01*
X131469870Y-138193579D01*
X131469868Y-138193587D01*
X131429500Y-138396530D01*
X130990499Y-138396530D01*
X130950130Y-138193580D01*
X130870941Y-138002402D01*
X130755977Y-137830345D01*
X130755975Y-137830342D01*
X130609657Y-137684024D01*
X130487130Y-137602155D01*
X130437598Y-137569059D01*
X130246420Y-137489870D01*
X130246412Y-137489868D01*
X130043469Y-137449500D01*
X130043465Y-137449500D01*
X129836535Y-137449500D01*
X129836530Y-137449500D01*
X129633587Y-137489868D01*
X129633579Y-137489870D01*
X129442403Y-137569058D01*
X129270342Y-137684024D01*
X129124024Y-137830342D01*
X129009058Y-138002403D01*
X128929870Y-138193579D01*
X128929868Y-138193587D01*
X128889500Y-138396530D01*
X128450499Y-138396530D01*
X128410130Y-138193580D01*
X128330941Y-138002402D01*
X128215977Y-137830345D01*
X128215975Y-137830342D01*
X128069657Y-137684024D01*
X127947130Y-137602155D01*
X127897598Y-137569059D01*
X127706420Y-137489870D01*
X127706412Y-137489868D01*
X127503469Y-137449500D01*
X127503465Y-137449500D01*
X127296535Y-137449500D01*
X127296530Y-137449500D01*
X127093587Y-137489868D01*
X127093579Y-137489870D01*
X126902403Y-137569058D01*
X126730342Y-137684024D01*
X126584024Y-137830342D01*
X126469057Y-138002403D01*
X126400835Y-138167108D01*
X126356994Y-138221511D01*
X126290700Y-138243576D01*
X126223000Y-138226297D01*
X126175390Y-138175159D01*
X126168343Y-138157973D01*
X126111095Y-137981782D01*
X126014624Y-137792449D01*
X125975270Y-137738282D01*
X125975269Y-137738282D01*
X125342962Y-138370590D01*
X125325925Y-138307007D01*
X125260099Y-138192993D01*
X125167007Y-138099901D01*
X125052993Y-138034075D01*
X124989409Y-138017037D01*
X125621716Y-137384728D01*
X125567550Y-137345375D01*
X125378217Y-137248904D01*
X125176129Y-137183242D01*
X124966246Y-137150000D01*
X124753754Y-137150000D01*
X124543872Y-137183242D01*
X124543869Y-137183242D01*
X124341782Y-137248904D01*
X124152439Y-137345380D01*
X124098282Y-137384727D01*
X124098282Y-137384728D01*
X124730591Y-138017037D01*
X124667007Y-138034075D01*
X124552993Y-138099901D01*
X124459901Y-138192993D01*
X124394075Y-138307007D01*
X124377037Y-138370591D01*
X123744728Y-137738282D01*
X123744727Y-137738282D01*
X123705380Y-137792440D01*
X123700483Y-137802051D01*
X123652506Y-137852845D01*
X123584684Y-137869638D01*
X123518550Y-137847098D01*
X123479516Y-137802048D01*
X123474626Y-137792452D01*
X123435270Y-137738282D01*
X123435269Y-137738282D01*
X122802962Y-138370590D01*
X122785925Y-138307007D01*
X122720099Y-138192993D01*
X122627007Y-138099901D01*
X122512993Y-138034075D01*
X122449409Y-138017037D01*
X123081716Y-137384728D01*
X123027550Y-137345375D01*
X122838217Y-137248904D01*
X122636129Y-137183242D01*
X122426246Y-137150000D01*
X122213754Y-137150000D01*
X122003872Y-137183242D01*
X122003869Y-137183242D01*
X121801782Y-137248904D01*
X121612439Y-137345380D01*
X121558282Y-137384727D01*
X121558282Y-137384728D01*
X122190591Y-138017037D01*
X122127007Y-138034075D01*
X122012993Y-138099901D01*
X121919901Y-138192993D01*
X121854075Y-138307007D01*
X121837037Y-138370591D01*
X121204728Y-137738282D01*
X121204727Y-137738282D01*
X121165380Y-137792439D01*
X121068905Y-137981781D01*
X121011656Y-138157974D01*
X120972218Y-138215649D01*
X120907859Y-138242847D01*
X120839013Y-138230932D01*
X120787537Y-138183688D01*
X120779164Y-138167107D01*
X120710943Y-138002405D01*
X120595975Y-137830342D01*
X120449657Y-137684024D01*
X120327130Y-137602155D01*
X120277598Y-137569059D01*
X120086420Y-137489870D01*
X120086412Y-137489868D01*
X119883469Y-137449500D01*
X119883465Y-137449500D01*
X119676535Y-137449500D01*
X119676530Y-137449500D01*
X119473587Y-137489868D01*
X119473579Y-137489870D01*
X119282403Y-137569058D01*
X119110342Y-137684024D01*
X118964024Y-137830342D01*
X118849058Y-138002403D01*
X118769870Y-138193579D01*
X118769868Y-138193587D01*
X118729500Y-138396530D01*
X118729500Y-138603469D01*
X118769868Y-138806412D01*
X118769870Y-138806420D01*
X118835939Y-138965925D01*
X118849059Y-138997598D01*
X118862836Y-139018217D01*
X118964024Y-139169657D01*
X119110342Y-139315975D01*
X119110345Y-139315977D01*
X119282402Y-139430941D01*
X119473580Y-139510130D01*
X119676530Y-139550499D01*
X119676534Y-139550500D01*
X119676535Y-139550500D01*
X119883466Y-139550500D01*
X119883467Y-139550499D01*
X120086420Y-139510130D01*
X120277598Y-139430941D01*
X120449655Y-139315977D01*
X120595977Y-139169655D01*
X120710941Y-138997598D01*
X120779165Y-138832889D01*
X120823004Y-138778488D01*
X120889298Y-138756423D01*
X120956998Y-138773702D01*
X121004609Y-138824839D01*
X121011656Y-138842026D01*
X121068904Y-139018216D01*
X121165375Y-139207550D01*
X121204728Y-139261716D01*
X121837037Y-138629408D01*
X121854075Y-138692993D01*
X121919901Y-138807007D01*
X122012993Y-138900099D01*
X122127007Y-138965925D01*
X122190590Y-138982962D01*
X121558282Y-139615269D01*
X121558282Y-139615270D01*
X121612449Y-139654624D01*
X121801782Y-139751095D01*
X121821706Y-139757569D01*
X121879381Y-139797006D01*
X121906580Y-139861365D01*
X121894665Y-139930211D01*
X121847421Y-139981687D01*
X121783388Y-139999500D01*
X103189269Y-139999500D01*
X103122230Y-139979815D01*
X103076475Y-139927011D01*
X103066531Y-139857853D01*
X103095556Y-139794297D01*
X103114958Y-139776234D01*
X103207187Y-139707190D01*
X103207190Y-139707187D01*
X103293350Y-139592093D01*
X103293354Y-139592086D01*
X103343596Y-139457379D01*
X103343598Y-139457372D01*
X103349999Y-139397844D01*
X103350000Y-139397827D01*
X103350000Y-138995564D01*
X103369685Y-138928525D01*
X103422489Y-138882770D01*
X103491647Y-138872826D01*
X103555203Y-138901851D01*
X103588561Y-138948112D01*
X103595939Y-138965925D01*
X103609059Y-138997598D01*
X103685701Y-139112302D01*
X103724024Y-139169657D01*
X103870342Y-139315975D01*
X103870345Y-139315977D01*
X104042402Y-139430941D01*
X104233580Y-139510130D01*
X104436530Y-139550499D01*
X104436534Y-139550500D01*
X104436535Y-139550500D01*
X104643466Y-139550500D01*
X104643467Y-139550499D01*
X104846420Y-139510130D01*
X105037598Y-139430941D01*
X105209655Y-139315977D01*
X105355977Y-139169655D01*
X105470941Y-138997598D01*
X105550130Y-138806420D01*
X105590500Y-138603465D01*
X105590500Y-138396535D01*
X105590499Y-138396530D01*
X106029500Y-138396530D01*
X106029500Y-138603469D01*
X106069868Y-138806412D01*
X106069870Y-138806420D01*
X106135939Y-138965925D01*
X106149059Y-138997598D01*
X106162836Y-139018217D01*
X106264024Y-139169657D01*
X106410342Y-139315975D01*
X106410345Y-139315977D01*
X106582402Y-139430941D01*
X106773580Y-139510130D01*
X106976530Y-139550499D01*
X106976534Y-139550500D01*
X106976535Y-139550500D01*
X107183466Y-139550500D01*
X107183467Y-139550499D01*
X107386420Y-139510130D01*
X107577598Y-139430941D01*
X107749655Y-139315977D01*
X107895977Y-139169655D01*
X108010941Y-138997598D01*
X108090130Y-138806420D01*
X108130500Y-138603465D01*
X108130500Y-138396535D01*
X108130499Y-138396530D01*
X108569500Y-138396530D01*
X108569500Y-138603469D01*
X108609868Y-138806412D01*
X108609870Y-138806420D01*
X108675939Y-138965925D01*
X108689059Y-138997598D01*
X108702836Y-139018217D01*
X108804024Y-139169657D01*
X108950342Y-139315975D01*
X108950345Y-139315977D01*
X109122402Y-139430941D01*
X109313580Y-139510130D01*
X109516530Y-139550499D01*
X109516534Y-139550500D01*
X109516535Y-139550500D01*
X109723466Y-139550500D01*
X109723467Y-139550499D01*
X109926420Y-139510130D01*
X110117598Y-139430941D01*
X110289655Y-139315977D01*
X110435977Y-139169655D01*
X110550941Y-138997598D01*
X110630130Y-138806420D01*
X110670500Y-138603465D01*
X110670500Y-138396535D01*
X110670499Y-138396530D01*
X111109500Y-138396530D01*
X111109500Y-138603469D01*
X111149868Y-138806412D01*
X111149870Y-138806420D01*
X111215939Y-138965925D01*
X111229059Y-138997598D01*
X111242836Y-139018217D01*
X111344024Y-139169657D01*
X111490342Y-139315975D01*
X111490345Y-139315977D01*
X111662402Y-139430941D01*
X111853580Y-139510130D01*
X112056530Y-139550499D01*
X112056534Y-139550500D01*
X112056535Y-139550500D01*
X112263466Y-139550500D01*
X112263467Y-139550499D01*
X112466420Y-139510130D01*
X112657598Y-139430941D01*
X112829655Y-139315977D01*
X112975977Y-139169655D01*
X113090941Y-138997598D01*
X113170130Y-138806420D01*
X113210500Y-138603465D01*
X113210500Y-138396535D01*
X113210499Y-138396530D01*
X113649500Y-138396530D01*
X113649500Y-138603469D01*
X113689868Y-138806412D01*
X113689870Y-138806420D01*
X113755939Y-138965925D01*
X113769059Y-138997598D01*
X113782836Y-139018217D01*
X113884024Y-139169657D01*
X114030342Y-139315975D01*
X114030345Y-139315977D01*
X114202402Y-139430941D01*
X114393580Y-139510130D01*
X114596530Y-139550499D01*
X114596534Y-139550500D01*
X114596535Y-139550500D01*
X114803466Y-139550500D01*
X114803467Y-139550499D01*
X115006420Y-139510130D01*
X115197598Y-139430941D01*
X115369655Y-139315977D01*
X115515977Y-139169655D01*
X115630941Y-138997598D01*
X115710130Y-138806420D01*
X115750500Y-138603465D01*
X115750500Y-138396535D01*
X115750499Y-138396530D01*
X116189500Y-138396530D01*
X116189500Y-138603469D01*
X116229868Y-138806412D01*
X116229870Y-138806420D01*
X116295939Y-138965925D01*
X116309059Y-138997598D01*
X116322836Y-139018217D01*
X116424024Y-139169657D01*
X116570342Y-139315975D01*
X116570345Y-139315977D01*
X116742402Y-139430941D01*
X116933580Y-139510130D01*
X117136530Y-139550499D01*
X117136534Y-139550500D01*
X117136535Y-139550500D01*
X117343466Y-139550500D01*
X117343467Y-139550499D01*
X117546420Y-139510130D01*
X117737598Y-139430941D01*
X117909655Y-139315977D01*
X118055977Y-139169655D01*
X118170941Y-138997598D01*
X118250130Y-138806420D01*
X118290500Y-138603465D01*
X118290500Y-138396535D01*
X118250130Y-138193580D01*
X118170941Y-138002402D01*
X118055977Y-137830345D01*
X118055975Y-137830342D01*
X117909657Y-137684024D01*
X117787130Y-137602155D01*
X117737598Y-137569059D01*
X117546420Y-137489870D01*
X117546412Y-137489868D01*
X117343469Y-137449500D01*
X117343465Y-137449500D01*
X117136535Y-137449500D01*
X117136530Y-137449500D01*
X116933587Y-137489868D01*
X116933579Y-137489870D01*
X116742403Y-137569058D01*
X116570342Y-137684024D01*
X116424024Y-137830342D01*
X116309058Y-138002403D01*
X116229870Y-138193579D01*
X116229868Y-138193587D01*
X116189500Y-138396530D01*
X115750499Y-138396530D01*
X115710130Y-138193580D01*
X115630941Y-138002402D01*
X115515977Y-137830345D01*
X115515975Y-137830342D01*
X115369657Y-137684024D01*
X115247130Y-137602155D01*
X115197598Y-137569059D01*
X115006420Y-137489870D01*
X115006412Y-137489868D01*
X114803469Y-137449500D01*
X114803465Y-137449500D01*
X114596535Y-137449500D01*
X114596530Y-137449500D01*
X114393587Y-137489868D01*
X114393579Y-137489870D01*
X114202403Y-137569058D01*
X114030342Y-137684024D01*
X113884024Y-137830342D01*
X113769058Y-138002403D01*
X113689870Y-138193579D01*
X113689868Y-138193587D01*
X113649500Y-138396530D01*
X113210499Y-138396530D01*
X113170130Y-138193580D01*
X113090941Y-138002402D01*
X112975977Y-137830345D01*
X112975975Y-137830342D01*
X112829657Y-137684024D01*
X112707130Y-137602155D01*
X112657598Y-137569059D01*
X112466420Y-137489870D01*
X112466412Y-137489868D01*
X112263469Y-137449500D01*
X112263465Y-137449500D01*
X112056535Y-137449500D01*
X112056530Y-137449500D01*
X111853587Y-137489868D01*
X111853579Y-137489870D01*
X111662403Y-137569058D01*
X111490342Y-137684024D01*
X111344024Y-137830342D01*
X111229058Y-138002403D01*
X111149870Y-138193579D01*
X111149868Y-138193587D01*
X111109500Y-138396530D01*
X110670499Y-138396530D01*
X110630130Y-138193580D01*
X110550941Y-138002402D01*
X110435977Y-137830345D01*
X110435975Y-137830342D01*
X110289657Y-137684024D01*
X110167130Y-137602155D01*
X110117598Y-137569059D01*
X109926420Y-137489870D01*
X109926412Y-137489868D01*
X109723469Y-137449500D01*
X109723465Y-137449500D01*
X109516535Y-137449500D01*
X109516530Y-137449500D01*
X109313587Y-137489868D01*
X109313579Y-137489870D01*
X109122403Y-137569058D01*
X108950342Y-137684024D01*
X108804024Y-137830342D01*
X108689058Y-138002403D01*
X108609870Y-138193579D01*
X108609868Y-138193587D01*
X108569500Y-138396530D01*
X108130499Y-138396530D01*
X108090130Y-138193580D01*
X108010941Y-138002402D01*
X107895977Y-137830345D01*
X107895975Y-137830342D01*
X107749657Y-137684024D01*
X107627130Y-137602155D01*
X107577598Y-137569059D01*
X107386420Y-137489870D01*
X107386412Y-137489868D01*
X107183469Y-137449500D01*
X107183465Y-137449500D01*
X106976535Y-137449500D01*
X106976530Y-137449500D01*
X106773587Y-137489868D01*
X106773579Y-137489870D01*
X106582403Y-137569058D01*
X106410342Y-137684024D01*
X106264024Y-137830342D01*
X106149058Y-138002403D01*
X106069870Y-138193579D01*
X106069868Y-138193587D01*
X106029500Y-138396530D01*
X105590499Y-138396530D01*
X105550130Y-138193580D01*
X105470941Y-138002402D01*
X105355977Y-137830345D01*
X105355975Y-137830342D01*
X105209657Y-137684024D01*
X105087130Y-137602155D01*
X105037598Y-137569059D01*
X104846420Y-137489870D01*
X104846412Y-137489868D01*
X104643469Y-137449500D01*
X104643465Y-137449500D01*
X104436535Y-137449500D01*
X104436530Y-137449500D01*
X104233587Y-137489868D01*
X104233579Y-137489870D01*
X104042403Y-137569058D01*
X103870342Y-137684024D01*
X103724024Y-137830342D01*
X103609058Y-138002403D01*
X103588561Y-138051888D01*
X103544720Y-138106291D01*
X103478426Y-138128356D01*
X103410726Y-138111077D01*
X103363116Y-138059939D01*
X103350000Y-138004435D01*
X103350000Y-137602172D01*
X103349999Y-137602155D01*
X103343598Y-137542627D01*
X103343596Y-137542620D01*
X103293354Y-137407913D01*
X103293350Y-137407906D01*
X103207190Y-137292812D01*
X103207187Y-137292809D01*
X103092093Y-137206649D01*
X103092086Y-137206645D01*
X102957379Y-137156403D01*
X102957372Y-137156401D01*
X102897844Y-137150000D01*
X102250000Y-137150000D01*
X102250000Y-138066988D01*
X102192993Y-138034075D01*
X102065826Y-138000000D01*
X101934174Y-138000000D01*
X101807007Y-138034075D01*
X101750000Y-138066988D01*
X101750000Y-137150000D01*
X101102155Y-137150000D01*
X101042627Y-137156401D01*
X101042620Y-137156403D01*
X100907913Y-137206645D01*
X100907906Y-137206649D01*
X100792812Y-137292809D01*
X100792809Y-137292812D01*
X100706649Y-137407906D01*
X100706645Y-137407913D01*
X100656403Y-137542620D01*
X100656401Y-137542627D01*
X100650000Y-137602155D01*
X100650000Y-138250000D01*
X101566988Y-138250000D01*
X101534075Y-138307007D01*
X101500000Y-138434174D01*
X101500000Y-138565826D01*
X101534075Y-138692993D01*
X101566988Y-138750000D01*
X100650000Y-138750000D01*
X100650000Y-139397844D01*
X100656401Y-139457372D01*
X100656403Y-139457379D01*
X100706645Y-139592086D01*
X100706649Y-139592093D01*
X100792809Y-139707187D01*
X100792812Y-139707190D01*
X100885042Y-139776234D01*
X100926913Y-139832168D01*
X100931897Y-139901859D01*
X100898411Y-139963182D01*
X100837088Y-139996666D01*
X100810731Y-139999500D01*
X100424500Y-139999500D01*
X100357461Y-139979815D01*
X100311706Y-139927011D01*
X100300500Y-139875500D01*
X100300500Y-133316530D01*
X100949500Y-133316530D01*
X100949500Y-133523469D01*
X100989687Y-133725500D01*
X100989870Y-133726420D01*
X101069059Y-133917598D01*
X101100140Y-133964114D01*
X101184024Y-134089657D01*
X101330342Y-134235975D01*
X101330345Y-134235977D01*
X101502402Y-134350941D01*
X101693580Y-134430130D01*
X101896530Y-134470499D01*
X101896534Y-134470500D01*
X101896535Y-134470500D01*
X102103466Y-134470500D01*
X102103467Y-134470499D01*
X102306420Y-134430130D01*
X102497598Y-134350941D01*
X102669655Y-134235977D01*
X102748814Y-134156817D01*
X102810135Y-134123334D01*
X102836494Y-134120500D01*
X116248996Y-134120500D01*
X116340040Y-134102389D01*
X116384328Y-134093580D01*
X116448069Y-134067177D01*
X116511807Y-134040777D01*
X116511808Y-134040776D01*
X116511811Y-134040775D01*
X116626543Y-133964114D01*
X123256549Y-127334108D01*
X124499500Y-127334108D01*
X124499500Y-127465891D01*
X124533608Y-127593187D01*
X124566554Y-127650250D01*
X124599500Y-127707314D01*
X124692686Y-127800500D01*
X124806814Y-127866392D01*
X124934108Y-127900500D01*
X124934119Y-127900500D01*
X124940071Y-127901284D01*
X125003969Y-127929548D01*
X125011572Y-127936543D01*
X130684540Y-133609511D01*
X130740489Y-133665460D01*
X130740491Y-133665461D01*
X130740495Y-133665464D01*
X130809004Y-133705017D01*
X130809011Y-133705021D01*
X130885438Y-133725500D01*
X130964562Y-133725500D01*
X149164564Y-133725500D01*
X149231603Y-133745185D01*
X149277358Y-133797989D01*
X149279125Y-133802047D01*
X149329058Y-133922596D01*
X149444024Y-134094657D01*
X149590342Y-134240975D01*
X149590345Y-134240977D01*
X149762402Y-134355941D01*
X149953580Y-134435130D01*
X150131393Y-134470499D01*
X150156530Y-134475499D01*
X150156534Y-134475500D01*
X150156535Y-134475500D01*
X150363466Y-134475500D01*
X150363467Y-134475499D01*
X150566420Y-134435130D01*
X150757598Y-134355941D01*
X150929655Y-134240977D01*
X151075977Y-134094655D01*
X151190941Y-133922598D01*
X151270130Y-133731420D01*
X151310500Y-133528465D01*
X151310500Y-133321535D01*
X151270130Y-133118580D01*
X151190941Y-132927402D01*
X151075977Y-132755345D01*
X151075975Y-132755342D01*
X150929657Y-132609024D01*
X150843626Y-132551541D01*
X150757598Y-132494059D01*
X150566420Y-132414870D01*
X150566412Y-132414868D01*
X150363469Y-132374500D01*
X150363465Y-132374500D01*
X150156535Y-132374500D01*
X150156530Y-132374500D01*
X149953587Y-132414868D01*
X149953579Y-132414870D01*
X149762403Y-132494058D01*
X149590342Y-132609024D01*
X149444024Y-132755342D01*
X149329058Y-132927403D01*
X149279125Y-133047953D01*
X149235284Y-133102356D01*
X149168990Y-133124421D01*
X149164564Y-133124500D01*
X131100833Y-133124500D01*
X131033794Y-133104815D01*
X131013152Y-133088181D01*
X129322152Y-131397181D01*
X129288667Y-131335858D01*
X129293651Y-131266166D01*
X129335523Y-131210233D01*
X129400987Y-131185816D01*
X129409833Y-131185500D01*
X129424562Y-131185500D01*
X149164564Y-131185500D01*
X149231603Y-131205185D01*
X149277358Y-131257989D01*
X149279125Y-131262047D01*
X149329058Y-131382596D01*
X149444024Y-131554657D01*
X149590342Y-131700975D01*
X149590345Y-131700977D01*
X149762402Y-131815941D01*
X149953580Y-131895130D01*
X150131393Y-131930499D01*
X150156530Y-131935499D01*
X150156534Y-131935500D01*
X150156535Y-131935500D01*
X150363466Y-131935500D01*
X150363467Y-131935499D01*
X150566420Y-131895130D01*
X150757598Y-131815941D01*
X150929655Y-131700977D01*
X151075977Y-131554655D01*
X151190941Y-131382598D01*
X151270130Y-131191420D01*
X151310500Y-130988465D01*
X151310500Y-130781535D01*
X151270130Y-130578580D01*
X151190941Y-130387402D01*
X151075977Y-130215345D01*
X151075975Y-130215342D01*
X150929657Y-130069024D01*
X150843626Y-130011541D01*
X150757598Y-129954059D01*
X150566420Y-129874870D01*
X150566412Y-129874868D01*
X150363469Y-129834500D01*
X150363465Y-129834500D01*
X150156535Y-129834500D01*
X150156530Y-129834500D01*
X149953587Y-129874868D01*
X149953579Y-129874870D01*
X149762403Y-129954058D01*
X149590342Y-130069024D01*
X149444024Y-130215342D01*
X149329058Y-130387403D01*
X149279125Y-130507953D01*
X149235284Y-130562356D01*
X149168990Y-130584421D01*
X149164564Y-130584500D01*
X129560833Y-130584500D01*
X129493794Y-130564815D01*
X129473152Y-130548181D01*
X127166501Y-128241530D01*
X149209500Y-128241530D01*
X149209500Y-128448469D01*
X149249868Y-128651412D01*
X149249870Y-128651420D01*
X149329058Y-128842596D01*
X149444024Y-129014657D01*
X149590342Y-129160975D01*
X149590345Y-129160977D01*
X149762402Y-129275941D01*
X149953580Y-129355130D01*
X150131393Y-129390499D01*
X150156530Y-129395499D01*
X150156534Y-129395500D01*
X150156535Y-129395500D01*
X150363466Y-129395500D01*
X150363467Y-129395499D01*
X150566420Y-129355130D01*
X150757598Y-129275941D01*
X150929655Y-129160977D01*
X151075977Y-129014655D01*
X151190941Y-128842598D01*
X151270130Y-128651420D01*
X151310500Y-128448465D01*
X151310500Y-128241535D01*
X151270130Y-128038580D01*
X151190941Y-127847402D01*
X151075977Y-127675345D01*
X151075975Y-127675342D01*
X150929657Y-127529024D01*
X150786855Y-127433608D01*
X150757598Y-127414059D01*
X150566420Y-127334870D01*
X150566412Y-127334868D01*
X150363469Y-127294500D01*
X150363465Y-127294500D01*
X150156535Y-127294500D01*
X150156530Y-127294500D01*
X149953587Y-127334868D01*
X149953579Y-127334870D01*
X149762403Y-127414058D01*
X149590342Y-127529024D01*
X149444024Y-127675342D01*
X149329058Y-127847403D01*
X149249870Y-128038579D01*
X149249868Y-128038587D01*
X149209500Y-128241530D01*
X127166501Y-128241530D01*
X127027953Y-128102982D01*
X126994468Y-128041659D01*
X126995859Y-127983209D01*
X127000500Y-127965892D01*
X127000500Y-127834108D01*
X126966392Y-127706814D01*
X126900500Y-127592686D01*
X126807314Y-127499500D01*
X126749098Y-127465889D01*
X126693187Y-127433608D01*
X126601563Y-127409058D01*
X126565892Y-127399500D01*
X126434108Y-127399500D01*
X126306812Y-127433608D01*
X126192686Y-127499500D01*
X126192683Y-127499502D01*
X126099502Y-127592683D01*
X126099500Y-127592686D01*
X126033608Y-127706812D01*
X126033473Y-127707316D01*
X126008506Y-127800499D01*
X126004281Y-127816266D01*
X125967916Y-127875927D01*
X125905069Y-127906456D01*
X125835694Y-127898161D01*
X125796825Y-127871854D01*
X125527953Y-127602982D01*
X125494468Y-127541659D01*
X125495859Y-127483209D01*
X125500500Y-127465892D01*
X125500500Y-127334108D01*
X125466392Y-127206814D01*
X125400500Y-127092686D01*
X125307314Y-126999500D01*
X125250250Y-126966554D01*
X125193187Y-126933608D01*
X125129539Y-126916554D01*
X125065892Y-126899500D01*
X124934108Y-126899500D01*
X124806812Y-126933608D01*
X124692686Y-126999500D01*
X124692683Y-126999502D01*
X124599502Y-127092683D01*
X124599500Y-127092686D01*
X124533608Y-127206812D01*
X124499500Y-127334108D01*
X123256549Y-127334108D01*
X124889127Y-125701530D01*
X149209500Y-125701530D01*
X149209500Y-125908469D01*
X149249868Y-126111412D01*
X149249870Y-126111420D01*
X149329058Y-126302596D01*
X149444024Y-126474657D01*
X149590342Y-126620975D01*
X149590345Y-126620977D01*
X149762402Y-126735941D01*
X149953580Y-126815130D01*
X150131393Y-126850499D01*
X150156530Y-126855499D01*
X150156534Y-126855500D01*
X150156535Y-126855500D01*
X150363466Y-126855500D01*
X150363467Y-126855499D01*
X150566420Y-126815130D01*
X150757598Y-126735941D01*
X150929655Y-126620977D01*
X151075977Y-126474655D01*
X151190941Y-126302598D01*
X151270130Y-126111420D01*
X151310500Y-125908465D01*
X151310500Y-125701535D01*
X151270130Y-125498580D01*
X151190941Y-125307402D01*
X151075977Y-125135345D01*
X151075975Y-125135342D01*
X150929657Y-124989024D01*
X150843626Y-124931541D01*
X150757598Y-124874059D01*
X150745522Y-124869057D01*
X150566420Y-124794870D01*
X150566412Y-124794868D01*
X150363469Y-124754500D01*
X150363465Y-124754500D01*
X150156535Y-124754500D01*
X150156530Y-124754500D01*
X149953587Y-124794868D01*
X149953579Y-124794870D01*
X149762403Y-124874058D01*
X149590342Y-124989024D01*
X149444024Y-125135342D01*
X149329058Y-125307403D01*
X149249870Y-125498579D01*
X149249868Y-125498587D01*
X149209500Y-125701530D01*
X124889127Y-125701530D01*
X126594114Y-123996543D01*
X127429127Y-123161530D01*
X149209500Y-123161530D01*
X149209500Y-123368469D01*
X149249868Y-123571412D01*
X149249870Y-123571420D01*
X149329058Y-123762596D01*
X149444024Y-123934657D01*
X149590342Y-124080975D01*
X149590345Y-124080977D01*
X149762402Y-124195941D01*
X149953580Y-124275130D01*
X150156530Y-124315499D01*
X150156534Y-124315500D01*
X150156535Y-124315500D01*
X150363466Y-124315500D01*
X150363467Y-124315499D01*
X150566420Y-124275130D01*
X150757598Y-124195941D01*
X150929655Y-124080977D01*
X151075977Y-123934655D01*
X151190941Y-123762598D01*
X151270130Y-123571420D01*
X151310500Y-123368465D01*
X151310500Y-123161535D01*
X151270130Y-122958580D01*
X151190941Y-122767402D01*
X151075977Y-122595345D01*
X151075975Y-122595342D01*
X150929657Y-122449024D01*
X150843626Y-122391541D01*
X150757598Y-122334059D01*
X150566420Y-122254870D01*
X150566412Y-122254868D01*
X150363469Y-122214500D01*
X150363465Y-122214500D01*
X150156535Y-122214500D01*
X150156530Y-122214500D01*
X149953587Y-122254868D01*
X149953579Y-122254870D01*
X149762403Y-122334058D01*
X149590342Y-122449024D01*
X149444024Y-122595342D01*
X149329058Y-122767403D01*
X149249870Y-122958579D01*
X149249868Y-122958587D01*
X149209500Y-123161530D01*
X127429127Y-123161530D01*
X129969127Y-120621530D01*
X149209500Y-120621530D01*
X149209500Y-120828469D01*
X149249868Y-121031412D01*
X149249870Y-121031420D01*
X149329058Y-121222596D01*
X149444024Y-121394657D01*
X149590342Y-121540975D01*
X149590345Y-121540977D01*
X149762402Y-121655941D01*
X149953580Y-121735130D01*
X150156530Y-121775499D01*
X150156534Y-121775500D01*
X150156535Y-121775500D01*
X150363466Y-121775500D01*
X150363467Y-121775499D01*
X150566420Y-121735130D01*
X150757598Y-121655941D01*
X150929655Y-121540977D01*
X151075977Y-121394655D01*
X151190941Y-121222598D01*
X151270130Y-121031420D01*
X151310500Y-120828465D01*
X151310500Y-120621535D01*
X151270130Y-120418580D01*
X151190941Y-120227402D01*
X151075977Y-120055345D01*
X151075975Y-120055342D01*
X150929657Y-119909024D01*
X150765741Y-119799500D01*
X150757598Y-119794059D01*
X150712790Y-119775499D01*
X150566420Y-119714870D01*
X150566412Y-119714868D01*
X150363469Y-119674500D01*
X150363465Y-119674500D01*
X150156535Y-119674500D01*
X150156530Y-119674500D01*
X149953587Y-119714868D01*
X149953579Y-119714870D01*
X149762403Y-119794058D01*
X149590342Y-119909024D01*
X149444024Y-120055342D01*
X149329058Y-120227403D01*
X149249870Y-120418579D01*
X149249868Y-120418587D01*
X149209500Y-120621530D01*
X129969127Y-120621530D01*
X131668838Y-118921819D01*
X131730161Y-118888334D01*
X131756519Y-118885500D01*
X133531007Y-118885500D01*
X134431007Y-118885500D01*
X149423506Y-118885500D01*
X149490545Y-118905185D01*
X149511182Y-118921814D01*
X149590345Y-119000977D01*
X149762402Y-119115941D01*
X149953580Y-119195130D01*
X150131398Y-119230500D01*
X150156530Y-119235499D01*
X150156534Y-119235500D01*
X150156535Y-119235500D01*
X150363466Y-119235500D01*
X150363467Y-119235499D01*
X150566420Y-119195130D01*
X150757598Y-119115941D01*
X150929655Y-119000977D01*
X151075977Y-118854655D01*
X151190941Y-118682598D01*
X151270130Y-118491420D01*
X151310500Y-118288465D01*
X151310500Y-118081535D01*
X151270130Y-117878580D01*
X151190941Y-117687402D01*
X151075977Y-117515345D01*
X151075975Y-117515342D01*
X150929657Y-117369024D01*
X150825606Y-117299500D01*
X150757598Y-117254059D01*
X150647160Y-117208314D01*
X150566420Y-117174870D01*
X150566412Y-117174868D01*
X150363469Y-117134500D01*
X150363465Y-117134500D01*
X150156535Y-117134500D01*
X150156530Y-117134500D01*
X149953587Y-117174868D01*
X149953579Y-117174870D01*
X149762403Y-117254058D01*
X149687010Y-117304434D01*
X149590345Y-117369023D01*
X149511185Y-117448182D01*
X149449865Y-117481666D01*
X149423506Y-117484500D01*
X131346004Y-117484500D01*
X131210677Y-117511418D01*
X131210667Y-117511421D01*
X131083192Y-117564222D01*
X130968454Y-117640887D01*
X130968453Y-117640888D01*
X125603457Y-123005886D01*
X115926162Y-132683181D01*
X115864839Y-132716666D01*
X115838481Y-132719500D01*
X102836494Y-132719500D01*
X102769455Y-132699815D01*
X102748817Y-132683185D01*
X102669655Y-132604023D01*
X102497598Y-132489059D01*
X102306420Y-132409870D01*
X102306412Y-132409868D01*
X102103469Y-132369500D01*
X102103465Y-132369500D01*
X101896535Y-132369500D01*
X101896530Y-132369500D01*
X101693587Y-132409868D01*
X101693579Y-132409870D01*
X101502403Y-132489058D01*
X101330342Y-132604024D01*
X101184024Y-132750342D01*
X101069058Y-132922403D01*
X100989870Y-133113579D01*
X100989868Y-133113587D01*
X100949500Y-133316530D01*
X100300500Y-133316530D01*
X100300500Y-130776530D01*
X100949500Y-130776530D01*
X100949500Y-130983469D01*
X100989868Y-131186412D01*
X100989870Y-131186420D01*
X101069058Y-131377596D01*
X101184024Y-131549657D01*
X101330342Y-131695975D01*
X101330345Y-131695977D01*
X101502402Y-131810941D01*
X101693580Y-131890130D01*
X101896530Y-131930499D01*
X101896534Y-131930500D01*
X101896535Y-131930500D01*
X102103466Y-131930500D01*
X102103467Y-131930499D01*
X102306420Y-131890130D01*
X102497598Y-131810941D01*
X102669655Y-131695977D01*
X102815977Y-131549655D01*
X102930941Y-131377598D01*
X103010130Y-131186420D01*
X103050500Y-130983465D01*
X103050500Y-130776535D01*
X103010130Y-130573580D01*
X102930941Y-130382402D01*
X102815977Y-130210345D01*
X102815975Y-130210342D01*
X102669657Y-130064024D01*
X102505081Y-129954059D01*
X102497598Y-129949059D01*
X102306420Y-129869870D01*
X102306412Y-129869868D01*
X102103469Y-129829500D01*
X102103465Y-129829500D01*
X101896535Y-129829500D01*
X101896530Y-129829500D01*
X101693587Y-129869868D01*
X101693579Y-129869870D01*
X101502403Y-129949058D01*
X101330342Y-130064024D01*
X101184024Y-130210342D01*
X101069058Y-130382403D01*
X100989870Y-130573579D01*
X100989868Y-130573587D01*
X100949500Y-130776530D01*
X100300500Y-130776530D01*
X100300500Y-120613753D01*
X100650000Y-120613753D01*
X100650000Y-120826246D01*
X100683242Y-121036127D01*
X100683242Y-121036130D01*
X100748904Y-121238217D01*
X100845375Y-121427550D01*
X100884728Y-121481716D01*
X101517037Y-120849408D01*
X101534075Y-120912993D01*
X101599901Y-121027007D01*
X101692993Y-121120099D01*
X101807007Y-121185925D01*
X101870590Y-121202962D01*
X101238282Y-121835269D01*
X101238282Y-121835270D01*
X101292452Y-121874626D01*
X101302048Y-121879516D01*
X101352844Y-121927491D01*
X101369638Y-121995312D01*
X101347100Y-122061447D01*
X101302051Y-122100483D01*
X101292440Y-122105380D01*
X101238282Y-122144727D01*
X101238282Y-122144728D01*
X101870591Y-122777037D01*
X101807007Y-122794075D01*
X101692993Y-122859901D01*
X101599901Y-122952993D01*
X101534075Y-123067007D01*
X101517037Y-123130591D01*
X100884728Y-122498282D01*
X100884727Y-122498282D01*
X100845380Y-122552439D01*
X100748904Y-122741782D01*
X100683242Y-122943869D01*
X100683242Y-122943872D01*
X100650000Y-123153753D01*
X100650000Y-123366246D01*
X100683242Y-123576127D01*
X100683242Y-123576130D01*
X100748904Y-123778217D01*
X100845375Y-123967550D01*
X100884728Y-124021716D01*
X101517037Y-123389408D01*
X101534075Y-123452993D01*
X101599901Y-123567007D01*
X101692993Y-123660099D01*
X101807007Y-123725925D01*
X101870590Y-123742962D01*
X101238282Y-124375269D01*
X101238282Y-124375270D01*
X101292449Y-124414624D01*
X101481782Y-124511095D01*
X101657973Y-124568343D01*
X101715648Y-124607780D01*
X101742847Y-124672139D01*
X101730932Y-124740985D01*
X101683688Y-124792461D01*
X101667108Y-124800835D01*
X101502403Y-124869057D01*
X101330342Y-124984024D01*
X101184024Y-125130342D01*
X101069058Y-125302403D01*
X100989870Y-125493579D01*
X100989868Y-125493587D01*
X100949500Y-125696530D01*
X100949500Y-125903469D01*
X100989868Y-126106412D01*
X100989870Y-126106420D01*
X101069058Y-126297596D01*
X101184024Y-126469657D01*
X101330342Y-126615975D01*
X101330345Y-126615977D01*
X101502402Y-126730941D01*
X101693580Y-126810130D01*
X101896530Y-126850499D01*
X101896534Y-126850500D01*
X101896535Y-126850500D01*
X102103466Y-126850500D01*
X102103467Y-126850499D01*
X102306420Y-126810130D01*
X102497598Y-126730941D01*
X102669655Y-126615977D01*
X102815977Y-126469655D01*
X102930941Y-126297598D01*
X102980875Y-126177046D01*
X103024716Y-126122644D01*
X103091010Y-126100579D01*
X103095436Y-126100500D01*
X119175167Y-126100500D01*
X119242206Y-126120185D01*
X119287961Y-126172989D01*
X119297905Y-126242147D01*
X119268880Y-126305703D01*
X119262848Y-126312181D01*
X117571848Y-128003181D01*
X117510525Y-128036666D01*
X117484167Y-128039500D01*
X103095436Y-128039500D01*
X103028397Y-128019815D01*
X102982642Y-127967011D01*
X102980875Y-127962953D01*
X102930941Y-127842402D01*
X102815977Y-127670345D01*
X102815975Y-127670342D01*
X102669657Y-127524024D01*
X102505081Y-127414059D01*
X102497598Y-127409059D01*
X102306420Y-127329870D01*
X102306412Y-127329868D01*
X102103469Y-127289500D01*
X102103465Y-127289500D01*
X101896535Y-127289500D01*
X101896530Y-127289500D01*
X101693587Y-127329868D01*
X101693579Y-127329870D01*
X101502403Y-127409058D01*
X101330342Y-127524024D01*
X101184024Y-127670342D01*
X101069058Y-127842403D01*
X100989870Y-128033579D01*
X100989868Y-128033587D01*
X100949500Y-128236530D01*
X100949500Y-128443469D01*
X100989868Y-128646412D01*
X100989870Y-128646420D01*
X101069058Y-128837596D01*
X101184024Y-129009657D01*
X101330342Y-129155975D01*
X101330345Y-129155977D01*
X101502402Y-129270941D01*
X101693580Y-129350130D01*
X101896530Y-129390499D01*
X101896534Y-129390500D01*
X101896535Y-129390500D01*
X102103466Y-129390500D01*
X102103467Y-129390499D01*
X102306420Y-129350130D01*
X102497598Y-129270941D01*
X102669655Y-129155977D01*
X102815977Y-129009655D01*
X102930941Y-128837598D01*
X102980875Y-128717046D01*
X103024716Y-128662644D01*
X103091010Y-128640579D01*
X103095436Y-128640500D01*
X117699560Y-128640500D01*
X117699562Y-128640500D01*
X117775989Y-128620021D01*
X117844511Y-128580460D01*
X117900460Y-128524511D01*
X127740460Y-118684511D01*
X127759581Y-118651392D01*
X127780021Y-118615989D01*
X127800500Y-118539562D01*
X127800500Y-116758676D01*
X127820185Y-116691637D01*
X127836819Y-116670995D01*
X127857685Y-116650129D01*
X127900500Y-116607314D01*
X127966392Y-116493186D01*
X128000500Y-116365892D01*
X128000500Y-116234108D01*
X127966392Y-116106814D01*
X127900500Y-115992686D01*
X127807314Y-115899500D01*
X127750250Y-115866554D01*
X127693187Y-115833608D01*
X127629539Y-115816554D01*
X127565892Y-115799500D01*
X127434108Y-115799500D01*
X127306812Y-115833608D01*
X127192686Y-115899500D01*
X127192683Y-115899502D01*
X127099502Y-115992683D01*
X127099500Y-115992686D01*
X127033608Y-116106812D01*
X126999500Y-116234108D01*
X126999500Y-116275695D01*
X126979815Y-116342734D01*
X126927011Y-116388489D01*
X126874019Y-116396430D01*
X126874019Y-116399500D01*
X126734108Y-116399500D01*
X126606812Y-116433608D01*
X126492686Y-116499500D01*
X126492683Y-116499502D01*
X126399502Y-116592683D01*
X126399500Y-116592686D01*
X126333608Y-116706812D01*
X126299500Y-116834108D01*
X126299500Y-116965891D01*
X126333608Y-117093187D01*
X126354574Y-117129500D01*
X126399500Y-117207314D01*
X126399502Y-117207316D01*
X126463181Y-117270995D01*
X126496666Y-117332318D01*
X126499500Y-117358676D01*
X126499500Y-118324167D01*
X126479815Y-118391206D01*
X126463181Y-118411848D01*
X119411848Y-125463181D01*
X119350525Y-125496666D01*
X119324167Y-125499500D01*
X103095436Y-125499500D01*
X103028397Y-125479815D01*
X102982642Y-125427011D01*
X102980875Y-125422953D01*
X102930941Y-125302403D01*
X102930941Y-125302402D01*
X102815977Y-125130345D01*
X102815975Y-125130342D01*
X102669657Y-124984024D01*
X102505081Y-124874059D01*
X102497598Y-124869059D01*
X102497593Y-124869057D01*
X102435891Y-124843499D01*
X102332890Y-124800834D01*
X102278488Y-124756994D01*
X102256423Y-124690700D01*
X102273702Y-124623001D01*
X102324839Y-124575390D01*
X102342026Y-124568343D01*
X102518217Y-124511095D01*
X102707554Y-124414622D01*
X102761716Y-124375270D01*
X102761717Y-124375270D01*
X102129408Y-123742962D01*
X102192993Y-123725925D01*
X102307007Y-123660099D01*
X102400099Y-123567007D01*
X102465925Y-123452993D01*
X102482962Y-123389409D01*
X103115270Y-124021717D01*
X103115270Y-124021716D01*
X103154622Y-123967554D01*
X103251095Y-123778217D01*
X103316757Y-123576130D01*
X103316757Y-123576127D01*
X103350000Y-123366246D01*
X103350000Y-123153753D01*
X103316757Y-122943872D01*
X103316757Y-122943869D01*
X103251095Y-122741782D01*
X103154624Y-122552449D01*
X103115270Y-122498282D01*
X103115269Y-122498282D01*
X102482962Y-123130590D01*
X102465925Y-123067007D01*
X102400099Y-122952993D01*
X102307007Y-122859901D01*
X102192993Y-122794075D01*
X102129409Y-122777037D01*
X102761716Y-122144728D01*
X102707550Y-122105375D01*
X102697954Y-122100486D01*
X102647157Y-122052512D01*
X102630361Y-121984692D01*
X102652897Y-121918556D01*
X102697954Y-121879514D01*
X102707554Y-121874622D01*
X102761716Y-121835270D01*
X102761717Y-121835270D01*
X102129408Y-121202962D01*
X102192993Y-121185925D01*
X102307007Y-121120099D01*
X102400099Y-121027007D01*
X102465925Y-120912993D01*
X102482962Y-120849409D01*
X103115270Y-121481717D01*
X103115270Y-121481716D01*
X103154622Y-121427554D01*
X103251095Y-121238217D01*
X103316757Y-121036130D01*
X103316757Y-121036127D01*
X103350000Y-120826246D01*
X103350000Y-120613753D01*
X103316757Y-120403872D01*
X103316757Y-120403869D01*
X103251095Y-120201782D01*
X103154624Y-120012449D01*
X103115270Y-119958282D01*
X103115269Y-119958282D01*
X102482962Y-120590590D01*
X102465925Y-120527007D01*
X102400099Y-120412993D01*
X102307007Y-120319901D01*
X102192993Y-120254075D01*
X102129409Y-120237037D01*
X102761716Y-119604728D01*
X102707550Y-119565375D01*
X102518216Y-119468904D01*
X102364358Y-119418912D01*
X102342026Y-119411656D01*
X102284351Y-119372219D01*
X102257679Y-119309108D01*
X117649500Y-119309108D01*
X117649500Y-119440892D01*
X117657006Y-119468904D01*
X117683608Y-119568187D01*
X117716554Y-119625250D01*
X117749500Y-119682314D01*
X117842686Y-119775500D01*
X117956814Y-119841392D01*
X118084108Y-119875500D01*
X118084110Y-119875500D01*
X118174167Y-119875500D01*
X118241206Y-119895185D01*
X118261848Y-119911819D01*
X118634540Y-120284511D01*
X118690489Y-120340460D01*
X118690491Y-120340461D01*
X118690495Y-120340464D01*
X118735498Y-120366446D01*
X118759011Y-120380021D01*
X118835438Y-120400500D01*
X118835440Y-120400500D01*
X123714560Y-120400500D01*
X123714562Y-120400500D01*
X123790989Y-120380021D01*
X123859511Y-120340460D01*
X123915460Y-120284511D01*
X125438151Y-118761818D01*
X125499474Y-118728334D01*
X125525832Y-118725500D01*
X125615890Y-118725500D01*
X125615892Y-118725500D01*
X125743186Y-118691392D01*
X125857314Y-118625500D01*
X125950500Y-118532314D01*
X126016392Y-118418186D01*
X126050500Y-118290892D01*
X126050500Y-118159108D01*
X126016392Y-118031814D01*
X125950500Y-117917686D01*
X125857314Y-117824500D01*
X125800250Y-117791554D01*
X125743187Y-117758608D01*
X125679539Y-117741554D01*
X125615892Y-117724500D01*
X125484108Y-117724500D01*
X125356812Y-117758608D01*
X125242686Y-117824500D01*
X125242683Y-117824502D01*
X125149502Y-117917683D01*
X125149500Y-117917686D01*
X125083608Y-118031812D01*
X125049500Y-118159108D01*
X125049500Y-118249166D01*
X125029815Y-118316205D01*
X125013181Y-118336847D01*
X123586848Y-119763181D01*
X123525525Y-119796666D01*
X123499167Y-119799500D01*
X119050833Y-119799500D01*
X118983794Y-119779815D01*
X118963152Y-119763181D01*
X118686819Y-119486848D01*
X118653334Y-119425525D01*
X118650500Y-119399167D01*
X118650500Y-119309110D01*
X118650500Y-119309108D01*
X118616392Y-119181814D01*
X118550500Y-119067686D01*
X118457314Y-118974500D01*
X118400250Y-118941554D01*
X118343187Y-118908608D01*
X118279539Y-118891554D01*
X118215892Y-118874500D01*
X118084108Y-118874500D01*
X117956812Y-118908608D01*
X117842686Y-118974500D01*
X117842683Y-118974502D01*
X117749502Y-119067683D01*
X117749500Y-119067686D01*
X117683608Y-119181812D01*
X117669223Y-119235499D01*
X117649500Y-119309108D01*
X102257679Y-119309108D01*
X102257152Y-119307860D01*
X102269066Y-119239014D01*
X102316310Y-119187538D01*
X102332882Y-119179168D01*
X102497598Y-119110941D01*
X102669655Y-118995977D01*
X102815977Y-118849655D01*
X102930941Y-118677598D01*
X103010130Y-118486420D01*
X103050500Y-118283465D01*
X103050500Y-118076535D01*
X103010130Y-117873580D01*
X102962507Y-117758608D01*
X102952359Y-117734108D01*
X110899500Y-117734108D01*
X110899500Y-117865892D01*
X110902900Y-117878580D01*
X110933608Y-117993187D01*
X110960902Y-118040460D01*
X110999500Y-118107314D01*
X111092686Y-118200500D01*
X111206814Y-118266392D01*
X111334108Y-118300500D01*
X111334110Y-118300500D01*
X111465890Y-118300500D01*
X111465892Y-118300500D01*
X111593186Y-118266392D01*
X111707314Y-118200500D01*
X111770995Y-118136819D01*
X111832318Y-118103334D01*
X111858676Y-118100500D01*
X123839560Y-118100500D01*
X123839562Y-118100500D01*
X123915989Y-118080021D01*
X123984511Y-118040460D01*
X124040460Y-117984511D01*
X126483441Y-115541530D01*
X149209500Y-115541530D01*
X149209500Y-115748469D01*
X149249868Y-115951412D01*
X149249870Y-115951420D01*
X149329058Y-116142596D01*
X149444024Y-116314657D01*
X149590342Y-116460975D01*
X149590345Y-116460977D01*
X149762402Y-116575941D01*
X149953580Y-116655130D01*
X150131393Y-116690499D01*
X150156530Y-116695499D01*
X150156534Y-116695500D01*
X150156535Y-116695500D01*
X150363466Y-116695500D01*
X150363467Y-116695499D01*
X150566420Y-116655130D01*
X150757598Y-116575941D01*
X150929655Y-116460977D01*
X151075977Y-116314655D01*
X151190941Y-116142598D01*
X151270130Y-115951420D01*
X151310500Y-115748465D01*
X151310500Y-115541535D01*
X151270130Y-115338580D01*
X151190941Y-115147402D01*
X151075977Y-114975345D01*
X151075975Y-114975342D01*
X150929657Y-114829024D01*
X150843626Y-114771541D01*
X150757598Y-114714059D01*
X150707206Y-114693186D01*
X150566420Y-114634870D01*
X150566412Y-114634868D01*
X150363469Y-114594500D01*
X150363465Y-114594500D01*
X150156535Y-114594500D01*
X150156530Y-114594500D01*
X149953587Y-114634868D01*
X149953579Y-114634870D01*
X149762403Y-114714058D01*
X149590342Y-114829024D01*
X149444024Y-114975342D01*
X149329058Y-115147403D01*
X149249870Y-115338579D01*
X149249868Y-115338587D01*
X149209500Y-115541530D01*
X126483441Y-115541530D01*
X127188152Y-114836819D01*
X127249475Y-114803334D01*
X127275833Y-114800500D01*
X127666324Y-114800500D01*
X127733363Y-114820185D01*
X127754005Y-114836819D01*
X127817686Y-114900500D01*
X127931814Y-114966392D01*
X128059108Y-115000500D01*
X128059110Y-115000500D01*
X128190890Y-115000500D01*
X128190892Y-115000500D01*
X128318186Y-114966392D01*
X128432314Y-114900500D01*
X128525500Y-114807314D01*
X128591392Y-114693186D01*
X128625500Y-114565892D01*
X128625500Y-114434108D01*
X128591392Y-114306814D01*
X128525500Y-114192686D01*
X128432314Y-114099500D01*
X128375250Y-114066554D01*
X128318187Y-114033608D01*
X128254539Y-114016554D01*
X128190892Y-113999500D01*
X128059108Y-113999500D01*
X127931812Y-114033608D01*
X127817686Y-114099500D01*
X127817683Y-114099502D01*
X127754005Y-114163181D01*
X127692682Y-114196666D01*
X127666324Y-114199500D01*
X127060438Y-114199500D01*
X126984010Y-114219978D01*
X126915489Y-114259540D01*
X126915486Y-114259542D01*
X123711848Y-117463181D01*
X123650525Y-117496666D01*
X123624167Y-117499500D01*
X111858676Y-117499500D01*
X111791637Y-117479815D01*
X111770995Y-117463181D01*
X111707316Y-117399502D01*
X111707314Y-117399500D01*
X111636605Y-117358676D01*
X111593187Y-117333608D01*
X111529539Y-117316554D01*
X111465892Y-117299500D01*
X111334108Y-117299500D01*
X111206812Y-117333608D01*
X111092686Y-117399500D01*
X111092683Y-117399502D01*
X110999502Y-117492683D01*
X110999500Y-117492686D01*
X110933608Y-117606812D01*
X110924478Y-117640887D01*
X110899500Y-117734108D01*
X102952359Y-117734108D01*
X102930942Y-117682403D01*
X102815975Y-117510342D01*
X102669657Y-117364024D01*
X102573089Y-117299500D01*
X102497598Y-117249059D01*
X102399231Y-117208314D01*
X102306420Y-117169870D01*
X102306412Y-117169868D01*
X102103469Y-117129500D01*
X102103465Y-117129500D01*
X101896535Y-117129500D01*
X101896530Y-117129500D01*
X101693587Y-117169868D01*
X101693579Y-117169870D01*
X101502403Y-117249058D01*
X101330342Y-117364024D01*
X101184024Y-117510342D01*
X101069058Y-117682403D01*
X100989870Y-117873579D01*
X100989868Y-117873587D01*
X100949500Y-118076530D01*
X100949500Y-118283469D01*
X100989868Y-118486412D01*
X100989870Y-118486420D01*
X101043539Y-118615989D01*
X101069059Y-118677598D01*
X101125333Y-118761819D01*
X101184024Y-118849657D01*
X101330342Y-118995975D01*
X101502405Y-119110943D01*
X101605043Y-119153456D01*
X101667108Y-119179164D01*
X101721511Y-119223005D01*
X101743576Y-119289299D01*
X101726297Y-119356998D01*
X101675160Y-119404609D01*
X101657974Y-119411656D01*
X101481781Y-119468905D01*
X101292439Y-119565380D01*
X101238282Y-119604727D01*
X101238282Y-119604728D01*
X101870591Y-120237037D01*
X101807007Y-120254075D01*
X101692993Y-120319901D01*
X101599901Y-120412993D01*
X101534075Y-120527007D01*
X101517037Y-120590591D01*
X100884728Y-119958282D01*
X100884727Y-119958282D01*
X100845380Y-120012439D01*
X100748904Y-120201782D01*
X100683242Y-120403869D01*
X100683242Y-120403872D01*
X100650000Y-120613753D01*
X100300500Y-120613753D01*
X100300500Y-115536530D01*
X100949500Y-115536530D01*
X100949500Y-115743469D01*
X100989868Y-115946412D01*
X100989870Y-115946420D01*
X101069058Y-116137596D01*
X101184024Y-116309657D01*
X101330342Y-116455975D01*
X101330345Y-116455977D01*
X101502402Y-116570941D01*
X101693580Y-116650130D01*
X101896530Y-116690499D01*
X101896534Y-116690500D01*
X101896535Y-116690500D01*
X102103466Y-116690500D01*
X102103467Y-116690499D01*
X102306420Y-116650130D01*
X102497598Y-116570941D01*
X102669655Y-116455977D01*
X102815977Y-116309655D01*
X102930941Y-116137598D01*
X103010130Y-115946420D01*
X103050500Y-115743465D01*
X103050500Y-115536535D01*
X103010130Y-115333580D01*
X102930941Y-115142402D01*
X102815977Y-114970345D01*
X102815975Y-114970342D01*
X102669657Y-114824024D01*
X102505081Y-114714059D01*
X102497598Y-114709059D01*
X102459277Y-114693186D01*
X102306420Y-114629870D01*
X102306412Y-114629868D01*
X102103469Y-114589500D01*
X102103465Y-114589500D01*
X101896535Y-114589500D01*
X101896530Y-114589500D01*
X101693587Y-114629868D01*
X101693579Y-114629870D01*
X101502403Y-114709058D01*
X101330342Y-114824024D01*
X101184024Y-114970342D01*
X101069058Y-115142403D01*
X100989870Y-115333579D01*
X100989868Y-115333587D01*
X100949500Y-115536530D01*
X100300500Y-115536530D01*
X100300500Y-112996530D01*
X100949500Y-112996530D01*
X100949500Y-113203469D01*
X100989868Y-113406412D01*
X100989870Y-113406420D01*
X101069058Y-113597596D01*
X101184024Y-113769657D01*
X101330342Y-113915975D01*
X101330345Y-113915977D01*
X101502402Y-114030941D01*
X101693580Y-114110130D01*
X101896530Y-114150499D01*
X101896534Y-114150500D01*
X101896535Y-114150500D01*
X102103466Y-114150500D01*
X102103467Y-114150499D01*
X102306420Y-114110130D01*
X102497598Y-114030941D01*
X102669655Y-113915977D01*
X102815977Y-113769655D01*
X102930941Y-113597598D01*
X103010130Y-113406420D01*
X103050500Y-113203465D01*
X103050500Y-112996535D01*
X103010130Y-112793580D01*
X102930941Y-112602402D01*
X102815977Y-112430345D01*
X102815975Y-112430342D01*
X102669657Y-112284024D01*
X102505081Y-112174059D01*
X102497598Y-112169059D01*
X102306420Y-112089870D01*
X102306412Y-112089868D01*
X102103469Y-112049500D01*
X102103465Y-112049500D01*
X101896535Y-112049500D01*
X101896530Y-112049500D01*
X101693587Y-112089868D01*
X101693579Y-112089870D01*
X101502403Y-112169058D01*
X101330342Y-112284024D01*
X101184024Y-112430342D01*
X101069058Y-112602403D01*
X100989870Y-112793579D01*
X100989868Y-112793587D01*
X100949500Y-112996530D01*
X100300500Y-112996530D01*
X100300500Y-110456530D01*
X100949500Y-110456530D01*
X100949500Y-110663469D01*
X100989868Y-110866412D01*
X100989870Y-110866420D01*
X101069058Y-111057596D01*
X101184024Y-111229657D01*
X101330342Y-111375975D01*
X101330345Y-111375977D01*
X101502402Y-111490941D01*
X101693580Y-111570130D01*
X101896530Y-111610499D01*
X101896534Y-111610500D01*
X101896535Y-111610500D01*
X102103466Y-111610500D01*
X102103467Y-111610499D01*
X102306420Y-111570130D01*
X102497598Y-111490941D01*
X102669655Y-111375977D01*
X102815977Y-111229655D01*
X102930941Y-111057598D01*
X103010130Y-110866420D01*
X103050500Y-110663465D01*
X103050500Y-110456535D01*
X103010130Y-110253580D01*
X102930941Y-110062402D01*
X102815977Y-109890345D01*
X102815975Y-109890342D01*
X102669657Y-109744024D01*
X102505081Y-109634059D01*
X102497598Y-109629059D01*
X102466044Y-109615989D01*
X102306420Y-109549870D01*
X102306412Y-109549868D01*
X102103469Y-109509500D01*
X102103465Y-109509500D01*
X101896535Y-109509500D01*
X101896530Y-109509500D01*
X101693587Y-109549868D01*
X101693579Y-109549870D01*
X101502403Y-109629058D01*
X101330342Y-109744024D01*
X101184024Y-109890342D01*
X101069058Y-110062403D01*
X100989870Y-110253579D01*
X100989868Y-110253587D01*
X100949500Y-110456530D01*
X100300500Y-110456530D01*
X100300500Y-107916530D01*
X100949500Y-107916530D01*
X100949500Y-108123469D01*
X100989868Y-108326412D01*
X100989870Y-108326420D01*
X101058010Y-108490925D01*
X101069059Y-108517598D01*
X101126541Y-108603626D01*
X101184024Y-108689657D01*
X101330342Y-108835975D01*
X101330345Y-108835977D01*
X101502402Y-108950941D01*
X101693580Y-109030130D01*
X101896530Y-109070499D01*
X101896534Y-109070500D01*
X101896535Y-109070500D01*
X102103466Y-109070500D01*
X102103467Y-109070499D01*
X102306420Y-109030130D01*
X102497598Y-108950941D01*
X102669655Y-108835977D01*
X102815977Y-108689655D01*
X102930941Y-108517598D01*
X103010130Y-108326420D01*
X103050500Y-108123465D01*
X103050500Y-107916535D01*
X103010130Y-107713580D01*
X102930941Y-107522402D01*
X102815977Y-107350345D01*
X102815975Y-107350342D01*
X102669657Y-107204024D01*
X102583626Y-107146541D01*
X102497598Y-107089059D01*
X102306420Y-107009870D01*
X102306412Y-107009868D01*
X102103469Y-106969500D01*
X102103465Y-106969500D01*
X101896535Y-106969500D01*
X101896530Y-106969500D01*
X101693587Y-107009868D01*
X101693579Y-107009870D01*
X101502403Y-107089058D01*
X101330342Y-107204024D01*
X101184024Y-107350342D01*
X101069058Y-107522403D01*
X100989870Y-107713579D01*
X100989868Y-107713587D01*
X100949500Y-107916530D01*
X100300500Y-107916530D01*
X100300500Y-105376530D01*
X100949500Y-105376530D01*
X100949500Y-105583469D01*
X100989868Y-105786412D01*
X100989870Y-105786420D01*
X101069058Y-105977596D01*
X101184024Y-106149657D01*
X101330342Y-106295975D01*
X101330345Y-106295977D01*
X101502402Y-106410941D01*
X101693580Y-106490130D01*
X101896530Y-106530499D01*
X101896534Y-106530500D01*
X101896535Y-106530500D01*
X102103466Y-106530500D01*
X102103467Y-106530499D01*
X102306420Y-106490130D01*
X102497598Y-106410941D01*
X102669655Y-106295977D01*
X102815977Y-106149655D01*
X102930941Y-105977598D01*
X103010130Y-105786420D01*
X103050500Y-105583465D01*
X103050500Y-105376535D01*
X103010130Y-105173580D01*
X102930941Y-104982402D01*
X102815977Y-104810345D01*
X102815975Y-104810342D01*
X102669657Y-104664024D01*
X102574581Y-104600497D01*
X102497598Y-104549059D01*
X102306420Y-104469870D01*
X102306412Y-104469868D01*
X102103469Y-104429500D01*
X102103465Y-104429500D01*
X101896535Y-104429500D01*
X101896530Y-104429500D01*
X101693587Y-104469868D01*
X101693579Y-104469870D01*
X101502403Y-104549058D01*
X101330342Y-104664024D01*
X101184024Y-104810342D01*
X101069058Y-104982403D01*
X100989870Y-105173579D01*
X100989868Y-105173587D01*
X100949500Y-105376530D01*
X100300500Y-105376530D01*
X100300500Y-102836530D01*
X100949500Y-102836530D01*
X100949500Y-103043469D01*
X100989868Y-103246412D01*
X100989870Y-103246420D01*
X101069058Y-103437596D01*
X101184024Y-103609657D01*
X101330342Y-103755975D01*
X101330345Y-103755977D01*
X101502402Y-103870941D01*
X101693580Y-103950130D01*
X101883992Y-103988005D01*
X101896530Y-103990499D01*
X101896534Y-103990500D01*
X101896535Y-103990500D01*
X102103466Y-103990500D01*
X102103467Y-103990499D01*
X102306420Y-103950130D01*
X102497598Y-103870941D01*
X102669655Y-103755977D01*
X102815977Y-103609655D01*
X102930941Y-103437598D01*
X103010130Y-103246420D01*
X103050500Y-103043465D01*
X103050500Y-102836535D01*
X103010130Y-102633580D01*
X102930941Y-102442402D01*
X102815977Y-102270345D01*
X102815975Y-102270342D01*
X102669657Y-102124024D01*
X102505081Y-102014059D01*
X102497598Y-102009059D01*
X102306420Y-101929870D01*
X102306412Y-101929868D01*
X102103469Y-101889500D01*
X102103465Y-101889500D01*
X101896535Y-101889500D01*
X101896530Y-101889500D01*
X101693587Y-101929868D01*
X101693579Y-101929870D01*
X101502403Y-102009058D01*
X101330342Y-102124024D01*
X101184024Y-102270342D01*
X101069058Y-102442403D01*
X100989870Y-102633579D01*
X100989868Y-102633587D01*
X100949500Y-102836530D01*
X100300500Y-102836530D01*
X100300500Y-92673753D01*
X100650000Y-92673753D01*
X100650000Y-92886246D01*
X100683242Y-93096127D01*
X100683242Y-93096130D01*
X100748904Y-93298217D01*
X100845375Y-93487550D01*
X100884728Y-93541716D01*
X101517037Y-92909408D01*
X101534075Y-92972993D01*
X101599901Y-93087007D01*
X101692993Y-93180099D01*
X101807007Y-93245925D01*
X101870590Y-93262962D01*
X101238282Y-93895269D01*
X101238282Y-93895270D01*
X101292449Y-93934624D01*
X101481782Y-94031095D01*
X101657973Y-94088343D01*
X101715648Y-94127780D01*
X101742847Y-94192139D01*
X101730932Y-94260985D01*
X101683688Y-94312461D01*
X101667108Y-94320835D01*
X101502403Y-94389057D01*
X101330342Y-94504024D01*
X101184024Y-94650342D01*
X101069058Y-94822403D01*
X100989870Y-95013579D01*
X100989868Y-95013587D01*
X100949500Y-95216530D01*
X100949500Y-95423469D01*
X100989868Y-95626412D01*
X100989870Y-95626420D01*
X101069058Y-95817596D01*
X101184024Y-95989657D01*
X101330342Y-96135975D01*
X101502405Y-96250943D01*
X101578147Y-96282316D01*
X101667108Y-96319164D01*
X101721511Y-96363005D01*
X101743576Y-96429299D01*
X101726297Y-96496998D01*
X101675160Y-96544609D01*
X101657974Y-96551656D01*
X101481781Y-96608905D01*
X101292439Y-96705380D01*
X101238282Y-96744727D01*
X101238282Y-96744728D01*
X101870591Y-97377037D01*
X101807007Y-97394075D01*
X101692993Y-97459901D01*
X101599901Y-97552993D01*
X101534075Y-97667007D01*
X101517037Y-97730591D01*
X100884728Y-97098282D01*
X100884727Y-97098282D01*
X100845380Y-97152439D01*
X100748904Y-97341782D01*
X100683242Y-97543869D01*
X100683242Y-97543872D01*
X100650000Y-97753753D01*
X100650000Y-97966246D01*
X100683242Y-98176127D01*
X100683242Y-98176130D01*
X100748904Y-98378217D01*
X100845375Y-98567550D01*
X100884728Y-98621716D01*
X101517037Y-97989408D01*
X101534075Y-98052993D01*
X101599901Y-98167007D01*
X101692993Y-98260099D01*
X101807007Y-98325925D01*
X101870590Y-98342962D01*
X101238282Y-98975269D01*
X101238282Y-98975270D01*
X101292449Y-99014624D01*
X101481782Y-99111095D01*
X101657973Y-99168343D01*
X101715648Y-99207780D01*
X101742847Y-99272139D01*
X101730932Y-99340985D01*
X101683688Y-99392461D01*
X101667108Y-99400835D01*
X101502403Y-99469057D01*
X101330342Y-99584024D01*
X101184024Y-99730342D01*
X101069058Y-99902403D01*
X100989870Y-100093579D01*
X100989868Y-100093587D01*
X100949500Y-100296530D01*
X100949500Y-100503469D01*
X100989868Y-100706412D01*
X100989870Y-100706420D01*
X101069058Y-100897596D01*
X101184024Y-101069657D01*
X101330342Y-101215975D01*
X101330345Y-101215977D01*
X101502402Y-101330941D01*
X101693580Y-101410130D01*
X101896530Y-101450499D01*
X101896534Y-101450500D01*
X101896535Y-101450500D01*
X102103466Y-101450500D01*
X102103467Y-101450499D01*
X102306420Y-101410130D01*
X102497598Y-101330941D01*
X102669655Y-101215977D01*
X102815977Y-101069655D01*
X102930941Y-100897598D01*
X103010130Y-100706420D01*
X103050500Y-100503465D01*
X103050500Y-100296535D01*
X103010130Y-100093580D01*
X102930941Y-99902402D01*
X102815977Y-99730345D01*
X102815975Y-99730342D01*
X102669657Y-99584024D01*
X102583626Y-99526541D01*
X102497598Y-99469059D01*
X102497593Y-99469057D01*
X102435891Y-99443499D01*
X102332890Y-99400834D01*
X102278488Y-99356994D01*
X102256423Y-99290700D01*
X102273702Y-99223001D01*
X102324839Y-99175390D01*
X102342026Y-99168343D01*
X102518217Y-99111095D01*
X102707554Y-99014622D01*
X102761716Y-98975270D01*
X102761717Y-98975270D01*
X102129408Y-98342962D01*
X102192993Y-98325925D01*
X102307007Y-98260099D01*
X102400099Y-98167007D01*
X102465925Y-98052993D01*
X102482962Y-97989409D01*
X103115270Y-98621717D01*
X103115270Y-98621716D01*
X103154622Y-98567554D01*
X103251095Y-98378217D01*
X103316757Y-98176130D01*
X103316757Y-98176127D01*
X103350000Y-97966246D01*
X103350000Y-97753753D01*
X103316757Y-97543872D01*
X103316757Y-97543869D01*
X103251095Y-97341782D01*
X103154624Y-97152449D01*
X103115270Y-97098282D01*
X103115269Y-97098282D01*
X102482962Y-97730590D01*
X102465925Y-97667007D01*
X102400099Y-97552993D01*
X102307007Y-97459901D01*
X102192993Y-97394075D01*
X102129409Y-97377037D01*
X102761716Y-96744728D01*
X102707550Y-96705375D01*
X102518216Y-96608904D01*
X102342026Y-96551656D01*
X102284350Y-96512218D01*
X102257152Y-96447860D01*
X102269067Y-96379013D01*
X102316311Y-96327538D01*
X102332882Y-96319168D01*
X102497598Y-96250941D01*
X102669655Y-96135977D01*
X102815977Y-95989655D01*
X102930941Y-95817598D01*
X103010130Y-95626420D01*
X103050500Y-95423465D01*
X103050500Y-95216535D01*
X103010130Y-95013580D01*
X102930941Y-94822402D01*
X102815977Y-94650345D01*
X102815975Y-94650342D01*
X102669657Y-94504024D01*
X102505081Y-94394059D01*
X102497598Y-94389059D01*
X102497593Y-94389057D01*
X102435891Y-94363499D01*
X102332890Y-94320834D01*
X102278488Y-94276994D01*
X102256423Y-94210700D01*
X102273702Y-94143001D01*
X102324839Y-94095390D01*
X102342026Y-94088343D01*
X102518217Y-94031095D01*
X102707554Y-93934622D01*
X102761716Y-93895270D01*
X102761717Y-93895270D01*
X102129408Y-93262962D01*
X102192993Y-93245925D01*
X102307007Y-93180099D01*
X102400099Y-93087007D01*
X102465925Y-92972993D01*
X102482962Y-92909408D01*
X103115270Y-93541717D01*
X103115270Y-93541716D01*
X103154622Y-93487554D01*
X103251095Y-93298217D01*
X103316757Y-93096130D01*
X103316757Y-93096127D01*
X103350000Y-92886246D01*
X103350000Y-92673753D01*
X103316757Y-92463872D01*
X103316757Y-92463869D01*
X103251095Y-92261783D01*
X103247383Y-92254497D01*
X103234486Y-92185828D01*
X103260761Y-92121087D01*
X103317867Y-92080829D01*
X103387672Y-92077835D01*
X103445548Y-92110519D01*
X109663181Y-98328152D01*
X109696666Y-98389475D01*
X109699500Y-98415833D01*
X109699500Y-109539562D01*
X109719979Y-109615989D01*
X109727525Y-109629059D01*
X109759540Y-109684511D01*
X115759540Y-115684511D01*
X115815489Y-115740460D01*
X115815491Y-115740461D01*
X115815495Y-115740464D01*
X115884004Y-115780017D01*
X115884011Y-115780021D01*
X115960438Y-115800500D01*
X116039562Y-115800500D01*
X122841324Y-115800500D01*
X122908363Y-115820185D01*
X122929005Y-115836819D01*
X122992686Y-115900500D01*
X123106814Y-115966392D01*
X123234108Y-116000500D01*
X123234110Y-116000500D01*
X123365890Y-116000500D01*
X123365892Y-116000500D01*
X123493186Y-115966392D01*
X123607314Y-115900500D01*
X123700500Y-115807314D01*
X123766392Y-115693186D01*
X123800500Y-115565892D01*
X123800500Y-115434108D01*
X123766392Y-115306814D01*
X123700500Y-115192686D01*
X123607314Y-115099500D01*
X123550250Y-115066554D01*
X123493187Y-115033608D01*
X123429539Y-115016554D01*
X123365892Y-114999500D01*
X123234108Y-114999500D01*
X123106812Y-115033608D01*
X122992686Y-115099500D01*
X122992683Y-115099502D01*
X122929005Y-115163181D01*
X122867682Y-115196666D01*
X122841324Y-115199500D01*
X116175833Y-115199500D01*
X116108794Y-115179815D01*
X116088152Y-115163181D01*
X113926501Y-113001530D01*
X149209500Y-113001530D01*
X149209500Y-113208469D01*
X149249868Y-113411412D01*
X149249870Y-113411420D01*
X149329058Y-113602596D01*
X149444024Y-113774657D01*
X149590342Y-113920975D01*
X149590345Y-113920977D01*
X149762402Y-114035941D01*
X149953580Y-114115130D01*
X150131393Y-114150499D01*
X150156530Y-114155499D01*
X150156534Y-114155500D01*
X150156535Y-114155500D01*
X150363466Y-114155500D01*
X150363467Y-114155499D01*
X150566420Y-114115130D01*
X150757598Y-114035941D01*
X150929655Y-113920977D01*
X151075977Y-113774655D01*
X151190941Y-113602598D01*
X151270130Y-113411420D01*
X151310500Y-113208465D01*
X151310500Y-113001535D01*
X151270130Y-112798580D01*
X151190941Y-112607402D01*
X151075977Y-112435345D01*
X151075975Y-112435342D01*
X150929657Y-112289024D01*
X150843626Y-112231541D01*
X150757598Y-112174059D01*
X150566420Y-112094870D01*
X150566412Y-112094868D01*
X150363469Y-112054500D01*
X150363465Y-112054500D01*
X150156535Y-112054500D01*
X150156530Y-112054500D01*
X149953587Y-112094868D01*
X149953579Y-112094870D01*
X149762403Y-112174058D01*
X149590342Y-112289024D01*
X149444024Y-112435342D01*
X149329058Y-112607403D01*
X149249870Y-112798579D01*
X149249868Y-112798587D01*
X149209500Y-113001530D01*
X113926501Y-113001530D01*
X110336819Y-109411848D01*
X110303334Y-109350525D01*
X110300500Y-109324167D01*
X110300500Y-108052206D01*
X110320185Y-107985167D01*
X110372989Y-107939412D01*
X110442147Y-107929468D01*
X110505703Y-107958493D01*
X110531887Y-107990206D01*
X110599497Y-108107310D01*
X110599499Y-108107312D01*
X110599500Y-108107314D01*
X110692686Y-108200500D01*
X110806814Y-108266392D01*
X110934108Y-108300500D01*
X110934110Y-108300500D01*
X111024167Y-108300500D01*
X111091206Y-108320185D01*
X111111848Y-108336819D01*
X112259540Y-109484511D01*
X112315489Y-109540460D01*
X112315491Y-109540461D01*
X112315495Y-109540464D01*
X112359440Y-109565835D01*
X112384011Y-109580021D01*
X112460438Y-109600500D01*
X112460440Y-109600500D01*
X130639560Y-109600500D01*
X130639562Y-109600500D01*
X130715989Y-109580021D01*
X130784511Y-109540460D01*
X130840460Y-109484511D01*
X131280391Y-109044578D01*
X131335974Y-109012487D01*
X131417451Y-108990657D01*
X131531579Y-108924765D01*
X131624765Y-108831579D01*
X131690657Y-108717451D01*
X131724765Y-108590157D01*
X131724765Y-108458373D01*
X131724763Y-108458369D01*
X131724464Y-108456092D01*
X131724765Y-108454161D01*
X131724765Y-108450246D01*
X131725376Y-108450246D01*
X131735228Y-108387056D01*
X131781606Y-108334799D01*
X131815307Y-108320129D01*
X131842423Y-108312864D01*
X131956551Y-108246972D01*
X132049737Y-108153786D01*
X132115629Y-108039658D01*
X132149737Y-107912364D01*
X132149737Y-107780580D01*
X132115629Y-107653286D01*
X132113624Y-107649814D01*
X132088335Y-107606012D01*
X132049737Y-107539158D01*
X131956551Y-107445972D01*
X131876063Y-107399502D01*
X131842424Y-107380080D01*
X131731449Y-107350345D01*
X131715129Y-107345972D01*
X131583345Y-107345972D01*
X131456049Y-107380080D01*
X131341923Y-107445972D01*
X131341920Y-107445974D01*
X131278242Y-107509653D01*
X131216919Y-107543138D01*
X131190561Y-107545972D01*
X131013966Y-107545972D01*
X130965066Y-107559075D01*
X130937538Y-107566451D01*
X130878462Y-107600559D01*
X130878461Y-107600558D01*
X130869020Y-107606009D01*
X130869015Y-107606013D01*
X130111848Y-108363181D01*
X130050525Y-108396666D01*
X130024167Y-108399500D01*
X113858676Y-108399500D01*
X113791637Y-108379815D01*
X113770995Y-108363181D01*
X113707316Y-108299502D01*
X113707314Y-108299500D01*
X113649968Y-108266391D01*
X113593187Y-108233608D01*
X113529539Y-108216554D01*
X113465892Y-108199500D01*
X113334108Y-108199500D01*
X113206812Y-108233608D01*
X113092686Y-108299500D01*
X113092683Y-108299502D01*
X112999502Y-108392683D01*
X112999500Y-108392686D01*
X112933608Y-108506812D01*
X112899500Y-108634108D01*
X112899500Y-108765891D01*
X112920270Y-108843407D01*
X112919674Y-108868401D01*
X112923233Y-108893147D01*
X112918857Y-108902727D01*
X112918607Y-108913257D01*
X112904594Y-108933960D01*
X112894208Y-108956703D01*
X112885346Y-108962397D01*
X112879444Y-108971119D01*
X112856463Y-108980960D01*
X112835430Y-108994477D01*
X112819574Y-108996756D01*
X112815216Y-108998623D01*
X112800495Y-108999500D01*
X112675833Y-108999500D01*
X112608794Y-108979815D01*
X112588152Y-108963181D01*
X111536819Y-107911848D01*
X111503334Y-107850525D01*
X111500500Y-107824167D01*
X111500500Y-107734110D01*
X111500500Y-107734108D01*
X111466392Y-107606814D01*
X111400500Y-107492686D01*
X111307314Y-107399500D01*
X111250250Y-107366554D01*
X111193187Y-107333608D01*
X111129539Y-107316554D01*
X111065892Y-107299500D01*
X110934108Y-107299500D01*
X110806812Y-107333608D01*
X110692686Y-107399500D01*
X110692683Y-107399502D01*
X110599502Y-107492683D01*
X110599500Y-107492686D01*
X110531887Y-107609794D01*
X110481319Y-107658009D01*
X110412712Y-107671231D01*
X110347848Y-107645263D01*
X110307320Y-107588349D01*
X110300500Y-107547793D01*
X110300500Y-105134108D01*
X120599500Y-105134108D01*
X120599500Y-105265892D01*
X120616554Y-105329539D01*
X120633608Y-105393187D01*
X120648612Y-105419174D01*
X120699500Y-105507314D01*
X120792686Y-105600500D01*
X120906814Y-105666392D01*
X121034108Y-105700500D01*
X121034110Y-105700500D01*
X121165890Y-105700500D01*
X121165892Y-105700500D01*
X121293186Y-105666392D01*
X121407314Y-105600500D01*
X121500500Y-105507314D01*
X121566392Y-105393186D01*
X121600500Y-105265892D01*
X121600500Y-105168175D01*
X121601443Y-105160572D01*
X121612413Y-105135259D01*
X121620185Y-105108794D01*
X121628189Y-105098860D01*
X121629228Y-105096465D01*
X121631168Y-105095163D01*
X121636820Y-105088151D01*
X121688154Y-105036818D01*
X121749477Y-105003334D01*
X121775834Y-105000500D01*
X127039560Y-105000500D01*
X127039562Y-105000500D01*
X127115989Y-104980021D01*
X127184511Y-104940460D01*
X127184513Y-104940458D01*
X127188153Y-104936819D01*
X127249476Y-104903334D01*
X127275834Y-104900500D01*
X127365890Y-104900500D01*
X127365892Y-104900500D01*
X127493186Y-104866392D01*
X127607314Y-104800500D01*
X127670995Y-104736819D01*
X127732318Y-104703334D01*
X127758676Y-104700500D01*
X128764560Y-104700500D01*
X128764562Y-104700500D01*
X128779739Y-104696432D01*
X128843925Y-104696432D01*
X128859108Y-104700500D01*
X128859110Y-104700500D01*
X128990890Y-104700500D01*
X128990892Y-104700500D01*
X129118186Y-104666392D01*
X129232314Y-104600500D01*
X129325500Y-104507314D01*
X129391392Y-104393186D01*
X129425500Y-104265892D01*
X129425500Y-104134108D01*
X129391392Y-104006814D01*
X129325500Y-103892686D01*
X129232314Y-103799500D01*
X129175250Y-103766554D01*
X129118187Y-103733608D01*
X129054539Y-103716554D01*
X128990892Y-103699500D01*
X128859108Y-103699500D01*
X128731812Y-103733608D01*
X128617686Y-103799500D01*
X128617683Y-103799502D01*
X128524502Y-103892683D01*
X128524500Y-103892686D01*
X128458608Y-104006812D01*
X128458401Y-104007588D01*
X128458046Y-104008169D01*
X128455500Y-104014318D01*
X128454541Y-104013920D01*
X128422039Y-104067250D01*
X128359193Y-104097782D01*
X128338625Y-104099500D01*
X127758676Y-104099500D01*
X127729231Y-104090854D01*
X127699248Y-104084331D01*
X127694233Y-104080577D01*
X127691637Y-104079815D01*
X127670998Y-104063184D01*
X127636817Y-104029003D01*
X127603333Y-103967679D01*
X127600500Y-103941323D01*
X127600500Y-96433676D01*
X127620185Y-96366637D01*
X127636819Y-96345995D01*
X127663650Y-96319164D01*
X127700500Y-96282314D01*
X127766392Y-96168186D01*
X127800500Y-96040892D01*
X127800500Y-95909108D01*
X127766392Y-95781814D01*
X127700500Y-95667686D01*
X127607314Y-95574500D01*
X127550250Y-95541554D01*
X127493187Y-95508608D01*
X127429539Y-95491554D01*
X127365892Y-95474500D01*
X127234108Y-95474500D01*
X127106812Y-95508608D01*
X126992686Y-95574500D01*
X126992683Y-95574502D01*
X126899502Y-95667683D01*
X126899500Y-95667686D01*
X126833608Y-95781812D01*
X126799500Y-95909108D01*
X126799500Y-96040891D01*
X126833608Y-96168187D01*
X126866554Y-96225250D01*
X126899500Y-96282314D01*
X126899502Y-96282316D01*
X126963181Y-96345995D01*
X126996666Y-96407318D01*
X126999500Y-96433676D01*
X126999500Y-103941323D01*
X126979815Y-104008362D01*
X126963182Y-104029004D01*
X126899500Y-104092686D01*
X126833608Y-104206812D01*
X126806605Y-104307593D01*
X126770240Y-104367254D01*
X126707393Y-104397783D01*
X126686830Y-104399500D01*
X121560438Y-104399500D01*
X121484010Y-104419978D01*
X121415489Y-104459540D01*
X121415486Y-104459542D01*
X121211847Y-104663181D01*
X121150524Y-104696666D01*
X121124166Y-104699500D01*
X121034108Y-104699500D01*
X120906812Y-104733608D01*
X120792686Y-104799500D01*
X120792683Y-104799502D01*
X120699502Y-104892683D01*
X120699500Y-104892686D01*
X120633608Y-105006812D01*
X120606283Y-105108794D01*
X120599500Y-105134108D01*
X110300500Y-105134108D01*
X110300500Y-98200439D01*
X110300500Y-98200438D01*
X110280021Y-98124011D01*
X110280017Y-98124004D01*
X110240464Y-98055495D01*
X110240458Y-98055487D01*
X102987075Y-90802104D01*
X102953590Y-90740781D01*
X102958574Y-90671089D01*
X102960163Y-90667049D01*
X103010130Y-90546420D01*
X103050500Y-90343465D01*
X103050500Y-90136535D01*
X103010130Y-89933580D01*
X102930941Y-89742402D01*
X102815977Y-89570345D01*
X102815975Y-89570342D01*
X102669657Y-89424024D01*
X102505081Y-89314059D01*
X102497598Y-89309059D01*
X102306420Y-89229870D01*
X102306412Y-89229868D01*
X102103469Y-89189500D01*
X102103465Y-89189500D01*
X101896535Y-89189500D01*
X101896530Y-89189500D01*
X101693587Y-89229868D01*
X101693579Y-89229870D01*
X101502403Y-89309058D01*
X101330342Y-89424024D01*
X101184024Y-89570342D01*
X101069058Y-89742403D01*
X100989870Y-89933579D01*
X100989868Y-89933587D01*
X100949500Y-90136530D01*
X100949500Y-90343469D01*
X100989868Y-90546412D01*
X100989870Y-90546420D01*
X101069058Y-90737596D01*
X101184024Y-90909657D01*
X101330342Y-91055975D01*
X101502405Y-91170943D01*
X101605043Y-91213456D01*
X101667108Y-91239164D01*
X101721511Y-91283005D01*
X101743576Y-91349299D01*
X101726297Y-91416998D01*
X101675160Y-91464609D01*
X101657974Y-91471656D01*
X101481781Y-91528905D01*
X101292439Y-91625380D01*
X101238282Y-91664727D01*
X101238282Y-91664728D01*
X101870591Y-92297037D01*
X101807007Y-92314075D01*
X101692993Y-92379901D01*
X101599901Y-92472993D01*
X101534075Y-92587007D01*
X101517037Y-92650591D01*
X100884728Y-92018282D01*
X100884727Y-92018282D01*
X100845380Y-92072439D01*
X100748904Y-92261782D01*
X100683242Y-92463869D01*
X100683242Y-92463872D01*
X100650000Y-92673753D01*
X100300500Y-92673753D01*
X100300500Y-87596530D01*
X100949500Y-87596530D01*
X100949500Y-87803469D01*
X100989868Y-88006412D01*
X100989870Y-88006420D01*
X101069058Y-88197596D01*
X101184024Y-88369657D01*
X101330342Y-88515975D01*
X101330345Y-88515977D01*
X101502402Y-88630941D01*
X101693580Y-88710130D01*
X101896530Y-88750499D01*
X101896534Y-88750500D01*
X101896535Y-88750500D01*
X102103466Y-88750500D01*
X102103467Y-88750499D01*
X102306420Y-88710130D01*
X102497598Y-88630941D01*
X102669655Y-88515977D01*
X102815977Y-88369655D01*
X102930941Y-88197598D01*
X103010130Y-88006420D01*
X103050500Y-87803465D01*
X103050500Y-87596535D01*
X103010130Y-87393580D01*
X102930941Y-87202402D01*
X102815977Y-87030345D01*
X102815975Y-87030342D01*
X102669657Y-86884024D01*
X102505081Y-86774059D01*
X102497598Y-86769059D01*
X102306420Y-86689870D01*
X102306412Y-86689868D01*
X102103469Y-86649500D01*
X102103465Y-86649500D01*
X101896535Y-86649500D01*
X101896530Y-86649500D01*
X101693587Y-86689868D01*
X101693579Y-86689870D01*
X101502403Y-86769058D01*
X101330342Y-86884024D01*
X101184024Y-87030342D01*
X101069058Y-87202403D01*
X100989870Y-87393579D01*
X100989868Y-87393587D01*
X100949500Y-87596530D01*
X100300500Y-87596530D01*
X100300500Y-84290247D01*
X100949500Y-84290247D01*
X100949500Y-86029752D01*
X100961131Y-86088229D01*
X100961132Y-86088230D01*
X101005447Y-86154552D01*
X101071769Y-86198867D01*
X101071770Y-86198868D01*
X101130247Y-86210499D01*
X101130250Y-86210500D01*
X101130252Y-86210500D01*
X102869750Y-86210500D01*
X102869751Y-86210499D01*
X102884568Y-86207552D01*
X102928229Y-86198868D01*
X102928229Y-86198867D01*
X102928231Y-86198867D01*
X102994552Y-86154552D01*
X103038867Y-86088231D01*
X103038867Y-86088229D01*
X103038868Y-86088229D01*
X103050499Y-86029752D01*
X103050500Y-86029750D01*
X103050500Y-84290250D01*
X103050061Y-84288044D01*
X103050061Y-84288042D01*
X103038868Y-84231770D01*
X103038867Y-84231769D01*
X102994552Y-84165447D01*
X102928230Y-84121132D01*
X102928229Y-84121131D01*
X102869752Y-84109500D01*
X102869748Y-84109500D01*
X101130252Y-84109500D01*
X101130247Y-84109500D01*
X101071770Y-84121131D01*
X101071769Y-84121132D01*
X101005447Y-84165447D01*
X100961132Y-84231769D01*
X100961131Y-84231770D01*
X100949500Y-84290247D01*
X100300500Y-84290247D01*
X100300500Y-76624500D01*
X100320185Y-76557461D01*
X100372989Y-76511706D01*
X100424500Y-76500500D01*
X151675500Y-76500500D01*
X151742539Y-76520185D01*
G37*
%TD.AperFunction*%
%TA.AperFunction,Conductor*%
G36*
X124394075Y-138692993D02*
G01*
X124459901Y-138807007D01*
X124552993Y-138900099D01*
X124667007Y-138965925D01*
X124730590Y-138982962D01*
X124098282Y-139615269D01*
X124098282Y-139615270D01*
X124152449Y-139654624D01*
X124341782Y-139751095D01*
X124361706Y-139757569D01*
X124419381Y-139797006D01*
X124446580Y-139861365D01*
X124434665Y-139930211D01*
X124387421Y-139981687D01*
X124323388Y-139999500D01*
X122856612Y-139999500D01*
X122789573Y-139979815D01*
X122743818Y-139927011D01*
X122733874Y-139857853D01*
X122762899Y-139794297D01*
X122818294Y-139757569D01*
X122838217Y-139751095D01*
X123027554Y-139654622D01*
X123081716Y-139615270D01*
X123081717Y-139615270D01*
X122449408Y-138982962D01*
X122512993Y-138965925D01*
X122627007Y-138900099D01*
X122720099Y-138807007D01*
X122785925Y-138692993D01*
X122802962Y-138629408D01*
X123435270Y-139261717D01*
X123435270Y-139261716D01*
X123474622Y-139207554D01*
X123479514Y-139197954D01*
X123527488Y-139147157D01*
X123595308Y-139130361D01*
X123661444Y-139152897D01*
X123700486Y-139197954D01*
X123705375Y-139207550D01*
X123744728Y-139261716D01*
X124377037Y-138629408D01*
X124394075Y-138692993D01*
G37*
%TD.AperFunction*%
%TA.AperFunction,Conductor*%
G36*
X151375270Y-106246717D02*
G01*
X151375270Y-106246716D01*
X151414622Y-106192554D01*
X151511095Y-106003217D01*
X151557569Y-105860185D01*
X151597006Y-105802510D01*
X151661365Y-105775311D01*
X151730211Y-105787225D01*
X151781687Y-105834469D01*
X151799500Y-105898503D01*
X151799500Y-107611496D01*
X151779815Y-107678535D01*
X151727011Y-107724290D01*
X151657853Y-107734234D01*
X151594297Y-107705209D01*
X151557569Y-107649814D01*
X151511095Y-107506782D01*
X151414624Y-107317449D01*
X151375270Y-107263282D01*
X151375269Y-107263282D01*
X150742962Y-107895590D01*
X150725925Y-107832007D01*
X150660099Y-107717993D01*
X150567007Y-107624901D01*
X150452993Y-107559075D01*
X150389409Y-107542037D01*
X151021716Y-106909728D01*
X150967550Y-106870375D01*
X150957954Y-106865486D01*
X150907157Y-106817512D01*
X150890361Y-106749692D01*
X150912897Y-106683556D01*
X150957954Y-106644514D01*
X150967554Y-106639622D01*
X151021716Y-106600270D01*
X151021717Y-106600270D01*
X150389408Y-105967962D01*
X150452993Y-105950925D01*
X150567007Y-105885099D01*
X150660099Y-105792007D01*
X150725925Y-105677993D01*
X150742962Y-105614408D01*
X151375270Y-106246717D01*
G37*
%TD.AperFunction*%
%TA.AperFunction,Conductor*%
G36*
X151375270Y-101166717D02*
G01*
X151375270Y-101166716D01*
X151414622Y-101112554D01*
X151511095Y-100923217D01*
X151557569Y-100780185D01*
X151597006Y-100722510D01*
X151661365Y-100695311D01*
X151730211Y-100707225D01*
X151781687Y-100754469D01*
X151799500Y-100818503D01*
X151799500Y-105071496D01*
X151779815Y-105138535D01*
X151727011Y-105184290D01*
X151657853Y-105194234D01*
X151594297Y-105165209D01*
X151557569Y-105109814D01*
X151511095Y-104966782D01*
X151414624Y-104777449D01*
X151375270Y-104723282D01*
X151375269Y-104723282D01*
X150742962Y-105355590D01*
X150725925Y-105292007D01*
X150660099Y-105177993D01*
X150567007Y-105084901D01*
X150452993Y-105019075D01*
X150389409Y-105002037D01*
X151021716Y-104369728D01*
X150967550Y-104330375D01*
X150778216Y-104233904D01*
X150602026Y-104176656D01*
X150544350Y-104137218D01*
X150517152Y-104072860D01*
X150529067Y-104004013D01*
X150576311Y-103952538D01*
X150592882Y-103944168D01*
X150757598Y-103875941D01*
X150929655Y-103760977D01*
X151075977Y-103614655D01*
X151190941Y-103442598D01*
X151270130Y-103251420D01*
X151310500Y-103048465D01*
X151310500Y-102841535D01*
X151270130Y-102638580D01*
X151190941Y-102447402D01*
X151075977Y-102275345D01*
X151075975Y-102275342D01*
X150929657Y-102129024D01*
X150843626Y-102071541D01*
X150757598Y-102014059D01*
X150757593Y-102014057D01*
X150695891Y-101988499D01*
X150592890Y-101945834D01*
X150538488Y-101901994D01*
X150516423Y-101835700D01*
X150533702Y-101768001D01*
X150584839Y-101720390D01*
X150602026Y-101713343D01*
X150778217Y-101656095D01*
X150967554Y-101559622D01*
X151021716Y-101520270D01*
X151021717Y-101520270D01*
X150389408Y-100887962D01*
X150452993Y-100870925D01*
X150567007Y-100805099D01*
X150660099Y-100712007D01*
X150725925Y-100597993D01*
X150742962Y-100534408D01*
X151375270Y-101166717D01*
G37*
%TD.AperFunction*%
%TD*%
M02*
