%TF.GenerationSoftware,KiCad,Pcbnew,10.0.3*%
%TF.CreationDate,2026-06-04T08:51:03-06:00*%
%TF.ProjectId,rp2040-target,72703230-3430-42d7-9461-726765742e6b,rev?*%
%TF.SameCoordinates,Original*%
%TF.FileFunction,Copper,L1,Top*%
%TF.FilePolarity,Positive*%
%FSLAX46Y46*%
G04 Gerber Fmt 4.6, Leading zero omitted, Abs format (unit mm)*
G04 Created by KiCad (PCBNEW 10.0.3) date 2026-06-04 08:51:03*
%MOMM*%
%LPD*%
G01*
G04 APERTURE LIST*
G04 Aperture macros list*
%AMRoundRect*
0 Rectangle with rounded corners*
0 $1 Rounding radius*
0 $2 $3 $4 $5 $6 $7 $8 $9 X,Y pos of 4 corners*
0 Add a 4 corners polygon primitive as box body*
4,1,4,$2,$3,$4,$5,$6,$7,$8,$9,$2,$3,0*
0 Add four circle primitives for the rounded corners*
1,1,$1+$1,$2,$3*
1,1,$1+$1,$4,$5*
1,1,$1+$1,$6,$7*
1,1,$1+$1,$8,$9*
0 Add four rect primitives between the rounded corners*
20,1,$1+$1,$2,$3,$4,$5,0*
20,1,$1+$1,$4,$5,$6,$7,0*
20,1,$1+$1,$6,$7,$8,$9,0*
20,1,$1+$1,$8,$9,$2,$3,0*%
G04 Aperture macros list end*
%TA.AperFunction,SMDPad,CuDef*%
%ADD10RoundRect,0.140000X0.170000X-0.140000X0.170000X0.140000X-0.170000X0.140000X-0.170000X-0.140000X0*%
%TD*%
%TA.AperFunction,SMDPad,CuDef*%
%ADD11RoundRect,0.140000X0.140000X0.170000X-0.140000X0.170000X-0.140000X-0.170000X0.140000X-0.170000X0*%
%TD*%
%TA.AperFunction,SMDPad,CuDef*%
%ADD12RoundRect,0.162500X-0.650000X-0.162500X0.650000X-0.162500X0.650000X0.162500X-0.650000X0.162500X0*%
%TD*%
%TA.AperFunction,SMDPad,CuDef*%
%ADD13RoundRect,0.135000X-0.135000X-0.185000X0.135000X-0.185000X0.135000X0.185000X-0.135000X0.185000X0*%
%TD*%
%TA.AperFunction,SMDPad,CuDef*%
%ADD14RoundRect,0.140000X-0.170000X0.140000X-0.170000X-0.140000X0.170000X-0.140000X0.170000X0.140000X0*%
%TD*%
%TA.AperFunction,SMDPad,CuDef*%
%ADD15RoundRect,0.237500X0.250000X0.237500X-0.250000X0.237500X-0.250000X-0.237500X0.250000X-0.237500X0*%
%TD*%
%TA.AperFunction,SMDPad,CuDef*%
%ADD16RoundRect,0.250000X1.425000X-0.362500X1.425000X0.362500X-1.425000X0.362500X-1.425000X-0.362500X0*%
%TD*%
%TA.AperFunction,SMDPad,CuDef*%
%ADD17RoundRect,0.225000X-0.225000X-0.250000X0.225000X-0.250000X0.225000X0.250000X-0.225000X0.250000X0*%
%TD*%
%TA.AperFunction,SMDPad,CuDef*%
%ADD18RoundRect,0.050000X-0.387500X-0.050000X0.387500X-0.050000X0.387500X0.050000X-0.387500X0.050000X0*%
%TD*%
%TA.AperFunction,SMDPad,CuDef*%
%ADD19RoundRect,0.050000X-0.050000X-0.387500X0.050000X-0.387500X0.050000X0.387500X-0.050000X0.387500X0*%
%TD*%
%TA.AperFunction,HeatsinkPad*%
%ADD20R,3.200000X3.200000*%
%TD*%
%TA.AperFunction,SMDPad,CuDef*%
%ADD21RoundRect,0.135000X-0.185000X0.135000X-0.185000X-0.135000X0.185000X-0.135000X0.185000X0.135000X0*%
%TD*%
%TA.AperFunction,ComponentPad*%
%ADD22R,1.700000X1.700000*%
%TD*%
%TA.AperFunction,ComponentPad*%
%ADD23C,1.700000*%
%TD*%
%TA.AperFunction,ViaPad*%
%ADD24C,0.600000*%
%TD*%
%TA.AperFunction,Conductor*%
%ADD25C,0.200000*%
%TD*%
G04 APERTURE END LIST*
D10*
%TO.P,C11,1*%
%TO.N,GND*%
X136700000Y-99200000D03*
%TO.P,C11,2*%
%TO.N,+1V1*%
X136700000Y-98240000D03*
%TD*%
%TO.P,C3,1*%
%TO.N,+3V3*%
X123000000Y-87980000D03*
%TO.P,C3,2*%
%TO.N,GND*%
X123000000Y-87020000D03*
%TD*%
D11*
%TO.P,C5,1*%
%TO.N,GND*%
X136600000Y-113770000D03*
%TO.P,C5,2*%
%TO.N,+3V3*%
X135640000Y-113770000D03*
%TD*%
D12*
%TO.P,U2,1,~{CS}_1*%
%TO.N,/~{QSPI_SS}*%
X113912500Y-90595000D03*
%TO.P,U2,2,DO/IO_{1}_2*%
%TO.N,/QSPI_SD1*%
X113912500Y-91865000D03*
%TO.P,U2,3,~{WP}/IO_{2}_3*%
%TO.N,/QSPI_SD2*%
X113912500Y-93135000D03*
%TO.P,U2,4,GND_4*%
%TO.N,GND*%
X113912500Y-94405000D03*
%TO.P,U2,5,DI/IO_{0}_5*%
%TO.N,/QSPI_SD0*%
X121087500Y-94405000D03*
%TO.P,U2,6,CLK_6*%
%TO.N,/QSPI_SCLK*%
X121087500Y-93135000D03*
%TO.P,U2,7,~{HOLD}/~{RESET}/IO_{3}_7*%
%TO.N,/QSPI_SD3*%
X121087500Y-91865000D03*
%TO.P,U2,8,VCC_8*%
%TO.N,+3V3*%
X121087500Y-90595000D03*
%TD*%
D11*
%TO.P,C6,1*%
%TO.N,GND*%
X136600000Y-111800000D03*
%TO.P,C6,2*%
%TO.N,+3V3*%
X135640000Y-111800000D03*
%TD*%
D13*
%TO.P,R4,1*%
%TO.N,/RP2040/~{RST}*%
X110380000Y-117800000D03*
%TO.P,R4,2*%
%TO.N,Net-(U3-RUN)*%
X111400000Y-117800000D03*
%TD*%
D14*
%TO.P,C12,1*%
%TO.N,GND*%
X134700000Y-92800000D03*
%TO.P,C12,2*%
%TO.N,/RP2040/SHUNTL*%
X134700000Y-93760000D03*
%TD*%
D15*
%TO.P,R3,1*%
%TO.N,+3V3*%
X118325000Y-87500000D03*
%TO.P,R3,2*%
%TO.N,/~{QSPI_SS}*%
X116500000Y-87500000D03*
%TD*%
D16*
%TO.P,R1,1*%
%TO.N,+1V1*%
X140300000Y-94262500D03*
%TO.P,R1,2*%
%TO.N,/RP2040/SHUNTL*%
X140300000Y-88337500D03*
%TD*%
D17*
%TO.P,C9,1*%
%TO.N,+1V1*%
X128925000Y-102400000D03*
%TO.P,C9,2*%
%TO.N,GND*%
X130475000Y-102400000D03*
%TD*%
D18*
%TO.P,U3,1,IOVDD_1*%
%TO.N,+3V3*%
X122687500Y-106690000D03*
%TO.P,U3,2,GPIO0_2*%
%TO.N,/RP2040/GPIO1{slash}TX*%
X122687500Y-107090000D03*
%TO.P,U3,3,GPIO1_3*%
%TO.N,/RP2040/GPIO2{slash}RX*%
X122687500Y-107490000D03*
%TO.P,U3,4,GPIO2_4*%
%TO.N,unconnected-(U3-GPIO2-Pad4)*%
X122687500Y-107890000D03*
%TO.P,U3,5,GPIO3_5*%
%TO.N,unconnected-(U3-GPIO3-Pad5)*%
X122687500Y-108290000D03*
%TO.P,U3,6,GPIO4_6*%
%TO.N,unconnected-(U3-GPIO4-Pad6)*%
X122687500Y-108690000D03*
%TO.P,U3,7,GPIO5_7*%
%TO.N,unconnected-(U3-GPIO5-Pad7)*%
X122687500Y-109090000D03*
%TO.P,U3,8,GPIO6_8*%
%TO.N,unconnected-(U3-GPIO6-Pad8)*%
X122687500Y-109490000D03*
%TO.P,U3,9,GPIO7_9*%
%TO.N,unconnected-(U3-GPIO7-Pad9)*%
X122687500Y-109890000D03*
%TO.P,U3,10,IOVDD_10*%
%TO.N,+3V3*%
X122687500Y-110290000D03*
%TO.P,U3,11,GPIO8_11*%
%TO.N,unconnected-(U3-GPIO8-Pad11)*%
X122687500Y-110690000D03*
%TO.P,U3,12,GPIO9_12*%
%TO.N,unconnected-(U3-GPIO9-Pad12)*%
X122687500Y-111090000D03*
%TO.P,U3,13,GPIO10_13*%
%TO.N,/RP2040/LED1*%
X122687500Y-111490000D03*
%TO.P,U3,14,GPIO11_14*%
%TO.N,/RP2040/LED2*%
X122687500Y-111890000D03*
D19*
%TO.P,U3,15,GPIO12_15*%
%TO.N,/RP2040/LED3*%
X123525000Y-112727500D03*
%TO.P,U3,16,GPIO13_16*%
%TO.N,unconnected-(U3-GPIO13-Pad16)*%
X123925000Y-112727500D03*
%TO.P,U3,17,GPIO14_17*%
%TO.N,unconnected-(U3-GPIO14-Pad17)*%
X124325000Y-112727500D03*
%TO.P,U3,18,GPIO15_18*%
%TO.N,unconnected-(U3-GPIO15-Pad18)*%
X124725000Y-112727500D03*
%TO.P,U3,19,TESTEN_19*%
%TO.N,GND*%
X125125000Y-112727500D03*
%TO.P,U3,20,XIN_20*%
%TO.N,/XIN*%
X125525000Y-112727500D03*
%TO.P,U3,21,XOUT_21*%
%TO.N,unconnected-(U3-XOUT-Pad21)*%
X125925000Y-112727500D03*
%TO.P,U3,22,IOVDD_22*%
%TO.N,+3V3*%
X126325000Y-112727500D03*
%TO.P,U3,23,DVDD_23*%
%TO.N,/RP2040/SHUNTL*%
X126725000Y-112727500D03*
%TO.P,U3,24,SWCLK_24*%
%TO.N,/RP2040/SWCLK*%
X127125000Y-112727500D03*
%TO.P,U3,25,SWDIO_25*%
%TO.N,/RP2040/SWDIO*%
X127525000Y-112727500D03*
%TO.P,U3,26,RUN_26*%
%TO.N,Net-(U3-RUN)*%
X127925000Y-112727500D03*
%TO.P,U3,27,GPIO16_27*%
%TO.N,unconnected-(U3-GPIO16-Pad27)*%
X128325000Y-112727500D03*
%TO.P,U3,28,GPIO17_28*%
%TO.N,unconnected-(U3-GPIO17-Pad28)*%
X128725000Y-112727500D03*
D18*
%TO.P,U3,29,GPIO18_29*%
%TO.N,unconnected-(U3-GPIO18-Pad29)*%
X129562500Y-111890000D03*
%TO.P,U3,30,GPIO19_30*%
%TO.N,unconnected-(U3-GPIO19-Pad30)*%
X129562500Y-111490000D03*
%TO.P,U3,31,GPIO20_31*%
%TO.N,unconnected-(U3-GPIO20-Pad31)*%
X129562500Y-111090000D03*
%TO.P,U3,32,GPIO21_32*%
%TO.N,unconnected-(U3-GPIO21-Pad32)*%
X129562500Y-110690000D03*
%TO.P,U3,33,IOVDD_33*%
%TO.N,+3V3*%
X129562500Y-110290000D03*
%TO.P,U3,34,GPIO22_34*%
%TO.N,unconnected-(U3-GPIO22-Pad34)*%
X129562500Y-109890000D03*
%TO.P,U3,35,GPIO23_35*%
%TO.N,unconnected-(U3-GPIO23-Pad35)*%
X129562500Y-109490000D03*
%TO.P,U3,36,GPIO24_36*%
%TO.N,unconnected-(U3-GPIO24-Pad36)*%
X129562500Y-109090000D03*
%TO.P,U3,37,GPIO25_37*%
%TO.N,unconnected-(U3-GPIO25-Pad37)*%
X129562500Y-108690000D03*
%TO.P,U3,38,GPIO26/ADC0_38*%
%TO.N,/RP2040/GPIO3*%
X129562500Y-108290000D03*
%TO.P,U3,39,GPIO27/ADC1_39*%
%TO.N,/RP2040/GPIO4{slash}TRIGGER*%
X129562500Y-107890000D03*
%TO.P,U3,40,GPIO28/ADC2_40*%
%TO.N,unconnected-(U3-GPIO28{slash}ADC2-Pad40)*%
X129562500Y-107490000D03*
%TO.P,U3,41,GPIO29/ADC3_41*%
%TO.N,unconnected-(U3-GPIO29{slash}ADC3-Pad41)*%
X129562500Y-107090000D03*
%TO.P,U3,42,IOVDD_42*%
%TO.N,+3V3*%
X129562500Y-106690000D03*
D19*
%TO.P,U3,43,ADC_AVDD_43*%
X128725000Y-105852500D03*
%TO.P,U3,44,VREG_VIN_44*%
X128325000Y-105852500D03*
%TO.P,U3,45,VREG_VOUT_45*%
%TO.N,+1V1*%
X127925000Y-105852500D03*
%TO.P,U3,46,USB_DM_46*%
%TO.N,unconnected-(U3-USB_DM-Pad46)*%
X127525000Y-105852500D03*
%TO.P,U3,47,USB_DP_47*%
%TO.N,unconnected-(U3-USB_DP-Pad47)*%
X127125000Y-105852500D03*
%TO.P,U3,48,USB_VDD_48*%
%TO.N,+3V3*%
X126725000Y-105852500D03*
%TO.P,U3,49,IOVDD_49*%
X126325000Y-105852500D03*
%TO.P,U3,50,DVDD_50*%
%TO.N,/RP2040/SHUNTL*%
X125925000Y-105852500D03*
%TO.P,U3,51,QSPI_SD3_51*%
%TO.N,/QSPI_SD3*%
X125525000Y-105852500D03*
%TO.P,U3,52,QSPI_SCLK_52*%
%TO.N,/QSPI_SCLK*%
X125125000Y-105852500D03*
%TO.P,U3,53,QSPI_SD0_53*%
%TO.N,/QSPI_SD0*%
X124725000Y-105852500D03*
%TO.P,U3,54,QSPI_SD2_54*%
%TO.N,/QSPI_SD2*%
X124325000Y-105852500D03*
%TO.P,U3,55,QSPI_SD1_55*%
%TO.N,/QSPI_SD1*%
X123925000Y-105852500D03*
%TO.P,U3,56,~{QSPI_SS}_56*%
%TO.N,/~{QSPI_SS}*%
X123525000Y-105852500D03*
D20*
%TO.P,U3,57,GND_57*%
%TO.N,GND*%
X126125000Y-109290000D03*
%TD*%
D21*
%TO.P,R5,1*%
%TO.N,Net-(U3-RUN)*%
X111400000Y-119990000D03*
%TO.P,R5,2*%
%TO.N,+3V3*%
X111400000Y-121010000D03*
%TD*%
D10*
%TO.P,C10,1*%
%TO.N,GND*%
X134600000Y-99200000D03*
%TO.P,C10,2*%
%TO.N,+1V1*%
X134600000Y-98240000D03*
%TD*%
D11*
%TO.P,C7,1*%
%TO.N,GND*%
X136600000Y-109830000D03*
%TO.P,C7,2*%
%TO.N,+3V3*%
X135640000Y-109830000D03*
%TD*%
D17*
%TO.P,C8,1*%
%TO.N,+3V3*%
X128925000Y-104200000D03*
%TO.P,C8,2*%
%TO.N,GND*%
X130475000Y-104200000D03*
%TD*%
D11*
%TO.P,C4,1*%
%TO.N,GND*%
X136600000Y-115740000D03*
%TO.P,C4,2*%
%TO.N,+3V3*%
X135640000Y-115740000D03*
%TD*%
D22*
%TO.P,Y1,1,SPARE_1*%
%TO.N,unconnected-(Y1-SPARE-Pad1)*%
X102000000Y-85160000D03*
D23*
%TO.P,Y1,2,GND_2*%
%TO.N,unconnected-(Y1-GND-Pad2)*%
X102000000Y-87700000D03*
%TO.P,Y1,3,CLKIN_3*%
%TO.N,/XIN*%
X102000000Y-90240000D03*
%TO.P,Y1,4,GND_4*%
%TO.N,GND*%
X102000000Y-92780000D03*
%TO.P,Y1,5,CLKFB_5*%
%TO.N,unconnected-(Y1-CLKFB-Pad5)*%
X102000000Y-95320000D03*
%TO.P,Y1,6,GND_6*%
%TO.N,GND*%
X102000000Y-97860000D03*
%TO.P,Y1,7,GPIO1/TX_7*%
%TO.N,/RP2040/GPIO1{slash}TX*%
X102000000Y-100400000D03*
%TO.P,Y1,8,GPIO2/RX_8*%
%TO.N,/RP2040/GPIO2{slash}RX*%
X102000000Y-102940000D03*
%TO.P,Y1,9,GPIO3_9*%
%TO.N,/RP2040/GPIO3*%
X102000000Y-105480000D03*
%TO.P,Y1,10,GPIO4/TRIG_10*%
%TO.N,/RP2040/GPIO4{slash}TRIGGER*%
X102000000Y-108020000D03*
%TO.P,Y1,11,nRST_11*%
%TO.N,/RP2040/~{RST}*%
X102000000Y-110560000D03*
%TO.P,Y1,12,SCK_12*%
%TO.N,/RP2040/SWCLK*%
X102000000Y-113100000D03*
%TO.P,Y1,13,MISO_13*%
%TO.N,unconnected-(Y1-MISO-Pad13)*%
X102000000Y-115640000D03*
%TO.P,Y1,14,MOSI_14*%
%TO.N,unconnected-(Y1-MOSI-Pad14)*%
X102000000Y-118180000D03*
%TO.P,Y1,15,GND_15*%
%TO.N,GND*%
X102000000Y-120720000D03*
%TO.P,Y1,16,GND_16*%
X102000000Y-123260000D03*
%TO.P,Y1,17,PDIC_17*%
%TO.N,unconnected-(Y1-PDIC-Pad17)*%
X102000000Y-125800000D03*
%TO.P,Y1,18,PDID/CS_18*%
%TO.N,/RP2040/SWDIO*%
X102000000Y-128340000D03*
%TO.P,Y1,19,SPARE_19*%
%TO.N,unconnected-(Y1-SPARE-Pad19)*%
X102000000Y-130880000D03*
%TO.P,Y1,20,VREF_20*%
%TO.N,+3V3*%
X102000000Y-133420000D03*
D22*
%TO.P,Y1,21,GND_21*%
%TO.N,GND*%
X102000000Y-138500000D03*
D23*
%TO.P,Y1,22,J_TRST_22*%
%TO.N,unconnected-(Y1-J_TRST-Pad22)*%
X104540000Y-138500000D03*
%TO.P,Y1,23,J_TDI_23*%
%TO.N,unconnected-(Y1-J_TDI-Pad23)*%
X107080000Y-138500000D03*
%TO.P,Y1,24,J_TDO_24*%
%TO.N,unconnected-(Y1-J_TDO-Pad24)*%
X109620000Y-138500000D03*
%TO.P,Y1,25,J_TMS_25*%
%TO.N,unconnected-(Y1-J_TMS-Pad25)*%
X112160000Y-138500000D03*
%TO.P,Y1,26,J_TCK_26*%
%TO.N,unconnected-(Y1-J_TCK-Pad26)*%
X114700000Y-138500000D03*
%TO.P,Y1,27,J_VREF_27*%
%TO.N,unconnected-(Y1-J_VREF-Pad27)*%
X117240000Y-138500000D03*
%TO.P,Y1,28,nRST_28*%
%TO.N,unconnected-(Y1-nRST-Pad28)*%
X119780000Y-138500000D03*
%TO.P,Y1,29,GND_29*%
%TO.N,GND*%
X122320000Y-138500000D03*
%TO.P,Y1,30,GND_30*%
X124860000Y-138500000D03*
%TO.P,Y1,31,H1_31*%
%TO.N,unconnected-(Y1-H1-Pad31)*%
X127400000Y-138500000D03*
%TO.P,Y1,32,H2_32*%
%TO.N,unconnected-(Y1-H2-Pad32)*%
X129940000Y-138500000D03*
%TO.P,Y1,33,H3_33*%
%TO.N,unconnected-(Y1-H3-Pad33)*%
X132480000Y-138500000D03*
%TO.P,Y1,34,H4_34*%
%TO.N,unconnected-(Y1-H4-Pad34)*%
X135020000Y-138500000D03*
%TO.P,Y1,35,H5_35*%
%TO.N,unconnected-(Y1-H5-Pad35)*%
X137560000Y-138500000D03*
%TO.P,Y1,36,H6_36*%
%TO.N,unconnected-(Y1-H6-Pad36)*%
X140100000Y-138500000D03*
%TO.P,Y1,37,H7_37*%
%TO.N,unconnected-(Y1-H7-Pad37)*%
X142640000Y-138500000D03*
%TO.P,Y1,38,H8_38*%
%TO.N,unconnected-(Y1-H8-Pad38)*%
X145180000Y-138500000D03*
%TO.P,Y1,39,H9_39*%
%TO.N,unconnected-(Y1-H9-Pad39)*%
X147720000Y-138500000D03*
%TO.P,Y1,40,H10_40*%
%TO.N,unconnected-(Y1-H10-Pad40)*%
X150260000Y-138500000D03*
D22*
%TO.P,Y1,41,GND_41*%
%TO.N,GND*%
X150260000Y-85165000D03*
D23*
%TO.P,Y1,42,SHUNTL_42*%
%TO.N,/RP2040/SHUNTL*%
X150260000Y-87705000D03*
%TO.P,Y1,43,SHUNTH_43*%
%TO.N,unconnected-(Y1-SHUNTH-Pad43)*%
X150260000Y-90245000D03*
%TO.P,Y1,44,GND_44*%
%TO.N,GND*%
X150260000Y-92785000D03*
%TO.P,Y1,45,FILT_LP_45*%
%TO.N,unconnected-(Y1-FILT_LP-Pad45)*%
X150260000Y-95325000D03*
%TO.P,Y1,46,FILT_HP_46*%
%TO.N,unconnected-(Y1-FILT_HP-Pad46)*%
X150260000Y-97865000D03*
%TO.P,Y1,47,GND_47*%
%TO.N,GND*%
X150260000Y-100405000D03*
%TO.P,Y1,48,FILT_48*%
%TO.N,unconnected-(Y1-FILT-Pad48)*%
X150260000Y-102945000D03*
%TO.P,Y1,49,GND_49*%
%TO.N,GND*%
X150260000Y-105485000D03*
%TO.P,Y1,50,GND_50*%
X150260000Y-108025000D03*
%TO.P,Y1,51,VCC1.2_51*%
%TO.N,unconnected-(Y1-VCC1.2-Pad51)*%
X150260000Y-110565000D03*
%TO.P,Y1,52,VCC1.8_52*%
%TO.N,unconnected-(Y1-VCC1.8-Pad52)*%
X150260000Y-113105000D03*
%TO.P,Y1,53,VCC2.5_53*%
%TO.N,unconnected-(Y1-VCC2.5-Pad53)*%
X150260000Y-115645000D03*
%TO.P,Y1,54,VCC3.3_54*%
%TO.N,+3V3*%
X150260000Y-118185000D03*
%TO.P,Y1,55,VCC5.0_55*%
%TO.N,unconnected-(Y1-VCC5.0-Pad55)*%
X150260000Y-120725000D03*
%TO.P,Y1,56,GND_56*%
%TO.N,unconnected-(Y1-GND-Pad56)*%
X150260000Y-123265000D03*
%TO.P,Y1,57,GND_57*%
%TO.N,unconnected-(Y1-GND-Pad57)*%
X150260000Y-125805000D03*
%TO.P,Y1,58,LED1_58*%
%TO.N,/RP2040/LED1*%
X150260000Y-128345000D03*
%TO.P,Y1,59,LED2_59*%
%TO.N,/RP2040/LED2*%
X150260000Y-130885000D03*
%TO.P,Y1,60,LED3_60*%
%TO.N,/RP2040/LED3*%
X150260000Y-133425000D03*
%TD*%
D24*
%TO.N,GND*%
X130150000Y-114175000D03*
X124000000Y-111100000D03*
X132900000Y-108700000D03*
%TO.N,+3V3*%
X125550000Y-118225000D03*
X127300000Y-104400000D03*
X134500000Y-118185000D03*
X127300000Y-95975000D03*
X111400000Y-133420000D03*
X121100000Y-105200000D03*
X118150000Y-119375000D03*
X128925000Y-104200000D03*
%TO.N,Net-(U3-RUN)*%
X128125000Y-114500000D03*
X111400000Y-117800000D03*
%TO.N,/RP2040/LED2*%
X126500000Y-127900000D03*
%TO.N,/RP2040/LED3*%
X125000000Y-127400000D03*
%TO.N,/XIN*%
X123300000Y-115500000D03*
%TO.N,/RP2040/SWCLK*%
X126800000Y-116900000D03*
%TO.N,/RP2040/SWDIO*%
X127500000Y-116300000D03*
%TO.N,/RP2040/GPIO3*%
X111000000Y-107800000D03*
X131224265Y-108524265D03*
%TO.N,/RP2040/GPIO4{slash}TRIGGER*%
X131649237Y-107846472D03*
X113400000Y-108700000D03*
%TD*%
%TO.N,GND*%
D25*
X125125000Y-110290000D02*
X126125000Y-109290000D01*
X125125000Y-112727500D02*
X125125000Y-110290000D01*
%TO.N,+1V1*%
X134600000Y-97200000D02*
X136700000Y-97200000D01*
X136700000Y-98240000D02*
X136700000Y-97200000D01*
X127925000Y-103400000D02*
X128925000Y-102400000D01*
X127925000Y-105852500D02*
X127925000Y-103400000D01*
X137062500Y-97200000D02*
X140000000Y-94262500D01*
X134600000Y-98240000D02*
X134600000Y-97200000D01*
X128925000Y-102400000D02*
X134125000Y-97200000D01*
X134125000Y-97200000D02*
X134600000Y-97200000D01*
X136700000Y-97200000D02*
X137062500Y-97200000D01*
X140000000Y-94262500D02*
X140300000Y-94262500D01*
%TO.N,+3V3*%
X125550000Y-118850000D02*
X126950000Y-120250000D01*
X134530000Y-109830000D02*
X134500000Y-109800000D01*
X118150000Y-114600000D02*
X121950000Y-110800000D01*
X129562500Y-110290000D02*
X131975000Y-110290000D01*
X134500000Y-110300000D02*
X134500000Y-111800000D01*
X135640000Y-113770000D02*
X134530000Y-113770000D01*
X121092500Y-90600000D02*
X121087500Y-90595000D01*
X121100000Y-105200000D02*
X121000000Y-105300000D01*
X134500000Y-111800000D02*
X134500000Y-113800000D01*
X121087500Y-89310000D02*
X119277500Y-87500000D01*
X126725000Y-105125000D02*
X126725000Y-105852500D01*
X130400000Y-105500000D02*
X130400000Y-106600000D01*
X129100000Y-104200000D02*
X130400000Y-105500000D01*
X128325000Y-104800000D02*
X128925000Y-104200000D01*
X127300000Y-95975000D02*
X121925000Y-90600000D01*
X127025000Y-120250000D02*
X131975000Y-115300000D01*
X126950000Y-120250000D02*
X127025000Y-120250000D01*
X121950000Y-110493640D02*
X122153640Y-110290000D01*
X130400000Y-106600000D02*
X130310000Y-106690000D01*
X131975000Y-115300000D02*
X131975000Y-110290000D01*
X125550000Y-118225000D02*
X125550000Y-118850000D01*
X131975000Y-110290000D02*
X134490000Y-110290000D01*
X134500000Y-108400000D02*
X134500000Y-109800000D01*
X121925000Y-90600000D02*
X121092500Y-90600000D01*
X134530000Y-113770000D02*
X134500000Y-113800000D01*
X134500000Y-113800000D02*
X134500000Y-115700000D01*
X121087500Y-89310000D02*
X121087500Y-90595000D01*
X121000000Y-106300000D02*
X121390000Y-106690000D01*
X128725000Y-105852500D02*
X128725000Y-104400000D01*
X134540000Y-115740000D02*
X134500000Y-115700000D01*
X134490000Y-110290000D02*
X134500000Y-110300000D01*
X126325000Y-105852500D02*
X126325000Y-105075000D01*
X122153640Y-110290000D02*
X122625000Y-110290000D01*
X118150000Y-119375000D02*
X118150000Y-114600000D01*
X135640000Y-115740000D02*
X134540000Y-115740000D01*
X121000000Y-105300000D02*
X121000000Y-106300000D01*
X125550000Y-115550000D02*
X125550000Y-118225000D01*
X121950000Y-110800000D02*
X121950000Y-110493640D01*
X135640000Y-111800000D02*
X134500000Y-111800000D01*
X122417500Y-87980000D02*
X121087500Y-89310000D01*
X119277500Y-87500000D02*
X118325000Y-87500000D01*
X128725000Y-104400000D02*
X128925000Y-104200000D01*
X128925000Y-104200000D02*
X129100000Y-104200000D01*
X134500000Y-115700000D02*
X134500000Y-118185000D01*
X130400000Y-106600000D02*
X132700000Y-106600000D01*
X130310000Y-106690000D02*
X129562500Y-106690000D01*
X126325000Y-114775000D02*
X125550000Y-115550000D01*
X122687500Y-110290000D02*
X122120000Y-110290000D01*
X128325000Y-105852500D02*
X128325000Y-104800000D01*
X126500000Y-104900000D02*
X126725000Y-105125000D01*
X134500000Y-109800000D02*
X134500000Y-110300000D01*
X135640000Y-109830000D02*
X134530000Y-109830000D01*
X126325000Y-112727500D02*
X126325000Y-114775000D01*
X126500000Y-104900000D02*
X127000000Y-104400000D01*
X127000000Y-104400000D02*
X127300000Y-104400000D01*
X132700000Y-106600000D02*
X134500000Y-108400000D01*
X111400000Y-121010000D02*
X111400000Y-133420000D01*
X126325000Y-105075000D02*
X126500000Y-104900000D01*
X123000000Y-87980000D02*
X122417500Y-87980000D01*
X121390000Y-106690000D02*
X122687500Y-106690000D01*
%TO.N,/~{QSPI_SS}*%
X110600000Y-96665686D02*
X115334315Y-101400000D01*
X115334315Y-101400000D02*
X120834314Y-101400000D01*
X113912500Y-90595000D02*
X113912500Y-88635000D01*
X115047500Y-87500000D02*
X116500000Y-87500000D01*
X110600000Y-93650000D02*
X110600000Y-96665686D01*
X113912500Y-90595000D02*
X113655000Y-90595000D01*
X120834314Y-101400000D02*
X123525000Y-104090686D01*
X113655000Y-90595000D02*
X110600000Y-93650000D01*
X113912500Y-88635000D02*
X115047500Y-87500000D01*
X123525000Y-104090686D02*
X123525000Y-105852500D01*
%TO.N,/QSPI_SD1*%
X113912500Y-91865000D02*
X113385000Y-91865000D01*
X123925000Y-103925000D02*
X123925000Y-105852500D01*
X115500000Y-101000000D02*
X121000000Y-101000000D01*
X111000000Y-96500000D02*
X115500000Y-101000000D01*
X111000000Y-94250000D02*
X111000000Y-96500000D01*
X121000000Y-101000000D02*
X123925000Y-103925000D01*
X113385000Y-91865000D02*
X111000000Y-94250000D01*
%TO.N,/QSPI_SD2*%
X124325000Y-103759315D02*
X124325000Y-105852500D01*
X113215000Y-93135000D02*
X111400000Y-94950000D01*
X121165686Y-100600000D02*
X124325000Y-103759315D01*
X111400000Y-96334314D02*
X115665686Y-100600000D01*
X115665686Y-100600000D02*
X121165686Y-100600000D01*
X113912500Y-93135000D02*
X113215000Y-93135000D01*
X111400000Y-94950000D02*
X111400000Y-96334314D01*
%TO.N,/QSPI_SD0*%
X124725000Y-105152955D02*
X124725000Y-95356372D01*
X123773628Y-94405000D02*
X121087500Y-94405000D01*
X124725000Y-95356372D02*
X123773628Y-94405000D01*
X124725000Y-105852500D02*
X124725000Y-105152955D01*
%TO.N,/QSPI_SCLK*%
X123150000Y-93150000D02*
X121102500Y-93150000D01*
X125125000Y-105852500D02*
X125125000Y-95125000D01*
X121102500Y-93150000D02*
X121087500Y-93135000D01*
X125125000Y-95125000D02*
X123150000Y-93150000D01*
%TO.N,/QSPI_SD3*%
X121097500Y-91875000D02*
X121087500Y-91865000D01*
X125525000Y-94950000D02*
X122450000Y-91875000D01*
X122450000Y-91875000D02*
X121097500Y-91875000D01*
X125525000Y-105852500D02*
X125525000Y-94950000D01*
%TO.N,/RP2040/~{RST}*%
X102000000Y-110560000D02*
X104560000Y-110560000D01*
X104560000Y-110560000D02*
X110380000Y-116380000D01*
X110380000Y-116380000D02*
X110380000Y-117800000D01*
%TO.N,Net-(U3-RUN)*%
X111400000Y-117800000D02*
X111400000Y-119990000D01*
X128125000Y-114500000D02*
X127925000Y-114300000D01*
X127925000Y-114300000D02*
X127925000Y-112727500D01*
%TO.N,/RP2040/SHUNTL*%
X127218640Y-111700000D02*
X126725000Y-112193640D01*
X126725000Y-112193640D02*
X126725000Y-112727500D01*
X125925000Y-105852500D02*
X125925000Y-106386360D01*
X126438640Y-106900000D02*
X127800000Y-106900000D01*
X128500000Y-111100000D02*
X127900000Y-111700000D01*
X128500000Y-107600000D02*
X128500000Y-111100000D01*
X125925000Y-101975000D02*
X125925000Y-105852500D01*
X127900000Y-111700000D02*
X127218640Y-111700000D01*
X149975000Y-87990000D02*
X150260000Y-87705000D01*
X136400000Y-94800000D02*
X134700000Y-94800000D01*
X134700000Y-94800000D02*
X133100000Y-94800000D01*
X133100000Y-94800000D02*
X125925000Y-101975000D01*
X136900000Y-94300000D02*
X136400000Y-94800000D01*
X134700000Y-93760000D02*
X134700000Y-94800000D01*
X140300000Y-88337500D02*
X140647500Y-87990000D01*
X140647500Y-87990000D02*
X149975000Y-87990000D01*
X140300000Y-88337500D02*
X136900000Y-91737500D01*
X127800000Y-106900000D02*
X128500000Y-107600000D01*
X136900000Y-91737500D02*
X136900000Y-94300000D01*
X125925000Y-106386360D02*
X126438640Y-106900000D01*
%TO.N,/RP2040/GPIO1{slash}TX*%
X122687500Y-107090000D02*
X113290000Y-107090000D01*
X106600000Y-100400000D02*
X102000000Y-100400000D01*
X113290000Y-107090000D02*
X106600000Y-100400000D01*
%TO.N,/RP2040/GPIO2{slash}RX*%
X122687500Y-107490000D02*
X111538529Y-107490000D01*
X106988529Y-102940000D02*
X102000000Y-102940000D01*
X111538529Y-107490000D02*
X106988529Y-102940000D01*
%TO.N,/RP2040/LED1*%
X120000000Y-124000000D02*
X124500000Y-128500000D01*
X150105000Y-128500000D02*
X150260000Y-128345000D01*
X122010000Y-111490000D02*
X120000000Y-113500000D01*
X122687500Y-111490000D02*
X122010000Y-111490000D01*
X120000000Y-113500000D02*
X120000000Y-124000000D01*
X124500000Y-128500000D02*
X150105000Y-128500000D01*
%TO.N,/RP2040/LED2*%
X122310000Y-111890000D02*
X122687500Y-111890000D01*
X126400000Y-128000000D02*
X124565686Y-128000000D01*
X120400000Y-113800000D02*
X122310000Y-111890000D01*
X126500000Y-127900000D02*
X126400000Y-128000000D01*
X124565686Y-128000000D02*
X120400000Y-123834314D01*
X120400000Y-123834314D02*
X120400000Y-113800000D01*
%TO.N,/RP2040/LED3*%
X122172500Y-112727500D02*
X123525000Y-112727500D01*
X120800000Y-114100000D02*
X122172500Y-112727500D01*
X124565686Y-127434314D02*
X120800000Y-123668628D01*
X125000000Y-127400000D02*
X124600000Y-127400000D01*
X124600000Y-127400000D02*
X124565686Y-127434314D01*
X120800000Y-123668628D02*
X120800000Y-114100000D01*
%TO.N,/XIN*%
X123300000Y-115500000D02*
X124600000Y-115500000D01*
X124600000Y-115500000D02*
X125525000Y-114575000D01*
X125525000Y-114575000D02*
X125525000Y-112727500D01*
%TO.N,/RP2040/SWCLK*%
X127125000Y-115375000D02*
X127125000Y-112727500D01*
X126800000Y-115700000D02*
X127125000Y-115375000D01*
X126800000Y-116900000D02*
X126800000Y-115700000D01*
%TO.N,/RP2040/SWDIO*%
X127525000Y-116275000D02*
X127525000Y-112727500D01*
X127500000Y-116300000D02*
X127525000Y-116275000D01*
%TO.N,/RP2040/GPIO3*%
X106900000Y-107800000D02*
X104580000Y-105480000D01*
X111000000Y-107800000D02*
X106900000Y-107800000D01*
X131224265Y-108524265D02*
X130990000Y-108290000D01*
X104580000Y-105480000D02*
X102000000Y-105480000D01*
X130990000Y-108290000D02*
X129562500Y-108290000D01*
%TO.N,/RP2040/GPIO4{slash}TRIGGER*%
X131605709Y-107890000D02*
X131649237Y-107846472D01*
X129562500Y-107890000D02*
X131605709Y-107890000D01*
X113400000Y-108700000D02*
X105300000Y-108700000D01*
X102020000Y-108000000D02*
X102000000Y-108020000D01*
X105300000Y-108700000D02*
X104600000Y-108000000D01*
X104600000Y-108000000D02*
X102020000Y-108000000D01*
%TD*%
%TA.AperFunction,Conductor*%
%TO.N,GND*%
G36*
X151742539Y-76520185D02*
G01*
X151788294Y-76572989D01*
X151799500Y-76624500D01*
X151799500Y-84045569D01*
X151779815Y-84112608D01*
X151727011Y-84158363D01*
X151657853Y-84168307D01*
X151594297Y-84139282D01*
X151559319Y-84088903D01*
X151553356Y-84072917D01*
X151553350Y-84072906D01*
X151467190Y-83957812D01*
X151467187Y-83957809D01*
X151352093Y-83871649D01*
X151352086Y-83871645D01*
X151217379Y-83821403D01*
X151217372Y-83821401D01*
X151157844Y-83815000D01*
X150510000Y-83815000D01*
X150510000Y-84731988D01*
X150452993Y-84699075D01*
X150325826Y-84665000D01*
X150194174Y-84665000D01*
X150067007Y-84699075D01*
X150010000Y-84731988D01*
X150010000Y-83815000D01*
X149362155Y-83815000D01*
X149302627Y-83821401D01*
X149302620Y-83821403D01*
X149167913Y-83871645D01*
X149167906Y-83871649D01*
X149052812Y-83957809D01*
X149052809Y-83957812D01*
X148966649Y-84072906D01*
X148966645Y-84072913D01*
X148916403Y-84207620D01*
X148916401Y-84207627D01*
X148910000Y-84267155D01*
X148910000Y-84915000D01*
X149826988Y-84915000D01*
X149794075Y-84972007D01*
X149760000Y-85099174D01*
X149760000Y-85230826D01*
X149794075Y-85357993D01*
X149826988Y-85415000D01*
X148910000Y-85415000D01*
X148910000Y-86062844D01*
X148916401Y-86122372D01*
X148916403Y-86122379D01*
X148966645Y-86257086D01*
X148966649Y-86257093D01*
X149052809Y-86372187D01*
X149052812Y-86372190D01*
X149167906Y-86458350D01*
X149167913Y-86458354D01*
X149302620Y-86508596D01*
X149302627Y-86508598D01*
X149362155Y-86514999D01*
X149362172Y-86515000D01*
X149764435Y-86515000D01*
X149831474Y-86534685D01*
X149877229Y-86587489D01*
X149887173Y-86656647D01*
X149858148Y-86720203D01*
X149811888Y-86753561D01*
X149762403Y-86774058D01*
X149590342Y-86889024D01*
X149444024Y-87035342D01*
X149329058Y-87207403D01*
X149249870Y-87398579D01*
X149249868Y-87398587D01*
X149211855Y-87589691D01*
X149179470Y-87651602D01*
X149118755Y-87686176D01*
X149090238Y-87689500D01*
X142135163Y-87689500D01*
X142068124Y-87669815D01*
X142047488Y-87653188D01*
X142047151Y-87652851D01*
X142032020Y-87641684D01*
X141937882Y-87572207D01*
X141937880Y-87572206D01*
X141809700Y-87527353D01*
X141779270Y-87524500D01*
X141779266Y-87524500D01*
X138820734Y-87524500D01*
X138820730Y-87524500D01*
X138790300Y-87527353D01*
X138790298Y-87527353D01*
X138662119Y-87572206D01*
X138662117Y-87572207D01*
X138552850Y-87652850D01*
X138472207Y-87762117D01*
X138472206Y-87762119D01*
X138427353Y-87890298D01*
X138427353Y-87890300D01*
X138424500Y-87920730D01*
X138424500Y-88754269D01*
X138427353Y-88784699D01*
X138427353Y-88784701D01*
X138472206Y-88912880D01*
X138472207Y-88912882D01*
X138552850Y-89022150D01*
X138662118Y-89102793D01*
X138718230Y-89122427D01*
X138790294Y-89147644D01*
X138790297Y-89147644D01*
X138790301Y-89147646D01*
X138790304Y-89147646D01*
X138794019Y-89148458D01*
X138796503Y-89149817D01*
X138797423Y-89150139D01*
X138797369Y-89150291D01*
X138855315Y-89181993D01*
X138888751Y-89243343D01*
X138883710Y-89313031D01*
X138855244Y-89357284D01*
X136715489Y-91497040D01*
X136659541Y-91552987D01*
X136659535Y-91552995D01*
X136619982Y-91621504D01*
X136619979Y-91621509D01*
X136599500Y-91697939D01*
X136599500Y-94124167D01*
X136579815Y-94191206D01*
X136563181Y-94211848D01*
X136311848Y-94463181D01*
X136250525Y-94496666D01*
X136224167Y-94499500D01*
X135124500Y-94499500D01*
X135115814Y-94496949D01*
X135106853Y-94498238D01*
X135082812Y-94487259D01*
X135057461Y-94479815D01*
X135051533Y-94472974D01*
X135043297Y-94469213D01*
X135029007Y-94446978D01*
X135011706Y-94427011D01*
X135009418Y-94416496D01*
X135005523Y-94410435D01*
X135000500Y-94375500D01*
X135000500Y-94293843D01*
X135020185Y-94226804D01*
X135060767Y-94191358D01*
X135059429Y-94189447D01*
X135068313Y-94183225D01*
X135068316Y-94183224D01*
X135153224Y-94098316D01*
X135203972Y-93989487D01*
X135210500Y-93939901D01*
X135210499Y-93580100D01*
X135209230Y-93570463D01*
X135219994Y-93501433D01*
X135260350Y-93455962D01*
X135259215Y-93454499D01*
X135265383Y-93449714D01*
X135379714Y-93335383D01*
X135379721Y-93335374D01*
X135462031Y-93196195D01*
X135504504Y-93050000D01*
X133895496Y-93050000D01*
X133937968Y-93196195D01*
X134020278Y-93335374D01*
X134020285Y-93335383D01*
X134134616Y-93449714D01*
X134140785Y-93454499D01*
X134139265Y-93456457D01*
X134178625Y-93498599D01*
X134191139Y-93567339D01*
X134190769Y-93570461D01*
X134189500Y-93580101D01*
X134189500Y-93939894D01*
X134190772Y-93949560D01*
X134196028Y-93989487D01*
X134196029Y-93989489D01*
X134196029Y-93989490D01*
X134246776Y-94098316D01*
X134331684Y-94183224D01*
X134340571Y-94189447D01*
X134339198Y-94191407D01*
X134340918Y-94192921D01*
X134356703Y-94200130D01*
X134366599Y-94215529D01*
X134380339Y-94227625D01*
X134385225Y-94244512D01*
X134394477Y-94258908D01*
X134399500Y-94293843D01*
X134399500Y-94375500D01*
X134379815Y-94442539D01*
X134327011Y-94488294D01*
X134275500Y-94499500D01*
X133060438Y-94499500D01*
X133024895Y-94509024D01*
X132984010Y-94519979D01*
X132966618Y-94530021D01*
X132966617Y-94530021D01*
X132915492Y-94559537D01*
X132915487Y-94559541D01*
X126037181Y-101437848D01*
X125975858Y-101471333D01*
X125906166Y-101466349D01*
X125850233Y-101424477D01*
X125825816Y-101359013D01*
X125825500Y-101350167D01*
X125825500Y-95224833D01*
X125845185Y-95157794D01*
X125897989Y-95112039D01*
X125967147Y-95102095D01*
X126030703Y-95131120D01*
X126037181Y-95137152D01*
X126763181Y-95863152D01*
X126796666Y-95924475D01*
X126799500Y-95950833D01*
X126799500Y-96040891D01*
X126833608Y-96168187D01*
X126857659Y-96209843D01*
X126899500Y-96282314D01*
X126992686Y-96375500D01*
X127106814Y-96441392D01*
X127234108Y-96475500D01*
X127234110Y-96475500D01*
X127365890Y-96475500D01*
X127365892Y-96475500D01*
X127493186Y-96441392D01*
X127607314Y-96375500D01*
X127700500Y-96282314D01*
X127766392Y-96168186D01*
X127800500Y-96040892D01*
X127800500Y-95909108D01*
X127766392Y-95781814D01*
X127700500Y-95667686D01*
X127607314Y-95574500D01*
X127534057Y-95532205D01*
X127493187Y-95508608D01*
X127429539Y-95491554D01*
X127365892Y-95474500D01*
X127275833Y-95474500D01*
X127208794Y-95454815D01*
X127188152Y-95438181D01*
X124412558Y-92662586D01*
X124299972Y-92550000D01*
X133895496Y-92550000D01*
X134450000Y-92550000D01*
X134950000Y-92550000D01*
X135504504Y-92550000D01*
X135462031Y-92403804D01*
X135379721Y-92264625D01*
X135379714Y-92264616D01*
X135265383Y-92150285D01*
X135265374Y-92150278D01*
X135126195Y-92067968D01*
X135126190Y-92067966D01*
X134970918Y-92022855D01*
X134970912Y-92022854D01*
X134950000Y-92021209D01*
X134950000Y-92550000D01*
X134450000Y-92550000D01*
X134450000Y-92021210D01*
X134449999Y-92021209D01*
X134429087Y-92022854D01*
X134429081Y-92022855D01*
X134273809Y-92067966D01*
X134273804Y-92067968D01*
X134134625Y-92150278D01*
X134134616Y-92150285D01*
X134020285Y-92264616D01*
X134020278Y-92264625D01*
X133937968Y-92403804D01*
X133895496Y-92550000D01*
X124299972Y-92550000D01*
X122117053Y-90367081D01*
X122093334Y-90333860D01*
X122037013Y-90218653D01*
X121951348Y-90132988D01*
X121842511Y-90079780D01*
X121824869Y-90077210D01*
X121771949Y-90069500D01*
X121771943Y-90069500D01*
X121512000Y-90069500D01*
X121444961Y-90049815D01*
X121399206Y-89997011D01*
X121388000Y-89945500D01*
X121388000Y-89485832D01*
X121407685Y-89418793D01*
X121424314Y-89398155D01*
X122437785Y-88384684D01*
X122499106Y-88351201D01*
X122568798Y-88356185D01*
X122613144Y-88384684D01*
X122631684Y-88403224D01*
X122740513Y-88453972D01*
X122790099Y-88460500D01*
X123209900Y-88460499D01*
X123259487Y-88453972D01*
X123368316Y-88403224D01*
X123453224Y-88318316D01*
X123503972Y-88209487D01*
X123510500Y-88159901D01*
X123510499Y-87800100D01*
X123509230Y-87790463D01*
X123519994Y-87721433D01*
X123560350Y-87675962D01*
X123559215Y-87674499D01*
X123565383Y-87669714D01*
X123679714Y-87555383D01*
X123679721Y-87555374D01*
X123762031Y-87416195D01*
X123804504Y-87270000D01*
X122195496Y-87270000D01*
X122237968Y-87416195D01*
X122315467Y-87547239D01*
X122332650Y-87614963D01*
X122310490Y-87681226D01*
X122270735Y-87717747D01*
X122232992Y-87739537D01*
X122232987Y-87739541D01*
X121175181Y-88797348D01*
X121113858Y-88830833D01*
X121044166Y-88825849D01*
X120999819Y-88797348D01*
X119462012Y-87259541D01*
X119462004Y-87259535D01*
X119393495Y-87219982D01*
X119393490Y-87219979D01*
X119355292Y-87209744D01*
X119317062Y-87199500D01*
X119317060Y-87199500D01*
X119104978Y-87199500D01*
X119037939Y-87179815D01*
X118992184Y-87127011D01*
X118987937Y-87116455D01*
X118966616Y-87055524D01*
X118966615Y-87055523D01*
X118888212Y-86949290D01*
X118888209Y-86949288D01*
X118781975Y-86870884D01*
X118781974Y-86870883D01*
X118657348Y-86827274D01*
X118657349Y-86827274D01*
X118627760Y-86824500D01*
X118627756Y-86824500D01*
X118022244Y-86824500D01*
X118022240Y-86824500D01*
X117992650Y-86827274D01*
X117868023Y-86870884D01*
X117761789Y-86949288D01*
X117761788Y-86949289D01*
X117683384Y-87055523D01*
X117639774Y-87180150D01*
X117637000Y-87209739D01*
X117637000Y-87790260D01*
X117639774Y-87819849D01*
X117683384Y-87944476D01*
X117761788Y-88050710D01*
X117761789Y-88050711D01*
X117868023Y-88129115D01*
X117868024Y-88129115D01*
X117868025Y-88129116D01*
X117992651Y-88172725D01*
X117992650Y-88172725D01*
X118022240Y-88175500D01*
X118022244Y-88175500D01*
X118627760Y-88175500D01*
X118657349Y-88172725D01*
X118781975Y-88129116D01*
X118888211Y-88050711D01*
X118966616Y-87944475D01*
X118987079Y-87885994D01*
X119027799Y-87829222D01*
X119092751Y-87803474D01*
X119161313Y-87816930D01*
X119191800Y-87839271D01*
X120750681Y-89398152D01*
X120784166Y-89459475D01*
X120787000Y-89485833D01*
X120787000Y-89945500D01*
X120767315Y-90012539D01*
X120714511Y-90058294D01*
X120663000Y-90069500D01*
X120403049Y-90069500D01*
X120332493Y-90079779D01*
X120223650Y-90132989D01*
X120137988Y-90218651D01*
X120084780Y-90327488D01*
X120082452Y-90343469D01*
X120074500Y-90398051D01*
X120074500Y-90398055D01*
X120074500Y-90398056D01*
X120074500Y-90791950D01*
X120084779Y-90862506D01*
X120084779Y-90862507D01*
X120084780Y-90862509D01*
X120110273Y-90914655D01*
X120137989Y-90971349D01*
X120223651Y-91057011D01*
X120223652Y-91057011D01*
X120223653Y-91057012D01*
X120332491Y-91110220D01*
X120332495Y-91110220D01*
X120336713Y-91111524D01*
X120341087Y-91114422D01*
X120341143Y-91114450D01*
X120341139Y-91114457D01*
X120394955Y-91150119D01*
X120423085Y-91214076D01*
X120412172Y-91283088D01*
X120365681Y-91335245D01*
X120336732Y-91348468D01*
X120332500Y-91349775D01*
X120223650Y-91402989D01*
X120137988Y-91488651D01*
X120084780Y-91597488D01*
X120081281Y-91621509D01*
X120074500Y-91668051D01*
X120074500Y-91668055D01*
X120074500Y-91668056D01*
X120074500Y-92061950D01*
X120084779Y-92132506D01*
X120084779Y-92132507D01*
X120084780Y-92132509D01*
X120137988Y-92241347D01*
X120137989Y-92241349D01*
X120223651Y-92327011D01*
X120223652Y-92327011D01*
X120223653Y-92327012D01*
X120332491Y-92380220D01*
X120332495Y-92380220D01*
X120336713Y-92381524D01*
X120341087Y-92384422D01*
X120341143Y-92384450D01*
X120341139Y-92384457D01*
X120394955Y-92420119D01*
X120423085Y-92484076D01*
X120412172Y-92553088D01*
X120365681Y-92605245D01*
X120336732Y-92618468D01*
X120332500Y-92619775D01*
X120223650Y-92672989D01*
X120137988Y-92758651D01*
X120084780Y-92867488D01*
X120081319Y-92891246D01*
X120074500Y-92938051D01*
X120074500Y-92938055D01*
X120074500Y-92938056D01*
X120074500Y-93331950D01*
X120084779Y-93402506D01*
X120084779Y-93402507D01*
X120084780Y-93402509D01*
X120109148Y-93452354D01*
X120137989Y-93511349D01*
X120223651Y-93597011D01*
X120223652Y-93597011D01*
X120223653Y-93597012D01*
X120332491Y-93650220D01*
X120332495Y-93650220D01*
X120336713Y-93651524D01*
X120341087Y-93654422D01*
X120341143Y-93654450D01*
X120341139Y-93654457D01*
X120394955Y-93690119D01*
X120423085Y-93754076D01*
X120412172Y-93823088D01*
X120365681Y-93875245D01*
X120336732Y-93888468D01*
X120332500Y-93889775D01*
X120223650Y-93942989D01*
X120137988Y-94028651D01*
X120084780Y-94137488D01*
X120084780Y-94137491D01*
X120074500Y-94208051D01*
X120074500Y-94208055D01*
X120074500Y-94208056D01*
X120074500Y-94601950D01*
X120084779Y-94672506D01*
X120084779Y-94672507D01*
X120084780Y-94672509D01*
X120102962Y-94709701D01*
X120137989Y-94781349D01*
X120223651Y-94867011D01*
X120332488Y-94920219D01*
X120332489Y-94920219D01*
X120332491Y-94920220D01*
X120403051Y-94930500D01*
X121771948Y-94930499D01*
X121771950Y-94930499D01*
X121806463Y-94925471D01*
X121842509Y-94920220D01*
X121951347Y-94867012D01*
X121990957Y-94827402D01*
X122037010Y-94781350D01*
X122037010Y-94781348D01*
X122037012Y-94781347D01*
X122040097Y-94775037D01*
X122087226Y-94723456D01*
X122151496Y-94705500D01*
X123597795Y-94705500D01*
X123664834Y-94725185D01*
X123685476Y-94741819D01*
X124388181Y-95444524D01*
X124421666Y-95505847D01*
X124424500Y-95532205D01*
X124424500Y-103134481D01*
X124404815Y-103201520D01*
X124352011Y-103247275D01*
X124282853Y-103257219D01*
X124219297Y-103228194D01*
X124212819Y-103222162D01*
X121350198Y-100359541D01*
X121350190Y-100359535D01*
X121281681Y-100319982D01*
X121281676Y-100319979D01*
X121256199Y-100313152D01*
X121205248Y-100299500D01*
X121205246Y-100299500D01*
X115841519Y-100299500D01*
X115774480Y-100279815D01*
X115753838Y-100263181D01*
X111736819Y-96246162D01*
X111703334Y-96184839D01*
X111700500Y-96158481D01*
X111700500Y-95125832D01*
X111720185Y-95058793D01*
X111736814Y-95038156D01*
X112119970Y-94655000D01*
X112603085Y-94655000D01*
X112606064Y-94687792D01*
X112606067Y-94687802D01*
X112653927Y-94841392D01*
X112737163Y-94979080D01*
X112850919Y-95092836D01*
X112988603Y-95176070D01*
X113142207Y-95223934D01*
X113208957Y-95230000D01*
X113662500Y-95230000D01*
X114162500Y-95230000D01*
X114616043Y-95230000D01*
X114682792Y-95223934D01*
X114836396Y-95176070D01*
X114974080Y-95092836D01*
X115087836Y-94979080D01*
X115171072Y-94841392D01*
X115218932Y-94687802D01*
X115218935Y-94687792D01*
X115221914Y-94655000D01*
X114162500Y-94655000D01*
X114162500Y-95230000D01*
X113662500Y-95230000D01*
X113662500Y-94655000D01*
X112603085Y-94655000D01*
X112119970Y-94655000D01*
X112583651Y-94191318D01*
X112644974Y-94157834D01*
X112671332Y-94155000D01*
X115221915Y-94155000D01*
X115221914Y-94154999D01*
X115218935Y-94122207D01*
X115218932Y-94122197D01*
X115171072Y-93968607D01*
X115087836Y-93830919D01*
X114974080Y-93717163D01*
X114906977Y-93676598D01*
X114859789Y-93625070D01*
X114847951Y-93556210D01*
X114859727Y-93516020D01*
X114864967Y-93505303D01*
X114915220Y-93402509D01*
X114925500Y-93331949D01*
X114925499Y-92938052D01*
X114915220Y-92867491D01*
X114862012Y-92758653D01*
X114862010Y-92758651D01*
X114862010Y-92758650D01*
X114776348Y-92672988D01*
X114667508Y-92619779D01*
X114663280Y-92618473D01*
X114658904Y-92615573D01*
X114658857Y-92615550D01*
X114658860Y-92615543D01*
X114605040Y-92579875D01*
X114576913Y-92515917D01*
X114587829Y-92446905D01*
X114634323Y-92394751D01*
X114663278Y-92381527D01*
X114667505Y-92380220D01*
X114667509Y-92380220D01*
X114776347Y-92327012D01*
X114862012Y-92241347D01*
X114915220Y-92132509D01*
X114925500Y-92061949D01*
X114925499Y-91668052D01*
X114915220Y-91597491D01*
X114862012Y-91488653D01*
X114862010Y-91488651D01*
X114862010Y-91488650D01*
X114776348Y-91402988D01*
X114667508Y-91349779D01*
X114663280Y-91348473D01*
X114658904Y-91345573D01*
X114658857Y-91345550D01*
X114658860Y-91345543D01*
X114605040Y-91309875D01*
X114576913Y-91245917D01*
X114587829Y-91176905D01*
X114634323Y-91124751D01*
X114663278Y-91111527D01*
X114667505Y-91110220D01*
X114667509Y-91110220D01*
X114776347Y-91057012D01*
X114862012Y-90971347D01*
X114915220Y-90862509D01*
X114925500Y-90791949D01*
X114925499Y-90398052D01*
X114915220Y-90327491D01*
X114862012Y-90218653D01*
X114862010Y-90218651D01*
X114862010Y-90218650D01*
X114776348Y-90132988D01*
X114667511Y-90079780D01*
X114649869Y-90077210D01*
X114596949Y-90069500D01*
X114596943Y-90069500D01*
X114337000Y-90069500D01*
X114269961Y-90049815D01*
X114224206Y-89997011D01*
X114213000Y-89945500D01*
X114213000Y-88810833D01*
X114232685Y-88743794D01*
X114249319Y-88723152D01*
X115135652Y-87836819D01*
X115196975Y-87803334D01*
X115223333Y-87800500D01*
X115720022Y-87800500D01*
X115787061Y-87820185D01*
X115832816Y-87872989D01*
X115837063Y-87883545D01*
X115858383Y-87944475D01*
X115858384Y-87944476D01*
X115936788Y-88050710D01*
X115936789Y-88050711D01*
X116043023Y-88129115D01*
X116043024Y-88129115D01*
X116043025Y-88129116D01*
X116167651Y-88172725D01*
X116167650Y-88172725D01*
X116197240Y-88175500D01*
X116197244Y-88175500D01*
X116802760Y-88175500D01*
X116832349Y-88172725D01*
X116956975Y-88129116D01*
X117063211Y-88050711D01*
X117141616Y-87944475D01*
X117185225Y-87819849D01*
X117186292Y-87808469D01*
X117188000Y-87790260D01*
X117188000Y-87209739D01*
X117185225Y-87180150D01*
X117141615Y-87055523D01*
X117063211Y-86949289D01*
X117063210Y-86949288D01*
X116956976Y-86870884D01*
X116832348Y-86827274D01*
X116832349Y-86827274D01*
X116802760Y-86824500D01*
X116802756Y-86824500D01*
X116197244Y-86824500D01*
X116197240Y-86824500D01*
X116167650Y-86827274D01*
X116043023Y-86870884D01*
X115936789Y-86949288D01*
X115936788Y-86949289D01*
X115858384Y-87055523D01*
X115858383Y-87055524D01*
X115837063Y-87116455D01*
X115796341Y-87173231D01*
X115731388Y-87198978D01*
X115720022Y-87199500D01*
X115007938Y-87199500D01*
X114969724Y-87209739D01*
X114931509Y-87219979D01*
X114931504Y-87219982D01*
X114862995Y-87259535D01*
X114862987Y-87259541D01*
X113672041Y-88450487D01*
X113672035Y-88450495D01*
X113632482Y-88519004D01*
X113632479Y-88519009D01*
X113612000Y-88595439D01*
X113612000Y-89945500D01*
X113592315Y-90012539D01*
X113539511Y-90058294D01*
X113488000Y-90069500D01*
X113228049Y-90069500D01*
X113157493Y-90079779D01*
X113048650Y-90132989D01*
X112962988Y-90218651D01*
X112909780Y-90327488D01*
X112907452Y-90343469D01*
X112899500Y-90398051D01*
X112899500Y-90398055D01*
X112899500Y-90398056D01*
X112899500Y-90791950D01*
X112907517Y-90846978D01*
X112897702Y-90916155D01*
X112872493Y-90952534D01*
X110415489Y-93409540D01*
X110359541Y-93465487D01*
X110359535Y-93465495D01*
X110319982Y-93534004D01*
X110319979Y-93534009D01*
X110310212Y-93570461D01*
X110299500Y-93610438D01*
X110299500Y-96705248D01*
X110310079Y-96744727D01*
X110319979Y-96781676D01*
X110319982Y-96781681D01*
X110359535Y-96850190D01*
X110359539Y-96850195D01*
X110359540Y-96850197D01*
X115149804Y-101640460D01*
X115218327Y-101680022D01*
X115294753Y-101700500D01*
X120658481Y-101700500D01*
X120725520Y-101720185D01*
X120746162Y-101736819D01*
X123188181Y-104178838D01*
X123221666Y-104240161D01*
X123224500Y-104266519D01*
X123224500Y-106265500D01*
X123204815Y-106332539D01*
X123152011Y-106378294D01*
X123100500Y-106389500D01*
X121565833Y-106389500D01*
X121536392Y-106380855D01*
X121506406Y-106374332D01*
X121501390Y-106370577D01*
X121498794Y-106369815D01*
X121478152Y-106353181D01*
X121336819Y-106211848D01*
X121303334Y-106150525D01*
X121300500Y-106124167D01*
X121300500Y-105733760D01*
X121320185Y-105666721D01*
X121362499Y-105626373D01*
X121407314Y-105600500D01*
X121500500Y-105507314D01*
X121566392Y-105393186D01*
X121600500Y-105265892D01*
X121600500Y-105134108D01*
X121566392Y-105006814D01*
X121500500Y-104892686D01*
X121407314Y-104799500D01*
X121320762Y-104749529D01*
X121293187Y-104733608D01*
X121229539Y-104716554D01*
X121165892Y-104699500D01*
X121034108Y-104699500D01*
X120906812Y-104733608D01*
X120792686Y-104799500D01*
X120792683Y-104799502D01*
X120699502Y-104892683D01*
X120699500Y-104892686D01*
X120633608Y-105006812D01*
X120606009Y-105109814D01*
X120599500Y-105134108D01*
X120599500Y-105265892D01*
X120633608Y-105393186D01*
X120682887Y-105478540D01*
X120699500Y-105540539D01*
X120699500Y-106339562D01*
X120719979Y-106415989D01*
X120722642Y-106420601D01*
X120759540Y-106484511D01*
X120857187Y-106582158D01*
X120861069Y-106586894D01*
X120872411Y-106613646D01*
X120886333Y-106639142D01*
X120885883Y-106645423D01*
X120888342Y-106651221D01*
X120883421Y-106679852D01*
X120881349Y-106708834D01*
X120877574Y-106713875D01*
X120876508Y-106720082D01*
X120856888Y-106741508D01*
X120839477Y-106764767D01*
X120833576Y-106766967D01*
X120829324Y-106771612D01*
X120801237Y-106779029D01*
X120774013Y-106789184D01*
X120765167Y-106789500D01*
X113465833Y-106789500D01*
X113398794Y-106769815D01*
X113378152Y-106753181D01*
X106784512Y-100159541D01*
X106784504Y-100159535D01*
X106715995Y-100119982D01*
X106715990Y-100119979D01*
X106690513Y-100113152D01*
X106639562Y-100099500D01*
X106639560Y-100099500D01*
X103095436Y-100099500D01*
X103028397Y-100079815D01*
X102982642Y-100027011D01*
X102980875Y-100022953D01*
X102967845Y-99991496D01*
X102930941Y-99902402D01*
X102815977Y-99730345D01*
X102815975Y-99730342D01*
X102669657Y-99584024D01*
X102583626Y-99526541D01*
X102497598Y-99469059D01*
X102497593Y-99469057D01*
X102435891Y-99443499D01*
X102332890Y-99400834D01*
X102278488Y-99356994D01*
X102256423Y-99290700D01*
X102273702Y-99223001D01*
X102324839Y-99175390D01*
X102342026Y-99168343D01*
X102518217Y-99111095D01*
X102707554Y-99014622D01*
X102761716Y-98975270D01*
X102761717Y-98975270D01*
X102129408Y-98342962D01*
X102192993Y-98325925D01*
X102307007Y-98260099D01*
X102400099Y-98167007D01*
X102465925Y-98052993D01*
X102482962Y-97989409D01*
X103115270Y-98621717D01*
X103115270Y-98621716D01*
X103154622Y-98567554D01*
X103251095Y-98378217D01*
X103316757Y-98176130D01*
X103316757Y-98176127D01*
X103350000Y-97966246D01*
X103350000Y-97753753D01*
X103316757Y-97543872D01*
X103316757Y-97543869D01*
X103251095Y-97341782D01*
X103154624Y-97152449D01*
X103115270Y-97098282D01*
X103115269Y-97098282D01*
X102482962Y-97730590D01*
X102465925Y-97667007D01*
X102400099Y-97552993D01*
X102307007Y-97459901D01*
X102192993Y-97394075D01*
X102129409Y-97377037D01*
X102761716Y-96744728D01*
X102707550Y-96705375D01*
X102518216Y-96608904D01*
X102342026Y-96551656D01*
X102284350Y-96512218D01*
X102257152Y-96447860D01*
X102269067Y-96379013D01*
X102316311Y-96327538D01*
X102332882Y-96319168D01*
X102497598Y-96250941D01*
X102669655Y-96135977D01*
X102815977Y-95989655D01*
X102930941Y-95817598D01*
X103010130Y-95626420D01*
X103050500Y-95423465D01*
X103050500Y-95216535D01*
X103010130Y-95013580D01*
X102930941Y-94822402D01*
X102815977Y-94650345D01*
X102815975Y-94650342D01*
X102669657Y-94504024D01*
X102577637Y-94442539D01*
X102497598Y-94389059D01*
X102497593Y-94389057D01*
X102378100Y-94339561D01*
X102332890Y-94320834D01*
X102278488Y-94276994D01*
X102256423Y-94210700D01*
X102273702Y-94143001D01*
X102324839Y-94095390D01*
X102342026Y-94088343D01*
X102518217Y-94031095D01*
X102707554Y-93934622D01*
X102761716Y-93895270D01*
X102761717Y-93895270D01*
X102129408Y-93262962D01*
X102192993Y-93245925D01*
X102307007Y-93180099D01*
X102400099Y-93087007D01*
X102465925Y-92972993D01*
X102482962Y-92909409D01*
X103115270Y-93541717D01*
X103115270Y-93541716D01*
X103154622Y-93487554D01*
X103251095Y-93298217D01*
X103316757Y-93096130D01*
X103316757Y-93096127D01*
X103350000Y-92886246D01*
X103350000Y-92673753D01*
X103316757Y-92463872D01*
X103316757Y-92463869D01*
X103251095Y-92261782D01*
X103154624Y-92072449D01*
X103115270Y-92018282D01*
X103115269Y-92018282D01*
X102482962Y-92650590D01*
X102465925Y-92587007D01*
X102400099Y-92472993D01*
X102307007Y-92379901D01*
X102192993Y-92314075D01*
X102129409Y-92297037D01*
X102761716Y-91664728D01*
X102707550Y-91625375D01*
X102518216Y-91528904D01*
X102342026Y-91471656D01*
X102284350Y-91432218D01*
X102257152Y-91367860D01*
X102269067Y-91299013D01*
X102316311Y-91247538D01*
X102332882Y-91239168D01*
X102497598Y-91170941D01*
X102669655Y-91055977D01*
X102815977Y-90909655D01*
X102930941Y-90737598D01*
X103010130Y-90546420D01*
X103050500Y-90343465D01*
X103050500Y-90136535D01*
X103010130Y-89933580D01*
X102930941Y-89742402D01*
X102815977Y-89570345D01*
X102815975Y-89570342D01*
X102669657Y-89424024D01*
X102505081Y-89314059D01*
X102497598Y-89309059D01*
X102306420Y-89229870D01*
X102306412Y-89229868D01*
X102103469Y-89189500D01*
X102103465Y-89189500D01*
X101896535Y-89189500D01*
X101896530Y-89189500D01*
X101693587Y-89229868D01*
X101693579Y-89229870D01*
X101502403Y-89309058D01*
X101330342Y-89424024D01*
X101184024Y-89570342D01*
X101069058Y-89742403D01*
X100989870Y-89933579D01*
X100989868Y-89933587D01*
X100949500Y-90136530D01*
X100949500Y-90343469D01*
X100989868Y-90546412D01*
X100989870Y-90546420D01*
X101069058Y-90737596D01*
X101184024Y-90909657D01*
X101330342Y-91055975D01*
X101502405Y-91170943D01*
X101605043Y-91213456D01*
X101667108Y-91239164D01*
X101721511Y-91283005D01*
X101743576Y-91349299D01*
X101726297Y-91416998D01*
X101675160Y-91464609D01*
X101657974Y-91471656D01*
X101481781Y-91528905D01*
X101292439Y-91625380D01*
X101238282Y-91664727D01*
X101238282Y-91664728D01*
X101870591Y-92297037D01*
X101807007Y-92314075D01*
X101692993Y-92379901D01*
X101599901Y-92472993D01*
X101534075Y-92587007D01*
X101517037Y-92650591D01*
X100884728Y-92018282D01*
X100884727Y-92018282D01*
X100845380Y-92072439D01*
X100748904Y-92261782D01*
X100683242Y-92463869D01*
X100683242Y-92463872D01*
X100650000Y-92673753D01*
X100650000Y-92886246D01*
X100683242Y-93096127D01*
X100683242Y-93096130D01*
X100748904Y-93298217D01*
X100845375Y-93487550D01*
X100884728Y-93541716D01*
X101517037Y-92909408D01*
X101534075Y-92972993D01*
X101599901Y-93087007D01*
X101692993Y-93180099D01*
X101807007Y-93245925D01*
X101870590Y-93262962D01*
X101238282Y-93895269D01*
X101238282Y-93895270D01*
X101292449Y-93934624D01*
X101481782Y-94031095D01*
X101657973Y-94088343D01*
X101715648Y-94127780D01*
X101742847Y-94192139D01*
X101730932Y-94260985D01*
X101683688Y-94312461D01*
X101667108Y-94320835D01*
X101502403Y-94389057D01*
X101330342Y-94504024D01*
X101184024Y-94650342D01*
X101069058Y-94822403D01*
X100989870Y-95013579D01*
X100989868Y-95013587D01*
X100949500Y-95216530D01*
X100949500Y-95423469D01*
X100989868Y-95626412D01*
X100989870Y-95626420D01*
X101069058Y-95817596D01*
X101184024Y-95989657D01*
X101330342Y-96135975D01*
X101502405Y-96250943D01*
X101578147Y-96282316D01*
X101667108Y-96319164D01*
X101721511Y-96363005D01*
X101743576Y-96429299D01*
X101726297Y-96496998D01*
X101675160Y-96544609D01*
X101657974Y-96551656D01*
X101481781Y-96608905D01*
X101292439Y-96705380D01*
X101238282Y-96744727D01*
X101238282Y-96744728D01*
X101870591Y-97377037D01*
X101807007Y-97394075D01*
X101692993Y-97459901D01*
X101599901Y-97552993D01*
X101534075Y-97667007D01*
X101517037Y-97730591D01*
X100884728Y-97098282D01*
X100884727Y-97098282D01*
X100845380Y-97152439D01*
X100748904Y-97341782D01*
X100683242Y-97543869D01*
X100683242Y-97543872D01*
X100650000Y-97753753D01*
X100650000Y-97966246D01*
X100683242Y-98176127D01*
X100683242Y-98176130D01*
X100748904Y-98378217D01*
X100845375Y-98567550D01*
X100884728Y-98621716D01*
X101517037Y-97989408D01*
X101534075Y-98052993D01*
X101599901Y-98167007D01*
X101692993Y-98260099D01*
X101807007Y-98325925D01*
X101870590Y-98342962D01*
X101238282Y-98975269D01*
X101238282Y-98975270D01*
X101292449Y-99014624D01*
X101481782Y-99111095D01*
X101657973Y-99168343D01*
X101715648Y-99207780D01*
X101742847Y-99272139D01*
X101730932Y-99340985D01*
X101683688Y-99392461D01*
X101667108Y-99400835D01*
X101502403Y-99469057D01*
X101330342Y-99584024D01*
X101184024Y-99730342D01*
X101069058Y-99902403D01*
X100989870Y-100093579D01*
X100989868Y-100093587D01*
X100949500Y-100296530D01*
X100949500Y-100503469D01*
X100989868Y-100706412D01*
X100989870Y-100706420D01*
X101069058Y-100897596D01*
X101184024Y-101069657D01*
X101330342Y-101215975D01*
X101330345Y-101215977D01*
X101502402Y-101330941D01*
X101693580Y-101410130D01*
X101819335Y-101435144D01*
X101896530Y-101450499D01*
X101896534Y-101450500D01*
X101896535Y-101450500D01*
X102103466Y-101450500D01*
X102103467Y-101450499D01*
X102306420Y-101410130D01*
X102497598Y-101330941D01*
X102669655Y-101215977D01*
X102815977Y-101069655D01*
X102930941Y-100897598D01*
X102980875Y-100777046D01*
X103024716Y-100722644D01*
X103091010Y-100700579D01*
X103095436Y-100700500D01*
X106424167Y-100700500D01*
X106491206Y-100720185D01*
X106511848Y-100736819D01*
X112752848Y-106977819D01*
X112786333Y-107039142D01*
X112781349Y-107108834D01*
X112739477Y-107164767D01*
X112674013Y-107189184D01*
X112665167Y-107189500D01*
X111714362Y-107189500D01*
X111647323Y-107169815D01*
X111626681Y-107153181D01*
X107173039Y-102699539D01*
X107159138Y-102691514D01*
X107145237Y-102683488D01*
X107104520Y-102659980D01*
X107104519Y-102659979D01*
X107079042Y-102653152D01*
X107028091Y-102639500D01*
X107028089Y-102639500D01*
X103095436Y-102639500D01*
X103028397Y-102619815D01*
X102982642Y-102567011D01*
X102980875Y-102562953D01*
X102964740Y-102524000D01*
X102930941Y-102442402D01*
X102815977Y-102270345D01*
X102815975Y-102270342D01*
X102669657Y-102124024D01*
X102505081Y-102014059D01*
X102497598Y-102009059D01*
X102306420Y-101929870D01*
X102306412Y-101929868D01*
X102103469Y-101889500D01*
X102103465Y-101889500D01*
X101896535Y-101889500D01*
X101896530Y-101889500D01*
X101693587Y-101929868D01*
X101693579Y-101929870D01*
X101502403Y-102009058D01*
X101330342Y-102124024D01*
X101184024Y-102270342D01*
X101069058Y-102442403D01*
X100989870Y-102633579D01*
X100989868Y-102633587D01*
X100949500Y-102836530D01*
X100949500Y-103043469D01*
X100989868Y-103246412D01*
X100989870Y-103246420D01*
X101069058Y-103437596D01*
X101184024Y-103609657D01*
X101330342Y-103755975D01*
X101330345Y-103755977D01*
X101502402Y-103870941D01*
X101693580Y-103950130D01*
X101883992Y-103988005D01*
X101896530Y-103990499D01*
X101896534Y-103990500D01*
X101896535Y-103990500D01*
X102103466Y-103990500D01*
X102103467Y-103990499D01*
X102306420Y-103950130D01*
X102497598Y-103870941D01*
X102669655Y-103755977D01*
X102815977Y-103609655D01*
X102930941Y-103437598D01*
X102980875Y-103317046D01*
X103024716Y-103262644D01*
X103091010Y-103240579D01*
X103095436Y-103240500D01*
X106812696Y-103240500D01*
X106879735Y-103260185D01*
X106900377Y-103276819D01*
X110787864Y-107164306D01*
X110795876Y-107178978D01*
X110807911Y-107190582D01*
X110812273Y-107209008D01*
X110821349Y-107225629D01*
X110820156Y-107242304D01*
X110824008Y-107258572D01*
X110817715Y-107276431D01*
X110816365Y-107295321D01*
X110806170Y-107309201D01*
X110800791Y-107324471D01*
X110783427Y-107340168D01*
X110776295Y-107349880D01*
X110769559Y-107355117D01*
X110692686Y-107399500D01*
X110623534Y-107468651D01*
X110617436Y-107473393D01*
X110591830Y-107483480D01*
X110567682Y-107496666D01*
X110554857Y-107498044D01*
X110552428Y-107499002D01*
X110550153Y-107498550D01*
X110541324Y-107499500D01*
X107075833Y-107499500D01*
X107008794Y-107479815D01*
X106988152Y-107463181D01*
X104764510Y-105239539D01*
X104742825Y-105227020D01*
X104721140Y-105214500D01*
X104701731Y-105203294D01*
X104695990Y-105199979D01*
X104695991Y-105199979D01*
X104657775Y-105189739D01*
X104619562Y-105179500D01*
X104619560Y-105179500D01*
X103095436Y-105179500D01*
X103028397Y-105159815D01*
X102982642Y-105107011D01*
X102980875Y-105102953D01*
X102967845Y-105071496D01*
X102930941Y-104982402D01*
X102815977Y-104810345D01*
X102815975Y-104810342D01*
X102669657Y-104664024D01*
X102570254Y-104597606D01*
X102497598Y-104549059D01*
X102470532Y-104537848D01*
X102306420Y-104469870D01*
X102306412Y-104469868D01*
X102103469Y-104429500D01*
X102103465Y-104429500D01*
X101896535Y-104429500D01*
X101896530Y-104429500D01*
X101693587Y-104469868D01*
X101693579Y-104469870D01*
X101502403Y-104549058D01*
X101330342Y-104664024D01*
X101184024Y-104810342D01*
X101069058Y-104982403D01*
X100989870Y-105173579D01*
X100989868Y-105173587D01*
X100949500Y-105376530D01*
X100949500Y-105583469D01*
X100989868Y-105786412D01*
X100989870Y-105786420D01*
X101069058Y-105977596D01*
X101184024Y-106149657D01*
X101330342Y-106295975D01*
X101330345Y-106295977D01*
X101502402Y-106410941D01*
X101693580Y-106490130D01*
X101896530Y-106530499D01*
X101896534Y-106530500D01*
X101896535Y-106530500D01*
X102103466Y-106530500D01*
X102103467Y-106530499D01*
X102306420Y-106490130D01*
X102497598Y-106410941D01*
X102669655Y-106295977D01*
X102815977Y-106149655D01*
X102930941Y-105977598D01*
X102980875Y-105857046D01*
X103024716Y-105802644D01*
X103091010Y-105780579D01*
X103095436Y-105780500D01*
X104404167Y-105780500D01*
X104471206Y-105800185D01*
X104491848Y-105816819D01*
X106659540Y-107984511D01*
X106715489Y-108040460D01*
X106715491Y-108040461D01*
X106715495Y-108040464D01*
X106784004Y-108080017D01*
X106784011Y-108080021D01*
X106860438Y-108100500D01*
X110541324Y-108100500D01*
X110570764Y-108109144D01*
X110600751Y-108115668D01*
X110605766Y-108119422D01*
X110608363Y-108120185D01*
X110629005Y-108136819D01*
X110680005Y-108187819D01*
X110713490Y-108249142D01*
X110708506Y-108318834D01*
X110666634Y-108374767D01*
X110601170Y-108399184D01*
X110592324Y-108399500D01*
X105475833Y-108399500D01*
X105408794Y-108379815D01*
X105388152Y-108363181D01*
X104784510Y-107759539D01*
X104754581Y-107742260D01*
X104734184Y-107730484D01*
X104730337Y-107728263D01*
X104715990Y-107719979D01*
X104715991Y-107719979D01*
X104674527Y-107708869D01*
X104639562Y-107699500D01*
X104639560Y-107699500D01*
X103087152Y-107699500D01*
X103020113Y-107679815D01*
X102974358Y-107627011D01*
X102972591Y-107622953D01*
X102930942Y-107522403D01*
X102815975Y-107350342D01*
X102669657Y-107204024D01*
X102535673Y-107114500D01*
X102497598Y-107089059D01*
X102377088Y-107039142D01*
X102306420Y-107009870D01*
X102306412Y-107009868D01*
X102103469Y-106969500D01*
X102103465Y-106969500D01*
X101896535Y-106969500D01*
X101896530Y-106969500D01*
X101693587Y-107009868D01*
X101693579Y-107009870D01*
X101502403Y-107089058D01*
X101330342Y-107204024D01*
X101184024Y-107350342D01*
X101069058Y-107522403D01*
X100989870Y-107713579D01*
X100989868Y-107713587D01*
X100949500Y-107916530D01*
X100949500Y-108123469D01*
X100989868Y-108326412D01*
X100989870Y-108326420D01*
X101058010Y-108490925D01*
X101069059Y-108517598D01*
X101107970Y-108575833D01*
X101184024Y-108689657D01*
X101330342Y-108835975D01*
X101330345Y-108835977D01*
X101502402Y-108950941D01*
X101693580Y-109030130D01*
X101883791Y-109067965D01*
X101896530Y-109070499D01*
X101896534Y-109070500D01*
X101896535Y-109070500D01*
X102103466Y-109070500D01*
X102103467Y-109070499D01*
X102306420Y-109030130D01*
X102497598Y-108950941D01*
X102669655Y-108835977D01*
X102815977Y-108689655D01*
X102930941Y-108517598D01*
X102989159Y-108377045D01*
X103033000Y-108322644D01*
X103099294Y-108300579D01*
X103103720Y-108300500D01*
X104424167Y-108300500D01*
X104491206Y-108320185D01*
X104511848Y-108336819D01*
X105059540Y-108884511D01*
X105115489Y-108940460D01*
X105115491Y-108940461D01*
X105115495Y-108940464D01*
X105184004Y-108980017D01*
X105184011Y-108980021D01*
X105260438Y-109000500D01*
X105339562Y-109000500D01*
X112941324Y-109000500D01*
X113008363Y-109020185D01*
X113029005Y-109036819D01*
X113092686Y-109100500D01*
X113206814Y-109166392D01*
X113334108Y-109200500D01*
X113334110Y-109200500D01*
X113465890Y-109200500D01*
X113465892Y-109200500D01*
X113593186Y-109166392D01*
X113707314Y-109100500D01*
X113800500Y-109007314D01*
X113866392Y-108893186D01*
X113900500Y-108765892D01*
X113900500Y-108634108D01*
X113866392Y-108506814D01*
X113800500Y-108392686D01*
X113707314Y-108299500D01*
X113649969Y-108266392D01*
X113593187Y-108233608D01*
X113524937Y-108215321D01*
X113465892Y-108199500D01*
X113334108Y-108199500D01*
X113206812Y-108233608D01*
X113092686Y-108299500D01*
X113092683Y-108299502D01*
X113029005Y-108363181D01*
X112967682Y-108396666D01*
X112941324Y-108399500D01*
X111407676Y-108399500D01*
X111340637Y-108379815D01*
X111294882Y-108327011D01*
X111284938Y-108257853D01*
X111313963Y-108194297D01*
X111319995Y-108187819D01*
X111354029Y-108153785D01*
X111400500Y-108107314D01*
X111466392Y-107993186D01*
X111496075Y-107882404D01*
X111532439Y-107822747D01*
X111595285Y-107792217D01*
X111615849Y-107790500D01*
X121925500Y-107790500D01*
X121992539Y-107810185D01*
X122038294Y-107862989D01*
X122048165Y-107896353D01*
X122049500Y-107905376D01*
X122049500Y-107964674D01*
X122064034Y-108037740D01*
X122070517Y-108047444D01*
X122074129Y-108071853D01*
X122071330Y-108091894D01*
X122073494Y-108112017D01*
X122066025Y-108137452D01*
X122064033Y-108142259D01*
X122049500Y-108215323D01*
X122049500Y-108215326D01*
X122049500Y-108364674D01*
X122049500Y-108364676D01*
X122049499Y-108364676D01*
X122064033Y-108437740D01*
X122066025Y-108442548D01*
X122073494Y-108512017D01*
X122066025Y-108537452D01*
X122064033Y-108542259D01*
X122049500Y-108615323D01*
X122049500Y-108615326D01*
X122049500Y-108764674D01*
X122049500Y-108764676D01*
X122049499Y-108764676D01*
X122064033Y-108837740D01*
X122066025Y-108842548D01*
X122073494Y-108912017D01*
X122066025Y-108937452D01*
X122064033Y-108942259D01*
X122049500Y-109015323D01*
X122049500Y-109015326D01*
X122049500Y-109164674D01*
X122049500Y-109164676D01*
X122049499Y-109164676D01*
X122064033Y-109237740D01*
X122066025Y-109242548D01*
X122073494Y-109312017D01*
X122066025Y-109337452D01*
X122064033Y-109342259D01*
X122049500Y-109415323D01*
X122049500Y-109415326D01*
X122049500Y-109564674D01*
X122049500Y-109564676D01*
X122049499Y-109564676D01*
X122064033Y-109637740D01*
X122066025Y-109642548D01*
X122074625Y-109704396D01*
X122071506Y-109731076D01*
X122064034Y-109742260D01*
X122049500Y-109815326D01*
X122049500Y-109919342D01*
X122048661Y-109926520D01*
X122037704Y-109952293D01*
X122029815Y-109979163D01*
X122023875Y-109984826D01*
X122021327Y-109990821D01*
X122008262Y-109999713D01*
X121987500Y-110019511D01*
X121935492Y-110049537D01*
X121935487Y-110049541D01*
X121879539Y-110105489D01*
X121841751Y-110170941D01*
X121822047Y-110196620D01*
X121765490Y-110253179D01*
X121709538Y-110309131D01*
X121709535Y-110309135D01*
X121669982Y-110377644D01*
X121669979Y-110377649D01*
X121649500Y-110454079D01*
X121649500Y-110624167D01*
X121629815Y-110691206D01*
X121613181Y-110711848D01*
X117909541Y-114415487D01*
X117909535Y-114415495D01*
X117869982Y-114484004D01*
X117869979Y-114484009D01*
X117849500Y-114560439D01*
X117849500Y-118916323D01*
X117829815Y-118983362D01*
X117813182Y-119004004D01*
X117749500Y-119067686D01*
X117683608Y-119181812D01*
X117654808Y-119289299D01*
X117649500Y-119309108D01*
X117649500Y-119440892D01*
X117657006Y-119468904D01*
X117683608Y-119568187D01*
X117716554Y-119625250D01*
X117749500Y-119682314D01*
X117842686Y-119775500D01*
X117956814Y-119841392D01*
X118084108Y-119875500D01*
X118084110Y-119875500D01*
X118215890Y-119875500D01*
X118215892Y-119875500D01*
X118343186Y-119841392D01*
X118457314Y-119775500D01*
X118550500Y-119682314D01*
X118616392Y-119568186D01*
X118650500Y-119440892D01*
X118650500Y-119309108D01*
X118616392Y-119181814D01*
X118550500Y-119067686D01*
X118486818Y-119004004D01*
X118453334Y-118942680D01*
X118450500Y-118916323D01*
X118450500Y-114775833D01*
X118470185Y-114708794D01*
X118486819Y-114688152D01*
X119487819Y-113687152D01*
X119549142Y-113653667D01*
X119618834Y-113658651D01*
X119674767Y-113700523D01*
X119699184Y-113765987D01*
X119699500Y-113774833D01*
X119699500Y-124039562D01*
X119719979Y-124115989D01*
X119730846Y-124134810D01*
X119730847Y-124134814D01*
X119730848Y-124134814D01*
X119759540Y-124184511D01*
X124259540Y-128684511D01*
X124315489Y-128740460D01*
X124315491Y-128740461D01*
X124315495Y-128740464D01*
X124384004Y-128780017D01*
X124384011Y-128780021D01*
X124460438Y-128800500D01*
X149234650Y-128800500D01*
X149301689Y-128820185D01*
X149337752Y-128855609D01*
X149444022Y-129014655D01*
X149590342Y-129160975D01*
X149590345Y-129160977D01*
X149762402Y-129275941D01*
X149953580Y-129355130D01*
X150131393Y-129390499D01*
X150156530Y-129395499D01*
X150156534Y-129395500D01*
X150156535Y-129395500D01*
X150363466Y-129395500D01*
X150363467Y-129395499D01*
X150566420Y-129355130D01*
X150757598Y-129275941D01*
X150929655Y-129160977D01*
X151075977Y-129014655D01*
X151190941Y-128842598D01*
X151270130Y-128651420D01*
X151310500Y-128448465D01*
X151310500Y-128241535D01*
X151270130Y-128038580D01*
X151190941Y-127847402D01*
X151075977Y-127675345D01*
X151075975Y-127675342D01*
X150929657Y-127529024D01*
X150786855Y-127433608D01*
X150757598Y-127414059D01*
X150566420Y-127334870D01*
X150566412Y-127334868D01*
X150363469Y-127294500D01*
X150363465Y-127294500D01*
X150156535Y-127294500D01*
X150156530Y-127294500D01*
X149953587Y-127334868D01*
X149953579Y-127334870D01*
X149762403Y-127414058D01*
X149590342Y-127529024D01*
X149444024Y-127675342D01*
X149329058Y-127847403D01*
X149249870Y-128038579D01*
X149249868Y-128038587D01*
X149237714Y-128099691D01*
X149205330Y-128161602D01*
X149144614Y-128196176D01*
X149116097Y-128199500D01*
X127099505Y-128199500D01*
X127032466Y-128179815D01*
X126986711Y-128127011D01*
X126976767Y-128057853D01*
X126979730Y-128043407D01*
X127000500Y-127965892D01*
X127000500Y-127834108D01*
X126966392Y-127706814D01*
X126900500Y-127592686D01*
X126807314Y-127499500D01*
X126749100Y-127465890D01*
X126693187Y-127433608D01*
X126601563Y-127409058D01*
X126565892Y-127399500D01*
X126434108Y-127399500D01*
X126306812Y-127433608D01*
X126192686Y-127499500D01*
X126192683Y-127499502D01*
X126099501Y-127592684D01*
X126099500Y-127592686D01*
X126079683Y-127627011D01*
X126073627Y-127637500D01*
X126023060Y-127685716D01*
X125966240Y-127699500D01*
X125599505Y-127699500D01*
X125532466Y-127679815D01*
X125486711Y-127627011D01*
X125476767Y-127557853D01*
X125479730Y-127543407D01*
X125483584Y-127529023D01*
X125500500Y-127465892D01*
X125500500Y-127334108D01*
X125466392Y-127206814D01*
X125400500Y-127092686D01*
X125307314Y-126999500D01*
X125250250Y-126966554D01*
X125193187Y-126933608D01*
X125129539Y-126916554D01*
X125065892Y-126899500D01*
X124934108Y-126899500D01*
X124806814Y-126933608D01*
X124806813Y-126933608D01*
X124806811Y-126933609D01*
X124806810Y-126933609D01*
X124688331Y-127002013D01*
X124620430Y-127018486D01*
X124554404Y-126995633D01*
X124538650Y-126982307D01*
X123257873Y-125701530D01*
X149209500Y-125701530D01*
X149209500Y-125908469D01*
X149249868Y-126111412D01*
X149249870Y-126111420D01*
X149329058Y-126302596D01*
X149444024Y-126474657D01*
X149590342Y-126620975D01*
X149590345Y-126620977D01*
X149762402Y-126735941D01*
X149953580Y-126815130D01*
X150131393Y-126850499D01*
X150156530Y-126855499D01*
X150156534Y-126855500D01*
X150156535Y-126855500D01*
X150363466Y-126855500D01*
X150363467Y-126855499D01*
X150566420Y-126815130D01*
X150757598Y-126735941D01*
X150929655Y-126620977D01*
X151075977Y-126474655D01*
X151190941Y-126302598D01*
X151270130Y-126111420D01*
X151310500Y-125908465D01*
X151310500Y-125701535D01*
X151270130Y-125498580D01*
X151190941Y-125307402D01*
X151075977Y-125135345D01*
X151075975Y-125135342D01*
X150929657Y-124989024D01*
X150843626Y-124931541D01*
X150757598Y-124874059D01*
X150745522Y-124869057D01*
X150566420Y-124794870D01*
X150566412Y-124794868D01*
X150363469Y-124754500D01*
X150363465Y-124754500D01*
X150156535Y-124754500D01*
X150156530Y-124754500D01*
X149953587Y-124794868D01*
X149953579Y-124794870D01*
X149762403Y-124874058D01*
X149590342Y-124989024D01*
X149444024Y-125135342D01*
X149329058Y-125307403D01*
X149249870Y-125498579D01*
X149249868Y-125498587D01*
X149209500Y-125701530D01*
X123257873Y-125701530D01*
X121136819Y-123580476D01*
X121103334Y-123519153D01*
X121100500Y-123492795D01*
X121100500Y-123161530D01*
X149209500Y-123161530D01*
X149209500Y-123368469D01*
X149249868Y-123571412D01*
X149249870Y-123571420D01*
X149329058Y-123762596D01*
X149444024Y-123934657D01*
X149590342Y-124080975D01*
X149590345Y-124080977D01*
X149762402Y-124195941D01*
X149953580Y-124275130D01*
X150156530Y-124315499D01*
X150156534Y-124315500D01*
X150156535Y-124315500D01*
X150363466Y-124315500D01*
X150363467Y-124315499D01*
X150566420Y-124275130D01*
X150757598Y-124195941D01*
X150929655Y-124080977D01*
X151075977Y-123934655D01*
X151190941Y-123762598D01*
X151270130Y-123571420D01*
X151310500Y-123368465D01*
X151310500Y-123161535D01*
X151270130Y-122958580D01*
X151190941Y-122767402D01*
X151075977Y-122595345D01*
X151075975Y-122595342D01*
X150929657Y-122449024D01*
X150843626Y-122391541D01*
X150757598Y-122334059D01*
X150566420Y-122254870D01*
X150566412Y-122254868D01*
X150363469Y-122214500D01*
X150363465Y-122214500D01*
X150156535Y-122214500D01*
X150156530Y-122214500D01*
X149953587Y-122254868D01*
X149953579Y-122254870D01*
X149762403Y-122334058D01*
X149590342Y-122449024D01*
X149444024Y-122595342D01*
X149329058Y-122767403D01*
X149249870Y-122958579D01*
X149249868Y-122958587D01*
X149209500Y-123161530D01*
X121100500Y-123161530D01*
X121100500Y-120621530D01*
X149209500Y-120621530D01*
X149209500Y-120828469D01*
X149249868Y-121031412D01*
X149249870Y-121031420D01*
X149329058Y-121222596D01*
X149444024Y-121394657D01*
X149590342Y-121540975D01*
X149590345Y-121540977D01*
X149762402Y-121655941D01*
X149953580Y-121735130D01*
X150156530Y-121775499D01*
X150156534Y-121775500D01*
X150156535Y-121775500D01*
X150363466Y-121775500D01*
X150363467Y-121775499D01*
X150566420Y-121735130D01*
X150757598Y-121655941D01*
X150929655Y-121540977D01*
X151075977Y-121394655D01*
X151190941Y-121222598D01*
X151270130Y-121031420D01*
X151310500Y-120828465D01*
X151310500Y-120621535D01*
X151270130Y-120418580D01*
X151190941Y-120227402D01*
X151075977Y-120055345D01*
X151075975Y-120055342D01*
X150929657Y-119909024D01*
X150789961Y-119815683D01*
X150757598Y-119794059D01*
X150712790Y-119775499D01*
X150566420Y-119714870D01*
X150566412Y-119714868D01*
X150363469Y-119674500D01*
X150363465Y-119674500D01*
X150156535Y-119674500D01*
X150156530Y-119674500D01*
X149953587Y-119714868D01*
X149953579Y-119714870D01*
X149762403Y-119794058D01*
X149590342Y-119909024D01*
X149444024Y-120055342D01*
X149329058Y-120227403D01*
X149249870Y-120418579D01*
X149249868Y-120418587D01*
X149209500Y-120621530D01*
X121100500Y-120621530D01*
X121100500Y-114275833D01*
X121120185Y-114208794D01*
X121136819Y-114188152D01*
X122260652Y-113064319D01*
X122321975Y-113030834D01*
X122348333Y-113028000D01*
X123101114Y-113028000D01*
X123168153Y-113047685D01*
X123213908Y-113100489D01*
X123222882Y-113133785D01*
X123223311Y-113133700D01*
X123239032Y-113212735D01*
X123239033Y-113212739D01*
X123239034Y-113212740D01*
X123294399Y-113295601D01*
X123374283Y-113348977D01*
X123377260Y-113350966D01*
X123377264Y-113350967D01*
X123450321Y-113365499D01*
X123450324Y-113365500D01*
X123450326Y-113365500D01*
X123599676Y-113365500D01*
X123599677Y-113365499D01*
X123624504Y-113360561D01*
X123672732Y-113350968D01*
X123672733Y-113350967D01*
X123672740Y-113350966D01*
X123672745Y-113350962D01*
X123677539Y-113348977D01*
X123747008Y-113341504D01*
X123772461Y-113348977D01*
X123777256Y-113350963D01*
X123777260Y-113350966D01*
X123777264Y-113350966D01*
X123777267Y-113350968D01*
X123850321Y-113365499D01*
X123850324Y-113365500D01*
X123850326Y-113365500D01*
X123999676Y-113365500D01*
X123999677Y-113365499D01*
X124024504Y-113360561D01*
X124072732Y-113350968D01*
X124072733Y-113350967D01*
X124072740Y-113350966D01*
X124072745Y-113350962D01*
X124077539Y-113348977D01*
X124147008Y-113341504D01*
X124172461Y-113348977D01*
X124177256Y-113350963D01*
X124177260Y-113350966D01*
X124177264Y-113350966D01*
X124177267Y-113350968D01*
X124250321Y-113365499D01*
X124250324Y-113365500D01*
X124250326Y-113365500D01*
X124399675Y-113365500D01*
X124415493Y-113362353D01*
X124472740Y-113350966D01*
X124472741Y-113350964D01*
X124475652Y-113350386D01*
X124545244Y-113356612D01*
X124598649Y-113397077D01*
X124682435Y-113507564D01*
X124802904Y-113598920D01*
X124943556Y-113654386D01*
X125031946Y-113665000D01*
X125100500Y-113665000D01*
X125167539Y-113684685D01*
X125213294Y-113737489D01*
X125224500Y-113789000D01*
X125224500Y-114399167D01*
X125204815Y-114466206D01*
X125188181Y-114486848D01*
X124511848Y-115163181D01*
X124450525Y-115196666D01*
X124424167Y-115199500D01*
X123758676Y-115199500D01*
X123691637Y-115179815D01*
X123670995Y-115163181D01*
X123607316Y-115099502D01*
X123607314Y-115099500D01*
X123539380Y-115060278D01*
X123493187Y-115033608D01*
X123429539Y-115016554D01*
X123365892Y-114999500D01*
X123234108Y-114999500D01*
X123106812Y-115033608D01*
X122992686Y-115099500D01*
X122992683Y-115099502D01*
X122899502Y-115192683D01*
X122899500Y-115192686D01*
X122833608Y-115306812D01*
X122806870Y-115406603D01*
X122799500Y-115434108D01*
X122799500Y-115565892D01*
X122804355Y-115584011D01*
X122833608Y-115693187D01*
X122860902Y-115740460D01*
X122899500Y-115807314D01*
X122992686Y-115900500D01*
X123106814Y-115966392D01*
X123234108Y-116000500D01*
X123234110Y-116000500D01*
X123365890Y-116000500D01*
X123365892Y-116000500D01*
X123493186Y-115966392D01*
X123607314Y-115900500D01*
X123670995Y-115836819D01*
X123732318Y-115803334D01*
X123758676Y-115800500D01*
X124639560Y-115800500D01*
X124639562Y-115800500D01*
X124715989Y-115780021D01*
X124784511Y-115740460D01*
X124840460Y-115684511D01*
X125037819Y-115487152D01*
X125099142Y-115453667D01*
X125168834Y-115458651D01*
X125224767Y-115500523D01*
X125249184Y-115565987D01*
X125249500Y-115574833D01*
X125249500Y-117766323D01*
X125229815Y-117833362D01*
X125213182Y-117854004D01*
X125149500Y-117917686D01*
X125083608Y-118031812D01*
X125060218Y-118119108D01*
X125049500Y-118159108D01*
X125049500Y-118290892D01*
X125064087Y-118345331D01*
X125083608Y-118418187D01*
X125116554Y-118475250D01*
X125149500Y-118532314D01*
X125149502Y-118532316D01*
X125213181Y-118595995D01*
X125246666Y-118657318D01*
X125249500Y-118683676D01*
X125249500Y-118889562D01*
X125256671Y-118916323D01*
X125269979Y-118965990D01*
X125269982Y-118965995D01*
X125309535Y-119034504D01*
X125309539Y-119034509D01*
X125309540Y-119034511D01*
X126709540Y-120434511D01*
X126765489Y-120490460D01*
X126765491Y-120490461D01*
X126765495Y-120490464D01*
X126834004Y-120530017D01*
X126834007Y-120530019D01*
X126834011Y-120530021D01*
X126910438Y-120550500D01*
X126910440Y-120550500D01*
X127064560Y-120550500D01*
X127064562Y-120550500D01*
X127140989Y-120530021D01*
X127209511Y-120490460D01*
X127265460Y-120434511D01*
X132215460Y-115484511D01*
X132244616Y-115434011D01*
X132255021Y-115415989D01*
X132275500Y-115339562D01*
X132275500Y-110714500D01*
X132295185Y-110647461D01*
X132347989Y-110601706D01*
X132399500Y-110590500D01*
X134075500Y-110590500D01*
X134142539Y-110610185D01*
X134188294Y-110662989D01*
X134199500Y-110714500D01*
X134199500Y-117726323D01*
X134179815Y-117793362D01*
X134163182Y-117814004D01*
X134099500Y-117877686D01*
X134033608Y-117991812D01*
X134002601Y-118107536D01*
X133999500Y-118119108D01*
X133999500Y-118250892D01*
X134003030Y-118264065D01*
X134033608Y-118378187D01*
X134066554Y-118435250D01*
X134099500Y-118492314D01*
X134192686Y-118585500D01*
X134306814Y-118651392D01*
X134434108Y-118685500D01*
X134434110Y-118685500D01*
X134565890Y-118685500D01*
X134565892Y-118685500D01*
X134693186Y-118651392D01*
X134807314Y-118585500D01*
X134900500Y-118492314D01*
X134966392Y-118378186D01*
X135000500Y-118250892D01*
X135000500Y-118119108D01*
X134990431Y-118081530D01*
X149209500Y-118081530D01*
X149209500Y-118288469D01*
X149249868Y-118491412D01*
X149249870Y-118491420D01*
X149318587Y-118657318D01*
X149329059Y-118682598D01*
X149385188Y-118766602D01*
X149444024Y-118854657D01*
X149590342Y-119000975D01*
X149590345Y-119000977D01*
X149762402Y-119115941D01*
X149953580Y-119195130D01*
X150131398Y-119230500D01*
X150156530Y-119235499D01*
X150156534Y-119235500D01*
X150156535Y-119235500D01*
X150363466Y-119235500D01*
X150363467Y-119235499D01*
X150566420Y-119195130D01*
X150757598Y-119115941D01*
X150929655Y-119000977D01*
X151075977Y-118854655D01*
X151190941Y-118682598D01*
X151270130Y-118491420D01*
X151310500Y-118288465D01*
X151310500Y-118081535D01*
X151270130Y-117878580D01*
X151190941Y-117687402D01*
X151075977Y-117515345D01*
X151075975Y-117515342D01*
X150929657Y-117369024D01*
X150827098Y-117300497D01*
X150757598Y-117254059D01*
X150566420Y-117174870D01*
X150566412Y-117174868D01*
X150363469Y-117134500D01*
X150363465Y-117134500D01*
X150156535Y-117134500D01*
X150156530Y-117134500D01*
X149953587Y-117174868D01*
X149953579Y-117174870D01*
X149762403Y-117254058D01*
X149590342Y-117369024D01*
X149444024Y-117515342D01*
X149329058Y-117687403D01*
X149249870Y-117878579D01*
X149249868Y-117878587D01*
X149209500Y-118081530D01*
X134990431Y-118081530D01*
X134966392Y-117991814D01*
X134900500Y-117877686D01*
X134836818Y-117814004D01*
X134803334Y-117752680D01*
X134800500Y-117726323D01*
X134800500Y-116164500D01*
X134803050Y-116155814D01*
X134801762Y-116146853D01*
X134812740Y-116122812D01*
X134820185Y-116097461D01*
X134827025Y-116091533D01*
X134830787Y-116083297D01*
X134853021Y-116069007D01*
X134872989Y-116051706D01*
X134883503Y-116049418D01*
X134889565Y-116045523D01*
X134924500Y-116040500D01*
X135106156Y-116040500D01*
X135173195Y-116060185D01*
X135208643Y-116100765D01*
X135210553Y-116099429D01*
X135216775Y-116108315D01*
X135216776Y-116108316D01*
X135301684Y-116193224D01*
X135410513Y-116243972D01*
X135460099Y-116250500D01*
X135819900Y-116250499D01*
X135829534Y-116249230D01*
X135898565Y-116259994D01*
X135944038Y-116300351D01*
X135945502Y-116299217D01*
X135950283Y-116305381D01*
X136064616Y-116419714D01*
X136064625Y-116419721D01*
X136203804Y-116502031D01*
X136350000Y-116544504D01*
X136350000Y-116544503D01*
X136850000Y-116544503D01*
X136996195Y-116502031D01*
X137135374Y-116419721D01*
X137135383Y-116419714D01*
X137249714Y-116305383D01*
X137249721Y-116305374D01*
X137332031Y-116166195D01*
X137332033Y-116166190D01*
X137377144Y-116010918D01*
X137377145Y-116010912D01*
X137378790Y-115990000D01*
X136850000Y-115990000D01*
X136850000Y-116544503D01*
X136350000Y-116544503D01*
X136350000Y-115541530D01*
X149209500Y-115541530D01*
X149209500Y-115748469D01*
X149249868Y-115951412D01*
X149249870Y-115951420D01*
X149310362Y-116097461D01*
X149329059Y-116142598D01*
X149386541Y-116228626D01*
X149444024Y-116314657D01*
X149590342Y-116460975D01*
X149590345Y-116460977D01*
X149762402Y-116575941D01*
X149953580Y-116655130D01*
X150131393Y-116690499D01*
X150156530Y-116695499D01*
X150156534Y-116695500D01*
X150156535Y-116695500D01*
X150363466Y-116695500D01*
X150363467Y-116695499D01*
X150566420Y-116655130D01*
X150757598Y-116575941D01*
X150929655Y-116460977D01*
X151075977Y-116314655D01*
X151190941Y-116142598D01*
X151270130Y-115951420D01*
X151310500Y-115748465D01*
X151310500Y-115541535D01*
X151270130Y-115338580D01*
X151190941Y-115147402D01*
X151075977Y-114975345D01*
X151075975Y-114975342D01*
X150929657Y-114829024D01*
X150789594Y-114735438D01*
X150757598Y-114714059D01*
X150744887Y-114708794D01*
X150566420Y-114634870D01*
X150566412Y-114634868D01*
X150363469Y-114594500D01*
X150363465Y-114594500D01*
X150156535Y-114594500D01*
X150156530Y-114594500D01*
X149953587Y-114634868D01*
X149953579Y-114634870D01*
X149762403Y-114714058D01*
X149590342Y-114829024D01*
X149444024Y-114975342D01*
X149329058Y-115147403D01*
X149249870Y-115338579D01*
X149249868Y-115338587D01*
X149209500Y-115541530D01*
X136350000Y-115541530D01*
X136350000Y-114935494D01*
X136850000Y-114935494D01*
X136850000Y-115490000D01*
X137378790Y-115490000D01*
X137378789Y-115489999D01*
X137377145Y-115469089D01*
X137332031Y-115313804D01*
X137249721Y-115174625D01*
X137249714Y-115174616D01*
X137135383Y-115060285D01*
X137135374Y-115060278D01*
X136996193Y-114977967D01*
X136996190Y-114977965D01*
X136850001Y-114935493D01*
X136850000Y-114935494D01*
X136350000Y-114935494D01*
X136349998Y-114935493D01*
X136203809Y-114977965D01*
X136203806Y-114977967D01*
X136064625Y-115060278D01*
X136064620Y-115060282D01*
X135950282Y-115174621D01*
X135945499Y-115180788D01*
X135943544Y-115179272D01*
X135901362Y-115218644D01*
X135832618Y-115231135D01*
X135829537Y-115230768D01*
X135819904Y-115229500D01*
X135460105Y-115229500D01*
X135447686Y-115231135D01*
X135410513Y-115236028D01*
X135410511Y-115236029D01*
X135410509Y-115236029D01*
X135301683Y-115286776D01*
X135216775Y-115371684D01*
X135210553Y-115380571D01*
X135208594Y-115379199D01*
X135207073Y-115380926D01*
X135199869Y-115396703D01*
X135184462Y-115406603D01*
X135172360Y-115420348D01*
X135155476Y-115425232D01*
X135141091Y-115434477D01*
X135106156Y-115439500D01*
X134924500Y-115439500D01*
X134857461Y-115419815D01*
X134811706Y-115367011D01*
X134800500Y-115315500D01*
X134800500Y-114194500D01*
X134820185Y-114127461D01*
X134872989Y-114081706D01*
X134924500Y-114070500D01*
X135106156Y-114070500D01*
X135173195Y-114090185D01*
X135208643Y-114130765D01*
X135210553Y-114129429D01*
X135216775Y-114138315D01*
X135216776Y-114138316D01*
X135301684Y-114223224D01*
X135410513Y-114273972D01*
X135460099Y-114280500D01*
X135819900Y-114280499D01*
X135829534Y-114279230D01*
X135898565Y-114289994D01*
X135944038Y-114330351D01*
X135945502Y-114329217D01*
X135950283Y-114335381D01*
X136064616Y-114449714D01*
X136064625Y-114449721D01*
X136203804Y-114532031D01*
X136350000Y-114574504D01*
X136350000Y-114574503D01*
X136850000Y-114574503D01*
X136996195Y-114532031D01*
X137135374Y-114449721D01*
X137135383Y-114449714D01*
X137249714Y-114335383D01*
X137249721Y-114335374D01*
X137332031Y-114196195D01*
X137332033Y-114196190D01*
X137377144Y-114040918D01*
X137377145Y-114040912D01*
X137378790Y-114020000D01*
X136850000Y-114020000D01*
X136850000Y-114574503D01*
X136350000Y-114574503D01*
X136350000Y-112965494D01*
X136850000Y-112965494D01*
X136850000Y-113520000D01*
X137378790Y-113520000D01*
X137377145Y-113499089D01*
X137332031Y-113343804D01*
X137249721Y-113204625D01*
X137249714Y-113204616D01*
X137135380Y-113090282D01*
X137135378Y-113090281D01*
X136996193Y-113007967D01*
X136996190Y-113007965D01*
X136974041Y-113001530D01*
X149209500Y-113001530D01*
X149209500Y-113208469D01*
X149249868Y-113411412D01*
X149249870Y-113411420D01*
X149327535Y-113598920D01*
X149329059Y-113602598D01*
X149366512Y-113658651D01*
X149444024Y-113774657D01*
X149590342Y-113920975D01*
X149590345Y-113920977D01*
X149762402Y-114035941D01*
X149953580Y-114115130D01*
X150070140Y-114138315D01*
X150156530Y-114155499D01*
X150156534Y-114155500D01*
X150156535Y-114155500D01*
X150363466Y-114155500D01*
X150363467Y-114155499D01*
X150566420Y-114115130D01*
X150757598Y-114035941D01*
X150929655Y-113920977D01*
X151075977Y-113774655D01*
X151190941Y-113602598D01*
X151270130Y-113411420D01*
X151310500Y-113208465D01*
X151310500Y-113001535D01*
X151270130Y-112798580D01*
X151190941Y-112607402D01*
X151075977Y-112435345D01*
X151075975Y-112435342D01*
X150929657Y-112289024D01*
X150782202Y-112190499D01*
X150757598Y-112174059D01*
X150743733Y-112168316D01*
X150566420Y-112094870D01*
X150566412Y-112094868D01*
X150363469Y-112054500D01*
X150363465Y-112054500D01*
X150156535Y-112054500D01*
X150156530Y-112054500D01*
X149953587Y-112094868D01*
X149953579Y-112094870D01*
X149762403Y-112174058D01*
X149590342Y-112289024D01*
X149444024Y-112435342D01*
X149329058Y-112607403D01*
X149249870Y-112798579D01*
X149249868Y-112798587D01*
X149209500Y-113001530D01*
X136974041Y-113001530D01*
X136850001Y-112965493D01*
X136850000Y-112965494D01*
X136350000Y-112965494D01*
X136349998Y-112965493D01*
X136203809Y-113007965D01*
X136203806Y-113007967D01*
X136064625Y-113090278D01*
X136064620Y-113090282D01*
X135950282Y-113204621D01*
X135945499Y-113210788D01*
X135943544Y-113209272D01*
X135901362Y-113248644D01*
X135832618Y-113261135D01*
X135829537Y-113260768D01*
X135819904Y-113259500D01*
X135460105Y-113259500D01*
X135447686Y-113261135D01*
X135410513Y-113266028D01*
X135410511Y-113266029D01*
X135410509Y-113266029D01*
X135301683Y-113316776D01*
X135216775Y-113401684D01*
X135210553Y-113410571D01*
X135208594Y-113409199D01*
X135207073Y-113410926D01*
X135199869Y-113426703D01*
X135184462Y-113436603D01*
X135172360Y-113450348D01*
X135155476Y-113455232D01*
X135141091Y-113464477D01*
X135106156Y-113469500D01*
X134924500Y-113469500D01*
X134857461Y-113449815D01*
X134811706Y-113397011D01*
X134800500Y-113345500D01*
X134800500Y-112224500D01*
X134820185Y-112157461D01*
X134872989Y-112111706D01*
X134924500Y-112100500D01*
X135106156Y-112100500D01*
X135173195Y-112120185D01*
X135208643Y-112160765D01*
X135210553Y-112159429D01*
X135216775Y-112168315D01*
X135216776Y-112168316D01*
X135301684Y-112253224D01*
X135410513Y-112303972D01*
X135460099Y-112310500D01*
X135819900Y-112310499D01*
X135829534Y-112309230D01*
X135898565Y-112319994D01*
X135944038Y-112360351D01*
X135945502Y-112359217D01*
X135950283Y-112365381D01*
X136064616Y-112479714D01*
X136064625Y-112479721D01*
X136203804Y-112562031D01*
X136350000Y-112604504D01*
X136350000Y-112604503D01*
X136850000Y-112604503D01*
X136996195Y-112562031D01*
X137135374Y-112479721D01*
X137135383Y-112479714D01*
X137249714Y-112365383D01*
X137249721Y-112365374D01*
X137332031Y-112226195D01*
X137332033Y-112226190D01*
X137377144Y-112070918D01*
X137377145Y-112070912D01*
X137378790Y-112050000D01*
X136850000Y-112050000D01*
X136850000Y-112604503D01*
X136350000Y-112604503D01*
X136350000Y-110995494D01*
X136850000Y-110995494D01*
X136850000Y-111550000D01*
X137378790Y-111550000D01*
X137377145Y-111529089D01*
X137332031Y-111373804D01*
X137249721Y-111234625D01*
X137249714Y-111234616D01*
X137135383Y-111120285D01*
X137135374Y-111120278D01*
X136996193Y-111037967D01*
X136996190Y-111037965D01*
X136850001Y-110995493D01*
X136850000Y-110995494D01*
X136350000Y-110995494D01*
X136349998Y-110995493D01*
X136203809Y-111037965D01*
X136203806Y-111037967D01*
X136064625Y-111120278D01*
X136064620Y-111120282D01*
X135950282Y-111234621D01*
X135945499Y-111240788D01*
X135943544Y-111239272D01*
X135901362Y-111278644D01*
X135832618Y-111291135D01*
X135829537Y-111290768D01*
X135819904Y-111289500D01*
X135460105Y-111289500D01*
X135447686Y-111291135D01*
X135410513Y-111296028D01*
X135410511Y-111296029D01*
X135410509Y-111296029D01*
X135301683Y-111346776D01*
X135216775Y-111431684D01*
X135210553Y-111440571D01*
X135208594Y-111439199D01*
X135207073Y-111440926D01*
X135199869Y-111456703D01*
X135184462Y-111466603D01*
X135172360Y-111480348D01*
X135155476Y-111485232D01*
X135141091Y-111494477D01*
X135106156Y-111499500D01*
X134924500Y-111499500D01*
X134857461Y-111479815D01*
X134811706Y-111427011D01*
X134800500Y-111375500D01*
X134800500Y-110254500D01*
X134820185Y-110187461D01*
X134872989Y-110141706D01*
X134924500Y-110130500D01*
X135106156Y-110130500D01*
X135173195Y-110150185D01*
X135208643Y-110190765D01*
X135210553Y-110189429D01*
X135216775Y-110198315D01*
X135216776Y-110198316D01*
X135301684Y-110283224D01*
X135410513Y-110333972D01*
X135460099Y-110340500D01*
X135819900Y-110340499D01*
X135829534Y-110339230D01*
X135898565Y-110349994D01*
X135944038Y-110390351D01*
X135945502Y-110389217D01*
X135950283Y-110395381D01*
X136064616Y-110509714D01*
X136064625Y-110509721D01*
X136203804Y-110592031D01*
X136350000Y-110634504D01*
X136350000Y-110634503D01*
X136850000Y-110634503D01*
X136996195Y-110592031D01*
X137135374Y-110509721D01*
X137135383Y-110509714D01*
X137249714Y-110395383D01*
X137249720Y-110395375D01*
X137251529Y-110392318D01*
X137251529Y-110392317D01*
X137332031Y-110256195D01*
X137332033Y-110256190D01*
X137377144Y-110100918D01*
X137377145Y-110100912D01*
X137378790Y-110080000D01*
X136850000Y-110080000D01*
X136850000Y-110634503D01*
X136350000Y-110634503D01*
X136350000Y-109025494D01*
X136850000Y-109025494D01*
X136850000Y-109580000D01*
X137378790Y-109580000D01*
X137377145Y-109559089D01*
X137332031Y-109403804D01*
X137249721Y-109264625D01*
X137249714Y-109264616D01*
X137135383Y-109150285D01*
X137135374Y-109150278D01*
X136996193Y-109067967D01*
X136996190Y-109067965D01*
X136850001Y-109025493D01*
X136850000Y-109025494D01*
X136350000Y-109025494D01*
X136349998Y-109025493D01*
X136203809Y-109067965D01*
X136203806Y-109067967D01*
X136064625Y-109150278D01*
X136064620Y-109150282D01*
X135950282Y-109264621D01*
X135945499Y-109270788D01*
X135943544Y-109269272D01*
X135901362Y-109308644D01*
X135832618Y-109321135D01*
X135829537Y-109320768D01*
X135819904Y-109319500D01*
X135460105Y-109319500D01*
X135447686Y-109321135D01*
X135410513Y-109326028D01*
X135410511Y-109326029D01*
X135410509Y-109326029D01*
X135301683Y-109376776D01*
X135216775Y-109461684D01*
X135210553Y-109470571D01*
X135208594Y-109469199D01*
X135207073Y-109470926D01*
X135199869Y-109486703D01*
X135184462Y-109496603D01*
X135172360Y-109510348D01*
X135155476Y-109515232D01*
X135141091Y-109524477D01*
X135106156Y-109529500D01*
X134924500Y-109529500D01*
X134857461Y-109509815D01*
X134811706Y-109457011D01*
X134800500Y-109405500D01*
X134800500Y-108360439D01*
X134800500Y-108360438D01*
X134780021Y-108284011D01*
X134764919Y-108257853D01*
X134740464Y-108215495D01*
X134740458Y-108215487D01*
X132884510Y-106359539D01*
X132873476Y-106353169D01*
X132862441Y-106346798D01*
X132837744Y-106332539D01*
X132815990Y-106319979D01*
X132790513Y-106313152D01*
X132739562Y-106299500D01*
X132739560Y-106299500D01*
X130824500Y-106299500D01*
X130757461Y-106279815D01*
X130711706Y-106227011D01*
X130700500Y-106175500D01*
X130700500Y-105460440D01*
X130700500Y-105460438D01*
X130695111Y-105440326D01*
X130695110Y-105440322D01*
X130688162Y-105414391D01*
X130688161Y-105414390D01*
X130680022Y-105384012D01*
X130661879Y-105352587D01*
X130658927Y-105345646D01*
X130655707Y-105318137D01*
X130649177Y-105291218D01*
X130651703Y-105283918D01*
X130650806Y-105276249D01*
X130662968Y-105251370D01*
X130672029Y-105225191D01*
X130678100Y-105220416D01*
X130681492Y-105213479D01*
X130705177Y-105199122D01*
X130726951Y-105182000D01*
X130737854Y-105179317D01*
X130741243Y-105177263D01*
X130745722Y-105177380D01*
X130760437Y-105173760D01*
X130847606Y-105164856D01*
X131008481Y-105111547D01*
X131008492Y-105111542D01*
X131152728Y-105022575D01*
X131152732Y-105022572D01*
X131272572Y-104902732D01*
X131272575Y-104902728D01*
X131361542Y-104758492D01*
X131361547Y-104758481D01*
X131414855Y-104597606D01*
X131424999Y-104498322D01*
X131425000Y-104498309D01*
X131425000Y-104450000D01*
X130599000Y-104450000D01*
X130531961Y-104430315D01*
X130486206Y-104377511D01*
X130475000Y-104326000D01*
X130475000Y-104200000D01*
X130349000Y-104200000D01*
X130281961Y-104180315D01*
X130236206Y-104127511D01*
X130225000Y-104076000D01*
X130225000Y-103950000D01*
X130725000Y-103950000D01*
X131424999Y-103950000D01*
X131424999Y-103901692D01*
X131424998Y-103901677D01*
X131414855Y-103802392D01*
X131361547Y-103641518D01*
X131361542Y-103641507D01*
X131272575Y-103497271D01*
X131272572Y-103497267D01*
X131162986Y-103387681D01*
X131129501Y-103326358D01*
X131134485Y-103256666D01*
X131162986Y-103212319D01*
X131272572Y-103102732D01*
X131272575Y-103102728D01*
X131361542Y-102958492D01*
X131361547Y-102958481D01*
X131414855Y-102797606D01*
X131424999Y-102698322D01*
X131425000Y-102698309D01*
X131425000Y-102650000D01*
X130725000Y-102650000D01*
X130725000Y-103950000D01*
X130225000Y-103950000D01*
X130225000Y-102524000D01*
X130244685Y-102456961D01*
X130297489Y-102411206D01*
X130349000Y-102400000D01*
X130475000Y-102400000D01*
X130475000Y-102274000D01*
X130494685Y-102206961D01*
X130547489Y-102161206D01*
X130599000Y-102150000D01*
X131424999Y-102150000D01*
X131424999Y-102101692D01*
X131424998Y-102101677D01*
X131414855Y-102002392D01*
X131361547Y-101841518D01*
X131361542Y-101841507D01*
X131272575Y-101697271D01*
X131272572Y-101697267D01*
X131152732Y-101577427D01*
X131152728Y-101577424D01*
X131008492Y-101488457D01*
X131008481Y-101488452D01*
X130847606Y-101435144D01*
X130748322Y-101425000D01*
X130624332Y-101425000D01*
X130557293Y-101405315D01*
X130511538Y-101352511D01*
X130501594Y-101283353D01*
X130530619Y-101219797D01*
X130536637Y-101213333D01*
X132299970Y-99450000D01*
X133795496Y-99450000D01*
X133837968Y-99596195D01*
X133920278Y-99735374D01*
X133920285Y-99735383D01*
X134034616Y-99849714D01*
X134034625Y-99849721D01*
X134173804Y-99932031D01*
X134329089Y-99977145D01*
X134350000Y-99978789D01*
X134850000Y-99978789D01*
X134870910Y-99977145D01*
X135026195Y-99932031D01*
X135165374Y-99849721D01*
X135165383Y-99849714D01*
X135279714Y-99735383D01*
X135279721Y-99735374D01*
X135362031Y-99596195D01*
X135404504Y-99450000D01*
X135895496Y-99450000D01*
X135937968Y-99596195D01*
X136020278Y-99735374D01*
X136020285Y-99735383D01*
X136134616Y-99849714D01*
X136134625Y-99849721D01*
X136273804Y-99932031D01*
X136429089Y-99977145D01*
X136450000Y-99978789D01*
X136950000Y-99978789D01*
X136970910Y-99977145D01*
X137126195Y-99932031D01*
X137265374Y-99849721D01*
X137265383Y-99849714D01*
X137379714Y-99735383D01*
X137379721Y-99735374D01*
X137462031Y-99596195D01*
X137504504Y-99450000D01*
X136950000Y-99450000D01*
X136950000Y-99978789D01*
X136450000Y-99978789D01*
X136450000Y-99450000D01*
X135895496Y-99450000D01*
X135404504Y-99450000D01*
X134850000Y-99450000D01*
X134850000Y-99978789D01*
X134350000Y-99978789D01*
X134350000Y-99450000D01*
X133795496Y-99450000D01*
X132299970Y-99450000D01*
X133910315Y-97839655D01*
X133971636Y-97806172D01*
X134041328Y-97811156D01*
X134097261Y-97853028D01*
X134121678Y-97918492D01*
X134110377Y-97979741D01*
X134096027Y-98010514D01*
X134089500Y-98060097D01*
X134089500Y-98419896D01*
X134089501Y-98419900D01*
X134090768Y-98429528D01*
X134090770Y-98429538D01*
X134080001Y-98498573D01*
X134039650Y-98544032D01*
X134040788Y-98545499D01*
X134034621Y-98550282D01*
X133920282Y-98664620D01*
X133920278Y-98664625D01*
X133837968Y-98803804D01*
X133795496Y-98950000D01*
X135404504Y-98950000D01*
X135362031Y-98803804D01*
X135279721Y-98664625D01*
X135279714Y-98664616D01*
X135165381Y-98550283D01*
X135159217Y-98545502D01*
X135160733Y-98543547D01*
X135121363Y-98501378D01*
X135108862Y-98432635D01*
X135109231Y-98429538D01*
X135110500Y-98419901D01*
X135110499Y-98060100D01*
X135103972Y-98010513D01*
X135053224Y-97901684D01*
X134968316Y-97816776D01*
X134968314Y-97816774D01*
X134959427Y-97810551D01*
X134960797Y-97808593D01*
X134959068Y-97807070D01*
X134943297Y-97799868D01*
X134933393Y-97784458D01*
X134919647Y-97772351D01*
X134914764Y-97755469D01*
X134905523Y-97741090D01*
X134900500Y-97706155D01*
X134900500Y-97624500D01*
X134920185Y-97557461D01*
X134972989Y-97511706D01*
X135024500Y-97500500D01*
X136275500Y-97500500D01*
X136342539Y-97520185D01*
X136388294Y-97572989D01*
X136399500Y-97624500D01*
X136399500Y-97706155D01*
X136379815Y-97773194D01*
X136339237Y-97808643D01*
X136340573Y-97810551D01*
X136331685Y-97816774D01*
X136246776Y-97901683D01*
X136196027Y-98010514D01*
X136189500Y-98060097D01*
X136189500Y-98419896D01*
X136189501Y-98419900D01*
X136190768Y-98429528D01*
X136190770Y-98429538D01*
X136180001Y-98498573D01*
X136139650Y-98544032D01*
X136140788Y-98545499D01*
X136134621Y-98550282D01*
X136020282Y-98664620D01*
X136020278Y-98664625D01*
X135937968Y-98803804D01*
X135895496Y-98950000D01*
X137504504Y-98950000D01*
X137462031Y-98803804D01*
X137379721Y-98664625D01*
X137379714Y-98664616D01*
X137265381Y-98550283D01*
X137259217Y-98545502D01*
X137260733Y-98543547D01*
X137221363Y-98501378D01*
X137208862Y-98432635D01*
X137209231Y-98429538D01*
X137210500Y-98419901D01*
X137210499Y-98060100D01*
X137203972Y-98010513D01*
X137153224Y-97901684D01*
X137068316Y-97816776D01*
X137056869Y-97811438D01*
X137044078Y-97800539D01*
X137033771Y-97784790D01*
X137019647Y-97772351D01*
X137014908Y-97755968D01*
X137005817Y-97742077D01*
X137005667Y-97724018D01*
X137000500Y-97706155D01*
X137000500Y-97622615D01*
X137020185Y-97555576D01*
X137072989Y-97509821D01*
X137094492Y-97503650D01*
X137094212Y-97502603D01*
X137102060Y-97500500D01*
X137102062Y-97500500D01*
X137178489Y-97480021D01*
X137247011Y-97440460D01*
X137302960Y-97384511D01*
X139575652Y-95111819D01*
X139636975Y-95078334D01*
X139663333Y-95075500D01*
X141779270Y-95075500D01*
X141809699Y-95072646D01*
X141809701Y-95072646D01*
X141873790Y-95050219D01*
X141937882Y-95027793D01*
X142047150Y-94947150D01*
X142127793Y-94837882D01*
X142161407Y-94741819D01*
X142172646Y-94709701D01*
X142172646Y-94709699D01*
X142175500Y-94679269D01*
X142175500Y-93845730D01*
X142172646Y-93815300D01*
X142172646Y-93815298D01*
X142127793Y-93687119D01*
X142127792Y-93687117D01*
X142103662Y-93654422D01*
X142047150Y-93577850D01*
X141937882Y-93497207D01*
X141937880Y-93497206D01*
X141809700Y-93452353D01*
X141779270Y-93449500D01*
X141779266Y-93449500D01*
X138820734Y-93449500D01*
X138820730Y-93449500D01*
X138790300Y-93452353D01*
X138790298Y-93452353D01*
X138662119Y-93497206D01*
X138662117Y-93497207D01*
X138552850Y-93577850D01*
X138472207Y-93687117D01*
X138472206Y-93687119D01*
X138427353Y-93815298D01*
X138427353Y-93815300D01*
X138424500Y-93845730D01*
X138424500Y-94679269D01*
X138427353Y-94709699D01*
X138427353Y-94709701D01*
X138468540Y-94827403D01*
X138472207Y-94837882D01*
X138552850Y-94947150D01*
X138603473Y-94984511D01*
X138631117Y-95004913D01*
X138673367Y-95060560D01*
X138678826Y-95130216D01*
X138645759Y-95191766D01*
X138645164Y-95192364D01*
X136974348Y-96863181D01*
X136913025Y-96896666D01*
X136886667Y-96899500D01*
X134085438Y-96899500D01*
X134009010Y-96919978D01*
X133940489Y-96959540D01*
X133940486Y-96959542D01*
X129211848Y-101688181D01*
X129150525Y-101721666D01*
X129124167Y-101724500D01*
X128666507Y-101724500D01*
X128566878Y-101740279D01*
X128566874Y-101740280D01*
X128566874Y-101740281D01*
X128486811Y-101781075D01*
X128446778Y-101801473D01*
X128446774Y-101801476D01*
X128351476Y-101896774D01*
X128351473Y-101896778D01*
X128290279Y-102016878D01*
X128274500Y-102116506D01*
X128274500Y-102574167D01*
X128254815Y-102641206D01*
X128238181Y-102661848D01*
X127684541Y-103215487D01*
X127684535Y-103215495D01*
X127644982Y-103284004D01*
X127644979Y-103284009D01*
X127636127Y-103317047D01*
X127625223Y-103357742D01*
X127624500Y-103360439D01*
X127624500Y-103807193D01*
X127604815Y-103874232D01*
X127552011Y-103919987D01*
X127482853Y-103929931D01*
X127468408Y-103926968D01*
X127365893Y-103899500D01*
X127365892Y-103899500D01*
X127234108Y-103899500D01*
X127106812Y-103933608D01*
X126992686Y-103999500D01*
X126899496Y-104092689D01*
X126894554Y-104099131D01*
X126893408Y-104098252D01*
X126854836Y-104136822D01*
X126815492Y-104159538D01*
X126815486Y-104159542D01*
X126437181Y-104537848D01*
X126375858Y-104571333D01*
X126306166Y-104566349D01*
X126250233Y-104524477D01*
X126225816Y-104459013D01*
X126225500Y-104450167D01*
X126225500Y-102150833D01*
X126245185Y-102083794D01*
X126261819Y-102063152D01*
X133188152Y-95136819D01*
X133249475Y-95103334D01*
X133275833Y-95100500D01*
X136439560Y-95100500D01*
X136439562Y-95100500D01*
X136515989Y-95080021D01*
X136584511Y-95040460D01*
X136640460Y-94984511D01*
X137140460Y-94484511D01*
X137180022Y-94415988D01*
X137200500Y-94339562D01*
X137200500Y-94260438D01*
X137200500Y-91913333D01*
X137220185Y-91846294D01*
X137236819Y-91825652D01*
X139875652Y-89186819D01*
X139936975Y-89153334D01*
X139963333Y-89150500D01*
X141779270Y-89150500D01*
X141809699Y-89147646D01*
X141809701Y-89147646D01*
X141873790Y-89125219D01*
X141937882Y-89102793D01*
X142047150Y-89022150D01*
X142127793Y-88912882D01*
X142158247Y-88825849D01*
X142172646Y-88784701D01*
X142172646Y-88784699D01*
X142175500Y-88754269D01*
X142175500Y-88414500D01*
X142195185Y-88347461D01*
X142247989Y-88301706D01*
X142299500Y-88290500D01*
X149321513Y-88290500D01*
X149388552Y-88310185D01*
X149424613Y-88345606D01*
X149444023Y-88374655D01*
X149444024Y-88374656D01*
X149444027Y-88374660D01*
X149590342Y-88520975D01*
X149590345Y-88520977D01*
X149762402Y-88635941D01*
X149953580Y-88715130D01*
X150097685Y-88743794D01*
X150156530Y-88755499D01*
X150156534Y-88755500D01*
X150156535Y-88755500D01*
X150363466Y-88755500D01*
X150363467Y-88755499D01*
X150566420Y-88715130D01*
X150757598Y-88635941D01*
X150929655Y-88520977D01*
X151075977Y-88374655D01*
X151190941Y-88202598D01*
X151270130Y-88011420D01*
X151310500Y-87808465D01*
X151310500Y-87601535D01*
X151270130Y-87398580D01*
X151190941Y-87207402D01*
X151075977Y-87035345D01*
X151075975Y-87035342D01*
X150929657Y-86889024D01*
X150833089Y-86824500D01*
X150757598Y-86774059D01*
X150708112Y-86753561D01*
X150653709Y-86709720D01*
X150631644Y-86643426D01*
X150648923Y-86575726D01*
X150700061Y-86528116D01*
X150755565Y-86515000D01*
X151157828Y-86515000D01*
X151157844Y-86514999D01*
X151217372Y-86508598D01*
X151217379Y-86508596D01*
X151352086Y-86458354D01*
X151352093Y-86458350D01*
X151467187Y-86372190D01*
X151467190Y-86372187D01*
X151553350Y-86257093D01*
X151553354Y-86257086D01*
X151559318Y-86241097D01*
X151601189Y-86185163D01*
X151666653Y-86160746D01*
X151734926Y-86175597D01*
X151784332Y-86225002D01*
X151799500Y-86284430D01*
X151799500Y-92371496D01*
X151779815Y-92438535D01*
X151727011Y-92484290D01*
X151657853Y-92494234D01*
X151594297Y-92465209D01*
X151557569Y-92409814D01*
X151511095Y-92266782D01*
X151414624Y-92077449D01*
X151375270Y-92023282D01*
X151375269Y-92023282D01*
X150742962Y-92655590D01*
X150725925Y-92592007D01*
X150660099Y-92477993D01*
X150567007Y-92384901D01*
X150452993Y-92319075D01*
X150389409Y-92302037D01*
X151021716Y-91669728D01*
X150967550Y-91630375D01*
X150778216Y-91533904D01*
X150602026Y-91476656D01*
X150544350Y-91437218D01*
X150517152Y-91372860D01*
X150529067Y-91304013D01*
X150576311Y-91252538D01*
X150592882Y-91244168D01*
X150757598Y-91175941D01*
X150929655Y-91060977D01*
X151075977Y-90914655D01*
X151190941Y-90742598D01*
X151270130Y-90551420D01*
X151310500Y-90348465D01*
X151310500Y-90141535D01*
X151270130Y-89938580D01*
X151190941Y-89747402D01*
X151075977Y-89575345D01*
X151075975Y-89575342D01*
X150929657Y-89429024D01*
X150822289Y-89357284D01*
X150757598Y-89314059D01*
X150755116Y-89313031D01*
X150566420Y-89234870D01*
X150566412Y-89234868D01*
X150363469Y-89194500D01*
X150363465Y-89194500D01*
X150156535Y-89194500D01*
X150156530Y-89194500D01*
X149953587Y-89234868D01*
X149953579Y-89234870D01*
X149762403Y-89314058D01*
X149590342Y-89429024D01*
X149444024Y-89575342D01*
X149329058Y-89747403D01*
X149249870Y-89938579D01*
X149249868Y-89938587D01*
X149209500Y-90141530D01*
X149209500Y-90348469D01*
X149248875Y-90546420D01*
X149249870Y-90551420D01*
X149329059Y-90742598D01*
X149362034Y-90791949D01*
X149444024Y-90914657D01*
X149590342Y-91060975D01*
X149762405Y-91175943D01*
X149854467Y-91214076D01*
X149927108Y-91244164D01*
X149981511Y-91288005D01*
X150003576Y-91354299D01*
X149986297Y-91421998D01*
X149935160Y-91469609D01*
X149917974Y-91476656D01*
X149741781Y-91533905D01*
X149552439Y-91630380D01*
X149498282Y-91669727D01*
X149498282Y-91669728D01*
X150130591Y-92302037D01*
X150067007Y-92319075D01*
X149952993Y-92384901D01*
X149859901Y-92477993D01*
X149794075Y-92592007D01*
X149777037Y-92655591D01*
X149144728Y-92023282D01*
X149144727Y-92023282D01*
X149105380Y-92077439D01*
X149008904Y-92266782D01*
X148943242Y-92468869D01*
X148943242Y-92468872D01*
X148910000Y-92678753D01*
X148910000Y-92891246D01*
X148943242Y-93101127D01*
X148943242Y-93101130D01*
X149008904Y-93303217D01*
X149105375Y-93492550D01*
X149144728Y-93546716D01*
X149777036Y-92914407D01*
X149794075Y-92977993D01*
X149859901Y-93092007D01*
X149952993Y-93185099D01*
X150067007Y-93250925D01*
X150130590Y-93267962D01*
X149498282Y-93900269D01*
X149498282Y-93900270D01*
X149552449Y-93939624D01*
X149741782Y-94036095D01*
X149917973Y-94093343D01*
X149975648Y-94132780D01*
X150002847Y-94197139D01*
X149990932Y-94265985D01*
X149943688Y-94317461D01*
X149927108Y-94325835D01*
X149762403Y-94394057D01*
X149590342Y-94509024D01*
X149444024Y-94655342D01*
X149329058Y-94827403D01*
X149249870Y-95018579D01*
X149249868Y-95018587D01*
X149209500Y-95221530D01*
X149209500Y-95428469D01*
X149249868Y-95631412D01*
X149249870Y-95631420D01*
X149329058Y-95822596D01*
X149444024Y-95994657D01*
X149590342Y-96140975D01*
X149590345Y-96140977D01*
X149762402Y-96255941D01*
X149953580Y-96335130D01*
X150131398Y-96370500D01*
X150156530Y-96375499D01*
X150156534Y-96375500D01*
X150156535Y-96375500D01*
X150363466Y-96375500D01*
X150363467Y-96375499D01*
X150566420Y-96335130D01*
X150757598Y-96255941D01*
X150929655Y-96140977D01*
X151075977Y-95994655D01*
X151190941Y-95822598D01*
X151270130Y-95631420D01*
X151310500Y-95428465D01*
X151310500Y-95221535D01*
X151270130Y-95018580D01*
X151190941Y-94827402D01*
X151075977Y-94655345D01*
X151075975Y-94655342D01*
X150929657Y-94509024D01*
X150830154Y-94442539D01*
X150757598Y-94394059D01*
X150757593Y-94394057D01*
X150626029Y-94339561D01*
X150592890Y-94325834D01*
X150538488Y-94281994D01*
X150516423Y-94215700D01*
X150533702Y-94148001D01*
X150584839Y-94100390D01*
X150602026Y-94093343D01*
X150778217Y-94036095D01*
X150967554Y-93939622D01*
X151021716Y-93900270D01*
X151021717Y-93900270D01*
X150389408Y-93267962D01*
X150452993Y-93250925D01*
X150567007Y-93185099D01*
X150660099Y-93092007D01*
X150725925Y-92977993D01*
X150742962Y-92914408D01*
X151375270Y-93546717D01*
X151375270Y-93546716D01*
X151414622Y-93492554D01*
X151511095Y-93303217D01*
X151557569Y-93160185D01*
X151597006Y-93102510D01*
X151661365Y-93075311D01*
X151730211Y-93087225D01*
X151781687Y-93134469D01*
X151799500Y-93198503D01*
X151799500Y-99991496D01*
X151779815Y-100058535D01*
X151727011Y-100104290D01*
X151657853Y-100114234D01*
X151594297Y-100085209D01*
X151557569Y-100029814D01*
X151511095Y-99886782D01*
X151414624Y-99697449D01*
X151375270Y-99643282D01*
X151375269Y-99643282D01*
X150742962Y-100275590D01*
X150725925Y-100212007D01*
X150660099Y-100097993D01*
X150567007Y-100004901D01*
X150452993Y-99939075D01*
X150389409Y-99922037D01*
X151021716Y-99289728D01*
X150967550Y-99250375D01*
X150778216Y-99153904D01*
X150602026Y-99096656D01*
X150544350Y-99057218D01*
X150517152Y-98992860D01*
X150529067Y-98924013D01*
X150576311Y-98872538D01*
X150592882Y-98864168D01*
X150757598Y-98795941D01*
X150929655Y-98680977D01*
X151075977Y-98534655D01*
X151190941Y-98362598D01*
X151270130Y-98171420D01*
X151310500Y-97968465D01*
X151310500Y-97761535D01*
X151270130Y-97558580D01*
X151190941Y-97367402D01*
X151075977Y-97195345D01*
X151075975Y-97195342D01*
X150929657Y-97049024D01*
X150795733Y-96959540D01*
X150757598Y-96934059D01*
X150566420Y-96854870D01*
X150566412Y-96854868D01*
X150363469Y-96814500D01*
X150363465Y-96814500D01*
X150156535Y-96814500D01*
X150156530Y-96814500D01*
X149953587Y-96854868D01*
X149953579Y-96854870D01*
X149762403Y-96934058D01*
X149590342Y-97049024D01*
X149444024Y-97195342D01*
X149329058Y-97367403D01*
X149249870Y-97558579D01*
X149249868Y-97558587D01*
X149209500Y-97761530D01*
X149209500Y-97968469D01*
X149249868Y-98171412D01*
X149249870Y-98171420D01*
X149329058Y-98362596D01*
X149444024Y-98534657D01*
X149590342Y-98680975D01*
X149762405Y-98795943D01*
X149865043Y-98838456D01*
X149927108Y-98864164D01*
X149981511Y-98908005D01*
X150003576Y-98974299D01*
X149986297Y-99041998D01*
X149935160Y-99089609D01*
X149917974Y-99096656D01*
X149741781Y-99153905D01*
X149552439Y-99250380D01*
X149498282Y-99289727D01*
X149498282Y-99289728D01*
X150130591Y-99922037D01*
X150067007Y-99939075D01*
X149952993Y-100004901D01*
X149859901Y-100097993D01*
X149794075Y-100212007D01*
X149777037Y-100275591D01*
X149144728Y-99643282D01*
X149144727Y-99643282D01*
X149105380Y-99697439D01*
X149008904Y-99886782D01*
X148943242Y-100088869D01*
X148943242Y-100088872D01*
X148910000Y-100298753D01*
X148910000Y-100511246D01*
X148943242Y-100721127D01*
X148943242Y-100721130D01*
X149008904Y-100923217D01*
X149105375Y-101112550D01*
X149144728Y-101166716D01*
X149777036Y-100534407D01*
X149794075Y-100597993D01*
X149859901Y-100712007D01*
X149952993Y-100805099D01*
X150067007Y-100870925D01*
X150130590Y-100887962D01*
X149498282Y-101520269D01*
X149498282Y-101520270D01*
X149552449Y-101559624D01*
X149741782Y-101656095D01*
X149917973Y-101713343D01*
X149975648Y-101752780D01*
X150002847Y-101817139D01*
X149990932Y-101885985D01*
X149943688Y-101937461D01*
X149927108Y-101945835D01*
X149762403Y-102014057D01*
X149590342Y-102129024D01*
X149444024Y-102275342D01*
X149329058Y-102447403D01*
X149249870Y-102638579D01*
X149249868Y-102638587D01*
X149209500Y-102841530D01*
X149209500Y-103048469D01*
X149249868Y-103251412D01*
X149249870Y-103251420D01*
X149325432Y-103433843D01*
X149329059Y-103442598D01*
X149365588Y-103497268D01*
X149444024Y-103614657D01*
X149590342Y-103760975D01*
X149762405Y-103875943D01*
X149860348Y-103916512D01*
X149927108Y-103944164D01*
X149981511Y-103988005D01*
X150003576Y-104054299D01*
X149986297Y-104121998D01*
X149935160Y-104169609D01*
X149917974Y-104176656D01*
X149741781Y-104233905D01*
X149552439Y-104330380D01*
X149498282Y-104369727D01*
X149498282Y-104369728D01*
X150130591Y-105002037D01*
X150067007Y-105019075D01*
X149952993Y-105084901D01*
X149859901Y-105177993D01*
X149794075Y-105292007D01*
X149777037Y-105355591D01*
X149144728Y-104723282D01*
X149144727Y-104723282D01*
X149105380Y-104777439D01*
X149008904Y-104966782D01*
X148943242Y-105168869D01*
X148943242Y-105168872D01*
X148910000Y-105378753D01*
X148910000Y-105591246D01*
X148943242Y-105801127D01*
X148943242Y-105801130D01*
X149008904Y-106003217D01*
X149105375Y-106192550D01*
X149144728Y-106246716D01*
X149777036Y-105614407D01*
X149794075Y-105677993D01*
X149859901Y-105792007D01*
X149952993Y-105885099D01*
X150067007Y-105950925D01*
X150130591Y-105967962D01*
X149529971Y-106568581D01*
X149608711Y-106685895D01*
X149609920Y-106689729D01*
X149612844Y-106692491D01*
X149620343Y-106722778D01*
X149629727Y-106752529D01*
X149628671Y-106756408D01*
X149629638Y-106760312D01*
X149619573Y-106789844D01*
X149611383Y-106819947D01*
X149608397Y-106822640D01*
X149607100Y-106826447D01*
X149562051Y-106865483D01*
X149552440Y-106870380D01*
X149498282Y-106909727D01*
X149498282Y-106909728D01*
X150130591Y-107542037D01*
X150067007Y-107559075D01*
X149952993Y-107624901D01*
X149859901Y-107717993D01*
X149794075Y-107832007D01*
X149777037Y-107895591D01*
X149144728Y-107263282D01*
X149144727Y-107263282D01*
X149105380Y-107317439D01*
X149008904Y-107506782D01*
X148943242Y-107708869D01*
X148943242Y-107708872D01*
X148910000Y-107918753D01*
X148910000Y-108131246D01*
X148943242Y-108341127D01*
X148943242Y-108341130D01*
X149008904Y-108543217D01*
X149105375Y-108732550D01*
X149144728Y-108786716D01*
X149777036Y-108154407D01*
X149794075Y-108217993D01*
X149859901Y-108332007D01*
X149952993Y-108425099D01*
X150067007Y-108490925D01*
X150130590Y-108507962D01*
X149498282Y-109140269D01*
X149498282Y-109140270D01*
X149552449Y-109179624D01*
X149741782Y-109276095D01*
X149917973Y-109333343D01*
X149975648Y-109372780D01*
X150002847Y-109437139D01*
X149990932Y-109505985D01*
X149943688Y-109557461D01*
X149927108Y-109565835D01*
X149762403Y-109634057D01*
X149590342Y-109749024D01*
X149444024Y-109895342D01*
X149329058Y-110067403D01*
X149249870Y-110258579D01*
X149249868Y-110258587D01*
X149209500Y-110461530D01*
X149209500Y-110668469D01*
X149249868Y-110871412D01*
X149249870Y-110871420D01*
X149329058Y-111062596D01*
X149444024Y-111234657D01*
X149590342Y-111380975D01*
X149590345Y-111380977D01*
X149762402Y-111495941D01*
X149953580Y-111575130D01*
X150131393Y-111610499D01*
X150156530Y-111615499D01*
X150156534Y-111615500D01*
X150156535Y-111615500D01*
X150363466Y-111615500D01*
X150363467Y-111615499D01*
X150566420Y-111575130D01*
X150757598Y-111495941D01*
X150929655Y-111380977D01*
X151075977Y-111234655D01*
X151190941Y-111062598D01*
X151270130Y-110871420D01*
X151310500Y-110668465D01*
X151310500Y-110461535D01*
X151270130Y-110258580D01*
X151190941Y-110067402D01*
X151075977Y-109895345D01*
X151075975Y-109895342D01*
X150929657Y-109749024D01*
X150838487Y-109688107D01*
X150757598Y-109634059D01*
X150757593Y-109634057D01*
X150695891Y-109608499D01*
X150592890Y-109565834D01*
X150538488Y-109521994D01*
X150516423Y-109455700D01*
X150533702Y-109388001D01*
X150584839Y-109340390D01*
X150602026Y-109333343D01*
X150778217Y-109276095D01*
X150967554Y-109179622D01*
X151021716Y-109140270D01*
X151021717Y-109140270D01*
X150389408Y-108507962D01*
X150452993Y-108490925D01*
X150567007Y-108425099D01*
X150660099Y-108332007D01*
X150725925Y-108217993D01*
X150742962Y-108154408D01*
X151375270Y-108786717D01*
X151375270Y-108786716D01*
X151414622Y-108732554D01*
X151511095Y-108543217D01*
X151557569Y-108400185D01*
X151597006Y-108342510D01*
X151661365Y-108315311D01*
X151730211Y-108327225D01*
X151781687Y-108374469D01*
X151799500Y-108438503D01*
X151799500Y-139875500D01*
X151779815Y-139942539D01*
X151727011Y-139988294D01*
X151675500Y-139999500D01*
X125396612Y-139999500D01*
X125329573Y-139979815D01*
X125283818Y-139927011D01*
X125273874Y-139857853D01*
X125302899Y-139794297D01*
X125358294Y-139757569D01*
X125378217Y-139751095D01*
X125567554Y-139654622D01*
X125621716Y-139615270D01*
X125621717Y-139615270D01*
X124989408Y-138982962D01*
X125052993Y-138965925D01*
X125167007Y-138900099D01*
X125260099Y-138807007D01*
X125325925Y-138692993D01*
X125342962Y-138629408D01*
X125975270Y-139261717D01*
X125975270Y-139261716D01*
X126014622Y-139207554D01*
X126111095Y-139018217D01*
X126168343Y-138842026D01*
X126207780Y-138784351D01*
X126272139Y-138757152D01*
X126340985Y-138769066D01*
X126392461Y-138816310D01*
X126400833Y-138832887D01*
X126428673Y-138900099D01*
X126455939Y-138965925D01*
X126469059Y-138997598D01*
X126482836Y-139018217D01*
X126584024Y-139169657D01*
X126730342Y-139315975D01*
X126730345Y-139315977D01*
X126902402Y-139430941D01*
X127093580Y-139510130D01*
X127296530Y-139550499D01*
X127296534Y-139550500D01*
X127296535Y-139550500D01*
X127503466Y-139550500D01*
X127503467Y-139550499D01*
X127706420Y-139510130D01*
X127897598Y-139430941D01*
X128069655Y-139315977D01*
X128215977Y-139169655D01*
X128330941Y-138997598D01*
X128410130Y-138806420D01*
X128450500Y-138603465D01*
X128450500Y-138396535D01*
X128450499Y-138396530D01*
X128889500Y-138396530D01*
X128889500Y-138603469D01*
X128929868Y-138806412D01*
X128929870Y-138806420D01*
X128995939Y-138965925D01*
X129009059Y-138997598D01*
X129022836Y-139018217D01*
X129124024Y-139169657D01*
X129270342Y-139315975D01*
X129270345Y-139315977D01*
X129442402Y-139430941D01*
X129633580Y-139510130D01*
X129836530Y-139550499D01*
X129836534Y-139550500D01*
X129836535Y-139550500D01*
X130043466Y-139550500D01*
X130043467Y-139550499D01*
X130246420Y-139510130D01*
X130437598Y-139430941D01*
X130609655Y-139315977D01*
X130755977Y-139169655D01*
X130870941Y-138997598D01*
X130950130Y-138806420D01*
X130990500Y-138603465D01*
X130990500Y-138396535D01*
X130990499Y-138396530D01*
X131429500Y-138396530D01*
X131429500Y-138603469D01*
X131469868Y-138806412D01*
X131469870Y-138806420D01*
X131535939Y-138965925D01*
X131549059Y-138997598D01*
X131562836Y-139018217D01*
X131664024Y-139169657D01*
X131810342Y-139315975D01*
X131810345Y-139315977D01*
X131982402Y-139430941D01*
X132173580Y-139510130D01*
X132376530Y-139550499D01*
X132376534Y-139550500D01*
X132376535Y-139550500D01*
X132583466Y-139550500D01*
X132583467Y-139550499D01*
X132786420Y-139510130D01*
X132977598Y-139430941D01*
X133149655Y-139315977D01*
X133295977Y-139169655D01*
X133410941Y-138997598D01*
X133490130Y-138806420D01*
X133530500Y-138603465D01*
X133530500Y-138396535D01*
X133530499Y-138396530D01*
X133969500Y-138396530D01*
X133969500Y-138603469D01*
X134009868Y-138806412D01*
X134009870Y-138806420D01*
X134075939Y-138965925D01*
X134089059Y-138997598D01*
X134102836Y-139018217D01*
X134204024Y-139169657D01*
X134350342Y-139315975D01*
X134350345Y-139315977D01*
X134522402Y-139430941D01*
X134713580Y-139510130D01*
X134916530Y-139550499D01*
X134916534Y-139550500D01*
X134916535Y-139550500D01*
X135123466Y-139550500D01*
X135123467Y-139550499D01*
X135326420Y-139510130D01*
X135517598Y-139430941D01*
X135689655Y-139315977D01*
X135835977Y-139169655D01*
X135950941Y-138997598D01*
X136030130Y-138806420D01*
X136070500Y-138603465D01*
X136070500Y-138396535D01*
X136070499Y-138396530D01*
X136509500Y-138396530D01*
X136509500Y-138603469D01*
X136549868Y-138806412D01*
X136549870Y-138806420D01*
X136615939Y-138965925D01*
X136629059Y-138997598D01*
X136642836Y-139018217D01*
X136744024Y-139169657D01*
X136890342Y-139315975D01*
X136890345Y-139315977D01*
X137062402Y-139430941D01*
X137253580Y-139510130D01*
X137456530Y-139550499D01*
X137456534Y-139550500D01*
X137456535Y-139550500D01*
X137663466Y-139550500D01*
X137663467Y-139550499D01*
X137866420Y-139510130D01*
X138057598Y-139430941D01*
X138229655Y-139315977D01*
X138375977Y-139169655D01*
X138490941Y-138997598D01*
X138570130Y-138806420D01*
X138610500Y-138603465D01*
X138610500Y-138396535D01*
X138610499Y-138396530D01*
X139049500Y-138396530D01*
X139049500Y-138603469D01*
X139089868Y-138806412D01*
X139089870Y-138806420D01*
X139155939Y-138965925D01*
X139169059Y-138997598D01*
X139182836Y-139018217D01*
X139284024Y-139169657D01*
X139430342Y-139315975D01*
X139430345Y-139315977D01*
X139602402Y-139430941D01*
X139793580Y-139510130D01*
X139996530Y-139550499D01*
X139996534Y-139550500D01*
X139996535Y-139550500D01*
X140203466Y-139550500D01*
X140203467Y-139550499D01*
X140406420Y-139510130D01*
X140597598Y-139430941D01*
X140769655Y-139315977D01*
X140915977Y-139169655D01*
X141030941Y-138997598D01*
X141110130Y-138806420D01*
X141150500Y-138603465D01*
X141150500Y-138396535D01*
X141150499Y-138396530D01*
X141589500Y-138396530D01*
X141589500Y-138603469D01*
X141629868Y-138806412D01*
X141629870Y-138806420D01*
X141695939Y-138965925D01*
X141709059Y-138997598D01*
X141722836Y-139018217D01*
X141824024Y-139169657D01*
X141970342Y-139315975D01*
X141970345Y-139315977D01*
X142142402Y-139430941D01*
X142333580Y-139510130D01*
X142536530Y-139550499D01*
X142536534Y-139550500D01*
X142536535Y-139550500D01*
X142743466Y-139550500D01*
X142743467Y-139550499D01*
X142946420Y-139510130D01*
X143137598Y-139430941D01*
X143309655Y-139315977D01*
X143455977Y-139169655D01*
X143570941Y-138997598D01*
X143650130Y-138806420D01*
X143690500Y-138603465D01*
X143690500Y-138396535D01*
X143690499Y-138396530D01*
X144129500Y-138396530D01*
X144129500Y-138603469D01*
X144169868Y-138806412D01*
X144169870Y-138806420D01*
X144235939Y-138965925D01*
X144249059Y-138997598D01*
X144262836Y-139018217D01*
X144364024Y-139169657D01*
X144510342Y-139315975D01*
X144510345Y-139315977D01*
X144682402Y-139430941D01*
X144873580Y-139510130D01*
X145076530Y-139550499D01*
X145076534Y-139550500D01*
X145076535Y-139550500D01*
X145283466Y-139550500D01*
X145283467Y-139550499D01*
X145486420Y-139510130D01*
X145677598Y-139430941D01*
X145849655Y-139315977D01*
X145995977Y-139169655D01*
X146110941Y-138997598D01*
X146190130Y-138806420D01*
X146230500Y-138603465D01*
X146230500Y-138396535D01*
X146230499Y-138396530D01*
X146669500Y-138396530D01*
X146669500Y-138603469D01*
X146709868Y-138806412D01*
X146709870Y-138806420D01*
X146775939Y-138965925D01*
X146789059Y-138997598D01*
X146802836Y-139018217D01*
X146904024Y-139169657D01*
X147050342Y-139315975D01*
X147050345Y-139315977D01*
X147222402Y-139430941D01*
X147413580Y-139510130D01*
X147616530Y-139550499D01*
X147616534Y-139550500D01*
X147616535Y-139550500D01*
X147823466Y-139550500D01*
X147823467Y-139550499D01*
X148026420Y-139510130D01*
X148217598Y-139430941D01*
X148389655Y-139315977D01*
X148535977Y-139169655D01*
X148650941Y-138997598D01*
X148730130Y-138806420D01*
X148770500Y-138603465D01*
X148770500Y-138396535D01*
X148770499Y-138396530D01*
X149209500Y-138396530D01*
X149209500Y-138603469D01*
X149249868Y-138806412D01*
X149249870Y-138806420D01*
X149315939Y-138965925D01*
X149329059Y-138997598D01*
X149342836Y-139018217D01*
X149444024Y-139169657D01*
X149590342Y-139315975D01*
X149590345Y-139315977D01*
X149762402Y-139430941D01*
X149953580Y-139510130D01*
X150156530Y-139550499D01*
X150156534Y-139550500D01*
X150156535Y-139550500D01*
X150363466Y-139550500D01*
X150363467Y-139550499D01*
X150566420Y-139510130D01*
X150757598Y-139430941D01*
X150929655Y-139315977D01*
X151075977Y-139169655D01*
X151190941Y-138997598D01*
X151270130Y-138806420D01*
X151310500Y-138603465D01*
X151310500Y-138396535D01*
X151270130Y-138193580D01*
X151190941Y-138002402D01*
X151075977Y-137830345D01*
X151075975Y-137830342D01*
X150929657Y-137684024D01*
X150807130Y-137602155D01*
X150757598Y-137569059D01*
X150566420Y-137489870D01*
X150566412Y-137489868D01*
X150363469Y-137449500D01*
X150363465Y-137449500D01*
X150156535Y-137449500D01*
X150156530Y-137449500D01*
X149953587Y-137489868D01*
X149953579Y-137489870D01*
X149762403Y-137569058D01*
X149590342Y-137684024D01*
X149444024Y-137830342D01*
X149329058Y-138002403D01*
X149249870Y-138193579D01*
X149249868Y-138193587D01*
X149209500Y-138396530D01*
X148770499Y-138396530D01*
X148730130Y-138193580D01*
X148650941Y-138002402D01*
X148535977Y-137830345D01*
X148535975Y-137830342D01*
X148389657Y-137684024D01*
X148267130Y-137602155D01*
X148217598Y-137569059D01*
X148026420Y-137489870D01*
X148026412Y-137489868D01*
X147823469Y-137449500D01*
X147823465Y-137449500D01*
X147616535Y-137449500D01*
X147616530Y-137449500D01*
X147413587Y-137489868D01*
X147413579Y-137489870D01*
X147222403Y-137569058D01*
X147050342Y-137684024D01*
X146904024Y-137830342D01*
X146789058Y-138002403D01*
X146709870Y-138193579D01*
X146709868Y-138193587D01*
X146669500Y-138396530D01*
X146230499Y-138396530D01*
X146190130Y-138193580D01*
X146110941Y-138002402D01*
X145995977Y-137830345D01*
X145995975Y-137830342D01*
X145849657Y-137684024D01*
X145727130Y-137602155D01*
X145677598Y-137569059D01*
X145486420Y-137489870D01*
X145486412Y-137489868D01*
X145283469Y-137449500D01*
X145283465Y-137449500D01*
X145076535Y-137449500D01*
X145076530Y-137449500D01*
X144873587Y-137489868D01*
X144873579Y-137489870D01*
X144682403Y-137569058D01*
X144510342Y-137684024D01*
X144364024Y-137830342D01*
X144249058Y-138002403D01*
X144169870Y-138193579D01*
X144169868Y-138193587D01*
X144129500Y-138396530D01*
X143690499Y-138396530D01*
X143650130Y-138193580D01*
X143570941Y-138002402D01*
X143455977Y-137830345D01*
X143455975Y-137830342D01*
X143309657Y-137684024D01*
X143187130Y-137602155D01*
X143137598Y-137569059D01*
X142946420Y-137489870D01*
X142946412Y-137489868D01*
X142743469Y-137449500D01*
X142743465Y-137449500D01*
X142536535Y-137449500D01*
X142536530Y-137449500D01*
X142333587Y-137489868D01*
X142333579Y-137489870D01*
X142142403Y-137569058D01*
X141970342Y-137684024D01*
X141824024Y-137830342D01*
X141709058Y-138002403D01*
X141629870Y-138193579D01*
X141629868Y-138193587D01*
X141589500Y-138396530D01*
X141150499Y-138396530D01*
X141110130Y-138193580D01*
X141030941Y-138002402D01*
X140915977Y-137830345D01*
X140915975Y-137830342D01*
X140769657Y-137684024D01*
X140647130Y-137602155D01*
X140597598Y-137569059D01*
X140406420Y-137489870D01*
X140406412Y-137489868D01*
X140203469Y-137449500D01*
X140203465Y-137449500D01*
X139996535Y-137449500D01*
X139996530Y-137449500D01*
X139793587Y-137489868D01*
X139793579Y-137489870D01*
X139602403Y-137569058D01*
X139430342Y-137684024D01*
X139284024Y-137830342D01*
X139169058Y-138002403D01*
X139089870Y-138193579D01*
X139089868Y-138193587D01*
X139049500Y-138396530D01*
X138610499Y-138396530D01*
X138570130Y-138193580D01*
X138490941Y-138002402D01*
X138375977Y-137830345D01*
X138375975Y-137830342D01*
X138229657Y-137684024D01*
X138107130Y-137602155D01*
X138057598Y-137569059D01*
X137866420Y-137489870D01*
X137866412Y-137489868D01*
X137663469Y-137449500D01*
X137663465Y-137449500D01*
X137456535Y-137449500D01*
X137456530Y-137449500D01*
X137253587Y-137489868D01*
X137253579Y-137489870D01*
X137062403Y-137569058D01*
X136890342Y-137684024D01*
X136744024Y-137830342D01*
X136629058Y-138002403D01*
X136549870Y-138193579D01*
X136549868Y-138193587D01*
X136509500Y-138396530D01*
X136070499Y-138396530D01*
X136030130Y-138193580D01*
X135950941Y-138002402D01*
X135835977Y-137830345D01*
X135835975Y-137830342D01*
X135689657Y-137684024D01*
X135567130Y-137602155D01*
X135517598Y-137569059D01*
X135326420Y-137489870D01*
X135326412Y-137489868D01*
X135123469Y-137449500D01*
X135123465Y-137449500D01*
X134916535Y-137449500D01*
X134916530Y-137449500D01*
X134713587Y-137489868D01*
X134713579Y-137489870D01*
X134522403Y-137569058D01*
X134350342Y-137684024D01*
X134204024Y-137830342D01*
X134089058Y-138002403D01*
X134009870Y-138193579D01*
X134009868Y-138193587D01*
X133969500Y-138396530D01*
X133530499Y-138396530D01*
X133490130Y-138193580D01*
X133410941Y-138002402D01*
X133295977Y-137830345D01*
X133295975Y-137830342D01*
X133149657Y-137684024D01*
X133027130Y-137602155D01*
X132977598Y-137569059D01*
X132786420Y-137489870D01*
X132786412Y-137489868D01*
X132583469Y-137449500D01*
X132583465Y-137449500D01*
X132376535Y-137449500D01*
X132376530Y-137449500D01*
X132173587Y-137489868D01*
X132173579Y-137489870D01*
X131982403Y-137569058D01*
X131810342Y-137684024D01*
X131664024Y-137830342D01*
X131549058Y-138002403D01*
X131469870Y-138193579D01*
X131469868Y-138193587D01*
X131429500Y-138396530D01*
X130990499Y-138396530D01*
X130950130Y-138193580D01*
X130870941Y-138002402D01*
X130755977Y-137830345D01*
X130755975Y-137830342D01*
X130609657Y-137684024D01*
X130487130Y-137602155D01*
X130437598Y-137569059D01*
X130246420Y-137489870D01*
X130246412Y-137489868D01*
X130043469Y-137449500D01*
X130043465Y-137449500D01*
X129836535Y-137449500D01*
X129836530Y-137449500D01*
X129633587Y-137489868D01*
X129633579Y-137489870D01*
X129442403Y-137569058D01*
X129270342Y-137684024D01*
X129124024Y-137830342D01*
X129009058Y-138002403D01*
X128929870Y-138193579D01*
X128929868Y-138193587D01*
X128889500Y-138396530D01*
X128450499Y-138396530D01*
X128410130Y-138193580D01*
X128330941Y-138002402D01*
X128215977Y-137830345D01*
X128215975Y-137830342D01*
X128069657Y-137684024D01*
X127947130Y-137602155D01*
X127897598Y-137569059D01*
X127706420Y-137489870D01*
X127706412Y-137489868D01*
X127503469Y-137449500D01*
X127503465Y-137449500D01*
X127296535Y-137449500D01*
X127296530Y-137449500D01*
X127093587Y-137489868D01*
X127093579Y-137489870D01*
X126902403Y-137569058D01*
X126730342Y-137684024D01*
X126584024Y-137830342D01*
X126469057Y-138002403D01*
X126400835Y-138167108D01*
X126356994Y-138221511D01*
X126290700Y-138243576D01*
X126223000Y-138226297D01*
X126175390Y-138175159D01*
X126168343Y-138157973D01*
X126111095Y-137981782D01*
X126014624Y-137792449D01*
X125975270Y-137738282D01*
X125975269Y-137738282D01*
X125342962Y-138370590D01*
X125325925Y-138307007D01*
X125260099Y-138192993D01*
X125167007Y-138099901D01*
X125052993Y-138034075D01*
X124989409Y-138017037D01*
X125621716Y-137384728D01*
X125567550Y-137345375D01*
X125378217Y-137248904D01*
X125176129Y-137183242D01*
X124966246Y-137150000D01*
X124753754Y-137150000D01*
X124543872Y-137183242D01*
X124543869Y-137183242D01*
X124341782Y-137248904D01*
X124152439Y-137345380D01*
X124098282Y-137384727D01*
X124098282Y-137384728D01*
X124730591Y-138017037D01*
X124667007Y-138034075D01*
X124552993Y-138099901D01*
X124459901Y-138192993D01*
X124394075Y-138307007D01*
X124377037Y-138370591D01*
X123744728Y-137738282D01*
X123744727Y-137738282D01*
X123705380Y-137792440D01*
X123700483Y-137802051D01*
X123652506Y-137852845D01*
X123584684Y-137869638D01*
X123518550Y-137847098D01*
X123479516Y-137802048D01*
X123474626Y-137792452D01*
X123435270Y-137738282D01*
X123435269Y-137738282D01*
X122802962Y-138370590D01*
X122785925Y-138307007D01*
X122720099Y-138192993D01*
X122627007Y-138099901D01*
X122512993Y-138034075D01*
X122449409Y-138017037D01*
X123081716Y-137384728D01*
X123027550Y-137345375D01*
X122838217Y-137248904D01*
X122636129Y-137183242D01*
X122426246Y-137150000D01*
X122213754Y-137150000D01*
X122003872Y-137183242D01*
X122003869Y-137183242D01*
X121801782Y-137248904D01*
X121612439Y-137345380D01*
X121558282Y-137384727D01*
X121558282Y-137384728D01*
X122190591Y-138017037D01*
X122127007Y-138034075D01*
X122012993Y-138099901D01*
X121919901Y-138192993D01*
X121854075Y-138307007D01*
X121837037Y-138370591D01*
X121204728Y-137738282D01*
X121204727Y-137738282D01*
X121165380Y-137792439D01*
X121068905Y-137981781D01*
X121011656Y-138157974D01*
X120972218Y-138215649D01*
X120907859Y-138242847D01*
X120839013Y-138230932D01*
X120787537Y-138183688D01*
X120779164Y-138167107D01*
X120710943Y-138002405D01*
X120595975Y-137830342D01*
X120449657Y-137684024D01*
X120327130Y-137602155D01*
X120277598Y-137569059D01*
X120086420Y-137489870D01*
X120086412Y-137489868D01*
X119883469Y-137449500D01*
X119883465Y-137449500D01*
X119676535Y-137449500D01*
X119676530Y-137449500D01*
X119473587Y-137489868D01*
X119473579Y-137489870D01*
X119282403Y-137569058D01*
X119110342Y-137684024D01*
X118964024Y-137830342D01*
X118849058Y-138002403D01*
X118769870Y-138193579D01*
X118769868Y-138193587D01*
X118729500Y-138396530D01*
X118729500Y-138603469D01*
X118769868Y-138806412D01*
X118769870Y-138806420D01*
X118835939Y-138965925D01*
X118849059Y-138997598D01*
X118862836Y-139018217D01*
X118964024Y-139169657D01*
X119110342Y-139315975D01*
X119110345Y-139315977D01*
X119282402Y-139430941D01*
X119473580Y-139510130D01*
X119676530Y-139550499D01*
X119676534Y-139550500D01*
X119676535Y-139550500D01*
X119883466Y-139550500D01*
X119883467Y-139550499D01*
X120086420Y-139510130D01*
X120277598Y-139430941D01*
X120449655Y-139315977D01*
X120595977Y-139169655D01*
X120710941Y-138997598D01*
X120779165Y-138832889D01*
X120823004Y-138778488D01*
X120889298Y-138756423D01*
X120956998Y-138773702D01*
X121004609Y-138824839D01*
X121011656Y-138842026D01*
X121068904Y-139018216D01*
X121165375Y-139207550D01*
X121204728Y-139261716D01*
X121837037Y-138629408D01*
X121854075Y-138692993D01*
X121919901Y-138807007D01*
X122012993Y-138900099D01*
X122127007Y-138965925D01*
X122190590Y-138982962D01*
X121558282Y-139615269D01*
X121558282Y-139615270D01*
X121612449Y-139654624D01*
X121801782Y-139751095D01*
X121821706Y-139757569D01*
X121879381Y-139797006D01*
X121906580Y-139861365D01*
X121894665Y-139930211D01*
X121847421Y-139981687D01*
X121783388Y-139999500D01*
X103189269Y-139999500D01*
X103122230Y-139979815D01*
X103076475Y-139927011D01*
X103066531Y-139857853D01*
X103095556Y-139794297D01*
X103114958Y-139776234D01*
X103207187Y-139707190D01*
X103207190Y-139707187D01*
X103293350Y-139592093D01*
X103293354Y-139592086D01*
X103343596Y-139457379D01*
X103343598Y-139457372D01*
X103349999Y-139397844D01*
X103350000Y-139397827D01*
X103350000Y-138995564D01*
X103369685Y-138928525D01*
X103422489Y-138882770D01*
X103491647Y-138872826D01*
X103555203Y-138901851D01*
X103588561Y-138948112D01*
X103595939Y-138965925D01*
X103609059Y-138997598D01*
X103685701Y-139112302D01*
X103724024Y-139169657D01*
X103870342Y-139315975D01*
X103870345Y-139315977D01*
X104042402Y-139430941D01*
X104233580Y-139510130D01*
X104436530Y-139550499D01*
X104436534Y-139550500D01*
X104436535Y-139550500D01*
X104643466Y-139550500D01*
X104643467Y-139550499D01*
X104846420Y-139510130D01*
X105037598Y-139430941D01*
X105209655Y-139315977D01*
X105355977Y-139169655D01*
X105470941Y-138997598D01*
X105550130Y-138806420D01*
X105590500Y-138603465D01*
X105590500Y-138396535D01*
X105590499Y-138396530D01*
X106029500Y-138396530D01*
X106029500Y-138603469D01*
X106069868Y-138806412D01*
X106069870Y-138806420D01*
X106135939Y-138965925D01*
X106149059Y-138997598D01*
X106162836Y-139018217D01*
X106264024Y-139169657D01*
X106410342Y-139315975D01*
X106410345Y-139315977D01*
X106582402Y-139430941D01*
X106773580Y-139510130D01*
X106976530Y-139550499D01*
X106976534Y-139550500D01*
X106976535Y-139550500D01*
X107183466Y-139550500D01*
X107183467Y-139550499D01*
X107386420Y-139510130D01*
X107577598Y-139430941D01*
X107749655Y-139315977D01*
X107895977Y-139169655D01*
X108010941Y-138997598D01*
X108090130Y-138806420D01*
X108130500Y-138603465D01*
X108130500Y-138396535D01*
X108130499Y-138396530D01*
X108569500Y-138396530D01*
X108569500Y-138603469D01*
X108609868Y-138806412D01*
X108609870Y-138806420D01*
X108675939Y-138965925D01*
X108689059Y-138997598D01*
X108702836Y-139018217D01*
X108804024Y-139169657D01*
X108950342Y-139315975D01*
X108950345Y-139315977D01*
X109122402Y-139430941D01*
X109313580Y-139510130D01*
X109516530Y-139550499D01*
X109516534Y-139550500D01*
X109516535Y-139550500D01*
X109723466Y-139550500D01*
X109723467Y-139550499D01*
X109926420Y-139510130D01*
X110117598Y-139430941D01*
X110289655Y-139315977D01*
X110435977Y-139169655D01*
X110550941Y-138997598D01*
X110630130Y-138806420D01*
X110670500Y-138603465D01*
X110670500Y-138396535D01*
X110670499Y-138396530D01*
X111109500Y-138396530D01*
X111109500Y-138603469D01*
X111149868Y-138806412D01*
X111149870Y-138806420D01*
X111215939Y-138965925D01*
X111229059Y-138997598D01*
X111242836Y-139018217D01*
X111344024Y-139169657D01*
X111490342Y-139315975D01*
X111490345Y-139315977D01*
X111662402Y-139430941D01*
X111853580Y-139510130D01*
X112056530Y-139550499D01*
X112056534Y-139550500D01*
X112056535Y-139550500D01*
X112263466Y-139550500D01*
X112263467Y-139550499D01*
X112466420Y-139510130D01*
X112657598Y-139430941D01*
X112829655Y-139315977D01*
X112975977Y-139169655D01*
X113090941Y-138997598D01*
X113170130Y-138806420D01*
X113210500Y-138603465D01*
X113210500Y-138396535D01*
X113210499Y-138396530D01*
X113649500Y-138396530D01*
X113649500Y-138603469D01*
X113689868Y-138806412D01*
X113689870Y-138806420D01*
X113755939Y-138965925D01*
X113769059Y-138997598D01*
X113782836Y-139018217D01*
X113884024Y-139169657D01*
X114030342Y-139315975D01*
X114030345Y-139315977D01*
X114202402Y-139430941D01*
X114393580Y-139510130D01*
X114596530Y-139550499D01*
X114596534Y-139550500D01*
X114596535Y-139550500D01*
X114803466Y-139550500D01*
X114803467Y-139550499D01*
X115006420Y-139510130D01*
X115197598Y-139430941D01*
X115369655Y-139315977D01*
X115515977Y-139169655D01*
X115630941Y-138997598D01*
X115710130Y-138806420D01*
X115750500Y-138603465D01*
X115750500Y-138396535D01*
X115750499Y-138396530D01*
X116189500Y-138396530D01*
X116189500Y-138603469D01*
X116229868Y-138806412D01*
X116229870Y-138806420D01*
X116295939Y-138965925D01*
X116309059Y-138997598D01*
X116322836Y-139018217D01*
X116424024Y-139169657D01*
X116570342Y-139315975D01*
X116570345Y-139315977D01*
X116742402Y-139430941D01*
X116933580Y-139510130D01*
X117136530Y-139550499D01*
X117136534Y-139550500D01*
X117136535Y-139550500D01*
X117343466Y-139550500D01*
X117343467Y-139550499D01*
X117546420Y-139510130D01*
X117737598Y-139430941D01*
X117909655Y-139315977D01*
X118055977Y-139169655D01*
X118170941Y-138997598D01*
X118250130Y-138806420D01*
X118290500Y-138603465D01*
X118290500Y-138396535D01*
X118250130Y-138193580D01*
X118170941Y-138002402D01*
X118055977Y-137830345D01*
X118055975Y-137830342D01*
X117909657Y-137684024D01*
X117787130Y-137602155D01*
X117737598Y-137569059D01*
X117546420Y-137489870D01*
X117546412Y-137489868D01*
X117343469Y-137449500D01*
X117343465Y-137449500D01*
X117136535Y-137449500D01*
X117136530Y-137449500D01*
X116933587Y-137489868D01*
X116933579Y-137489870D01*
X116742403Y-137569058D01*
X116570342Y-137684024D01*
X116424024Y-137830342D01*
X116309058Y-138002403D01*
X116229870Y-138193579D01*
X116229868Y-138193587D01*
X116189500Y-138396530D01*
X115750499Y-138396530D01*
X115710130Y-138193580D01*
X115630941Y-138002402D01*
X115515977Y-137830345D01*
X115515975Y-137830342D01*
X115369657Y-137684024D01*
X115247130Y-137602155D01*
X115197598Y-137569059D01*
X115006420Y-137489870D01*
X115006412Y-137489868D01*
X114803469Y-137449500D01*
X114803465Y-137449500D01*
X114596535Y-137449500D01*
X114596530Y-137449500D01*
X114393587Y-137489868D01*
X114393579Y-137489870D01*
X114202403Y-137569058D01*
X114030342Y-137684024D01*
X113884024Y-137830342D01*
X113769058Y-138002403D01*
X113689870Y-138193579D01*
X113689868Y-138193587D01*
X113649500Y-138396530D01*
X113210499Y-138396530D01*
X113170130Y-138193580D01*
X113090941Y-138002402D01*
X112975977Y-137830345D01*
X112975975Y-137830342D01*
X112829657Y-137684024D01*
X112707130Y-137602155D01*
X112657598Y-137569059D01*
X112466420Y-137489870D01*
X112466412Y-137489868D01*
X112263469Y-137449500D01*
X112263465Y-137449500D01*
X112056535Y-137449500D01*
X112056530Y-137449500D01*
X111853587Y-137489868D01*
X111853579Y-137489870D01*
X111662403Y-137569058D01*
X111490342Y-137684024D01*
X111344024Y-137830342D01*
X111229058Y-138002403D01*
X111149870Y-138193579D01*
X111149868Y-138193587D01*
X111109500Y-138396530D01*
X110670499Y-138396530D01*
X110630130Y-138193580D01*
X110550941Y-138002402D01*
X110435977Y-137830345D01*
X110435975Y-137830342D01*
X110289657Y-137684024D01*
X110167130Y-137602155D01*
X110117598Y-137569059D01*
X109926420Y-137489870D01*
X109926412Y-137489868D01*
X109723469Y-137449500D01*
X109723465Y-137449500D01*
X109516535Y-137449500D01*
X109516530Y-137449500D01*
X109313587Y-137489868D01*
X109313579Y-137489870D01*
X109122403Y-137569058D01*
X108950342Y-137684024D01*
X108804024Y-137830342D01*
X108689058Y-138002403D01*
X108609870Y-138193579D01*
X108609868Y-138193587D01*
X108569500Y-138396530D01*
X108130499Y-138396530D01*
X108090130Y-138193580D01*
X108010941Y-138002402D01*
X107895977Y-137830345D01*
X107895975Y-137830342D01*
X107749657Y-137684024D01*
X107627130Y-137602155D01*
X107577598Y-137569059D01*
X107386420Y-137489870D01*
X107386412Y-137489868D01*
X107183469Y-137449500D01*
X107183465Y-137449500D01*
X106976535Y-137449500D01*
X106976530Y-137449500D01*
X106773587Y-137489868D01*
X106773579Y-137489870D01*
X106582403Y-137569058D01*
X106410342Y-137684024D01*
X106264024Y-137830342D01*
X106149058Y-138002403D01*
X106069870Y-138193579D01*
X106069868Y-138193587D01*
X106029500Y-138396530D01*
X105590499Y-138396530D01*
X105550130Y-138193580D01*
X105470941Y-138002402D01*
X105355977Y-137830345D01*
X105355975Y-137830342D01*
X105209657Y-137684024D01*
X105087130Y-137602155D01*
X105037598Y-137569059D01*
X104846420Y-137489870D01*
X104846412Y-137489868D01*
X104643469Y-137449500D01*
X104643465Y-137449500D01*
X104436535Y-137449500D01*
X104436530Y-137449500D01*
X104233587Y-137489868D01*
X104233579Y-137489870D01*
X104042403Y-137569058D01*
X103870342Y-137684024D01*
X103724024Y-137830342D01*
X103609058Y-138002403D01*
X103588561Y-138051888D01*
X103544720Y-138106291D01*
X103478426Y-138128356D01*
X103410726Y-138111077D01*
X103363116Y-138059939D01*
X103350000Y-138004435D01*
X103350000Y-137602172D01*
X103349999Y-137602155D01*
X103343598Y-137542627D01*
X103343596Y-137542620D01*
X103293354Y-137407913D01*
X103293350Y-137407906D01*
X103207190Y-137292812D01*
X103207187Y-137292809D01*
X103092093Y-137206649D01*
X103092086Y-137206645D01*
X102957379Y-137156403D01*
X102957372Y-137156401D01*
X102897844Y-137150000D01*
X102250000Y-137150000D01*
X102250000Y-138066988D01*
X102192993Y-138034075D01*
X102065826Y-138000000D01*
X101934174Y-138000000D01*
X101807007Y-138034075D01*
X101750000Y-138066988D01*
X101750000Y-137150000D01*
X101102155Y-137150000D01*
X101042627Y-137156401D01*
X101042620Y-137156403D01*
X100907913Y-137206645D01*
X100907906Y-137206649D01*
X100792812Y-137292809D01*
X100792809Y-137292812D01*
X100706649Y-137407906D01*
X100706645Y-137407913D01*
X100656403Y-137542620D01*
X100656401Y-137542627D01*
X100650000Y-137602155D01*
X100650000Y-138250000D01*
X101566988Y-138250000D01*
X101534075Y-138307007D01*
X101500000Y-138434174D01*
X101500000Y-138565826D01*
X101534075Y-138692993D01*
X101566988Y-138750000D01*
X100650000Y-138750000D01*
X100650000Y-139397844D01*
X100656401Y-139457372D01*
X100656403Y-139457379D01*
X100706645Y-139592086D01*
X100706649Y-139592093D01*
X100792809Y-139707187D01*
X100792812Y-139707190D01*
X100885042Y-139776234D01*
X100926913Y-139832168D01*
X100931897Y-139901859D01*
X100898411Y-139963182D01*
X100837088Y-139996666D01*
X100810731Y-139999500D01*
X100424500Y-139999500D01*
X100357461Y-139979815D01*
X100311706Y-139927011D01*
X100300500Y-139875500D01*
X100300500Y-133316530D01*
X100949500Y-133316530D01*
X100949500Y-133523469D01*
X100989868Y-133726412D01*
X100989870Y-133726420D01*
X101056132Y-133886391D01*
X101069059Y-133917598D01*
X101070998Y-133920500D01*
X101184024Y-134089657D01*
X101330342Y-134235975D01*
X101330345Y-134235977D01*
X101502402Y-134350941D01*
X101693580Y-134430130D01*
X101896530Y-134470499D01*
X101896534Y-134470500D01*
X101896535Y-134470500D01*
X102103466Y-134470500D01*
X102103467Y-134470499D01*
X102306420Y-134430130D01*
X102497598Y-134350941D01*
X102669655Y-134235977D01*
X102815977Y-134089655D01*
X102930941Y-133917598D01*
X103010130Y-133726420D01*
X103050500Y-133523465D01*
X103050500Y-133316535D01*
X103010130Y-133113580D01*
X102930941Y-132922402D01*
X102815977Y-132750345D01*
X102815975Y-132750342D01*
X102669657Y-132604024D01*
X102505081Y-132494059D01*
X102497598Y-132489059D01*
X102306420Y-132409870D01*
X102306412Y-132409868D01*
X102103469Y-132369500D01*
X102103465Y-132369500D01*
X101896535Y-132369500D01*
X101896530Y-132369500D01*
X101693587Y-132409868D01*
X101693579Y-132409870D01*
X101502403Y-132489058D01*
X101330342Y-132604024D01*
X101184024Y-132750342D01*
X101069058Y-132922403D01*
X100989870Y-133113579D01*
X100989868Y-133113587D01*
X100949500Y-133316530D01*
X100300500Y-133316530D01*
X100300500Y-130776530D01*
X100949500Y-130776530D01*
X100949500Y-130983469D01*
X100989868Y-131186412D01*
X100989870Y-131186420D01*
X101069058Y-131377596D01*
X101184024Y-131549657D01*
X101330342Y-131695975D01*
X101330345Y-131695977D01*
X101502402Y-131810941D01*
X101693580Y-131890130D01*
X101896530Y-131930499D01*
X101896534Y-131930500D01*
X101896535Y-131930500D01*
X102103466Y-131930500D01*
X102103467Y-131930499D01*
X102306420Y-131890130D01*
X102497598Y-131810941D01*
X102669655Y-131695977D01*
X102815977Y-131549655D01*
X102930941Y-131377598D01*
X103010130Y-131186420D01*
X103050500Y-130983465D01*
X103050500Y-130776535D01*
X103010130Y-130573580D01*
X102930941Y-130382402D01*
X102815977Y-130210345D01*
X102815975Y-130210342D01*
X102669657Y-130064024D01*
X102505081Y-129954059D01*
X102497598Y-129949059D01*
X102306420Y-129869870D01*
X102306412Y-129869868D01*
X102103469Y-129829500D01*
X102103465Y-129829500D01*
X101896535Y-129829500D01*
X101896530Y-129829500D01*
X101693587Y-129869868D01*
X101693579Y-129869870D01*
X101502403Y-129949058D01*
X101330342Y-130064024D01*
X101184024Y-130210342D01*
X101069058Y-130382403D01*
X100989870Y-130573579D01*
X100989868Y-130573587D01*
X100949500Y-130776530D01*
X100300500Y-130776530D01*
X100300500Y-128236530D01*
X100949500Y-128236530D01*
X100949500Y-128443469D01*
X100989868Y-128646412D01*
X100989870Y-128646420D01*
X101028824Y-128740464D01*
X101069059Y-128837598D01*
X101126541Y-128923626D01*
X101184024Y-129009657D01*
X101330342Y-129155975D01*
X101330345Y-129155977D01*
X101502402Y-129270941D01*
X101693580Y-129350130D01*
X101896530Y-129390499D01*
X101896534Y-129390500D01*
X101896535Y-129390500D01*
X102103466Y-129390500D01*
X102103467Y-129390499D01*
X102306420Y-129350130D01*
X102497598Y-129270941D01*
X102669655Y-129155977D01*
X102815977Y-129009655D01*
X102930941Y-128837598D01*
X103010130Y-128646420D01*
X103050500Y-128443465D01*
X103050500Y-128236535D01*
X103010130Y-128033580D01*
X102930941Y-127842402D01*
X102815977Y-127670345D01*
X102815975Y-127670342D01*
X102669657Y-127524024D01*
X102505081Y-127414059D01*
X102497598Y-127409059D01*
X102306420Y-127329870D01*
X102306412Y-127329868D01*
X102103469Y-127289500D01*
X102103465Y-127289500D01*
X101896535Y-127289500D01*
X101896530Y-127289500D01*
X101693587Y-127329868D01*
X101693579Y-127329870D01*
X101502403Y-127409058D01*
X101330342Y-127524024D01*
X101184024Y-127670342D01*
X101069058Y-127842403D01*
X100989870Y-128033579D01*
X100989868Y-128033587D01*
X100949500Y-128236530D01*
X100300500Y-128236530D01*
X100300500Y-120613753D01*
X100650000Y-120613753D01*
X100650000Y-120826246D01*
X100683242Y-121036127D01*
X100683242Y-121036130D01*
X100748904Y-121238217D01*
X100845375Y-121427550D01*
X100884728Y-121481716D01*
X101517037Y-120849408D01*
X101534075Y-120912993D01*
X101599901Y-121027007D01*
X101692993Y-121120099D01*
X101807007Y-121185925D01*
X101870590Y-121202962D01*
X101238282Y-121835269D01*
X101238282Y-121835270D01*
X101292452Y-121874626D01*
X101302048Y-121879516D01*
X101352844Y-121927491D01*
X101369638Y-121995312D01*
X101347100Y-122061447D01*
X101302051Y-122100483D01*
X101292440Y-122105380D01*
X101238282Y-122144727D01*
X101238282Y-122144728D01*
X101870591Y-122777037D01*
X101807007Y-122794075D01*
X101692993Y-122859901D01*
X101599901Y-122952993D01*
X101534075Y-123067007D01*
X101517037Y-123130591D01*
X100884728Y-122498282D01*
X100884727Y-122498282D01*
X100845380Y-122552439D01*
X100748904Y-122741782D01*
X100683242Y-122943869D01*
X100683242Y-122943872D01*
X100650000Y-123153753D01*
X100650000Y-123366246D01*
X100683242Y-123576127D01*
X100683242Y-123576130D01*
X100748904Y-123778217D01*
X100845375Y-123967550D01*
X100884728Y-124021716D01*
X101517037Y-123389408D01*
X101534075Y-123452993D01*
X101599901Y-123567007D01*
X101692993Y-123660099D01*
X101807007Y-123725925D01*
X101870590Y-123742962D01*
X101238282Y-124375269D01*
X101238282Y-124375270D01*
X101292449Y-124414624D01*
X101481782Y-124511095D01*
X101657973Y-124568343D01*
X101715648Y-124607780D01*
X101742847Y-124672139D01*
X101730932Y-124740985D01*
X101683688Y-124792461D01*
X101667108Y-124800835D01*
X101502403Y-124869057D01*
X101330342Y-124984024D01*
X101184024Y-125130342D01*
X101069058Y-125302403D01*
X100989870Y-125493579D01*
X100989868Y-125493587D01*
X100949500Y-125696530D01*
X100949500Y-125903469D01*
X100989868Y-126106412D01*
X100989870Y-126106420D01*
X101069058Y-126297596D01*
X101184024Y-126469657D01*
X101330342Y-126615975D01*
X101330345Y-126615977D01*
X101502402Y-126730941D01*
X101693580Y-126810130D01*
X101896530Y-126850499D01*
X101896534Y-126850500D01*
X101896535Y-126850500D01*
X102103466Y-126850500D01*
X102103467Y-126850499D01*
X102306420Y-126810130D01*
X102497598Y-126730941D01*
X102669655Y-126615977D01*
X102815977Y-126469655D01*
X102930941Y-126297598D01*
X103010130Y-126106420D01*
X103050500Y-125903465D01*
X103050500Y-125696535D01*
X103010130Y-125493580D01*
X102930941Y-125302402D01*
X102815977Y-125130345D01*
X102815975Y-125130342D01*
X102669657Y-124984024D01*
X102505081Y-124874059D01*
X102497598Y-124869059D01*
X102497593Y-124869057D01*
X102435891Y-124843499D01*
X102332890Y-124800834D01*
X102278488Y-124756994D01*
X102256423Y-124690700D01*
X102273702Y-124623001D01*
X102324839Y-124575390D01*
X102342026Y-124568343D01*
X102518217Y-124511095D01*
X102707554Y-124414622D01*
X102761716Y-124375270D01*
X102761717Y-124375270D01*
X102129408Y-123742962D01*
X102192993Y-123725925D01*
X102307007Y-123660099D01*
X102400099Y-123567007D01*
X102465925Y-123452993D01*
X102482962Y-123389409D01*
X103115270Y-124021717D01*
X103115270Y-124021716D01*
X103154622Y-123967554D01*
X103251095Y-123778217D01*
X103316757Y-123576130D01*
X103316757Y-123576127D01*
X103350000Y-123366246D01*
X103350000Y-123153753D01*
X103316757Y-122943872D01*
X103316757Y-122943869D01*
X103251095Y-122741782D01*
X103154624Y-122552449D01*
X103115270Y-122498282D01*
X103115269Y-122498282D01*
X102482962Y-123130590D01*
X102465925Y-123067007D01*
X102400099Y-122952993D01*
X102307007Y-122859901D01*
X102192993Y-122794075D01*
X102129409Y-122777037D01*
X102761716Y-122144728D01*
X102707550Y-122105375D01*
X102697954Y-122100486D01*
X102647157Y-122052512D01*
X102630361Y-121984692D01*
X102652897Y-121918556D01*
X102697954Y-121879514D01*
X102707554Y-121874622D01*
X102761716Y-121835270D01*
X102761717Y-121835270D01*
X102129408Y-121202962D01*
X102192993Y-121185925D01*
X102307007Y-121120099D01*
X102400099Y-121027007D01*
X102465925Y-120912993D01*
X102482962Y-120849409D01*
X103115270Y-121481717D01*
X103115270Y-121481716D01*
X103154622Y-121427554D01*
X103251095Y-121238217D01*
X103316757Y-121036130D01*
X103316757Y-121036127D01*
X103350000Y-120826246D01*
X103350000Y-120613753D01*
X103316757Y-120403872D01*
X103316757Y-120403869D01*
X103251095Y-120201782D01*
X103154624Y-120012449D01*
X103115270Y-119958282D01*
X103115269Y-119958282D01*
X102482962Y-120590590D01*
X102465925Y-120527007D01*
X102400099Y-120412993D01*
X102307007Y-120319901D01*
X102192993Y-120254075D01*
X102129409Y-120237037D01*
X102761716Y-119604728D01*
X102707550Y-119565375D01*
X102518216Y-119468904D01*
X102342026Y-119411656D01*
X102284350Y-119372218D01*
X102257152Y-119307860D01*
X102269067Y-119239013D01*
X102316311Y-119187538D01*
X102332882Y-119179168D01*
X102497598Y-119110941D01*
X102669655Y-118995977D01*
X102815977Y-118849655D01*
X102930941Y-118677598D01*
X103010130Y-118486420D01*
X103050500Y-118283465D01*
X103050500Y-118076535D01*
X103010130Y-117873580D01*
X102930941Y-117682402D01*
X102815977Y-117510345D01*
X102815975Y-117510342D01*
X102669657Y-117364024D01*
X102505081Y-117254059D01*
X102497598Y-117249059D01*
X102306420Y-117169870D01*
X102306412Y-117169868D01*
X102103469Y-117129500D01*
X102103465Y-117129500D01*
X101896535Y-117129500D01*
X101896530Y-117129500D01*
X101693587Y-117169868D01*
X101693579Y-117169870D01*
X101502403Y-117249058D01*
X101330342Y-117364024D01*
X101184024Y-117510342D01*
X101069058Y-117682403D01*
X100989870Y-117873579D01*
X100989868Y-117873587D01*
X100949500Y-118076530D01*
X100949500Y-118283469D01*
X100989868Y-118486412D01*
X100989870Y-118486420D01*
X101058203Y-118651391D01*
X101069059Y-118677598D01*
X101074339Y-118685500D01*
X101184024Y-118849657D01*
X101330342Y-118995975D01*
X101502405Y-119110943D01*
X101605043Y-119153456D01*
X101667108Y-119179164D01*
X101721511Y-119223005D01*
X101743576Y-119289299D01*
X101726297Y-119356998D01*
X101675160Y-119404609D01*
X101657974Y-119411656D01*
X101481781Y-119468905D01*
X101292439Y-119565380D01*
X101238282Y-119604727D01*
X101238282Y-119604728D01*
X101870591Y-120237037D01*
X101807007Y-120254075D01*
X101692993Y-120319901D01*
X101599901Y-120412993D01*
X101534075Y-120527007D01*
X101517037Y-120590591D01*
X100884728Y-119958282D01*
X100884727Y-119958282D01*
X100845380Y-120012439D01*
X100748904Y-120201782D01*
X100683242Y-120403869D01*
X100683242Y-120403872D01*
X100650000Y-120613753D01*
X100300500Y-120613753D01*
X100300500Y-115536530D01*
X100949500Y-115536530D01*
X100949500Y-115743469D01*
X100989868Y-115946412D01*
X100989870Y-115946420D01*
X101056929Y-116108315D01*
X101069059Y-116137598D01*
X101088167Y-116166195D01*
X101184024Y-116309657D01*
X101330342Y-116455975D01*
X101330345Y-116455977D01*
X101502402Y-116570941D01*
X101693580Y-116650130D01*
X101896530Y-116690499D01*
X101896534Y-116690500D01*
X101896535Y-116690500D01*
X102103466Y-116690500D01*
X102103467Y-116690499D01*
X102306420Y-116650130D01*
X102497598Y-116570941D01*
X102669655Y-116455977D01*
X102815977Y-116309655D01*
X102930941Y-116137598D01*
X103010130Y-115946420D01*
X103050500Y-115743465D01*
X103050500Y-115536535D01*
X103010130Y-115333580D01*
X102930941Y-115142402D01*
X102815977Y-114970345D01*
X102815975Y-114970342D01*
X102669657Y-114824024D01*
X102537077Y-114735438D01*
X102497598Y-114709059D01*
X102496958Y-114708794D01*
X102306420Y-114629870D01*
X102306412Y-114629868D01*
X102103469Y-114589500D01*
X102103465Y-114589500D01*
X101896535Y-114589500D01*
X101896530Y-114589500D01*
X101693587Y-114629868D01*
X101693579Y-114629870D01*
X101502403Y-114709058D01*
X101330342Y-114824024D01*
X101184024Y-114970342D01*
X101069058Y-115142403D01*
X100989870Y-115333579D01*
X100989868Y-115333587D01*
X100949500Y-115536530D01*
X100300500Y-115536530D01*
X100300500Y-112996530D01*
X100949500Y-112996530D01*
X100949500Y-113203469D01*
X100988928Y-113401684D01*
X100989870Y-113406420D01*
X101069059Y-113597598D01*
X101072399Y-113602596D01*
X101184024Y-113769657D01*
X101330342Y-113915975D01*
X101330345Y-113915977D01*
X101502402Y-114030941D01*
X101693580Y-114110130D01*
X101835282Y-114138316D01*
X101896530Y-114150499D01*
X101896534Y-114150500D01*
X101896535Y-114150500D01*
X102103466Y-114150500D01*
X102103467Y-114150499D01*
X102306420Y-114110130D01*
X102497598Y-114030941D01*
X102669655Y-113915977D01*
X102815977Y-113769655D01*
X102930941Y-113597598D01*
X103010130Y-113406420D01*
X103050500Y-113203465D01*
X103050500Y-112996535D01*
X103010130Y-112793580D01*
X102930941Y-112602402D01*
X102815977Y-112430345D01*
X102815975Y-112430342D01*
X102669657Y-112284024D01*
X102529685Y-112190499D01*
X102497598Y-112169059D01*
X102495804Y-112168316D01*
X102306420Y-112089870D01*
X102306412Y-112089868D01*
X102103469Y-112049500D01*
X102103465Y-112049500D01*
X101896535Y-112049500D01*
X101896530Y-112049500D01*
X101693587Y-112089868D01*
X101693579Y-112089870D01*
X101502403Y-112169058D01*
X101330342Y-112284024D01*
X101184024Y-112430342D01*
X101069058Y-112602403D01*
X100989870Y-112793579D01*
X100989868Y-112793587D01*
X100949500Y-112996530D01*
X100300500Y-112996530D01*
X100300500Y-110456530D01*
X100949500Y-110456530D01*
X100949500Y-110663469D01*
X100989868Y-110866412D01*
X100989870Y-110866420D01*
X101069058Y-111057596D01*
X101184024Y-111229657D01*
X101330342Y-111375975D01*
X101330345Y-111375977D01*
X101502402Y-111490941D01*
X101693580Y-111570130D01*
X101896530Y-111610499D01*
X101896534Y-111610500D01*
X101896535Y-111610500D01*
X102103466Y-111610500D01*
X102103467Y-111610499D01*
X102306420Y-111570130D01*
X102497598Y-111490941D01*
X102669655Y-111375977D01*
X102815977Y-111229655D01*
X102930941Y-111057598D01*
X102980875Y-110937046D01*
X103024716Y-110882644D01*
X103091010Y-110860579D01*
X103095436Y-110860500D01*
X104384167Y-110860500D01*
X104451206Y-110880185D01*
X104471848Y-110896819D01*
X110043181Y-116468152D01*
X110076666Y-116529475D01*
X110079500Y-116555833D01*
X110079500Y-117254669D01*
X110059815Y-117321708D01*
X110043181Y-117342350D01*
X109965935Y-117419595D01*
X109915931Y-117526828D01*
X109909500Y-117575683D01*
X109909500Y-118024316D01*
X109915931Y-118073171D01*
X109956004Y-118159108D01*
X109965935Y-118180404D01*
X110049596Y-118264065D01*
X110156827Y-118314068D01*
X110205683Y-118320500D01*
X110205684Y-118320500D01*
X110554317Y-118320500D01*
X110570601Y-118318356D01*
X110603173Y-118314068D01*
X110710404Y-118264065D01*
X110794065Y-118180404D01*
X110794065Y-118180403D01*
X110801736Y-118172733D01*
X110804564Y-118175561D01*
X110842977Y-118144843D01*
X110912474Y-118137635D01*
X110974835Y-118169143D01*
X110977809Y-118172028D01*
X110985736Y-118179978D01*
X110985935Y-118180404D01*
X111063181Y-118257650D01*
X111063309Y-118257778D01*
X111080072Y-118288585D01*
X111096666Y-118318973D01*
X111096680Y-118319104D01*
X111096705Y-118319150D01*
X111096696Y-118319260D01*
X111099500Y-118345331D01*
X111099500Y-119459677D01*
X111079815Y-119526716D01*
X111027911Y-119572056D01*
X111019598Y-119575932D01*
X110935935Y-119659595D01*
X110885931Y-119766828D01*
X110879500Y-119815683D01*
X110879500Y-120164316D01*
X110885931Y-120213171D01*
X110935935Y-120320404D01*
X111027267Y-120411736D01*
X111024443Y-120414559D01*
X111055183Y-120453042D01*
X111062352Y-120522542D01*
X111030808Y-120584886D01*
X111027101Y-120588098D01*
X111027267Y-120588264D01*
X110935935Y-120679595D01*
X110885931Y-120786828D01*
X110879500Y-120835683D01*
X110879500Y-121184316D01*
X110885931Y-121233171D01*
X110885932Y-121233173D01*
X110935935Y-121340404D01*
X111019596Y-121424065D01*
X111027904Y-121427939D01*
X111080343Y-121474110D01*
X111099500Y-121540321D01*
X111099500Y-132961323D01*
X111079815Y-133028362D01*
X111063182Y-133049004D01*
X110999500Y-133112686D01*
X110933608Y-133226812D01*
X110899500Y-133354108D01*
X110899500Y-133485891D01*
X110933608Y-133613187D01*
X110966554Y-133670250D01*
X110999500Y-133727314D01*
X111092686Y-133820500D01*
X111206814Y-133886392D01*
X111334108Y-133920500D01*
X111334110Y-133920500D01*
X111465890Y-133920500D01*
X111465892Y-133920500D01*
X111593186Y-133886392D01*
X111707314Y-133820500D01*
X111800500Y-133727314D01*
X111866392Y-133613186D01*
X111900500Y-133485892D01*
X111900500Y-133354108D01*
X111891771Y-133321530D01*
X149209500Y-133321530D01*
X149209500Y-133528469D01*
X149249868Y-133731412D01*
X149249870Y-133731420D01*
X149329058Y-133922596D01*
X149444024Y-134094657D01*
X149590342Y-134240975D01*
X149590345Y-134240977D01*
X149762402Y-134355941D01*
X149953580Y-134435130D01*
X150131393Y-134470499D01*
X150156530Y-134475499D01*
X150156534Y-134475500D01*
X150156535Y-134475500D01*
X150363466Y-134475500D01*
X150363467Y-134475499D01*
X150566420Y-134435130D01*
X150757598Y-134355941D01*
X150929655Y-134240977D01*
X151075977Y-134094655D01*
X151190941Y-133922598D01*
X151270130Y-133731420D01*
X151310500Y-133528465D01*
X151310500Y-133321535D01*
X151270130Y-133118580D01*
X151190941Y-132927402D01*
X151075977Y-132755345D01*
X151075975Y-132755342D01*
X150929657Y-132609024D01*
X150843626Y-132551541D01*
X150757598Y-132494059D01*
X150566420Y-132414870D01*
X150566412Y-132414868D01*
X150363469Y-132374500D01*
X150363465Y-132374500D01*
X150156535Y-132374500D01*
X150156530Y-132374500D01*
X149953587Y-132414868D01*
X149953579Y-132414870D01*
X149762403Y-132494058D01*
X149590342Y-132609024D01*
X149444024Y-132755342D01*
X149329058Y-132927403D01*
X149249870Y-133118579D01*
X149249868Y-133118587D01*
X149209500Y-133321530D01*
X111891771Y-133321530D01*
X111866392Y-133226814D01*
X111800500Y-133112686D01*
X111736818Y-133049004D01*
X111703334Y-132987680D01*
X111700500Y-132961323D01*
X111700500Y-130781530D01*
X149209500Y-130781530D01*
X149209500Y-130988469D01*
X149249868Y-131191412D01*
X149249870Y-131191420D01*
X149329058Y-131382596D01*
X149444024Y-131554657D01*
X149590342Y-131700975D01*
X149590345Y-131700977D01*
X149762402Y-131815941D01*
X149953580Y-131895130D01*
X150131393Y-131930499D01*
X150156530Y-131935499D01*
X150156534Y-131935500D01*
X150156535Y-131935500D01*
X150363466Y-131935500D01*
X150363467Y-131935499D01*
X150566420Y-131895130D01*
X150757598Y-131815941D01*
X150929655Y-131700977D01*
X151075977Y-131554655D01*
X151190941Y-131382598D01*
X151270130Y-131191420D01*
X151310500Y-130988465D01*
X151310500Y-130781535D01*
X151270130Y-130578580D01*
X151190941Y-130387402D01*
X151075977Y-130215345D01*
X151075975Y-130215342D01*
X150929657Y-130069024D01*
X150843626Y-130011541D01*
X150757598Y-129954059D01*
X150566420Y-129874870D01*
X150566412Y-129874868D01*
X150363469Y-129834500D01*
X150363465Y-129834500D01*
X150156535Y-129834500D01*
X150156530Y-129834500D01*
X149953587Y-129874868D01*
X149953579Y-129874870D01*
X149762403Y-129954058D01*
X149590342Y-130069024D01*
X149444024Y-130215342D01*
X149329058Y-130387403D01*
X149249870Y-130578579D01*
X149249868Y-130578587D01*
X149209500Y-130781530D01*
X111700500Y-130781530D01*
X111700500Y-121540321D01*
X111720185Y-121473282D01*
X111772095Y-121427939D01*
X111780404Y-121424065D01*
X111864065Y-121340404D01*
X111914068Y-121233173D01*
X111920500Y-121184316D01*
X111920500Y-120835684D01*
X111919257Y-120826246D01*
X111914068Y-120786828D01*
X111882906Y-120720001D01*
X111864065Y-120679596D01*
X111780404Y-120595935D01*
X111772733Y-120588264D01*
X111775561Y-120585435D01*
X111744843Y-120547023D01*
X111737635Y-120477526D01*
X111769143Y-120415165D01*
X111772903Y-120411906D01*
X111772733Y-120411736D01*
X111818023Y-120366446D01*
X111864065Y-120320404D01*
X111914068Y-120213173D01*
X111920500Y-120164316D01*
X111920500Y-119815684D01*
X111914068Y-119766827D01*
X111864065Y-119659596D01*
X111780404Y-119575935D01*
X111780401Y-119575932D01*
X111772089Y-119572056D01*
X111719652Y-119525881D01*
X111700500Y-119459677D01*
X111700500Y-118345331D01*
X111720185Y-118278292D01*
X111736819Y-118257650D01*
X111743579Y-118250890D01*
X111814065Y-118180404D01*
X111864068Y-118073173D01*
X111870500Y-118024316D01*
X111870500Y-117994178D01*
X111874725Y-117962085D01*
X111900500Y-117865892D01*
X111900500Y-117734108D01*
X111874725Y-117637913D01*
X111870500Y-117605820D01*
X111870500Y-117575683D01*
X111864068Y-117526828D01*
X111864068Y-117526827D01*
X111814065Y-117419596D01*
X111730404Y-117335935D01*
X111623173Y-117285932D01*
X111623171Y-117285931D01*
X111623172Y-117285931D01*
X111574317Y-117279500D01*
X111574316Y-117279500D01*
X111225684Y-117279500D01*
X111225683Y-117279500D01*
X111176828Y-117285931D01*
X111069595Y-117335935D01*
X110978264Y-117427267D01*
X110975440Y-117424443D01*
X110936958Y-117455183D01*
X110867458Y-117462352D01*
X110805114Y-117430808D01*
X110802191Y-117427972D01*
X110794263Y-117420021D01*
X110794065Y-117419596D01*
X110716689Y-117342220D01*
X110699914Y-117311392D01*
X110683334Y-117281027D01*
X110683319Y-117280894D01*
X110683296Y-117280851D01*
X110683303Y-117280745D01*
X110680500Y-117254669D01*
X110680500Y-116340439D01*
X110672252Y-116309657D01*
X110660021Y-116264011D01*
X110657702Y-116259994D01*
X110620464Y-116195495D01*
X110620458Y-116195487D01*
X104744512Y-110319541D01*
X104744504Y-110319535D01*
X104675995Y-110279982D01*
X104675990Y-110279979D01*
X104650513Y-110273152D01*
X104599562Y-110259500D01*
X104599560Y-110259500D01*
X103095436Y-110259500D01*
X103028397Y-110239815D01*
X102982642Y-110187011D01*
X102980875Y-110182953D01*
X102977171Y-110174011D01*
X102930941Y-110062402D01*
X102815977Y-109890345D01*
X102815975Y-109890342D01*
X102669657Y-109744024D01*
X102555866Y-109667992D01*
X102497598Y-109629059D01*
X102475969Y-109620100D01*
X102306420Y-109549870D01*
X102306412Y-109549868D01*
X102103469Y-109509500D01*
X102103465Y-109509500D01*
X101896535Y-109509500D01*
X101896530Y-109509500D01*
X101693587Y-109549868D01*
X101693579Y-109549870D01*
X101502403Y-109629058D01*
X101330342Y-109744024D01*
X101184024Y-109890342D01*
X101069058Y-110062403D01*
X100989870Y-110253579D01*
X100989868Y-110253587D01*
X100949500Y-110456530D01*
X100300500Y-110456530D01*
X100300500Y-87596530D01*
X100949500Y-87596530D01*
X100949500Y-87803469D01*
X100989868Y-88006412D01*
X100989870Y-88006420D01*
X101069058Y-88197596D01*
X101184024Y-88369657D01*
X101330342Y-88515975D01*
X101330345Y-88515977D01*
X101502402Y-88630941D01*
X101693580Y-88710130D01*
X101896530Y-88750499D01*
X101896534Y-88750500D01*
X101896535Y-88750500D01*
X102103466Y-88750500D01*
X102103467Y-88750499D01*
X102306420Y-88710130D01*
X102497598Y-88630941D01*
X102669655Y-88515977D01*
X102815977Y-88369655D01*
X102930941Y-88197598D01*
X103010130Y-88006420D01*
X103050500Y-87803465D01*
X103050500Y-87596535D01*
X103010130Y-87393580D01*
X102930941Y-87202402D01*
X102815977Y-87030345D01*
X102815975Y-87030342D01*
X102669657Y-86884024D01*
X102505081Y-86774059D01*
X102499006Y-86770000D01*
X122195496Y-86770000D01*
X122750000Y-86770000D01*
X123250000Y-86770000D01*
X123804504Y-86770000D01*
X123762031Y-86623804D01*
X123679721Y-86484625D01*
X123679714Y-86484616D01*
X123565383Y-86370285D01*
X123565374Y-86370278D01*
X123426195Y-86287968D01*
X123426190Y-86287966D01*
X123270918Y-86242855D01*
X123270912Y-86242854D01*
X123250000Y-86241209D01*
X123250000Y-86770000D01*
X122750000Y-86770000D01*
X122750000Y-86241210D01*
X122749999Y-86241209D01*
X122729087Y-86242854D01*
X122729081Y-86242855D01*
X122573809Y-86287966D01*
X122573804Y-86287968D01*
X122434625Y-86370278D01*
X122434616Y-86370285D01*
X122320285Y-86484616D01*
X122320278Y-86484625D01*
X122237968Y-86623804D01*
X122195496Y-86770000D01*
X102499006Y-86770000D01*
X102497598Y-86769059D01*
X102306420Y-86689870D01*
X102306412Y-86689868D01*
X102103469Y-86649500D01*
X102103465Y-86649500D01*
X101896535Y-86649500D01*
X101896530Y-86649500D01*
X101693587Y-86689868D01*
X101693579Y-86689870D01*
X101502403Y-86769058D01*
X101330342Y-86884024D01*
X101184024Y-87030342D01*
X101069058Y-87202403D01*
X100989870Y-87393579D01*
X100989868Y-87393587D01*
X100949500Y-87596530D01*
X100300500Y-87596530D01*
X100300500Y-84290247D01*
X100949500Y-84290247D01*
X100949500Y-86029752D01*
X100961131Y-86088229D01*
X100961132Y-86088230D01*
X101005447Y-86154552D01*
X101071769Y-86198867D01*
X101071770Y-86198868D01*
X101130247Y-86210499D01*
X101130250Y-86210500D01*
X101130252Y-86210500D01*
X102869750Y-86210500D01*
X102869751Y-86210499D01*
X102884568Y-86207552D01*
X102928229Y-86198868D01*
X102928229Y-86198867D01*
X102928231Y-86198867D01*
X102994552Y-86154552D01*
X103038867Y-86088231D01*
X103038867Y-86088229D01*
X103038868Y-86088229D01*
X103050499Y-86029752D01*
X103050500Y-86029750D01*
X103050500Y-84290250D01*
X103050061Y-84288044D01*
X103050061Y-84288042D01*
X103038868Y-84231770D01*
X103038867Y-84231769D01*
X102994552Y-84165447D01*
X102928230Y-84121132D01*
X102928229Y-84121131D01*
X102869752Y-84109500D01*
X102869748Y-84109500D01*
X101130252Y-84109500D01*
X101130247Y-84109500D01*
X101071770Y-84121131D01*
X101071769Y-84121132D01*
X101005447Y-84165447D01*
X100961132Y-84231769D01*
X100961131Y-84231770D01*
X100949500Y-84290247D01*
X100300500Y-84290247D01*
X100300500Y-76624500D01*
X100320185Y-76557461D01*
X100372989Y-76511706D01*
X100424500Y-76500500D01*
X151675500Y-76500500D01*
X151742539Y-76520185D01*
G37*
%TD.AperFunction*%
%TA.AperFunction,Conductor*%
G36*
X124394075Y-138692993D02*
G01*
X124459901Y-138807007D01*
X124552993Y-138900099D01*
X124667007Y-138965925D01*
X124730590Y-138982962D01*
X124098282Y-139615269D01*
X124098282Y-139615270D01*
X124152449Y-139654624D01*
X124341782Y-139751095D01*
X124361706Y-139757569D01*
X124419381Y-139797006D01*
X124446580Y-139861365D01*
X124434665Y-139930211D01*
X124387421Y-139981687D01*
X124323388Y-139999500D01*
X122856612Y-139999500D01*
X122789573Y-139979815D01*
X122743818Y-139927011D01*
X122733874Y-139857853D01*
X122762899Y-139794297D01*
X122818294Y-139757569D01*
X122838217Y-139751095D01*
X123027554Y-139654622D01*
X123081716Y-139615270D01*
X123081717Y-139615270D01*
X122449408Y-138982962D01*
X122512993Y-138965925D01*
X122627007Y-138900099D01*
X122720099Y-138807007D01*
X122785925Y-138692993D01*
X122802962Y-138629408D01*
X123435270Y-139261717D01*
X123435270Y-139261716D01*
X123474622Y-139207554D01*
X123479514Y-139197954D01*
X123527488Y-139147157D01*
X123595308Y-139130361D01*
X123661444Y-139152897D01*
X123700486Y-139197954D01*
X123705375Y-139207550D01*
X123744728Y-139261716D01*
X124377037Y-138629408D01*
X124394075Y-138692993D01*
G37*
%TD.AperFunction*%
%TA.AperFunction,Conductor*%
G36*
X131617539Y-110610185D02*
G01*
X131663294Y-110662989D01*
X131674500Y-110714500D01*
X131674500Y-115124167D01*
X131654815Y-115191206D01*
X131638181Y-115211848D01*
X127075181Y-119774848D01*
X127013858Y-119808333D01*
X126944166Y-119803349D01*
X126899819Y-119774848D01*
X125891573Y-118766602D01*
X125858088Y-118705279D01*
X125863072Y-118635587D01*
X125891569Y-118591244D01*
X125950500Y-118532314D01*
X126016392Y-118418186D01*
X126050500Y-118290892D01*
X126050500Y-118159108D01*
X126016392Y-118031814D01*
X125950500Y-117917686D01*
X125886818Y-117854004D01*
X125853334Y-117792680D01*
X125850500Y-117766323D01*
X125850500Y-115725833D01*
X125870185Y-115658794D01*
X125886819Y-115638152D01*
X126218159Y-115306812D01*
X126565460Y-114959511D01*
X126593113Y-114911615D01*
X126595324Y-114909506D01*
X126596185Y-114906576D01*
X126620435Y-114885562D01*
X126643680Y-114863399D01*
X126646681Y-114862820D01*
X126648989Y-114860821D01*
X126680763Y-114856252D01*
X126712287Y-114850177D01*
X126715121Y-114851311D01*
X126718147Y-114850877D01*
X126747359Y-114864218D01*
X126777152Y-114876145D01*
X126778923Y-114878632D01*
X126781703Y-114879902D01*
X126799062Y-114906914D01*
X126817680Y-114933059D01*
X126818323Y-114936884D01*
X126819477Y-114938680D01*
X126824500Y-114973615D01*
X126824500Y-115199167D01*
X126804815Y-115266206D01*
X126788181Y-115286848D01*
X126559541Y-115515487D01*
X126559535Y-115515495D01*
X126519982Y-115584004D01*
X126519979Y-115584009D01*
X126499500Y-115660439D01*
X126499500Y-116441323D01*
X126479815Y-116508362D01*
X126463182Y-116529004D01*
X126399500Y-116592686D01*
X126333608Y-116706812D01*
X126299500Y-116834108D01*
X126299500Y-116965891D01*
X126333608Y-117093187D01*
X126354574Y-117129500D01*
X126399500Y-117207314D01*
X126492686Y-117300500D01*
X126591521Y-117357563D01*
X126602712Y-117364024D01*
X126606814Y-117366392D01*
X126734108Y-117400500D01*
X126734110Y-117400500D01*
X126865890Y-117400500D01*
X126865892Y-117400500D01*
X126993186Y-117366392D01*
X127107314Y-117300500D01*
X127200500Y-117207314D01*
X127266392Y-117093186D01*
X127300500Y-116965892D01*
X127300500Y-116924304D01*
X127320185Y-116857265D01*
X127372989Y-116811510D01*
X127425981Y-116803587D01*
X127425981Y-116800500D01*
X127565890Y-116800500D01*
X127565892Y-116800500D01*
X127693186Y-116766392D01*
X127807314Y-116700500D01*
X127900500Y-116607314D01*
X127966392Y-116493186D01*
X128000500Y-116365892D01*
X128000500Y-116234108D01*
X127966392Y-116106814D01*
X127900500Y-115992686D01*
X127861819Y-115954005D01*
X127828334Y-115892682D01*
X127825500Y-115866324D01*
X127825500Y-115099504D01*
X127845185Y-115032465D01*
X127897989Y-114986710D01*
X127967147Y-114976766D01*
X127981571Y-114979724D01*
X128059108Y-115000500D01*
X128059111Y-115000500D01*
X128190890Y-115000500D01*
X128190892Y-115000500D01*
X128318186Y-114966392D01*
X128432314Y-114900500D01*
X128525500Y-114807314D01*
X128591392Y-114693186D01*
X128625500Y-114565892D01*
X128625500Y-114434108D01*
X128591392Y-114306814D01*
X128525500Y-114192686D01*
X128432314Y-114099500D01*
X128366421Y-114061456D01*
X128318185Y-114033607D01*
X128318186Y-114033607D01*
X128317399Y-114033397D01*
X128316810Y-114033038D01*
X128310682Y-114030500D01*
X128311078Y-114029543D01*
X128257741Y-113997028D01*
X128227216Y-113934179D01*
X128225500Y-113913624D01*
X128225500Y-113489500D01*
X128245185Y-113422461D01*
X128297989Y-113376706D01*
X128331352Y-113366835D01*
X128340375Y-113365500D01*
X128399674Y-113365500D01*
X128472740Y-113350966D01*
X128482445Y-113344480D01*
X128506852Y-113340870D01*
X128526892Y-113343667D01*
X128547008Y-113341504D01*
X128572461Y-113348977D01*
X128577256Y-113350963D01*
X128577260Y-113350966D01*
X128577264Y-113350966D01*
X128577267Y-113350968D01*
X128650321Y-113365499D01*
X128650324Y-113365500D01*
X128650326Y-113365500D01*
X128799676Y-113365500D01*
X128799677Y-113365499D01*
X128872740Y-113350966D01*
X128955601Y-113295601D01*
X129010966Y-113212740D01*
X129025500Y-113139674D01*
X129025500Y-112315326D01*
X129025500Y-112314500D01*
X129045185Y-112247461D01*
X129097989Y-112201706D01*
X129149500Y-112190500D01*
X129974676Y-112190500D01*
X129974677Y-112190499D01*
X130047740Y-112175966D01*
X130130601Y-112120601D01*
X130185966Y-112037740D01*
X130200500Y-111964674D01*
X130200500Y-111815326D01*
X130200500Y-111815323D01*
X130200499Y-111815321D01*
X130185968Y-111742267D01*
X130185966Y-111742264D01*
X130185966Y-111742260D01*
X130185963Y-111742256D01*
X130183977Y-111737461D01*
X130176504Y-111667992D01*
X130183977Y-111642539D01*
X130185962Y-111637745D01*
X130185966Y-111637740D01*
X130191385Y-111610500D01*
X130198420Y-111575129D01*
X130200500Y-111564674D01*
X130200500Y-111415326D01*
X130200500Y-111415323D01*
X130200499Y-111415321D01*
X130185968Y-111342267D01*
X130185966Y-111342264D01*
X130185966Y-111342260D01*
X130185963Y-111342256D01*
X130183977Y-111337461D01*
X130176504Y-111267992D01*
X130183977Y-111242539D01*
X130185962Y-111237745D01*
X130185966Y-111237740D01*
X130186580Y-111234657D01*
X130200499Y-111164678D01*
X130200500Y-111164676D01*
X130200500Y-111015323D01*
X130200499Y-111015321D01*
X130185968Y-110942267D01*
X130185966Y-110942264D01*
X130185966Y-110942260D01*
X130185963Y-110942256D01*
X130183977Y-110937461D01*
X130175870Y-110871852D01*
X130179480Y-110847445D01*
X130185966Y-110837740D01*
X130200500Y-110764674D01*
X130200500Y-110705375D01*
X130201835Y-110696352D01*
X130212810Y-110672577D01*
X130220185Y-110647461D01*
X130227217Y-110641367D01*
X130231119Y-110632915D01*
X130253207Y-110618846D01*
X130272989Y-110601706D01*
X130283819Y-110599349D01*
X130290051Y-110595381D01*
X130301841Y-110595429D01*
X130324500Y-110590500D01*
X131550500Y-110590500D01*
X131617539Y-110610185D01*
G37*
%TD.AperFunction*%
%TA.AperFunction,Conductor*%
G36*
X125365617Y-106468186D02*
G01*
X125377260Y-106475966D01*
X125450326Y-106490500D01*
X125573195Y-106490500D01*
X125579800Y-106491210D01*
X125606190Y-106502140D01*
X125633586Y-106510185D01*
X125638050Y-106515336D01*
X125644352Y-106517947D01*
X125673933Y-106552498D01*
X125683218Y-106568581D01*
X125684542Y-106570874D01*
X125684543Y-106570875D01*
X125979152Y-106865483D01*
X126254129Y-107140460D01*
X126322652Y-107180022D01*
X126399078Y-107200500D01*
X126478202Y-107200500D01*
X127624167Y-107200500D01*
X127691206Y-107220185D01*
X127711848Y-107236819D01*
X128163181Y-107688152D01*
X128196666Y-107749475D01*
X128199500Y-107775833D01*
X128199500Y-110924167D01*
X128179815Y-110991206D01*
X128163181Y-111011848D01*
X127811848Y-111363181D01*
X127750525Y-111396666D01*
X127724167Y-111399500D01*
X127179078Y-111399500D01*
X127140864Y-111409739D01*
X127102649Y-111419979D01*
X127102648Y-111419980D01*
X127049894Y-111450438D01*
X127034132Y-111459538D01*
X127034126Y-111459542D01*
X126484541Y-112009127D01*
X126484537Y-112009132D01*
X126473933Y-112027500D01*
X126470081Y-112031172D01*
X126468401Y-112036222D01*
X126445061Y-112055029D01*
X126423366Y-112075716D01*
X126417029Y-112077617D01*
X126413996Y-112080062D01*
X126398834Y-112083077D01*
X126379799Y-112088790D01*
X126373194Y-112089500D01*
X126250326Y-112089500D01*
X126177260Y-112104034D01*
X126165618Y-112111812D01*
X126138253Y-112114754D01*
X126120708Y-112111588D01*
X126102983Y-112113494D01*
X126077548Y-112106025D01*
X126072740Y-112104033D01*
X125999676Y-112089500D01*
X125999674Y-112089500D01*
X125850326Y-112089500D01*
X125850323Y-112089500D01*
X125774345Y-112104613D01*
X125704754Y-112098386D01*
X125651350Y-112057921D01*
X125567566Y-111947436D01*
X125447095Y-111856079D01*
X125306443Y-111800613D01*
X125218054Y-111790000D01*
X125031946Y-111790000D01*
X124943556Y-111800613D01*
X124802904Y-111856079D01*
X124682432Y-111947437D01*
X124598648Y-112057922D01*
X124542456Y-112099445D01*
X124475653Y-112104613D01*
X124399676Y-112089500D01*
X124399674Y-112089500D01*
X124250326Y-112089500D01*
X124250324Y-112089500D01*
X124177259Y-112104033D01*
X124172452Y-112106025D01*
X124102983Y-112113494D01*
X124077548Y-112106025D01*
X124072740Y-112104033D01*
X123999676Y-112089500D01*
X123999674Y-112089500D01*
X123850326Y-112089500D01*
X123850324Y-112089500D01*
X123777259Y-112104033D01*
X123772452Y-112106025D01*
X123702983Y-112113494D01*
X123677548Y-112106025D01*
X123672740Y-112104033D01*
X123599676Y-112089500D01*
X123599674Y-112089500D01*
X123450326Y-112089500D01*
X123449500Y-112089500D01*
X123382461Y-112069815D01*
X123336706Y-112017011D01*
X123325500Y-111965500D01*
X123325500Y-111815323D01*
X123325499Y-111815321D01*
X123310968Y-111742267D01*
X123310966Y-111742264D01*
X123310966Y-111742260D01*
X123310963Y-111742256D01*
X123308977Y-111737461D01*
X123301504Y-111667992D01*
X123308977Y-111642539D01*
X123310962Y-111637745D01*
X123310966Y-111637740D01*
X123316385Y-111610500D01*
X123323420Y-111575129D01*
X123325500Y-111564674D01*
X123325500Y-111415326D01*
X123325500Y-111415323D01*
X123325499Y-111415321D01*
X123310968Y-111342267D01*
X123310966Y-111342264D01*
X123310966Y-111342260D01*
X123310963Y-111342256D01*
X123308977Y-111337461D01*
X123301504Y-111267992D01*
X123308977Y-111242539D01*
X123310962Y-111237745D01*
X123310966Y-111237740D01*
X123311580Y-111234657D01*
X123325499Y-111164678D01*
X123325500Y-111164676D01*
X123325500Y-111015323D01*
X123325499Y-111015321D01*
X123310968Y-110942267D01*
X123310966Y-110942264D01*
X123310966Y-110942260D01*
X123310963Y-110942256D01*
X123308977Y-110937461D01*
X123301504Y-110867992D01*
X123308977Y-110842539D01*
X123310962Y-110837745D01*
X123310966Y-110837740D01*
X123325500Y-110764674D01*
X123325500Y-110615326D01*
X123325500Y-110615323D01*
X123325499Y-110615321D01*
X123310968Y-110542267D01*
X123310966Y-110542264D01*
X123310966Y-110542260D01*
X123310963Y-110542256D01*
X123308977Y-110537461D01*
X123301504Y-110467992D01*
X123308977Y-110442539D01*
X123310962Y-110437745D01*
X123310966Y-110437740D01*
X123319392Y-110395383D01*
X123325499Y-110364678D01*
X123325500Y-110364676D01*
X123325500Y-110215323D01*
X123325499Y-110215321D01*
X123310968Y-110142267D01*
X123310966Y-110142264D01*
X123310966Y-110142260D01*
X123310963Y-110142256D01*
X123308977Y-110137461D01*
X123301504Y-110067992D01*
X123308977Y-110042539D01*
X123310962Y-110037745D01*
X123310966Y-110037740D01*
X123325500Y-109964674D01*
X123325500Y-109815326D01*
X123325500Y-109815323D01*
X123325499Y-109815321D01*
X123310968Y-109742267D01*
X123310966Y-109742264D01*
X123310966Y-109742260D01*
X123310963Y-109742256D01*
X123308977Y-109737461D01*
X123301504Y-109667992D01*
X123308977Y-109642539D01*
X123310962Y-109637745D01*
X123310966Y-109637740D01*
X123311699Y-109634059D01*
X123322451Y-109580000D01*
X123325500Y-109564674D01*
X123325500Y-109415326D01*
X123325500Y-109415323D01*
X123325499Y-109415321D01*
X123310968Y-109342267D01*
X123310966Y-109342264D01*
X123310966Y-109342260D01*
X123310963Y-109342256D01*
X123308977Y-109337461D01*
X123301504Y-109267992D01*
X123308977Y-109242539D01*
X123310962Y-109237745D01*
X123310966Y-109237740D01*
X123325500Y-109164674D01*
X123325500Y-109015326D01*
X123325500Y-109015323D01*
X123325499Y-109015321D01*
X123310968Y-108942267D01*
X123310966Y-108942264D01*
X123310966Y-108942260D01*
X123310963Y-108942256D01*
X123308977Y-108937461D01*
X123301504Y-108867992D01*
X123308977Y-108842539D01*
X123310962Y-108837745D01*
X123310966Y-108837740D01*
X123312193Y-108831575D01*
X123325499Y-108764678D01*
X123325500Y-108764676D01*
X123325500Y-108615323D01*
X123325499Y-108615321D01*
X123310968Y-108542267D01*
X123310966Y-108542264D01*
X123310966Y-108542260D01*
X123310963Y-108542256D01*
X123308977Y-108537461D01*
X123301504Y-108467992D01*
X123308977Y-108442539D01*
X123310962Y-108437745D01*
X123310966Y-108437740D01*
X123313481Y-108425099D01*
X123323492Y-108374767D01*
X123325500Y-108364674D01*
X123325500Y-108215326D01*
X123325500Y-108215323D01*
X123325499Y-108215321D01*
X123310968Y-108142267D01*
X123310966Y-108142264D01*
X123310966Y-108142260D01*
X123310963Y-108142256D01*
X123308977Y-108137461D01*
X123301504Y-108067992D01*
X123308977Y-108042539D01*
X123310962Y-108037745D01*
X123310966Y-108037740D01*
X123313501Y-108024999D01*
X123325499Y-107964678D01*
X123325500Y-107964676D01*
X123325500Y-107815323D01*
X123325499Y-107815321D01*
X123310968Y-107742267D01*
X123310966Y-107742264D01*
X123310966Y-107742260D01*
X123310963Y-107742256D01*
X123308977Y-107737461D01*
X123301504Y-107667992D01*
X123308977Y-107642539D01*
X123310962Y-107637745D01*
X123310966Y-107637740D01*
X123313908Y-107622953D01*
X123325499Y-107564678D01*
X123325500Y-107564676D01*
X123325500Y-107415323D01*
X123325499Y-107415321D01*
X123310968Y-107342267D01*
X123310966Y-107342264D01*
X123310966Y-107342260D01*
X123310963Y-107342256D01*
X123308977Y-107337461D01*
X123301504Y-107267992D01*
X123308977Y-107242539D01*
X123310962Y-107237745D01*
X123310966Y-107237740D01*
X123311150Y-107236819D01*
X123324477Y-107169815D01*
X123325500Y-107164674D01*
X123325500Y-107015326D01*
X123325500Y-107015323D01*
X123325499Y-107015321D01*
X123310968Y-106942267D01*
X123310966Y-106942264D01*
X123310966Y-106942260D01*
X123310963Y-106942256D01*
X123308977Y-106937461D01*
X123301504Y-106867992D01*
X123308977Y-106842539D01*
X123310962Y-106837745D01*
X123310966Y-106837740D01*
X123313213Y-106826447D01*
X123320655Y-106789029D01*
X123325500Y-106764674D01*
X123325500Y-106615326D01*
X123325500Y-106614500D01*
X123345185Y-106547461D01*
X123397989Y-106501706D01*
X123449500Y-106490500D01*
X123599676Y-106490500D01*
X123599677Y-106490499D01*
X123639676Y-106482543D01*
X123672732Y-106475968D01*
X123672733Y-106475967D01*
X123672740Y-106475966D01*
X123672745Y-106475962D01*
X123677539Y-106473977D01*
X123747008Y-106466504D01*
X123772461Y-106473977D01*
X123777256Y-106475963D01*
X123777260Y-106475966D01*
X123777264Y-106475966D01*
X123777267Y-106475968D01*
X123850321Y-106490499D01*
X123850324Y-106490500D01*
X123850326Y-106490500D01*
X123999676Y-106490500D01*
X123999677Y-106490499D01*
X124039676Y-106482543D01*
X124072732Y-106475968D01*
X124072733Y-106475967D01*
X124072740Y-106475966D01*
X124072745Y-106475962D01*
X124077539Y-106473977D01*
X124147008Y-106466504D01*
X124172461Y-106473977D01*
X124177256Y-106475963D01*
X124177260Y-106475966D01*
X124177264Y-106475966D01*
X124177267Y-106475968D01*
X124250321Y-106490499D01*
X124250324Y-106490500D01*
X124250326Y-106490500D01*
X124399676Y-106490500D01*
X124399677Y-106490499D01*
X124439676Y-106482543D01*
X124472732Y-106475968D01*
X124472733Y-106475967D01*
X124472740Y-106475966D01*
X124472745Y-106475962D01*
X124477539Y-106473977D01*
X124547008Y-106466504D01*
X124572461Y-106473977D01*
X124577256Y-106475963D01*
X124577260Y-106475966D01*
X124577264Y-106475966D01*
X124577267Y-106475968D01*
X124650321Y-106490499D01*
X124650324Y-106490500D01*
X124650326Y-106490500D01*
X124799676Y-106490500D01*
X124799677Y-106490499D01*
X124839676Y-106482543D01*
X124872732Y-106475968D01*
X124872733Y-106475967D01*
X124872740Y-106475966D01*
X124872745Y-106475962D01*
X124877539Y-106473977D01*
X124947008Y-106466504D01*
X124972461Y-106473977D01*
X124977256Y-106475963D01*
X124977260Y-106475966D01*
X124977264Y-106475966D01*
X124977267Y-106475968D01*
X125050321Y-106490499D01*
X125050324Y-106490500D01*
X125050326Y-106490500D01*
X125199676Y-106490500D01*
X125199677Y-106490499D01*
X125239676Y-106482543D01*
X125272732Y-106475968D01*
X125272733Y-106475967D01*
X125272740Y-106475966D01*
X125272745Y-106475962D01*
X125277539Y-106473977D01*
X125290934Y-106472535D01*
X125302981Y-106466506D01*
X125338253Y-106465245D01*
X125365617Y-106468186D01*
G37*
%TD.AperFunction*%
%TA.AperFunction,Conductor*%
G36*
X132591206Y-106920185D02*
G01*
X132611848Y-106936819D01*
X134163181Y-108488152D01*
X134196666Y-108549475D01*
X134199500Y-108575833D01*
X134199500Y-109865500D01*
X134179815Y-109932539D01*
X134127011Y-109978294D01*
X134075500Y-109989500D01*
X130324500Y-109989500D01*
X130257461Y-109969815D01*
X130211706Y-109917011D01*
X130201835Y-109883648D01*
X130200500Y-109874624D01*
X130200500Y-109815326D01*
X130185966Y-109742260D01*
X130179480Y-109732554D01*
X130175870Y-109708148D01*
X130178667Y-109688107D01*
X130176504Y-109667992D01*
X130183977Y-109642539D01*
X130185962Y-109637745D01*
X130185966Y-109637740D01*
X130186699Y-109634059D01*
X130197451Y-109580000D01*
X130200500Y-109564674D01*
X130200500Y-109415326D01*
X130200500Y-109415323D01*
X130200499Y-109415321D01*
X130185968Y-109342267D01*
X130185966Y-109342264D01*
X130185966Y-109342260D01*
X130185963Y-109342256D01*
X130183977Y-109337461D01*
X130176504Y-109267992D01*
X130183977Y-109242539D01*
X130185962Y-109237745D01*
X130185966Y-109237740D01*
X130200500Y-109164674D01*
X130200500Y-109015326D01*
X130200500Y-109015323D01*
X130200499Y-109015321D01*
X130185968Y-108942267D01*
X130185966Y-108942264D01*
X130185966Y-108942260D01*
X130185963Y-108942256D01*
X130183977Y-108937461D01*
X130175870Y-108871852D01*
X130179480Y-108847445D01*
X130185966Y-108837740D01*
X130200500Y-108764674D01*
X130200500Y-108705375D01*
X130201835Y-108696352D01*
X130212810Y-108672577D01*
X130220185Y-108647461D01*
X130227217Y-108641367D01*
X130231119Y-108632915D01*
X130253207Y-108618846D01*
X130272989Y-108601706D01*
X130283819Y-108599349D01*
X130290051Y-108595381D01*
X130301841Y-108595429D01*
X130324500Y-108590500D01*
X130628708Y-108590500D01*
X130695747Y-108610185D01*
X130741502Y-108662989D01*
X130748483Y-108682406D01*
X130757873Y-108717452D01*
X130757874Y-108717453D01*
X130823765Y-108831579D01*
X130916951Y-108924765D01*
X131031079Y-108990657D01*
X131158373Y-109024765D01*
X131158375Y-109024765D01*
X131290155Y-109024765D01*
X131290157Y-109024765D01*
X131417451Y-108990657D01*
X131531579Y-108924765D01*
X131624765Y-108831579D01*
X131690657Y-108717451D01*
X131724765Y-108590157D01*
X131724765Y-108458373D01*
X131724763Y-108458369D01*
X131724464Y-108456092D01*
X131724765Y-108454161D01*
X131724765Y-108450246D01*
X131725376Y-108450246D01*
X131735228Y-108387056D01*
X131781606Y-108334799D01*
X131815307Y-108320129D01*
X131842423Y-108312864D01*
X131956551Y-108246972D01*
X132049737Y-108153786D01*
X132115629Y-108039658D01*
X132149737Y-107912364D01*
X132149737Y-107780580D01*
X132115629Y-107653286D01*
X132113624Y-107649814D01*
X132074582Y-107582191D01*
X132049737Y-107539158D01*
X131956551Y-107445972D01*
X131882740Y-107403357D01*
X131842424Y-107380080D01*
X131731449Y-107350345D01*
X131715129Y-107345972D01*
X131583345Y-107345972D01*
X131456049Y-107380080D01*
X131341923Y-107445972D01*
X131341920Y-107445974D01*
X131248735Y-107539159D01*
X131247330Y-107540991D01*
X131245751Y-107542143D01*
X131242990Y-107544905D01*
X131242559Y-107544474D01*
X131190901Y-107582191D01*
X131148958Y-107589500D01*
X130324500Y-107589500D01*
X130257461Y-107569815D01*
X130211706Y-107517011D01*
X130201835Y-107483648D01*
X130200500Y-107474624D01*
X130200500Y-107415326D01*
X130185966Y-107342260D01*
X130179480Y-107332554D01*
X130175870Y-107308148D01*
X130178667Y-107288107D01*
X130176504Y-107267992D01*
X130183977Y-107242539D01*
X130185962Y-107237745D01*
X130185966Y-107237740D01*
X130186150Y-107236819D01*
X130199477Y-107169815D01*
X130200500Y-107164674D01*
X130200500Y-107114500D01*
X130220185Y-107047461D01*
X130272989Y-107001706D01*
X130324500Y-106990500D01*
X130349560Y-106990500D01*
X130349562Y-106990500D01*
X130425989Y-106970021D01*
X130494511Y-106930460D01*
X130494517Y-106930453D01*
X130500156Y-106926128D01*
X130565324Y-106900930D01*
X130575647Y-106900500D01*
X132524167Y-106900500D01*
X132591206Y-106920185D01*
G37*
%TD.AperFunction*%
%TA.AperFunction,Conductor*%
G36*
X151375270Y-106246717D02*
G01*
X151375270Y-106246716D01*
X151414622Y-106192554D01*
X151511095Y-106003217D01*
X151557569Y-105860185D01*
X151597006Y-105802510D01*
X151661365Y-105775311D01*
X151730211Y-105787225D01*
X151781687Y-105834469D01*
X151799500Y-105898503D01*
X151799500Y-107611496D01*
X151779815Y-107678535D01*
X151727011Y-107724290D01*
X151657853Y-107734234D01*
X151594297Y-107705209D01*
X151557569Y-107649814D01*
X151511095Y-107506782D01*
X151414624Y-107317449D01*
X151375270Y-107263282D01*
X151375269Y-107263282D01*
X150742962Y-107895590D01*
X150725925Y-107832007D01*
X150660099Y-107717993D01*
X150567007Y-107624901D01*
X150452993Y-107559075D01*
X150389409Y-107542037D01*
X151021716Y-106909728D01*
X150967550Y-106870375D01*
X150957954Y-106865486D01*
X150907157Y-106817512D01*
X150890361Y-106749692D01*
X150912897Y-106683556D01*
X150957954Y-106644514D01*
X150967554Y-106639622D01*
X151021716Y-106600270D01*
X151021717Y-106600270D01*
X150389408Y-105967962D01*
X150452993Y-105950925D01*
X150567007Y-105885099D01*
X150660099Y-105792007D01*
X150725925Y-105677993D01*
X150742962Y-105614408D01*
X151375270Y-106246717D01*
G37*
%TD.AperFunction*%
%TA.AperFunction,Conductor*%
G36*
X151375270Y-101166717D02*
G01*
X151375270Y-101166716D01*
X151414622Y-101112554D01*
X151511095Y-100923217D01*
X151557569Y-100780185D01*
X151597006Y-100722510D01*
X151661365Y-100695311D01*
X151730211Y-100707225D01*
X151781687Y-100754469D01*
X151799500Y-100818503D01*
X151799500Y-105071496D01*
X151779815Y-105138535D01*
X151727011Y-105184290D01*
X151657853Y-105194234D01*
X151594297Y-105165209D01*
X151557569Y-105109814D01*
X151511095Y-104966782D01*
X151414624Y-104777449D01*
X151375270Y-104723282D01*
X151375269Y-104723282D01*
X150742962Y-105355590D01*
X150725925Y-105292007D01*
X150660099Y-105177993D01*
X150567007Y-105084901D01*
X150452993Y-105019075D01*
X150389409Y-105002037D01*
X151021716Y-104369728D01*
X150967550Y-104330375D01*
X150778216Y-104233904D01*
X150602026Y-104176656D01*
X150544350Y-104137218D01*
X150517152Y-104072860D01*
X150529067Y-104004013D01*
X150576311Y-103952538D01*
X150592882Y-103944168D01*
X150757598Y-103875941D01*
X150929655Y-103760977D01*
X151075977Y-103614655D01*
X151190941Y-103442598D01*
X151270130Y-103251420D01*
X151310500Y-103048465D01*
X151310500Y-102841535D01*
X151270130Y-102638580D01*
X151190941Y-102447402D01*
X151075977Y-102275345D01*
X151075975Y-102275342D01*
X150929657Y-102129024D01*
X150831071Y-102063152D01*
X150757598Y-102014059D01*
X150757593Y-102014057D01*
X150695891Y-101988499D01*
X150592890Y-101945834D01*
X150538488Y-101901994D01*
X150516423Y-101835700D01*
X150533702Y-101768001D01*
X150584839Y-101720390D01*
X150602026Y-101713343D01*
X150778217Y-101656095D01*
X150967554Y-101559622D01*
X151021716Y-101520270D01*
X151021717Y-101520270D01*
X150389408Y-100887962D01*
X150452993Y-100870925D01*
X150567007Y-100805099D01*
X150660099Y-100712007D01*
X150725925Y-100597993D01*
X150742962Y-100534408D01*
X151375270Y-101166717D01*
G37*
%TD.AperFunction*%
%TD*%
M02*
