%TF.GenerationSoftware,KiCad,Pcbnew,10.0.3*%
%TF.CreationDate,2026-06-04T08:51:03-06:00*%
%TF.ProjectId,rp2040-target,72703230-3430-42d7-9461-726765742e6b,rev?*%
%TF.SameCoordinates,Original*%
%TF.FileFunction,Paste,Top*%
%TF.FilePolarity,Positive*%
%FSLAX46Y46*%
G04 Gerber Fmt 4.6, Leading zero omitted, Abs format (unit mm)*
G04 Created by KiCad (PCBNEW 10.0.3) date 2026-06-04 08:51:03*
%MOMM*%
%LPD*%
G01*
G04 APERTURE LIST*
G04 Aperture macros list*
%AMRoundRect*
0 Rectangle with rounded corners*
0 $1 Rounding radius*
0 $2 $3 $4 $5 $6 $7 $8 $9 X,Y pos of 4 corners*
0 Add a 4 corners polygon primitive as box body*
4,1,4,$2,$3,$4,$5,$6,$7,$8,$9,$2,$3,0*
0 Add four circle primitives for the rounded corners*
1,1,$1+$1,$2,$3*
1,1,$1+$1,$4,$5*
1,1,$1+$1,$6,$7*
1,1,$1+$1,$8,$9*
0 Add four rect primitives between the rounded corners*
20,1,$1+$1,$2,$3,$4,$5,0*
20,1,$1+$1,$4,$5,$6,$7,0*
20,1,$1+$1,$6,$7,$8,$9,0*
20,1,$1+$1,$8,$9,$2,$3,0*%
G04 Aperture macros list end*
%ADD10RoundRect,0.140000X0.170000X-0.140000X0.170000X0.140000X-0.170000X0.140000X-0.170000X-0.140000X0*%
%ADD11RoundRect,0.140000X0.140000X0.170000X-0.140000X0.170000X-0.140000X-0.170000X0.140000X-0.170000X0*%
%ADD12RoundRect,0.162500X-0.650000X-0.162500X0.650000X-0.162500X0.650000X0.162500X-0.650000X0.162500X0*%
%ADD13RoundRect,0.135000X-0.135000X-0.185000X0.135000X-0.185000X0.135000X0.185000X-0.135000X0.185000X0*%
%ADD14RoundRect,0.140000X-0.170000X0.140000X-0.170000X-0.140000X0.170000X-0.140000X0.170000X0.140000X0*%
%ADD15RoundRect,0.237500X0.250000X0.237500X-0.250000X0.237500X-0.250000X-0.237500X0.250000X-0.237500X0*%
%ADD16RoundRect,0.250000X1.425000X-0.362500X1.425000X0.362500X-1.425000X0.362500X-1.425000X-0.362500X0*%
%ADD17RoundRect,0.225000X-0.225000X-0.250000X0.225000X-0.250000X0.225000X0.250000X-0.225000X0.250000X0*%
%ADD18RoundRect,0.249999X-0.395001X-0.395001X0.395001X-0.395001X0.395001X0.395001X-0.395001X0.395001X0*%
%ADD19RoundRect,0.050000X-0.387500X-0.050000X0.387500X-0.050000X0.387500X0.050000X-0.387500X0.050000X0*%
%ADD20RoundRect,0.050000X-0.050000X-0.387500X0.050000X-0.387500X0.050000X0.387500X-0.050000X0.387500X0*%
%ADD21RoundRect,0.135000X-0.185000X0.135000X-0.185000X-0.135000X0.185000X-0.135000X0.185000X0.135000X0*%
G04 APERTURE END LIST*
D10*
%TO.C,C11*%
X136700000Y-99200000D03*
X136700000Y-98240000D03*
%TD*%
%TO.C,C3*%
X123000000Y-87980000D03*
X123000000Y-87020000D03*
%TD*%
D11*
%TO.C,C5*%
X136600000Y-113770000D03*
X135640000Y-113770000D03*
%TD*%
D12*
%TO.C,U2*%
X113912500Y-90595000D03*
X113912500Y-91865000D03*
X113912500Y-93135000D03*
X113912500Y-94405000D03*
X121087500Y-94405000D03*
X121087500Y-93135000D03*
X121087500Y-91865000D03*
X121087500Y-90595000D03*
%TD*%
D11*
%TO.C,C6*%
X136600000Y-111800000D03*
X135640000Y-111800000D03*
%TD*%
D13*
%TO.C,R4*%
X110380000Y-117800000D03*
X111400000Y-117800000D03*
%TD*%
D14*
%TO.C,C12*%
X134700000Y-92800000D03*
X134700000Y-93760000D03*
%TD*%
D15*
%TO.C,R3*%
X118325000Y-87500000D03*
X116500000Y-87500000D03*
%TD*%
D16*
%TO.C,R1*%
X140300000Y-94262500D03*
X140300000Y-88337500D03*
%TD*%
D17*
%TO.C,C9*%
X128925000Y-102400000D03*
X130475000Y-102400000D03*
%TD*%
D18*
%TO.C,U3*%
X125325000Y-108490000D03*
X125325000Y-110090000D03*
X126925000Y-108490000D03*
X126925000Y-110090000D03*
D19*
X122687500Y-106690000D03*
X122687500Y-107090000D03*
X122687500Y-107490000D03*
X122687500Y-107890000D03*
X122687500Y-108290000D03*
X122687500Y-108690000D03*
X122687500Y-109090000D03*
X122687500Y-109490000D03*
X122687500Y-109890000D03*
X122687500Y-110290000D03*
X122687500Y-110690000D03*
X122687500Y-111090000D03*
X122687500Y-111490000D03*
X122687500Y-111890000D03*
D20*
X123525000Y-112727500D03*
X123925000Y-112727500D03*
X124325000Y-112727500D03*
X124725000Y-112727500D03*
X125125000Y-112727500D03*
X125525000Y-112727500D03*
X125925000Y-112727500D03*
X126325000Y-112727500D03*
X126725000Y-112727500D03*
X127125000Y-112727500D03*
X127525000Y-112727500D03*
X127925000Y-112727500D03*
X128325000Y-112727500D03*
X128725000Y-112727500D03*
D19*
X129562500Y-111890000D03*
X129562500Y-111490000D03*
X129562500Y-111090000D03*
X129562500Y-110690000D03*
X129562500Y-110290000D03*
X129562500Y-109890000D03*
X129562500Y-109490000D03*
X129562500Y-109090000D03*
X129562500Y-108690000D03*
X129562500Y-108290000D03*
X129562500Y-107890000D03*
X129562500Y-107490000D03*
X129562500Y-107090000D03*
X129562500Y-106690000D03*
D20*
X128725000Y-105852500D03*
X128325000Y-105852500D03*
X127925000Y-105852500D03*
X127525000Y-105852500D03*
X127125000Y-105852500D03*
X126725000Y-105852500D03*
X126325000Y-105852500D03*
X125925000Y-105852500D03*
X125525000Y-105852500D03*
X125125000Y-105852500D03*
X124725000Y-105852500D03*
X124325000Y-105852500D03*
X123925000Y-105852500D03*
X123525000Y-105852500D03*
%TD*%
D21*
%TO.C,R5*%
X111400000Y-119990000D03*
X111400000Y-121010000D03*
%TD*%
D10*
%TO.C,C10*%
X134600000Y-99200000D03*
X134600000Y-98240000D03*
%TD*%
D11*
%TO.C,C7*%
X136600000Y-109830000D03*
X135640000Y-109830000D03*
%TD*%
D17*
%TO.C,C8*%
X128925000Y-104200000D03*
X130475000Y-104200000D03*
%TD*%
D11*
%TO.C,C4*%
X136600000Y-115740000D03*
X135640000Y-115740000D03*
%TD*%
M02*
