%TF.GenerationSoftware,KiCad,Pcbnew,10.0.3*%
%TF.CreationDate,2026-06-02T10:50:19-06:00*%
%TF.ProjectId,rp2040-target,72703230-3430-42d7-9461-726765742e6b,rev?*%
%TF.SameCoordinates,Original*%
%TF.FileFunction,Soldermask,Bot*%
%TF.FilePolarity,Negative*%
%FSLAX46Y46*%
G04 Gerber Fmt 4.6, Leading zero omitted, Abs format (unit mm)*
G04 Created by KiCad (PCBNEW 10.0.3) date 2026-06-02 10:50:19*
%MOMM*%
%LPD*%
G01*
G04 APERTURE LIST*
%ADD10R,1.700000X1.700000*%
%ADD11C,1.700000*%
G04 APERTURE END LIST*
D10*
%TO.C,Y1*%
X102000000Y-85160000D03*
D11*
X102000000Y-87700000D03*
X102000000Y-90240000D03*
X102000000Y-92780000D03*
X102000000Y-95320000D03*
X102000000Y-97860000D03*
X102000000Y-100400000D03*
X102000000Y-102940000D03*
X102000000Y-105480000D03*
X102000000Y-108020000D03*
X102000000Y-110560000D03*
X102000000Y-113100000D03*
X102000000Y-115640000D03*
X102000000Y-118180000D03*
X102000000Y-120720000D03*
X102000000Y-123260000D03*
X102000000Y-125800000D03*
X102000000Y-128340000D03*
X102000000Y-130880000D03*
X102000000Y-133420000D03*
D10*
X102000000Y-138500000D03*
D11*
X104540000Y-138500000D03*
X107080000Y-138500000D03*
X109620000Y-138500000D03*
X112160000Y-138500000D03*
X114700000Y-138500000D03*
X117240000Y-138500000D03*
X119780000Y-138500000D03*
X122320000Y-138500000D03*
X124860000Y-138500000D03*
X127400000Y-138500000D03*
X129940000Y-138500000D03*
X132480000Y-138500000D03*
X135020000Y-138500000D03*
X137560000Y-138500000D03*
X140100000Y-138500000D03*
X142640000Y-138500000D03*
X145180000Y-138500000D03*
X147720000Y-138500000D03*
X150260000Y-138500000D03*
D10*
X150260000Y-85165000D03*
D11*
X150260000Y-87705000D03*
X150260000Y-90245000D03*
X150260000Y-92785000D03*
X150260000Y-95325000D03*
X150260000Y-97865000D03*
X150260000Y-100405000D03*
X150260000Y-102945000D03*
X150260000Y-105485000D03*
X150260000Y-108025000D03*
X150260000Y-110565000D03*
X150260000Y-113105000D03*
X150260000Y-115645000D03*
X150260000Y-118185000D03*
X150260000Y-120725000D03*
X150260000Y-123265000D03*
X150260000Y-125805000D03*
X150260000Y-128345000D03*
X150260000Y-130885000D03*
X150260000Y-133425000D03*
%TD*%
M02*
